<svg xmlns="http://www.w3.org/2000/svg" width="802" height="200" fill="none"><path d="M64.012 27.25c15.193-27.323 53.891-27.323 69.084 0 0 0 1.421 2.329 2.159 3.91 6.309 13.51-.061 22.737-6.802 37.582-3.445 7.585-8.2 14.628-13.424 21.767a728.056 728.056 0 0 1-4.238 5.712c-3.914 5.241-7.941 10.632-11.487 16.148-9.908 15.415-16.814 32.898-10.859 56.193 2.91 11.384 7.854 19.265 13.313 24.68H39.742c-30.392 0-49.504-33.324-34.542-60.23L64.012 27.249Z" fill="#6A4CFF"/><path d="M175.453 188.877c-5.33 2.773-11.438 4.368-18.087 4.368h-32.22c-3.255 0-6.552-.444-9.385-2.047-5.921-3.351-13.292-10.262-17.053-24.975-5.073-19.844.567-34.588 9.621-48.674 3.343-5.2 7.052-10.167 10.893-15.31a770.924 770.924 0 0 0 4.492-6.055c5.32-7.271 10.568-14.977 14.441-23.506 3.829-8.432 5.979-16.415 7.044-23.659l46.708 83.997c11.221 20.179 3.277 43.968-14.218 54.602a38.42 38.42 0 0 1-2.236 1.259Z" fill="#4CC4FF"/><path d="M328.187 154h22.175L310.448 49.189h-23.653L246.585 154h21.583l8.722-23.948h42.575L328.187 154Zm-30.009-82.194 14.487 39.619H283.69l14.488-39.618ZM381.95 154V81.268h-19.661V154h19.661Zm-22.027-96.533c0 6.505 5.47 11.974 12.122 11.974 6.801 0 12.122-5.47 12.122-11.974 0-6.8-5.321-12.27-12.122-12.27-6.652 0-12.122 5.47-12.122 12.27Zm87.426 23.505c-1.479-.148-2.957-.296-4.583-.296-6.209 0-16.261 1.774-20.696 11.383V81.268H403V154h19.661v-33.262c0-15.67 8.722-20.548 18.774-20.548 1.774 0 3.696.148 5.914.591V80.972ZM480.84 154v-42.575c0-7.983 5.026-14.34 13.601-14.34 8.869 0 12.861 5.914 12.861 13.749V154h19.513v-42.575c0-7.835 5.027-14.34 13.453-14.34 9.018 0 12.861 5.914 12.861 13.749V154h19.07v-47.158c0-19.513-12.861-27.644-26.314-27.644-9.609 0-17.296 3.252-23.061 12.122-3.696-7.835-11.679-12.122-21.583-12.122-7.983 0-17.296 3.844-21.288 10.94v-8.87h-18.774V154h19.661Zm125.618-44.645c.443-6.652 6.061-14.34 16.261-14.34 11.235 0 15.966 7.097 16.261 14.34h-32.522Zm34.444 18.923c-2.365 6.504-7.391 11.087-16.557 11.087-9.757 0-17.887-6.948-18.331-16.557h52.036c0-.296.296-3.252.296-6.061 0-23.357-13.453-37.697-35.923-37.697-18.626 0-35.775 15.079-35.775 38.288 0 24.54 17.592 38.879 37.549 38.879 17.888 0 29.418-10.495 33.114-23.061l-16.409-4.878Zm47.266-18.923c.444-6.652 6.061-14.34 16.262-14.34 11.235 0 15.965 7.097 16.261 14.34h-32.523Zm34.445 18.923c-2.365 6.504-7.392 11.087-16.557 11.087-9.757 0-17.888-6.948-18.331-16.557h52.036c0-.296.296-3.252.296-6.061 0-23.357-13.453-37.697-35.923-37.697-18.627 0-35.775 15.079-35.775 38.288 0 24.54 17.592 38.879 37.549 38.879 17.887 0 29.418-10.495 33.114-23.061l-16.409-4.878Zm57.171-68.741h-17.74v10.2c0 6.504-3.548 11.53-11.235 11.53h-3.696v17.445h13.157v33.853c0 14.043 8.87 22.47 23.062 22.47 5.765 0 9.313-1.035 11.087-1.774V137c-1.035.295-3.696.591-6.061.591-5.618 0-8.574-2.07-8.574-8.426V98.712h14.635V81.268h-14.635V59.537Z" fill="#FCFCFC"/></svg>