<svg width="166" height="126" fill="none" xmlns="http://www.w3.org/2000/svg"><path d="M115 39c7.732 0 14-5.596 14-12.5S122.732 14 115 14s-14 5.596-14 12.5S107.268 39 115 39Z" fill="#fff"/><path fill-rule="evenodd" clip-rule="evenodd" d="M116.978 6.686a84.692 84.692 0 0 1 4.427 1.97 10.138 10.138 0 0 1 6.916-3.041 10.137 10.137 0 0 1 1.317 7.57c17.261 10.785 30.331 27.594 36.232 47.462h-6.42a33.88 33.88 0 0 0-30.749-19.55c-18.704 0-33.866 15.08-33.866 33.682a33.5 33.5 0 0 0 1.445 9.763H84.966V74.119H81.61v10.423H71.417V74.119H57.992v10.423H47.796V74.119H44.44v10.423H34.244V74.119H27.53v10.423H0C0 38.036 37.905.336 84.664.336a85.117 85.117 0 0 1 23.891 3.4 10.194 10.194 0 0 1 4.471-3.672 10.158 10.158 0 0 1 3.952 6.622Zm-2.174 27.669c4.676 0 8.466-3.77 8.466-8.42 0-4.651-3.79-8.421-8.466-8.421-4.676 0-8.467 3.77-8.467 8.42s3.791 8.42 8.467 8.42Zm3.048-2.358a3.377 3.377 0 0 1-3.387-3.368 3.377 3.377 0 0 1 3.387-3.368 3.377 3.377 0 0 1 3.386 3.368 3.377 3.377 0 0 1-3.386 3.368Z" fill="#FB5252"/><path fill-rule="evenodd" clip-rule="evenodd" d="M.324 125V92.297h11.208c1.767 0 3.354.176 4.762.528 1.407.352 2.598.887 3.571 1.606a7.04 7.04 0 0 1 2.235 2.751c.517 1.116.775 2.437.775 3.964 0 1.498-.404 2.846-1.213 4.043-.808 1.198-1.991 2.127-3.549 2.786.944.254 1.764.625 2.46 1.111a6.868 6.868 0 0 1 1.73 1.719 7.272 7.272 0 0 1 1.021 2.178 9.02 9.02 0 0 1 .337 2.471c0 1.572-.258 2.954-.775 4.144a7.803 7.803 0 0 1-2.246 2.987c-.98.802-2.171 1.404-3.571 1.809-1.4.404-2.984.606-4.75.606H.323Zm5.683-14.757v10.22h6.311c.929 0 1.749-.12 2.46-.359.711-.24 1.306-.581 1.786-1.022.479-.442.838-.97 1.078-1.584.24-.614.359-1.295.359-2.044 0-1.617-.427-2.89-1.28-3.818-.854-.929-2.239-1.393-4.156-1.393H6.007Zm0-4.178h5.57c1.767 0 3.148-.4 4.144-1.201s1.494-1.936 1.494-3.403c0-1.617-.46-2.785-1.381-3.504-.921-.719-2.355-1.078-4.302-1.078H6.007v9.186Zm47.258-13.768v21.877c0 1.872-.319 3.511-.955 4.919-.636 1.407-1.509 2.583-2.617 3.526-1.108.944-2.403 1.651-3.885 2.123-1.483.471-3.07.707-4.762.707-1.752 0-3.373-.236-4.863-.707-1.49-.472-2.781-1.179-3.874-2.123-1.093-.943-1.947-2.119-2.561-3.526-.614-1.408-.92-3.047-.92-4.919V92.297h5.66v21.877c0 1.168.153 2.175.46 3.021.307.846.745 1.546 1.314 2.1a5.218 5.218 0 0 0 2.066 1.224c.809.262 1.715.393 2.718.393s1.913-.131 2.729-.393c.816-.262 1.505-.67 2.066-1.224.562-.554.996-1.254 1.303-2.1.307-.846.46-1.853.46-3.021V92.297h5.66Zm31.13 28.458c-.344.449-.823.947-1.437 1.494-.614.546-1.404 1.055-2.37 1.527-.965.472-2.126.868-3.481 1.19-1.355.322-2.946.483-4.773.483-2.052 0-3.934-.352-5.649-1.055a12.242 12.242 0 0 1-4.413-3.055c-1.228-1.333-2.183-2.972-2.864-4.919-.682-1.947-1.022-4.17-1.022-6.671v-2.156c0-2.486.307-4.706.92-6.66.615-1.954 1.498-3.605 2.651-4.953a11.248 11.248 0 0 1 4.223-3.077c1.662-.704 3.548-1.055 5.66-1.055 1.991 0 3.728.258 5.21.775 1.483.516 2.734 1.239 3.752 2.167a10.11 10.11 0 0 1 2.403 3.313c.584 1.28.973 2.684 1.168 4.211h-5.57a9.592 9.592 0 0 0-.674-2.358 5.738 5.738 0 0 0-1.292-1.864c-.546-.524-1.22-.936-2.021-1.236-.801-.299-1.756-.449-2.864-.449-1.332 0-2.49.247-3.47.741a6.474 6.474 0 0 0-2.448 2.168c-.652.951-1.138 2.119-1.46 3.504-.322 1.385-.483 2.961-.483 4.728v2.201c0 1.797.195 3.388.584 4.773.39 1.385.947 2.549 1.673 3.493a7.22 7.22 0 0 0 2.65 2.156c1.041.494 2.22.741 3.538.741.973 0 1.808-.064 2.504-.191.697-.127 1.284-.288 1.764-.483a5.189 5.189 0 0 0 1.179-.64c.307-.232.558-.453.752-.662v-6.402h-6.738v-4.312h12.398v12.533Zm23.337-4.178c0-.659-.097-1.246-.292-1.763-.194-.517-.55-.992-1.066-1.426-.517-.435-1.228-.85-2.134-1.247-.906-.397-2.07-.812-3.493-1.246a33.767 33.767 0 0 1-4.312-1.595c-1.318-.599-2.452-1.295-3.403-2.089a8.95 8.95 0 0 1-2.235-2.74c-.54-1.034-.809-2.216-.809-3.549 0-1.318.281-2.53.843-3.639a8.623 8.623 0 0 1 2.37-2.875c1.017-.808 2.238-1.437 3.66-1.886 1.423-.45 2.995-.674 4.717-.674 1.842 0 3.497.265 4.964.797 1.467.532 2.707 1.254 3.717 2.168a9.33 9.33 0 0 1 3.134 7.03h-5.661c0-.794-.123-1.524-.37-2.19a4.549 4.549 0 0 0-1.134-1.73c-.51-.486-1.153-.864-1.932-1.134-.779-.27-1.7-.404-2.763-.404-1.003 0-1.871.112-2.605.337-.734.224-1.344.539-1.83.943a3.722 3.722 0 0 0-1.079 1.438 4.605 4.605 0 0 0-.348 1.796c0 1.213.573 2.224 1.718 3.033 1.146.808 2.894 1.557 5.245 2.246 1.842.539 3.436 1.138 4.784 1.797 1.348.658 2.467 1.403 3.358 2.234.891.832 1.553 1.767 1.988 2.808.434 1.041.651 2.212.651 3.515 0 1.378-.273 2.617-.82 3.718a7.934 7.934 0 0 1-2.336 2.807c-1.01.771-2.235 1.363-3.672 1.775-1.438.411-3.04.617-4.807.617-1.572 0-3.122-.213-4.65-.64-1.526-.427-2.897-1.071-4.11-1.932a10.062 10.062 0 0 1-2.93-3.223c-.742-1.287-1.112-2.8-1.112-4.537h5.682c0 1.033.184 1.921.55 2.662a4.97 4.97 0 0 0 1.505 1.819c.637.472 1.39.816 2.258 1.033a11.55 11.55 0 0 0 2.807.326c1.977 0 3.463-.401 4.459-1.202.996-.801 1.493-1.86 1.493-3.178Zm29.784-6.177h-13.432v10.063h15.7V125h-21.383V92.297h21.226v4.582h-15.543v9.029h13.432v4.492Zm26.009 0h-13.431v10.063h15.7V125h-21.383V92.297h21.226v4.582h-15.543v9.029h13.431v4.492Z" fill="#fff"/></svg>