<svg xmlns="http://www.w3.org/2000/svg" width="1281.565" height="420.926"><defs><linearGradient id="a" y1=".5" x2="1" y2=".5" gradientUnits="objectBoundingBox"><stop offset="0" stop-color="#ed722f"/><stop offset=".269" stop-color="#ed8225"/><stop offset=".71" stop-color="#ed9718"/><stop offset="1" stop-color="#ee9f14"/></linearGradient></defs><g data-name="Group 1"><text transform="translate(408.565 156)" fill="#fff" font-size="202.962" font-family="Helvetica" letter-spacing=".06em"><tspan x="0" y="0">CODING</tspan></text><text transform="translate(409.201 370.926)" fill="#fff" font-size="217.772" font-family="Helvetica" letter-spacing=".08em"><tspan x="0" y="0">NINJAS</tspan></text><path data-name="Path 1" d="M221.727 941.188h193.685v-91.046H222.037a150.805 150.805 0 0 0-88.062 22.7 128.121 128.121 0 0 0-49.025 62.639c-9.987 29.96-15.434 60.827-14.526 91.7-.908 30.867 4.539 62.642 14.526 91.694a128.117 128.117 0 0 0 49.025 62.642 150.8 150.8 0 0 0 88.062 22.7h193.375v-101.17H221.727c-24.552 0-41.829-7.275-52.741-20.914s-17.277-33.645-17.277-60.016c0-53.649 22.733-80.929 70.018-80.929Z" fill="url(#a)" transform="translate(-70.326 -835.482)"/><path data-name="Path 2" d="m117.574 172.518 90.79 17.345s-66.59 69.209-90.79-17.345Z" fill="#fff" fill-rule="evenodd"/><path data-name="Path 3" d="m330.474 172.827-88.016 18.263s76.228 68.479 88.016-18.263Z" fill="#fff" fill-rule="evenodd"/></g></svg>