<svg fill="none" height="67" width="241" xmlns="http://www.w3.org/2000/svg"><path d="M0 12.465h17.525a27.342 27.342 0 0 1 12.314 2.56 18.129 18.129 0 0 1 7.913 7.428 23.066 23.066 0 0 1 2.748 11.53 23.405 23.405 0 0 1-2.723 11.603 17.968 17.968 0 0 1-7.886 7.427 27.507 27.507 0 0 1-12.36 2.56H0zm16.42 33.76a12.73 12.73 0 0 0 9.375-3.116 12.682 12.682 0 0 0 3.111-9.39 12.579 12.579 0 0 0-3.11-9.391 12.809 12.809 0 0 0-9.375-3.033h-5.533v24.93zm57.206-3.635H54.96a6.58 6.58 0 0 0 2.25 4.201 7.483 7.483 0 0 0 4.714 1.272c3.021-.04 5.96-.993 8.43-2.737l2.754 7.08a17.616 17.616 0 0 1-5.419 2.596c-2.046.62-4.172.939-6.31.946a19.711 19.711 0 0 1-8.928-1.886 13.491 13.491 0 0 1-5.797-5.427 16.28 16.28 0 0 1-2.064-8.29 16.753 16.753 0 0 1 1.909-8.07 13.794 13.794 0 0 1 5.35-5.543 15.217 15.217 0 0 1 7.778-1.978 13.17 13.17 0 0 1 10.126 4.155 16.675 16.675 0 0 1 3.873 11.083zM54.96 37.394h9.437c-.235-3.57-1.806-5.354-4.713-5.354s-4.482 1.785-4.724 5.354zM98.296 25.45h10.655L95.517 55.574h-8.99L73.304 25.45h11.407l6.62 16.978zm29.772.52h6.741v7.79h-7.259v21.814h-10.889V33.76h-5.185v-7.79h5.553a12.14 12.14 0 0 1 4.148-9.276 19.715 19.715 0 0 1 11.558-3.548l3.743-.234.622 7.723-2.883.114a10.03 10.03 0 0 0-4.77 1.04 3.5 3.5 0 0 0-1.379 3.142zm16.296 28.046a13.738 13.738 0 0 1-5.77-5.448 16.28 16.28 0 0 1-2.028-8.285 16.12 16.12 0 0 1 2.028-8.258 13.64 13.64 0 0 1 5.745-5.38 20.952 20.952 0 0 1 17.385 0 13.643 13.643 0 0 1 5.75 5.38 16.13 16.13 0 0 1 2.027 8.258 16.28 16.28 0 0 1-2.027 8.284 13.792 13.792 0 0 1-5.87 5.449 20.577 20.577 0 0 1-17.333 0zm14.441-13.64c0-5.034-1.924-7.55-5.771-7.55-3.848 0-5.775 2.516-5.782 7.55 0 5.035 1.924 7.553 5.771 7.553 3.848 0 5.773-2.518 5.776-7.552zm15.409 15.198V12.465h10.889v43.109zm17.11-45.186h11.407v9.868h-11.407zm0 45.113V25.45h10.889v30.124zm23.654-1.485a13.746 13.746 0 0 1-5.771-5.448 16.29 16.29 0 0 1-2.027-8.285 16.13 16.13 0 0 1 2.027-8.258 13.646 13.646 0 0 1 5.745-5.38 20.96 20.96 0 0 1 17.385 0 13.64 13.64 0 0 1 5.745 5.38 16.12 16.12 0 0 1 2.028 8.258 16.28 16.28 0 0 1-2.028 8.284 13.792 13.792 0 0 1-5.796 5.449 20.585 20.585 0 0 1-17.334 0zm14.44-13.504c0-5.035-1.923-7.552-5.771-7.552-3.847 0-5.77 2.517-5.77 7.552s1.923 7.552 5.77 7.552c3.848 0 5.763-2.518 5.745-7.552z" fill="#2f4ae4"/></svg>