<svg width="20" height="20" fill="none" xmlns="http://www.w3.org/2000/svg"><path d="M17.857 10h-5v1.429h3.428c-.5 2.142-2.071 3.928-4.143 4.642L3.928 7.857c.857-2.5 3.286-4.286 6.072-4.286 2.143 0 4.071 1.072 5.285 2.715l1.072-.929C14.928 3.43 12.643 2.143 10 2.143c-3.715 0-6.857 2.643-7.643 6.143l9.428 9.428c3.429-.857 6.072-4 6.072-7.714Zm-15.714.071c0 2 .785 3.929 2.285 5.429 1.5 1.5 3.5 2.286 5.429 2.286L2.143 10.07Z" fill="#fff"/><path d="M10 0C4.5 0 0 4.5 0 10s4.5 10 10 10 10-4.5 10-10S15.5 0 10 0ZM4.429 15.571c-1.5-1.5-2.286-3.5-2.286-5.428l7.786 7.714c-2-.071-4-.786-5.5-2.286Zm7.285 2.072L2.357 8.286c.786-3.5 3.929-6.143 7.643-6.143 2.643 0 4.929 1.286 6.357 3.214l-1.071.929C14.07 4.643 12.143 3.57 10 3.57c-2.786 0-5.143 1.786-6.071 4.286l8.214 8.214c2.071-.714 3.643-2.5 4.143-4.642h-3.429V10h5c0 3.714-2.643 6.857-6.143 7.643Z" fill="#639"/></svg>