<svg width="1405" height="272" fill="none" xmlns="http://www.w3.org/2000/svg"><path d="M81.648 57.04c19.008 0 32.16 5.856 39.456 17.568 7.296 11.52 10.944 27.552 10.944 48.096v73.728c0 4.992-1.632 9.216-4.896 12.672-3.264 3.264-7.392 4.896-12.384 4.896s-9.12-1.632-12.384-4.896c-3.264-3.456-4.896-7.68-4.896-12.672v-73.728c0-10.56-2.112-18.816-6.336-24.768-4.032-6.144-11.232-9.216-21.6-9.216-10.752 0-19.2 3.264-25.344 9.792-5.952 6.336-8.928 14.4-8.928 24.192v73.728c0 4.992-1.632 9.216-4.896 12.672C27.12 212.368 22.992 214 18 214s-9.12-1.632-12.384-4.896C2.352 205.648.72 201.424.72 196.432V18.448c0-4.992 1.632-9.12 4.896-12.384C8.88 2.608 13.008.88 18 .88s9.12 1.728 12.384 5.184c3.264 3.264 4.896 7.392 4.896 12.384v63.648c5.184-6.912 11.712-12.768 19.584-17.568 8.064-4.992 16.992-7.488 26.784-7.488ZM282.4 59.92c4.992 0 9.12 1.728 12.384 5.184 3.264 3.264 4.896 7.392 4.896 12.384v122.4c0 24.96-6.72 43.104-20.16 54.432-13.44 11.52-31.392 17.28-53.856 17.28-6.528 0-13.248-.576-20.16-1.728-6.72-.96-12.192-2.304-16.416-4.032-9.408-4.032-14.112-9.6-14.112-16.704 0-1.344.288-2.88.864-4.608 1.152-4.224 3.072-7.488 5.76-9.792 2.88-2.112 5.952-3.168 9.216-3.168 1.92 0 3.744.288 5.472.864 1.344.576 3.648 1.536 6.912 2.88a68 68 0 0 0 10.656 3.168 48.5 48.5 0 0 0 11.808 1.44c13.632 0 23.616-2.976 29.952-8.928 6.528-5.76 9.792-15.744 9.792-29.952v-2.88c-9.984 12.48-25.536 18.72-46.656 18.72-9.984 0-18.816-2.304-26.496-6.912-7.68-4.8-13.632-11.328-17.856-19.584-4.224-8.448-6.336-18.048-6.336-28.8V77.488c0-4.992 1.632-9.12 4.896-12.384 3.264-3.456 7.392-5.184 12.384-5.184s9.12 1.728 12.384 5.184c3.264 3.264 4.896 7.392 4.896 12.384v73.728c0 12.096 2.592 20.832 7.776 26.208 5.376 5.184 13.152 7.776 23.328 7.776 9.984 0 17.664-2.88 23.04-8.64 5.568-5.952 8.352-14.4 8.352-25.344V77.488c0-4.992 1.632-9.12 4.896-12.384 3.264-3.456 7.392-5.184 12.384-5.184Zm134.471-2.88c13.248 0 25.248 3.456 36 10.368 10.752 6.72 19.2 16.128 25.344 28.224 6.336 12.096 9.504 25.824 9.504 41.184 0 15.36-3.072 29.184-9.216 41.472-6.144 12.096-14.592 21.6-25.344 28.512-10.56 6.72-22.272 10.08-35.136 10.08-9.216 0-17.952-1.824-26.208-5.472-8.064-3.84-14.784-8.448-20.16-13.824v56.448c0 4.992-1.632 9.12-4.896 12.384-3.264 3.456-7.392 5.184-12.384 5.184s-9.12-1.632-12.384-4.896c-3.264-3.264-4.896-7.488-4.896-12.672V77.488c0-4.992 1.632-9.12 4.896-12.384 3.264-3.456 7.392-5.184 12.384-5.184s9.12 1.728 12.384 5.184c3.264 3.264 4.896 7.392 4.896 12.384v1.152c4.608-5.76 11.04-10.752 19.296-14.976 8.256-4.416 16.896-6.624 25.92-6.624Zm-4.32 128.16c12.288 0 22.368-4.608 30.24-13.824 7.872-9.216 11.808-20.736 11.808-34.56 0-13.824-3.936-25.248-11.808-34.272-7.68-9.216-17.76-13.824-30.24-13.824-12.48 0-22.656 4.608-30.528 13.824-7.872 9.024-11.808 20.448-11.808 34.272 0 13.824 3.936 25.344 11.808 34.56 7.872 9.216 18.048 13.824 30.528 13.824Zm242.222-51.84c-.192 4.608-2.016 8.352-5.472 11.232-3.456 2.88-7.488 4.32-12.096 4.32h-95.04c2.304 11.328 7.584 20.256 15.84 26.784 8.256 6.336 17.568 9.504 27.936 9.504 7.872 0 14.016-.672 18.432-2.016 4.416-1.536 7.872-3.072 10.368-4.608 2.688-1.728 4.512-2.88 5.472-3.456 3.456-1.728 6.72-2.592 9.792-2.592 4.032 0 7.488 1.44 10.368 4.32 2.88 2.88 4.32 6.24 4.32 10.08 0 5.184-2.688 9.888-8.064 14.112-5.376 4.416-12.576 8.16-21.6 11.232-9.024 3.072-18.144 4.608-27.36 4.608-16.128 0-30.24-3.36-42.336-10.08-11.904-6.72-21.12-15.936-27.648-27.648-6.528-11.904-9.792-25.248-9.792-40.032 0-16.512 3.456-31.008 10.368-43.488 6.912-12.48 16.032-21.984 27.36-28.512 11.328-6.72 23.424-10.08 36.288-10.08 12.672 0 24.576 3.456 35.712 10.368 11.328 6.912 20.352 16.224 27.072 27.936 6.72 11.712 10.08 24.384 10.08 38.016Zm-72.864-44.64c-22.272 0-35.424 10.464-39.456 31.392h75.456v-2.016c-.768-8.064-4.704-14.976-11.808-20.736s-15.168-8.64-24.192-8.64Zm181.75-31.68c5.76 0 10.56 1.632 14.4 4.896 4.032 3.264 6.048 7.104 6.048 11.52 0 5.952-1.536 10.464-4.608 13.536-3.072 2.88-6.72 4.32-10.944 4.32-2.88 0-6.144-.672-9.792-2.016-.576-.192-1.92-.576-4.032-1.152-1.92-.576-4.032-.864-6.336-.864-4.992 0-9.792 1.536-14.4 4.608-4.608 3.072-8.448 7.776-11.52 14.112-2.88 6.144-4.32 13.536-4.32 22.176v68.256c0 4.992-1.632 9.216-4.896 12.672-3.264 3.264-7.392 4.896-12.384 4.896s-9.12-1.632-12.384-4.896c-3.264-3.456-4.896-7.68-4.896-12.672V77.488c0-4.992 1.632-9.12 4.896-12.384 3.264-3.456 7.392-5.184 12.384-5.184s9.12 1.728 12.384 5.184c3.264 3.264 4.896 7.392 4.896 12.384v3.744c4.416-7.872 10.752-13.824 19.008-17.856 8.256-4.224 17.088-6.336 26.496-6.336ZM897.75 12.4c18.048 0 33.504 4.512 46.368 13.536 13.056 8.832 22.944 20.928 29.664 36.288 6.912 15.168 10.368 32.16 10.368 50.976 0 18.816-3.456 35.904-10.368 51.264-6.72 15.168-16.608 27.264-29.664 36.288C931.254 209.584 915.798 214 897.75 214h-68.832c-4.992 0-9.216-1.632-12.672-4.896-3.264-3.456-4.896-7.68-4.896-12.672V29.968c0-4.992 1.632-9.12 4.896-12.384 3.456-3.456 7.68-5.184 12.672-5.184h68.832Zm-2.88 168.48c17.28 0 30.24-6.336 38.88-19.008 8.64-12.864 12.96-29.088 12.96-48.672 0-19.584-4.416-35.712-13.248-48.384-8.64-12.864-21.504-19.296-38.592-19.296h-47.52v135.36h47.52Zm244.18-123.84c4.99 0 9.12 1.632 12.38 4.896 3.27 3.264 4.9 7.488 4.9 12.672v121.824c0 4.992-1.63 9.216-4.9 12.672-3.26 3.264-7.39 4.896-12.38 4.896-4.99 0-9.12-1.632-12.38-4.896-3.08-3.264-4.71-7.392-4.9-12.384-4.8 5.568-11.33 10.368-19.58 14.4-8.07 3.84-16.61 5.76-25.64 5.76-13.24 0-25.24-3.36-36-10.08-10.75-6.912-19.29-16.416-25.63-28.512-6.14-12.096-9.21-25.824-9.21-41.184 0-15.36 3.07-29.088 9.21-41.184 6.15-12.288 14.5-21.792 25.06-28.512 10.75-6.912 22.56-10.368 35.42-10.368 9.22 0 17.86 1.728 25.92 5.184 8.07 3.264 14.88 7.488 20.45 12.672v-.288c0-4.992 1.63-9.12 4.9-12.384 3.26-3.456 7.39-5.184 12.38-5.184Zm-58.18 128.16c12.48 0 22.66-4.512 30.53-13.536 7.87-9.216 11.81-20.736 11.81-34.56 0-13.824-3.94-25.344-11.81-34.56-7.87-9.216-18.05-13.824-30.53-13.824-12.28 0-22.36 4.608-30.24 13.824-7.87 9.216-11.8 20.736-11.8 34.56 0 13.824 3.84 25.344 11.52 34.56 7.87 9.024 18.04 13.536 30.52 13.536Zm192.98-128.16c5.76 0 10.56 1.632 14.4 4.896 4.03 3.264 6.04 7.104 6.04 11.52 0 5.952-1.53 10.464-4.6 13.536-3.08 2.88-6.72 4.32-10.95 4.32-2.88 0-6.14-.672-9.79-2.016-.58-.192-1.92-.576-4.03-1.152-1.92-.576-4.03-.864-6.34-.864-4.99 0-9.79 1.536-14.4 4.608-4.61 3.072-8.45 7.776-11.52 14.112-2.88 6.144-4.32 13.536-4.32 22.176v68.256c0 4.992-1.63 9.216-4.89 12.672-3.27 3.264-7.4 4.896-12.39 4.896s-9.12-1.632-12.38-4.896c-3.27-3.456-4.9-7.68-4.9-12.672V77.488c0-4.992 1.63-9.12 4.9-12.384 3.26-3.456 7.39-5.184 12.38-5.184 4.99 0 9.12 1.728 12.39 5.184 3.26 3.264 4.89 7.392 4.89 12.384v3.744c4.42-7.872 10.75-13.824 19.01-17.856 8.26-4.224 17.09-6.336 26.5-6.336Zm119.11 124.416c2.69 0 5.09 1.344 7.2 4.032 2.31 2.496 3.46 5.856 3.46 10.08 0 5.184-2.88 9.6-8.64 13.248-5.57 3.456-11.91 5.184-19.01 5.184-11.9 0-21.98-2.496-30.24-7.488-8.06-5.184-12.1-16.032-12.1-32.544V94.48h-13.24c-4.61 0-8.45-1.536-11.52-4.608-3.08-3.072-4.61-6.912-4.61-11.52 0-4.416 1.53-8.064 4.61-10.944 3.07-3.072 6.91-4.608 11.52-4.608h13.24V44.368c0-4.992 1.64-9.12 4.9-12.384 3.46-3.456 7.68-5.184 12.67-5.184 4.8 0 8.83 1.728 12.1 5.184 3.26 3.264 4.89 7.392 4.89 12.384V62.8h20.45c4.61 0 8.45 1.536 11.52 4.608 3.07 3.072 4.61 6.912 4.61 11.52 0 4.416-1.54 8.16-4.61 11.232-3.07 2.88-6.91 4.32-11.52 4.32h-20.45v78.048c0 4.032 1.06 7.008 3.17 8.928 2.11 1.728 4.99 2.592 8.64 2.592 1.54 0 3.65-.384 6.34-1.152 2.3-.96 4.51-1.44 6.62-1.44Z" fill="#F05F00"/></svg>