<svg width="507" height="132" fill="none" xmlns="http://www.w3.org/2000/svg"><g clip-path="url(#a)"><path d="M109.65 58.21 91.44 48.14l-15.37 9.38-.19 9.59-7.47-4.92-10.16 6.19-.44-10.48-10.48-7 10-5.17c-.08 0 0 1-1.48-34.34L32.2 0 0 10l7.19 34.63L18 53l-8.22 3.9L15.15 83l7.55 7.09-5.4 3.29 4.19 20.18 16.94 17.94c.08-.1 1.78-1.41 21.79-17.32l-.58-13.71 8.58 7.28c.12-.12 1.84-1.39 17.56-13.89l.61-10.14 6.48 4.5c.13-.12 1.58-1.22 14.26-11.33l2.52-18.68Z" fill="#231F20"/><path d="m94.54 69 15.11-10.79-18.21-10.07-15.37 9.38L94.54 69Z" fill="#000"/><path d="M92.87 88.2 94.54 69 76.07 57.52l-.38 18.75L92.87 88.2Zm-24.65 19.53V87.84L49.56 73.69l1.47 19.54 17.19 14.5Z" fill="#004B16"/><path d="m68.22 87.84 18.74-13.43-18.55-12.22-18.85 11.5 18.66 14.15Z" fill="#000"/><path d="m38.43 131.48-2.98-20.32-18.15-17.8 4.19 20.18 16.94 17.94Z" fill="#004B16"/><path d="M35.45 111.16 59.36 94.1 40.83 79.01 17.3 93.36l18.15 17.8Z" fill="#000"/><path d="m33.9 100.6-3.94-26.88L9.74 56.91l5.41 26.07L33.9 100.6Z" fill="#004B16"/><path d="M29.96 73.72 57.81 57.9l-20.8-13.94L9.74 56.91l20.22 16.81Z" fill="#000"/><path d="m28.07 60.88-5.4-36.81L0 10.01l7.19 34.62 20.88 16.25Z" fill="#004B16"/><path d="m22.67 24.07 33.14-12.7L32.2 0 0 10.01l22.67 14.06Z" fill="#000"/><path d="M107.13 76.87C93.11 88 92.8 88.2 92.87 88.2 94.61 68.1 94.46 69 94.54 69c16-11.45 15-10.79 15.11-10.79l-2.52 18.66ZM85.78 93.84c-17.35 13.8-17.63 13.89-17.56 13.89-.17-20.82-.07-19.89 0-19.89 20-14.3 18.67-13.43 18.74-13.43l-1.18 19.43Zm-25.56 20.32c-21.66 17.22-21.86 17.32-21.79 17.32-3.07-20.94-3-20.32-3-20.32C60.9 93 59.29 94.1 59.36 94.1l.86 20.06ZM55.81 11.37c1.52 35.37 1.4 34.34 1.48 34.34C28.63 60.6 28 60.88 28.07 60.88c-5.52-37.63-5.47-36.81-5.4-36.81l33.14-12.7Zm2 46.53c1.15 26.81 1 25.88 1.11 25.88-24.81 16.67-25.09 16.82-25 16.82-4-27.58-4-26.88-3.94-26.88L57.81 57.9Z" fill="#1CB35C"/><path d="m151.61 14.24 16.58-4v79.88c0 8.753 2.61 13.97 7.83 15.65-2.56 4.873-6.937 7.307-13.13 7.3-7.52 0-11.28-5.22-11.28-15.66V14.24Zm35.05 97.48V54.3h-9.08V40.7h25.86v71l-16.78.02Zm8.56-98.54a9.62 9.62 0 1 1-9.62 9.62 9.63 9.63 0 0 1 9.62-9.62Zm67.72 98.56V70.68c0-6.05-1.16-10.48-3.48-13.26-2.32-2.78-6.11-4.18-11.37-4.18a17.737 17.737 0 0 0-7.8 2.06 18.007 18.007 0 0 0-6.46 5.1v51.34h-16.59v-71h11.94l3 6.64c4.507-5.333 11.173-8 20-8 8.44 0 15.107 2.53 20 7.59 4.893 5.06 7.337 12.123 7.33 21.19v43.58h-16.57Zm25.48-35.68c0-10.84 3.127-19.663 9.38-26.47 6.253-6.807 14.51-10.21 24.77-10.21 10.793 0 19.173 3.273 25.14 9.82 5.967 6.547 8.967 15.5 9 26.86 0 11.333-3.04 20.333-9.12 27-6.08 6.667-14.413 10-25 10-10.787 0-19.177-3.373-25.17-10.12-5.993-6.747-8.993-15.707-9-26.88Zm17.24 0c0 15.647 5.637 23.473 16.91 23.48a14.536 14.536 0 0 0 12.31-6.11c3.033-4.06 4.547-9.85 4.54-17.37 0-15.427-5.617-23.143-16.85-23.15A14.608 14.608 0 0 0 310.24 59c-3.053 4.073-4.58 9.76-4.58 17.06Zm106.71 35.68v-4.31c-1.37 1.5-3.71 2.82-7 3.95a31.325 31.325 0 0 1-10.15 1.69c-9.913 0-17.707-3.14-23.38-9.42-5.673-6.28-8.513-15.037-8.52-26.27 0-11.227 3.26-20.367 9.78-27.42a32.002 32.002 0 0 1 24.51-10.58 32.37 32.37 0 0 1 14.72 3.32V14.24l16.58-4v101.5h-16.54Zm0-54.06a17.6 17.6 0 0 0-11.07-4.24c-6.667 0-11.777 2.023-15.33 6.07-3.553 4.047-5.343 9.85-5.37 17.41 0 14.767 7.12 22.15 21.36 22.15 2.029-.1 4.02-.58 5.87-1.42 2.32-1 3.83-1.92 4.54-2.89V57.68Zm93.18 23.62h-50.74c.307 5.66 2.25 10.06 5.83 13.2 3.58 3.14 8.4 4.707 14.46 4.7 7.56 0 13.31-1.967 17.25-5.9l6.43 12.7c-5.833 4.727-14.543 7.093-26.13 7.1-10.833 0-19.4-3.173-25.7-9.52-6.3-6.347-9.45-15.207-9.45-26.58 0-11.187 3.46-20.253 10.38-27.2a33.913 33.913 0 0 1 24.9-10.41c10.3 0 18.57 3.073 24.81 9.22 6.24 6.147 9.357 13.973 9.35 23.48a46.24 46.24 0 0 1-1.39 9.21ZM455.4 68.83h34.89c-1.153-10.387-6.9-15.583-17.24-15.59-9.467 0-15.35 5.197-17.65 15.59Z" fill="#fff"/></g><defs><clipPath id="a"><path fill="#fff" d="M0 0h506.94v131.5H0z"/></clipPath></defs></svg>