<svg version="1.1" id="Layer_1" xmlns="http://www.w3.org/2000/svg" x="0" y="0" viewBox="0 0 664.3 202.3" style="enable-background:new 0 0 664.3 202.3" xml:space="preserve"><style>.st4{fill:#4b6b9a}.st7{fill:#6db2d8}.st8{fill:#335f8a}</style><g id="Layer_2_1_"><g id="Layer_1-2"><g id="Layer_2-2"><g id="Layer_1-2-2"><path style="fill:#133444" d="m1.9 116.3 4.9-2.1 60-26.1 64.9 28.2-24.4 50.4-59.6 8.4-44.8-48.4z"/><path d="M118.2 85.3a66.632 66.632 0 0 0-42.5-23.5c-.4 0-.7-.1-1.1-.1-5.2-.6-10.4-.6-15.6 0-.4 0-.7.1-1.1.1C41.3 64 26.1 72.4 15.4 85.3l-2.7 4.5-4.5 7.5-3.3 5.5c0 .2-.1.3-.2.4v.1l7.2 4.3 46 27.2 8.9 5.2V75l-8.9 4v-9.7l8.9-4 8.9 4 45.2 20.5-2.7-4.5z" style="fill:#c42370"/><path d="M133.7 132.5c-.1 21.3-9.7 41.4-26.2 54.9-6.3 5.1-13.4 9.1-21.1 11.7-6.3 2.1-12.9 3.2-19.5 3.2-37 0-66.9-32.9-66.9-69.8 0-5.5.7-10.9 2-16.2l64.9 38.4 64.9-38.4c1.2 5.3 1.9 10.7 1.9 16.2z" style="fill:#1c4d6b"/><path d="m59 61.6 7.8 3.6-8.9 4v-8zM57.9 79l8.9-4.1v65l-8.9-5.2z"/><path style="fill:#1d4259" d="M66.8 74.9v65l62.2-36.7z"/><path class="st4" d="M66.8 0v74.9l62.2 28.3z"/><path d="M66.8 74.9v65l-8.9-5.2-53.2-31.5c0-.2.1-.3.2-.4l7.8-12.9 45.2-20.5v9.8l8.9-4.3z" style="fill:#343535"/><path style="fill:#3e5578" d="M66.8 74.9v65l-8.9-5.2-53.2-31.5h-.1l.1-.1L57.9 79z"/><path class="st7" d="M66.8 0v74.9L4.6 103.2z"/><path class="st8" d="M41.6 197c.9.4 1.9.8 2.8 1.2-.9-.4-1.8-.8-2.8-1.2zm2.8 1.1c.9.4 1.9.7 2.9 1-1-.3-1.9-.6-2.9-1zm5.4 1.8c.8.2 1.5.4 2.2.6l-2.2-.6z"/><path class="st7" d="m1.9 116.3 64.9 38.4c-.9 5.8-2.4 11.5-4.7 17-5.2 12.6-15.7 25.8-36 15.7C9.6 173.9 0 153.7-.1 132.4c0-5.4.7-10.8 2-16.1z"/><path d="M107.3 187.5c-.4.3 0 0-1.3 1.1l-.6.4-.9.6-1.1.8c1.1-.8-.9.6-1.3.9-.4.2-.7.4-1.1.7l-.7.5c-.2.1-.5.3-.7.5 0 0-.3.3-.4.3.4-.3-.5.2-.9.5-.5.2-.9.4-1.3.7l-1.4.7-.6.3c-.4.2-.2 0-.6.3s-.9.4-1.4.7 0 0-1.7.8c1.7-.8 0 0-.9.4.9-.4-1.6.6-2.7 1-.4.1-2.6.8-3 .9s-.9.3-1.3.4c-.8.2-1.5.4-2.2.6-.3.1-.6.1-.8.2l-.5.1-1.2.3c-.4.1-.7.1-1.1.2s-.7.1-1 .2-.8.1-1.1.2c-.2 0-.4 0-.5.1l-.8.1h-.4c-.3 0-.6.1-.9.1s-.8.1-1.2.1H61.5c-.4 0-.8-.1-1.2-.1-.3 0-.6 0-.9-.1H59c-.3 0-.6-.1-.8-.1-.2 0-.4 0-.5-.1-.4 0-.7-.1-1.1-.2-.3 0-.7-.1-1-.2-.3-.1-.7-.1-1.1-.2l-1.2-.3-.5-.1c-.3 0-.6-.1-.8-.2-.8-.2-1.5-.4-2.2-.6l-1.3-.4c-.4-.1-.8-.2-1.2-.4-1-.3-1.9-.7-2.9-1s-1.9-.8-2.8-1.2c-.4-.2-.9-.4-1.4-.6-.5-.2-1-.4-1.4-.7-.5-.2-.9-.4-1.3-.7-.4-.2-.9-.5-1.3-.7-.4-.2-.7-.4-1-.6-1-.6-1.6-1-1-.6l-.6-.4-1.1-.7-.4-.2-1-.7c-.4-.3-.8-.5-1.2-.8s-.9-.6-1.3-.9-.8-.7-1.1-.9l-.4-.3c-.4-.2-.7-.5-1-.8 20.3 10.1 30.7-3.3 35.9-15.8 2.2-5.5 3.8-11.2 4.7-17 .9 5.9 2.4 11.7 4.7 17.2 5.4 12.4 15.6 25.7 35.9 15.7z" style="fill:#529bba"/><path class="st8" d="M81.6 200.5c.8-.2 1.5-.4 2.2-.6l-2.2.6zm4.7-1.4zm2.7-.9c.9-.4 2.1-.8 3-1.3-1 .5-2.1.9-3 1.3z"/><path class="st4" d="M133.7 132.5c-.1 21.3-9.7 41.4-26.2 54.9-20.3 10.1-30.8-3.2-36-15.7-2.2-5.5-3.8-11.2-4.7-17l64.9-38.4c1.3 5.3 2 10.7 2 16.2z"/></g></g><path class="st7" d="M205.3 200.3h-22V53.4h22v10.4c8.7-8.7 18.5-13 29.5-13 13.1 0 23.9 4.8 32.3 14.5 8.6 9.6 12.9 21.6 12.9 36.2 0 14.3-4.3 26.1-12.8 35.6-8 9.2-19.8 14.4-32 14.2-11.1 0-21.1-4.5-29.9-13.4v62.4zm52.3-98.8c0-9.1-2.5-16.5-7.4-22.3-4.6-5.6-11.6-8.8-18.9-8.7-8.1 0-14.6 2.8-19.6 8.4s-7.5 13-7.5 22.1c0 8.9 2.5 16.3 7.5 22.1 5 5.8 11.5 8.5 19.5 8.5 7.3.2 14.2-3 18.8-8.6 5-5.7 7.6-12.9 7.6-21.5zm41.2-1.2c-.2-13.2 5.1-26 14.7-35.1 9.5-9.5 22.5-14.7 35.9-14.5 14.2 0 26.2 4.9 36.1 14.6s14.6 21.6 14.6 35.7c0 14.3-4.9 26.2-14.7 35.8s-22 14.4-36.4 14.4-26.2-4.9-35.8-14.6-14.4-21.8-14.4-36.3zm22.5.4c0 9.5 2.5 17 7.6 22.6 5.1 5.6 12.1 8.4 20.6 8.4s15.5-2.8 20.6-8.3c5.1-5.5 7.7-12.9 7.7-22.2s-2.6-16.6-7.7-22.2-12.1-8.4-20.6-8.4-15.2 2.8-20.4 8.4-7.8 12.8-7.8 21.7zm96.2-47.3h22v8.5c4-4.2 7.6-7.1 10.7-8.7 3.5-1.7 7.4-2.5 11.3-2.4 5.8 0 11.8 1.9 18.2 5.7l-10.1 20.1c-4.2-3-8.2-4.5-12.2-4.5-12 0-18 9-18 27.1v49.3h-22l.1-95.1zM521 73.9v74.6h-22V73.9h-9.4V53.4h9.4V18.5h22v34.9h17.1v20.5H521zm28.7-60.1c0-3.8 1.5-7.4 4.2-10 5.6-5.6 14.7-5.6 20.3 0 2.8 2.6 4.3 6.3 4.2 10.1.1 3.8-1.5 7.5-4.2 10.2-2.6 2.8-6.3 4.3-10.1 4.2-3.8.1-7.5-1.5-10.2-4.2-2.8-2.7-4.3-6.4-4.2-10.3zM575 53.4v95.1h-22V53.4h22zm83.1 16.2-18.2 9.7c-2.9-5.9-6.4-8.8-10.6-8.8-1.9 0-3.8.7-5.2 2s-2.2 3.2-2.1 5.1c0 3.6 4.2 7.3 12.7 10.8 11.7 5 19.5 9.6 23.5 13.9s6.1 9.9 6.1 17.1c.2 8.8-3.6 17.2-10.2 23-6.5 5.9-15 9-23.8 8.8-16 0-27.2-7.8-33.9-23.3l18.8-8.7c2.6 4.6 4.6 7.5 6 8.7 2.6 2.4 6 3.8 9.6 3.7 7.4 0 11.1-3.4 11.1-10.2 0-3.9-2.9-7.6-8.6-10.9-2.2-1.1-4.4-2.2-6.6-3.2s-4.5-2.1-6.7-3.2c-6.4-3.1-10.9-6.2-13.5-9.4-3.3-4-5-9.1-5-15.3 0-8.3 2.8-15.1 8.5-20.5s13.3-8.3 21.1-8.1c12-.1 21 6.2 27 18.8z"/></g></g><path d="M631.2 186.9h2.9v-17.3h-2.9v17.3zm0-22.4h2.9v2.9h-2.9zm-134-.2c-3.2 0-6.5 1.2-6.5 4.3 0 2.7 3.1 3.5 6.7 4.1 5 .8 9.9 1.8 9.9 7.4 0 5.6-5.4 7.4-10.1 7.4-4.4 0-8.6-1.6-10.5-5.7l2.6-1.5c1.6 2.9 4.9 4.4 8 4.4 3 0 7-1 7-4.6 0-3.1-3.4-4-7.2-4.5-4.8-.7-9.4-1.8-9.4-6.9-.1-5.2 5.2-7 9.5-7 3.7 0 7.2.7 9.4 4.5l-2.3 1.5c-1.5-2.3-4.3-3.3-7.1-3.4zm15.3-2.1v10.2c1.5-2.3 3.8-3.1 6.1-3.1 4.9 0 7.3 3.3 7.3 8.1v9.6H523v-9.6c0-3.4-1.8-5.4-5-5.4s-5.5 2.5-5.5 5.7v9.3h-2.9v-24.8h2.9zm31.4 24.8-.1-3.2c-1.4 2.4-4 3.5-6.5 3.5-5 0-9-3.5-9-9.2s4-9.1 9-9c2.6 0 5.2 1.2 6.5 3.5v-3.2h2.8v17.5l-2.7.1zm-6.4-15.1c-3.5 0-6.3 2.5-6.3 6.4s2.8 6.4 6.3 6.4c8.4 0 8.4-12.8 0-12.8zm11.9-2.4h2.8l.1 3.4c1.4-2.3 4-3.7 6.7-3.7 5 .1 8.7 3.7 8.7 9 0 5.5-3.7 9.1-8.9 9.1-2.5 0-5.2-1.1-6.6-3.5v11.4h-2.8v-25.7zm15.5 8.8c0-3.9-2.6-6.3-6.2-6.3-3.7 0-6.1 2.7-6.1 6.3s2.6 6.3 6.1 6.3 6.2-2.4 6.2-6.3zm21.5 5.8c-1.8 2.1-4.8 3.1-7.6 3.1-5.4 0-9.2-3.6-9.2-9.1 0-5.3 3.8-9.1 9.1-9.1 5.4 0 9.4 3.3 8.8 10.3h-14.9c.3 3.2 3 5.2 6.3 5.2 2 0 4.4-.8 5.6-2.2l1.9 1.8zm-1.7-7.2c-.1-3.4-2.5-5.2-5.9-5.2-3 0-5.7 1.8-6.2 5.2h12.1zm15-12.6c-3.2 0-6.5 1.2-6.5 4.3 0 2.7 3.1 3.5 6.7 4.1 5 .8 9.9 1.8 9.9 7.4 0 5.6-5.4 7.4-10.1 7.4-4.4 0-8.6-1.6-10.5-5.7l2.6-1.5c1.6 2.9 4.9 4.4 8 4.4 3 0 7-1 7-4.6 0-3.1-3.4-4-7.2-4.5-4.8-.7-9.4-1.8-9.4-6.9-.1-5.2 5.2-7 9.5-7 3.7 0 7.2.7 9.4 4.5l-2.3 1.5c-1.5-2.3-4.4-3.3-7.1-3.4zm15.2-2.2v10.2c1.5-2.3 3.8-3.1 6.1-3.1 4.9 0 7.3 3.3 7.3 8.1v9.6h-2.9v-9.6c0-3.4-1.8-5.4-5-5.4s-5.5 2.5-5.5 5.7v9.3H612v-24.8h2.9zm24.8 24.9h-.1zm3.4-18.8c0-2.6 1.2-3.8 3.1-3.8h.1l.7-2.5c-.3 0-.6-.1-.8-.1-3.7 0-5.9 2.3-5.9 6.3v1.4h-3.4v2.6h3.4v14.8h2.9v-14.8h3.5v-2.5h-3.5l-.1-1.4zm14.8 16.3c-.2 0-.5.1-.7.1-2.1 0-2.8-1.3-2.8-3.4v-9h3.7v-2.6h-3.7v-5.3l-2.9.3v5H648v2.5h3.5v9c0 3.9 1.8 6.1 5.5 6 .5 0 .9-.1 1.4-.2l-.5-2.4zm-205-10.3c1-.4 1.8-1 2.5-1.8.9-1 1.3-2.3 1.3-3.7 0-1.3-.3-2.4-.8-3.3-.5-.9-1.2-1.6-2-2.1s-1.7-.9-2.7-1.1c-1-.2-2-.3-3-.3h-7.9v26h7.8c1.5 0 2.8-.2 4-.5s2.2-.8 3.1-1.5c.8-.6 1.5-1.4 2-2.3s.7-1.9.7-3c0-1.9-.6-3.5-1.7-4.6-1-.9-2.1-1.5-3.3-1.8zm.2-3.3c-.3.5-.7 1-1.2 1.3s-1.1.6-1.7.7c-.6.1-1.2.2-1.8.2h-4.9v-8.4h4.2c.8 0 1.6.1 2.3.2.7.1 1.3.4 1.8.7s.9.8 1.2 1.3c.3.5.4 1.2.4 1.9.1.9-.1 1.6-.3 2.1zm-9.7 4.9h5c2 0 3.6.4 4.7 1.2s1.6 1.9 1.6 3.5c0 .8-.2 1.6-.5 2.1-.4.6-.8 1.1-1.4 1.5s-1.3.7-2.1.8c-.8.2-1.7.3-2.6.3h-4.5v-9.4h-.2zm30.8-5.2-5.1 13.8-5.6-13.8h-3.3l7.3 17.1-1.3 3.4c-.3.9-.8 1.6-1.2 2.1-.4.5-1 .7-1.8.7-.6 0-1.2-.1-1.7-.3l-.3-.1-.3 2.8h.2c.7.1 1.5.2 2.2.2 1.5 0 2.7-.4 3.6-1.2.8-.8 1.5-1.9 2-3.2l8.5-21.5h-3.2z"/></svg>