<svg width="231" height="41" fill="none" xmlns="http://www.w3.org/2000/svg"><g clip-path="url(#a)"><path d="m57.585 31.496.357-2.63c1.656 1.057 4.383 2.372 8.003 2.372 4.18 0 6.524-1.65 6.524-4.564 0-7.658-15.164-2.553-15.164-12.454 0-4.693 3.058-7.22 8.563-7.22 5.301 0 7.824 2.192 8.283 5.879l-2.6.516c-.407-2.76-2.268-4.074-5.734-4.074-3.67 0-5.836 1.65-5.836 4.64 0 7.994 15.037 2.45 15.139 12.661.025 4.77-3.033 7.117-9.125 7.117-4.485-.051-7.008-1.315-8.41-2.243Zm24.313-13.512v10.933c0 2.012.892 2.476 2.243 2.476 1.249 0 2.064-.361 2.625-.593l.204 2.294a10.22 10.22 0 0 1-3.492.594c-2.676 0-4.18-.955-4.18-4.745V17.984h-3.21v-2.217h3.21V10.66h2.6v5.106h5.48v2.217h-5.48Zm16.642-2.346-.178 2.578c-.204-.077-.688-.154-1.325-.154-2.6 0-4.257 3.094-4.257 5.93v9.673h-2.6V15.767h2.27l.178 3.352c.968-2.218 2.523-3.713 4.357-3.713.817 0 1.275.129 1.555.232Zm16.083 16.245c-.892.773-3.211 1.83-6.78 1.83-5.556 0-8.333-3.352-8.333-9.05 0-5.39 2.727-9.257 8.537-9.257 4.588 0 6.474 2.398 6.474 5.028 0 4.435-3.722 5.827-12.284 6.188.534 3.456 2.701 4.77 5.81 4.77 3.033 0 5.326-1.314 6.066-1.907l.51 2.398Zm-12.514-7.375c7.493-.284 9.837-1.134 9.837-3.893 0-1.393-.968-2.914-3.975-2.914-3.186 0-5.786 1.779-5.862 6.807Zm30.022-8.741v17.946h-2.166l-.28-2.965c-1.147 1.753-3.11 2.965-5.811 2.965-4.613 0-7.595-3.274-7.595-8.87 0-5.905 3.287-9.437 7.951-9.437 2.626 0 4.436 1.031 5.48 2.527l.255-2.14h2.166v-.026Zm-2.599 10.675v-3.146c0-2.45-1.224-5.621-5.047-5.621-3.568 0-5.632 2.733-5.632 7.142 0 4.23 1.912 6.55 5.377 6.55 3.314.026 5.302-2.114 5.302-4.925Zm32.392-4.074v11.397h-2.599V22.78c0-3.145-1.224-5.002-3.925-5.002-3.237 0-5.046 2.553-5.046 4.873V33.74h-2.549V22.574c0-3.068-1.249-4.822-3.9-4.822-3.237 0-5.02 2.579-5.02 4.925V33.74h-2.6V15.767h2.013l.357 2.99c1.045-1.933 3.033-3.351 5.913-3.351 2.701 0 4.537 1.263 5.327 3.636 1.019-2.115 3.109-3.636 6.116-3.636 3.798 0 5.913 2.32 5.913 6.962Zm22.583-14.981-9.379 15.935v10.335h-4.868V23.322l-9.379-15.935h5.48l6.372 11.371 6.422-11.371h5.352Zm13.711 8.38v17.946h-3.594l-.586-2.578c-1.147 1.573-3.058 2.578-5.556 2.578-4.588 0-7.774-3.326-7.774-8.896 0-5.879 3.492-9.411 8.105-9.411 2.422 0 4.104.902 5.2 2.217l.407-1.856h3.798Zm-4.767 10.03V23.27c-.178-2.037-1.324-3.816-3.848-3.816-2.549 0-4.281 1.83-4.281 5.286 0 3.249 1.503 4.925 4.103 4.925 2.548-.026 4.026-1.65 4.026-3.868Zm18.351-10.107-.281 4.563c-.28-.103-.79-.257-1.58-.257-1.835 0-3.542 1.676-3.542 5.002v8.65h-4.792V15.767h3.849l.408 2.63c.943-1.83 2.37-2.991 4.179-2.991.918 0 1.529.18 1.759.283Zm17.713-8.303v26.326h-4.001l-.459-2.45c-1.248 1.419-3.134 2.45-5.657 2.45-4.206 0-7.315-2.913-7.315-8.87 0-5.956 3.287-9.437 8.512-9.437 1.733 0 3.109.335 4.154.773V7.387h4.766Zm-4.792 17.843v-4.693c-.841-.593-2.012-1.083-3.593-1.083-2.549 0-4.256 1.676-4.256 5.312 0 3.507 1.58 4.873 3.644 4.873 2.294 0 4.205-1.727 4.205-4.409Z" fill="#359FDB"/><path d="M42.1 23.342c-.46-.313-.919-.651-1.353-.964-2.81-2.006-6.13-5.47-6.768-6.148-.332-1.98-.92-4.377-2.783-7.138-1.456-2.605-4.087-4.116-5.67-4.82C24.173.73 17.482.208 14.902.026 14.596 0 14.29 0 13.982 0 8.876 0 7.829 3.569 7.625 5.054c-1.277.078-2.375.39-3.32.938C1.367 7.737.55 11.254.371 13.885c-.153 2.45-.025 3.413 0 3.595.204 1.98.74 3.465 2.758 5.08C1.801 28.684 1.316 35.82 1.29 35.9l-.025.182.102.156c.102.157 2.835 3.778 8.836 4.143.256.026.537.026.792.026 6.563 0 8.964-5.184 9.066-5.393l.102-.208-.076-.209s-.588-1.64.306-4.663c.74-2.5 3.371-2.944 4.06-2.996 3.167 2.449 11.978 7.138 14.277 8.076 1.149.47 2.247.73 3.217.73 1.15 0 2.018-.365 2.426-.99.69-1.12.562-2.189-.383-3.153.256.052.562.079.894.13a7.02 7.02 0 0 0 1.098.079c1.405 0 2.197-.678 2.4-2.084.23-1.694-2.323-3.648-6.282-6.383ZM11.02 39.911h-.05.331-.28ZM13.88.547h.307c-.076 0-.204-.026-.306 0Zm3.55.287c.358.052.741.104 1.124.156-.383-.052-.766-.13-1.123-.156Z" fill="#121A2C"/><path d="M40.62 22.821c-3.193-2.266-6.947-6.33-6.947-6.33-.332-2.085-.894-4.377-2.732-7.086-1.482-2.658-4.265-4.117-5.644-4.716C24.275 1.303 17.584.755 15.056.573 8.135.053 8.263 5.81 8.263 5.81l-2.478 8.363-1.864 8.076C2.491 28.5 2.006 35.95 2.006 35.95s2.605 3.569 8.453 3.934c6.895.416 9.347-5.08 9.347-5.08s-.664-1.746.306-5.002c.97-3.257 4.725-3.387 4.725-3.387 3.039 2.423 12.054 7.216 14.301 8.128 2.656 1.094 4.52.73 5.006-.052.485-.781.69-1.771-.766-2.918a42.13 42.13 0 0 0-1.507-1.12c1.072.26 1.2.521 3.294.782 1.482.182 2.656.182 2.912-1.537.204-1.772-4.086-4.481-7.457-6.878Z" fill="#121A2C"/><path d="M11.147 35.404c-4.035-.13-6.384-1.537-7.176-2.084l-.28 2.032s3.09 2.97 7.175 2.97c1.456 0 4.316.156 7.125-3.595 0 0-.102-.782-.05-1.876-1.022 1.016-2.529 2.683-6.794 2.553Z" fill="#FEFFFF"/><path d="M3.69 33.111s.102.079.281.209l.025-.235-.306.026Zm14.737-.729-.46.026c0 .156-.025.287-.025.443.178-.182.332-.339.485-.469Z" fill="#121A2C"/><path d="M31.553 13.755c-1.66-4.142-4.7-7.424-8.096-8.545-3.397-1.12-8.53-2.136-10.113 1.772 0 0-7.508 13.286-7.994 16.412l-1.328 9.691-.025.235c.766.547 3.141 1.954 7.176 2.084 4.265.13 5.797-1.537 6.793-2.58 0-.13.026-.286.026-.442.127-1.485.51-3.387 1.66-4.846 2.17-2.761 5.95-2.865 5.95-2.865s2.86.338 4.852-1.772c1.992-2.11 2.733-4.976 1.099-9.144Z" fill="#016666"/><path d="M34.005 25.27s2.81 2.553 3.831 3.439c1.022.885 5.287 3.933 5.312 4.61 0 .157-10.7-5.001-10.7-5.001s-9.169-6.487-9.117-6.67c.05-.182.383-1.484.587-1.562.204-.078 4.52.078 4.52.078l5.567 5.106Z" fill="#79455B"/><path d="M23.867 21.78c.74.103 4.928 1.718 7.354 3.75 2.452 2.032 6.564 4.95 7.764 5.523 1.2.6 4.24 1.876 4.163 2.371-.077.495-.434 1.329-3.218.208-2.784-1.146-10.01-5.522-11.032-6.226-1.022-.703-6.18-4.298-6.18-4.298l1.149-1.329Z" fill="#C8842C"/><path d="M15.643 13.599c1.022-.209 4.112-.183 6.487 2.162 2.375 2.345 2.784 4.22 2.12 5.888-.664 1.667-1.89 2.918-4.342 1.589-2.451-1.329-4.8-2.97-5.542-5.002-.74-2.032 1.277-4.637 1.277-4.637Z" fill="#02A484"/><path d="M1.06 17.454c.23 2.11.817 3.517 3.218 5.237 1.098.781 2.273 1.407 4.776 1.198 2.528-.208 4.316-1.928 5.158-3.803.843-1.876 2.273-6.2 1.226-9.691-1.021-3.491-2.937-3.96-3.882-4.273-.944-.339-4.29-1.146-6.844.365-2.554 1.51-3.499 4.585-3.677 7.477-.154 2.63.025 3.49.025 3.49Z" fill="#121A2C"/><path d="M5.503 8.154s1.303-.86 3.729-.339c2.426.522 3.933 2.293 3.933 4.455 0 2.163-.255 6.07-2.222 8.05-1.609 1.615-5.823 2.449-7.508-.833-1.686-3.283 2.477-5.706 2.477-5.706l-.409-5.627Z" fill="#1565EA"/><path d="M18.247 10.395c-.331-1.069.537-2.45 2.733-2.918 2.196-.47 4.47 0 5.644 2.11 1.175 2.11-1.047 3.152-2.324 3.439-1.277.286-5.235 0-6.053-2.631Z" fill="#02A484"/><path d="M21.311 14.432c.204-1.537 1.175-2.657 2.145-2.761.46-.052.818.182 1.073.521a3.206 3.206 0 0 0-.587-1.094c-1.073-1.198-3.142-.235-3.78 2.136-.638 2.37.255 4.273 1.175 4.533.434.13.791.104 1.123.026-.076-.026-.127-.026-.204-.078-1.379-.703-1.021-2.71-.945-3.283Z" fill="#FDFFFF"/><path d="M24.531 12.192c.383 1.198.179 2.71-.255 3.621-.435.886-.997 1.72-1.84 1.954" fill="#121A2C"/><path d="M24.275 15.813c.434-.912.613-2.423.256-3.621-.256-.339-.639-.573-1.073-.521-.97.104-1.967 1.224-2.145 2.761-.077.574-.409 2.606.945 3.257.076.026.127.052.204.078.843-.235 1.404-1.068 1.813-1.954Z" fill="#121A2C"/><path d="M44.757 28.813c-.639-.625-1.456-1.329-1.2-1.641.152-.183.535-.209 1.097 0-1.174-.834-2.681-1.85-4.29-2.996-3.627-2.58-7.917-6.67-8.351-6.982-1.481-1.094-1.737.078-1.762.651-.026.573-.026 1.277-1.328 1.876-1.303.6-2.81.026-3.703-.104-.894-.13-.817.599-.383.964 1.455 1.198 16.497 8.649 19.664 9.3.102.026.179.026.281.052.128-.208.434-.677-.025-1.12Z" fill="#FFCC34"/><path d="M46.927 29.464c.102-.417-.843-1.224-2.298-2.292-.562-.235-.945-.183-1.098 0-.23.286.587 1.016 1.2 1.64.46.444.179.913-.026 1.121 1.737.339 2.069.26 2.222-.469ZM31.68 20.763c.256.651 1.507 1.355 2.171 1.198.69-.156.358-.86-.485-1.693-.843-.808-2.17-.782-1.686.495Z" fill="#C8842C"/><path d="m7.266 23.498.153 14.433 1.737.547-.23-14.98h-1.66Z" fill="#121A2C"/><path d="M10.79 18.262c-1.353 3.126-3.626 3.022-5.566 2.527-2.043-.521-2.58-2.58-2.656-4.507-.026-1.042.357-5.367 1.685-7.138s3.78-1.329 4.52-1.12c.741.208 3.5 1.589 3.09 4.976-.408 3.569-.561 4.09-1.072 5.262Z" fill="#fff"/><path d="m3.997 17.559.434-1.564s1.839.99 2.707.626c.843-.365.46-1.277-.485-1.667-.945-.417-2.17-1.069-1.686-2.996.486-1.928 1.762-2.501 4.827-1.329l-.562 1.667S6.73 11.02 6.5 12.374c-.154 1.016 3.447 1.147 2.809 3.986-.894 3.57-5.312 1.199-5.312 1.199Z" fill="#1565EA"/></g><defs><clipPath id="a"><path fill="#fff" d="M0 0h231v41H0z"/></clipPath></defs></svg>