<svg xmlns="http://www.w3.org/2000/svg" width="200" height="60" fill="none" viewBox="0 0 160 53"><clipPath id="a"><path d="M0 .882h160v51.915H0z"/></clipPath><g fill="#15B04B" clip-path="url(#a)"><path fill="#fff" d="M26.98.882 25.15 11.76h-5.224l-1.562 9.963h5.44l-3.717 23.642 5.332 7.432h15.618l6.139-7.324 1.023-6.247H37.913l-.27 1.993-1.453 1.292h-4.308l-1.131-1.185 3.177-19.764 10.178-.054 1.562-9.747-9.37.053L38.29.882zm55.363 10.932 5.708 7.001-1.83 11.04-7.433 6.086-16.64.161-.755 4.901 1.185 1.4 9.317-.107 1.831-1.454v-1.885l10.932.107-1.023 6.57-6.408 7.163H55.954l-5.762-7.324 4.308-26.28 8.778-7.325zm-6.247 14.272.969-4.201-.97-1.185H66.51l-1.562 1.293-.97 5.654h11.04zm37.697 26.711H92.306l-5.763-7.432 4.416-26.442 8.455-7.109h20.357l4.955 7.163-1.024 6.57-11.363-.27.162-2.315-.754-1.239-9.586-.215-1.885 1.562-2.962 18.58 1.131 1.4h9.478l1.67-1.454.431-2.424 11.255-.108-.915 6.463zM130.703.99l-8.724 51.807h10.448l4.577-27.358 3.339-2.208h6.894l1.561 2.855-4.416 26.711h10.125L160 18.923l-5.439-7.109h-11.902l-3.877 3.124L140.99.99z"/><path d="M8.67 52.797a8.67 8.67 0 1 0 0-17.34 8.67 8.67 0 0 0 0 17.34z"/></g></svg>