<svg xmlns="http://www.w3.org/2000/svg" x="10" y="10" width="86" viewBox="0 0 639.5 221.62" fill="#fff"><path class="st0" d="M317.1 50.1h-39.5V157h-9.7V50.1h-39.4v-8.2h88.6v8.2zm36.5 108.6a36.658 36.658 0 0 1-33.4-20.39 46.336 46.336 0 0 1-4.9-21.5v-3.4a50.24 50.24 0 0 1 4.8-22.2c2.91-6.3 7.52-11.67 13.3-15.5a33.513 33.513 0 0 1 18.5-5.7c10.4 0 18.6 3.5 24.7 10.6s9.1 16.8 9.1 29.1v5.3h-61.1v1.8c0 9.7 2.8 17.8 8.3 24.2a26.555 26.555 0 0 0 21 9.7c4.62.11 9.21-.85 13.4-2.8 4.2-2.07 7.83-5.13 10.6-8.9l5.9 4.5c-6.8 10.09-16.9 15.19-30.2 15.19zM351.9 78c-6.84-.11-13.4 2.73-18 7.8-4.9 5.2-7.8 12.2-8.9 21h51.3v-1c-.3-8.2-2.6-14.9-7-20.1S359.1 78 351.9 78zm61.8 71.1h55.6v8H402v-7l51.9-70.4h-50.3v-8.2h62.2v7.1l-52.1 70.5zm69.2-36.1a50.24 50.24 0 0 1 4.8-22.2 36.927 36.927 0 0 1 13.5-15.4 36 36 0 0 1 19.8-5.5c11.4 0 20.6 4 27.7 12s10.6 18.6 10.6 31.8v2a50.39 50.39 0 0 1-4.8 22.3 35.998 35.998 0 0 1-13.5 15.31 36.745 36.745 0 0 1-19.8 5.4c-11.3 0-20.6-4-27.7-12s-10.6-18.6-10.6-31.8V113zm9.5 2.6c0 10.2 2.7 18.6 7.9 25.2s12.2 9.8 20.8 9.8c8.09.19 15.8-3.44 20.8-9.8 5.3-6.6 7.9-15.2 7.9-26V113c.06-6.18-1.16-12.32-3.6-18A29.163 29.163 0 0 0 536 82.4a25.96 25.96 0 0 0-15-4.5 25.593 25.593 0 0 0-20.7 9.9c-5.3 6.6-8 15.3-8 26l.1 1.8zm137.7 19.71c.12-4.48-2.02-8.73-5.7-11.3-3.8-2.8-9.4-5.1-17.1-6.7a79.657 79.657 0 0 1-17.7-5.5c-4.2-2.1-7.3-4.6-9.3-7.6a19.157 19.157 0 0 1-3.1-10.9c0-6.8 2.8-12.3 8.5-16.7s12.9-6.6 21.7-6.6c9.5 0 17.2 2.4 23 7.1 5.67 4.44 8.9 11.3 8.7 18.5h-9.5a15.32 15.32 0 0 0-6.3-12.5c-4.2-3.3-9.5-5-15.9-5-6.2 0-11.2 1.4-15 4.1a12.85 12.85 0 0 0-5.7 10.8c-.19 3.88 1.58 7.59 4.7 9.9 3.1 2.3 8.9 4.5 17.2 6.5s14.5 4 18.7 6.2c3.69 1.84 6.86 4.6 9.2 8 5.6 9.6 3.15 21.88-5.7 28.6-5.8 4.3-13.4 6.5-22.8 6.5-10 0-18.1-2.4-24.2-7.2s-9.3-10.9-9.3-18.3h9.5c.2 5.16 2.78 9.93 7 12.9 4.3 3.1 10 4.6 17.1 4.6 6.6 0 11.9-1.5 16-4.3 4-3.01 6-6.71 6-11.1zM158.6 163.5c-2.3-40.7-53.5-59.2-58.4-61.1-.2-.1-.2-.3-.1-.5l52.8-53v-5.7c-.03-.93-.77-1.67-1.7-1.7H53.9V0L18 7.5v5.4h2s8.8 0 8.8 8.8v19.7H1c-.54.04-.96.46-1 1v12.5h28.9v67.9c0 21.3 13.7 36.1 37.7 34.1 4.94-.49 9.69-2.21 13.8-5a6.284 6.284 0 0 0 2.9-5.3v-6.7c-7.8 5.2-14.4 4.9-14.4 4.9-15.2 0-14.9-19.3-14.9-19.3V54.9h70l-50.4 50.8c-.1 6.7-.2 11.9-.2 12-.02.15.09.28.24.3h.06c46.2 7.8 58.7 37.7 58.7 46.4 0 0 5 42.3-37.3 45.2 0 0-27.7 1.2-32.6-9.9-.18-.36-.02-.8.34-.97l.06-.03c4.71-1.97 7.76-6.59 7.7-11.7 0-8.2-5-14.9-15.5-14.9-8.5 0-15.5 6.7-15.5 14.9 0 0-4 35.6 55.4 34.6 67.8-1.2 63.6-58.1 63.6-58.1z"/></svg>