<svg width="54" height="20" xmlns="http://www.w3.org/2000/svg"><g fill="#FFF" fill-rule="evenodd"><path d="M45.903 14.578a97.989 97.989 0 0 1 2.206 5.403c.686-.137 1.304-.525 1.856-1.221 3.135-3.964 4.586-7.572 3.844-9.785-.937-2.794-5.513-3.501-12.244-2.278 1.368 1.763 2.835 4.5 4.338 7.88Zm-17.74-4.814c3.294-1.5 7.466-2.885 11.395-3.75C35.856 1.972 31.664 0 27.01 0 22.8 0 18.278 2.2 14.5 6.023c3.917.866 8.072 2.246 11.355 3.741.33.15.696.314 1.154.516a104.8 104.8 0 0 0 1.153-.516ZM12.451 6.7C5.713 5.472 1.128 6.177.191 8.974c-.742 2.213.71 5.821 3.844 9.785.58.732 1.234 1.124 1.962 1.24.338-3.305 3.38-9.57 6.454-13.3Zm16.325 3.904-.082.036a23 23 0 0 1 4.046 1.348c2.851 1.237 3.382 1.562 11.629 6.887.464.3.833.51 1.323.722.434.187.86.32 1.27.388a95.906 95.906 0 0 0-.642-1.648 87.545 87.545 0 0 0-2.316-5.31c-1.035-2.158-2.04-3.953-2.98-5.259a13.004 13.004 0 0 0-.662-.85c-2.664.442-8.17 2.185-11.586 3.686Z"/><path d="M7.08 19.981c.81-.138 1.776-.539 2.747-1.103a51.62 51.62 0 0 0 2.372-1.482c.548-.36 2.593-1.727 2.447-1.63 4.361-2.902 7.317-4.46 10.525-5.147-3.576-1.554-8.545-3.188-11.506-3.691-3.036 3.46-6.207 9.852-6.586 13.053Z"/></g></svg>