<svg id="object" xmlns="http://www.w3.org/2000/svg" viewBox="0 0 1000 632.89"><defs><style>.cls-2{fill:#353a85}.cls-3{fill:#292949}.cls-4{fill:#d67086}.cls-5{fill:#c17e72}.cls-6{fill:#efbfa5}.cls-7{fill:#babcbe}.cls-8{fill:#f4c7b3}.cls-9{fill:#8cabef}.cls-11{fill:#373f8c}.cls-12{fill:#333a7f}.cls-13{fill:#3f4991}.cls-14{fill:#5d66d3}.cls-15{fill:#474ebb}.cls-16{fill:#717ddb}</style></defs><path style="fill:#e1cfb5" d="m798.76 433.04.19 6.05-10.67 3.88-6.15-4.66v-7.04l5.94-.33.18-1.55 1.95-1.25 8.56 4.9z"/><path class="cls-2" d="m580.48 480.81 2.29 53.18-6.72 90.43-10.06.72-12.22-82.13-16.9-69.5 43.61 7.3z"/><path class="cls-3" d="M566.53 631.89h15.1l.62-4.99-5.41-3.74-10.87.78.56 7.95z"/><path class="cls-2" d="m509.28 464.99-2.21 40.2 6.55 119.53 10.07.51 15.09-78.4 13.32-85.97-42.82 4.13z"/><path class="cls-3" d="m523.28 632.28-14.7.61-1.5-4.24 5.72-5.17 10.89.55-.41 8.25z"/><path class="cls-4" d="m567.84 343.56-31.43-3.36s-17.48 1.86-29.35 43.38c-6.6 23.1-8.61 59.5-9.09 87.24.74 4 5 21.3 23.29 18.36 31.31-5.05 48-10.1 61.61-7.58 11.62 2.53 10.63-13.47 9.36-25.67l-4.63-37.76Z"/><path class="cls-5" d="M561.77 304.44c-7.92-1.74-16.08-3.31-24-1.74-1.73.35-3.6.95-4.54 2.45a7.15 7.15 0 0 0-.74 1.91c-2 7.44-4.54 18.47.36 25.32a12.13 12.13 0 0 0 3.54 3.19 17.53 17.53 0 0 0 5.86 2.3 31 31 0 0 1-1.78 5.4c1.81 2.73 10.27 3.06 11.84.44.09-2.27.17-4.54.26-6.81a16.59 16.59 0 0 0 3-1.53 19.09 19.09 0 0 0 7.38-10c1.51-4.4 3.63-8.58 5-13.07.5-1.64.9-3.5 0-5s-2.89-2.11-4.67-2.5Z"/><path class="cls-2" d="M565.24 325.1c3.8-3.91 8.26-9.38 8.6-14.34.28-4.1-.28-9.7-2.58-13.25-2.15-3.31-7.66-5.13-10.93-7.06l-9.25-5.45a6.23 6.23 0 0 0-2-.89 6.3 6.3 0 0 0-2.61.29l-21.87 5.65c-1.4.37-3 .9-3.51 2.25a4.61 4.61 0 0 0 .06 2.6c.83 3.78 2.42 7.65 2.81 11.48.61 3 .49 5.74 2.7 8s4.85 3.22 6.52 5.77c1.2 1.84 1.66 4.06 2.61 6.05 4.27 9 21.55 6.6 27.53.86.58-.62 1.24-1.27 1.92-1.96Z"/><path class="cls-4" d="m561.17 346.25 21.6-23.34-5.09-63.25 9.49-4.17 19.98 63.65-7.06 19.58-28.97 38.93-9.95-31.4z"/><path class="cls-5" d="M585.14 256.39v-5.79c0-2.12-5.32-7-6.67-8.82-.77-1-4.31 4.5-4.35 5.41-.08 1.55 2.16 4.88 2.78 6.5l-1.89 2.7 2.67 3.27Z"/><path class="cls-4" d="m522.52 351.11-24.45-20.34-3.16-63.37-9.96-2.9-11.53 65.7 9.54 18.5 33.77 34.84 5.79-32.43z"/><path class="cls-5" d="M487.08 265.12s-.74-5.65-.75-5.74c-.27-2.1 4.36-7.68 5.47-9.61.64-1.11 4.86 3.9 5 4.8.28 1.53-1.51 5.12-1.91 6.8l2.22 2.43-2.22 3.6Z"/><path class="cls-6" d="M138.64 311.67a55.71 55.71 0 0 1-11-7.15c-1.1-.91-2.28-2.2-1.89-3.58.44-1.58 2.52-1.91 4.16-1.77a23 23 0 0 1 8.83 2.63c.67-.21-.2-1.3.1-1.94a.94.94 0 0 1 .82-.42c4.42-.24 6.14 5.77 7.66 8.67-3.1 1.62-6.3 1.68-9 4.14Zm189.59 71.58 5.73.84c2.09.3 11.23-4.3 13.17-5.38 1.12-.62-7.31-4.87-8.2-5-1.53-.3-5.15 1.44-6.83 1.81l-2.4-2.26-3.63 2.17Z"/><path class="cls-3" d="m187.9 619.14-.79 6.2 11.59 7.78 6.99-5.39-5.4-7-11.59-7.78-.8 6.19z"/><path class="cls-3" d="m187.51 617.06 8.94-79.01-10.75-88.45 2.42-18.82 48.05-1.82 1.73 30.62-8.07 78.59-30.34 82.93-11.98-4.04z"/><path class="cls-7" d="m243.82 343.25 21.59 12.69 17.14 24.01 45.64-6.61 1.43 12.57-51.84 17.28-26.57-9.94-7.39-50z"/><path class="cls-3" d="m271.42 437.81.13 79.73-16.05 102.64-11.55-.11-6.35-94.92-14.86-95.01 48.68 7.67z"/><path class="cls-3" d="m243.97 624.94 12.43 6.37 6.3-6.18-6.18-6.31-12.49-.12-.06 6.24z"/><path class="cls-7" d="M180.72 464.93c.11-3.46.31-6.34.33-7.37.25-9.27 1.08-18.52 2.24-27.72 1-8.25 2.35-28.72 3.76-36.92 1.17-6.76 5.23-23.66 8.16-29.93 7.3-15.61 5-17.05 37.09-21.69 14-2 17.37 6.72 28.85 16.79 1.13 1 1.07 6.9 1.34 8.47.46 2.76.95 5.51 1.52 8.25.45 2.15.94 4.3 1.49 6.43s9.64 43.87 16 53.19 19.55 22.34-2.49 30.3a78.72 78.72 0 0 1-11.89 3.1s-18-2-27.29-1.93a157.76 157.76 0 0 0-25.49 2.37c-5.61.94-11.34 2.3-16.36 4.92-4.79 2.51-8.24 6.18-13.1 8.77a2.51 2.51 0 0 1-1.49.43c-2.77-.39-2.9-10.19-2.67-17.46Z"/><path class="cls-6" d="M229.43 345.34c-1.32 1.24-4.88 2.64-9.14 2.31a2.07 2.07 0 0 1-1.85-1.47 55.22 55.22 0 0 1-1.57-7.08c-3.16-.12-6.92-.62-8.34-3.45a9.13 9.13 0 0 1-.7-2.89q-.78-6.13-1.57-12.26a10.85 10.85 0 0 1 0-4.25c.66-2.41 2.88-4.06 5.11-5.19 5.69-2.9 12.64-3.61 18.51-1.1a9.76 9.76 0 0 1 4.12 2.94c1.57 2.1 1.74 4.89 1.85 7.51l.3 7.25c.11 2.78 0 6-2.15 7.73-1.16.91-2.75 1.24-3.71 2.36-1.7 1.98-.46 5.02-.86 7.59Z"/><path class="cls-3" d="M252.23 296a26.58 26.58 0 0 1 1.08-3.38c1-2.37 2.36-4.59 2.95-7.08s.15-5.48-1.94-7a8 8 0 0 0-4.75-1.08 30.67 30.67 0 0 0-15.51 4.45c-4.43 2.7-8.1 6.05-13.49 5.73-5.07-.3-8.14 1.4-12.37 4.55-4.57 3.41-11.34 6-15.19 10a14.42 14.42 0 0 0-3.28 6.08 21.63 21.63 0 0 0 6.66 21.88 31.06 31.06 0 0 0 4.47 3.07c3.23 1.89 7.13 4.24 10.76 4.19-.84-3-6.44-11.58-4.9-14.73 2.44-5 11.08-6.17 15.88-6.6 5.24-.47 10.7 1.67 15.8.91 3.68-.54 7.63-3.64 10.06-6.37 2.99-3.4 2.7-10.46 3.77-14.62Z"/><path class="cls-7" d="m204.27 348.17-25.22 6.47-30.36-47.19-12.81 3.45 21.36 67.95 49.16 5.92-2.13-36.6z"/><path class="cls-3" d="M817.89 610a4.25 4.25 0 0 1 3.86-1.65 4.37 4.37 0 0 1 3.25 2.45 8.25 8.25 0 0 1 .56 2.78c.4 4.9.37 16.53-6.16 18.2-2.74.7-5-1.24-5.74-3.7-1.11-3.71.52-13.99 4.23-18.08Z"/><path class="cls-8" d="m815.57 536.13.34 29.87c-.4 13.27 1.67 26.61 1.28 39.88-.1 3-.89 6.27-.12 9.3s3.15 3.48 5.62 2c3.31-2 2.77-6.69 3.32-10.11 1.52-9.4 3.29-18.75 4.87-28.14.77-4.6-.82-11-.47-15.7l4.82-25Z"/><path class="cls-3" d="m849.7 487.86-13 57.76-2.77 54.53-20.61-.46-5.61-152.55 39.97.72 2.02 40zm-61.3 121.07a4.17 4.17 0 0 1 3.92-1.43 4.44 4.44 0 0 1 3.13 2.64 8.34 8.34 0 0 1 .43 2.81c.2 4.93-.34 16.56-6.91 17.85-2.76.54-4.94-1.54-5.56-4-.94-3.8 1.12-14.01 4.99-17.87Z"/><path class="cls-8" d="m799.27 540.32-1.75 29.83c-.15 8.29-1.25 16.51-2.11 24.74-.8 7.65.44 15.61-3.55 22.57-1.26 2.18-3.79 3.63-5.56 1-1.36-2-.55-5.45-.81-7.76-1.07-9.46-2.4-18.88-3.54-28.33-.56-4.63 1.34-11 1.22-15.67l-3.64-25.23Z"/><path class="cls-3" d="m773.18 484.33-1.68 56.06 8.8 56.7 20.97.62-.93-61.35 11.1-50.88 3.72-33.31-33.27-3.92-8.71 36.08z"/><path class="cls-9" d="m799.5 333.51 35.85-.85 20.78 38.65-7.39 36.21-1.31 43.33-51.14.69-16.82-2.73 4.47-46.29-2.57-61.84 18.13-7.17z"/><path class="cls-8" d="M804.2 300.06c7.06-15 27-7 29.8 7.4 1.79 9.38-6.48 20.4-16.16 22-.08.35-1.12 3.4-1.15 3.68a30.47 30.47 0 0 1-.87 4.31c-.14.53-8.2-1.94-9.1-2.22a1.2 1.2 0 0 1-.8-.51c-.28-.55 1.39-4.73 1.51-5.3s.29-1.34.44-2c-4.4-2.76-6.8-7.9-7.09-12.9s1.3-9.94 3.42-14.46Z"/><path class="cls-3" d="M819.17 287.4a8.2 8.2 0 0 1 1.41 4.39 6.43 6.43 0 0 1-.13 2.73c-1.15 3.47-4.64 2.9-7.49 3.75a18.27 18.27 0 0 0-8.88 6.12c-3.44 4.36-2.77 10.53-2.13 15.82.22 1.86.78 4.66-.81 6.13s-4.9.88-6.52-.15-2.62-2.52-4.31-3-4.34 0-5-1.73a12.08 12.08 0 0 0-.4-1.52c-.85-1.55-3.54-.14-4.85-1.31-.81-.71-.66-2-.25-3.07a7.17 7.17 0 0 0 .93-3.13 10.66 10.66 0 0 0-1-2.62 4.92 4.92 0 0 1 1.24-5.13c2.52-2.36 6.81-1.4 9.48-3.58a10.6 10.6 0 0 0 2.73-4.61c.66-1.69 1.41-3.46 2.88-4.49 1.81-1.28 4.18-.78 6-2.33 1.07-.91 1.86-2.16 3-2.92 1.54-1 4.41-1.61 6.24-2a7.79 7.79 0 0 1 7.86 2.65Z"/><path class="cls-3" d="M829.53 313.73c-.46 5.15-3.61 10.44-1.73 15.22s7.77 6.29 12.82 7.07c.83.13 11.45 2.21 11.52 2 1.19-3.5 2.41-7.06 4.62-10s5.62-5.21 9.23-5c-1-.29-1.4-1.62-1.17-2.67a18.09 18.09 0 0 1 1.32-2.95 7.24 7.24 0 0 0-1.09-7.43c-3.42-3.95-10.45-3.22-13.26-7.63-1.74-2.73-1.11-6.36-1.83-9.54-1.41-6.16-7.78-8.11-12.35-11.31-4.82-3.39-9.49-5.46-15.52-5.11-7.47.43-13.74 7.31-11.66 14.65 2.66 9.42 17.26 10.21 19 19.66a11.27 11.27 0 0 1 .1 3.04Z"/><path style="fill:#f9f9f9" d="m824.74 333.31-11.12 15.72-5.23-.43-8.71-15.94 25.06.65z"/><path class="cls-9" d="m799.68 332.66-20.21 1.1s-22.69 11.15-24.19 10.31-26-49.92-26-49.92l-12 3.9 15 56.15 14.51 15 41-6.83Z"/><path class="cls-8" d="m719.13 297.36-3.22-4.8c-1.18-1.76.49-8.82.63-11 .08-1.27 6.09 1.33 6.63 2.06.93 1.25.92 5.27 1.31 6.95l3.07 1.19-.4 4.21Z"/><path class="cls-11" d="m294.57 151.99-63.16-28.54V47.48l63.16 28.54v75.97z"/><path class="cls-12" d="m294.57 151.99 63.17-28.54V47.48l-63.17 28.54v75.97z"/><path class="cls-13" d="m231.41 47.48 63.16 28.54 63.17-28.54-63.17-25.91-63.16 25.91z"/><path class="cls-14" d="m798.99 109.59-53.08-23.98V21.77l53.08 23.99v63.83z"/><path class="cls-15" d="m798.99 109.59 53.07-23.98V21.77l-53.07 23.99v63.83z"/><path class="cls-16" d="m745.91 21.77 53.08 23.99 53.07-23.99L798.99 0l-53.08 21.77z"/><path class="cls-4" d="m477.87 170.19-7.44-3.37 1.31-2.9 7.44 3.37Zm-13.24-6-8.7-3.93 1.32-2.9 8.69 3.94Zm-14.49-6.56-8.7-3.94 1.31-2.9 8.7 3.94Zm-14.5-6.56-8.64-3.94 1.31-2.9 8.7 3.94Zm-14.49-6.57-8.69-3.93 1.31-2.9 8.69 3.93Zm-14.49-6.56L398 134l1.32-2.9L408 135Zm-14.49-6.56-8.7-3.94 1.31-2.9 8.7 3.94Zm-14.5-6.57-8.67-3.94 1.31-2.89 8.7 3.93Zm-14.49-6.56-8.69-3.94 1.31-2.9 8.69 3.94Zm-14.49-6.56-8.7-3.94 1.32-2.9 8.69 3.94Zm-14.49-6.57-8.7-3.94 1.31-2.89 8.7 3.93Zm-167.59 65.32-1.9-2.55 3.93-2.92 1.9 2.56Zm9-6.7-1.89-2.55 7.67-5.69 1.89 2.56Zm12.78-9.47-1.89-2.56 7.67-5.68 1.89 2.55Zm12.79-9.47-1.9-2.56 7.67-5.68 1.89 2.55Zm12.82-9.48-1.9-2.55 7.67-5.69 1.9 2.56Zm12.78-9.47-1.9-2.56 7.67-5.68 1.9 2.56Zm12.78-9.47-1.89-2.56 7.67-5.68 1.89 2.55Zm12.78-9.48-1.89-2.55 7.67-5.69 1.89 2.56Z"/><path class="cls-14" d="m144.3 264.03-53.07-23.98v-63.84l53.07 23.98v63.84z"/><path class="cls-15" d="m144.3 264.03 53.08-23.98v-63.84l-53.08 23.98v63.84z"/><path class="cls-16" d="m91.23 176.21 53.07 23.98 53.08-23.98-53.08-21.77-53.07 21.77z"/><path class="cls-4" d="m475.36 185.09-1.18-3 .27-.1 1.17 2.95Zm6.18-2.46-1.18-2.95 8.88-3.53 1.17 3Zm14.78-5.87-1.17-3 8.87-3.52 1.18 2.95Zm14.79-5.88-1.18-2.95 8.88-3.53 1.17 3Zm14.78-5.88-1.17-3 8.87-3.52 1.18 3Zm14.79-5.87-1.18-3 8.88-3.53 1.17 3Zm14.79-5.88-1.18-3 8.87-3.52 1.18 3Zm14.78-5.87-1.17-3 8.87-3.52 1.17 3Zm14.75-5.87-1.18-2.95 8.87-3.53 1.18 3Zm14.78-5.87-1.17-3 8.87-3.52 1.17 3Zm14.79-5.88-1.18-2.95 8.87-3.53 1.18 3Zm14.78-5.87-1.17-3 8.87-3.52 1.17 3Zm14.83-5.89-1.18-3 8.87-3.53 1.18 3Zm14.82-5.86-1.17-3 8.87-3.52 1.17 3Zm14.79-5.87-1.18-3 8.87-3.53 1.18 3Zm14.78-5.88-1.17-3 8.87-3.52 1.17 3Zm14.79-5.87-1.18-3L711 88l1.19 3Zm14.78-5.88-1.17-3 8.87-3.53 1.17 3Zm14.79-5.87-1.18-3 8.88-3.52 1.17 2.95Zm14.78-5.88-1.17-3 8.87-3.53 1.18 3ZM762.46 71l-1.18-3 8.88-3.52 1.17 3Z"/><path class="cls-14" d="m528.57 272.63-107.61-48.62V94.59l107.61 48.62v129.42z"/><path class="cls-15" d="m528.57 272.63 107.61-48.62V94.59l-107.61 48.62v129.42z"/><path class="cls-16" d="m420.96 94.59 107.61 48.62 107.61-48.62-107.61-44.15-107.61 44.15z"/><path class="cls-4" d="m706.6 241-8.71-3.9 1.3-2.91 8.71 3.9Zm-14.52-6.5-8.71-3.9 1.3-2.91 8.71 3.9Zm-14.52-6.5-8.71-3.9 1.3-2.9 8.71 3.9ZM663 221.47l-8.71-3.9 1.3-2.9 8.71 3.9ZM648.52 215l-8.71-3.9 1.3-2.9 8.71 3.9ZM634 208.47l-8.71-3.9 1.3-2.91 8.71 3.91ZM619.48 202l-8.71-3.9 1.3-2.91 8.71 3.9ZM605 195.47l-8.71-3.9 1.3-2.91 8.71 3.9ZM590.44 189l-8.71-3.9 1.3-2.9 8.71 3.9Zm-202.91 53.08-1.73-2.67 8-5.2 1.73 2.67Zm13.35-8.66-1.73-2.67 8-5.19 1.73 2.67Zm13.35-8.65-1.73-2.67 8-5.2 1.73 2.67Zm13.35-8.66-1.73-2.67 8-5.19 1.73 2.67Zm13.35-8.66-1.73-2.67 8-5.19 1.73 2.67Zm13.35-8.65-1.74-2.67 8-5.2 1.73 2.67Zm13.34-8.66-1.73-2.67 8-5.19 1.73 2.67Z"/><path class="cls-14" d="m350.74 378.66-73.6-33.25V256.9l73.6 33.25v88.51z"/><path class="cls-15" d="m350.74 378.66 73.59-33.25V256.9l-73.59 33.25v88.51z"/><path class="cls-16" d="m277.14 256.9 73.6 33.25 73.59-33.25-73.59-30.19-73.6 30.19z"/><path class="cls-11" d="m747.73 302.06-73.59-33.26v-88.51l73.59 33.25v88.52z"/><path class="cls-12" d="m747.73 302.06 73.6-33.26v-88.51l-73.6 33.25v88.52z"/><path class="cls-13" d="m674.14 180.29 73.59 33.25 73.6-33.25-73.6-30.19-73.59 30.19z"/><path class="cls-8" d="M813.23 436.86c-2.17 2.21-5.17 4.12-8.25 3.73-1.23-.16-2.45-.37-3.66-.65a6.17 6.17 0 0 1-2.68-1.11 2.54 2.54 0 0 1-.92-2.65c.45-1.35 2.08-1.71 3.28-2.43 1.48-.9 2.39-2.53 3.56-3.84 2.67-3 6.26-3.27 9.66-4.87a18.65 18.65 0 0 1 2.17 2.24c1.23 1.39 1.34 1.69.64 3.44a18.72 18.72 0 0 1-3.8 6.14Z"/><path class="cls-9" d="m836.54 335.32 29.1 44.33-4.38 24.69-45.07 31.22-8.48-7.42 30.13-38.08-1.17-24.07-.13-30.67z"/></svg>