<svg id="Layer_1" data-name="Layer 1" xmlns="http://www.w3.org/2000/svg" viewBox="0 0 3000 1792.57"><defs><style>.cls-1{fill:#4a75cb}.cls-2{fill:#afcdfb}.cls-3{fill:#699dee}.cls-5{fill:#fff}.cls-6{fill:#f1a34f}.cls-9{fill:#aa413e}.cls-10{fill:#c65447}.cls-12{fill:#82b479}.cls-13{fill:#a8d29f}.cls-14{fill:#233862}.cls-15{fill:#ffb27d}.cls-17{fill:#2c3a64}.cls-18{fill:#b64c41}.cls-20{fill:#b56f40}.cls-21{fill:#99592e}.cls-22{fill:#ee9849}.cls-23{fill:#e58638}.cls-24{fill:#2b478b}.cls-25{fill:#74acbe}</style></defs><path class="cls-1" d="m1198.27 795.24-56.35 670.05s-5.9 40.62 24.31 40.69c49.67.12 247.25 0 247.25 0s-37.39-8.45-36.94-27.48c.54-22.42 65.87-689.6 65.87-689.6Z"/><path class="cls-2" d="M1429.51 1493.82c-9.77 0-198.48.62-246.86 0-21.08-.26-24.78-18.74-25-30.7a59.62 59.62 0 0 1 .64-10l1.47-17.41 3.73-44.39 3.3-39.22 4.24-50.39 3.57-42.53 40-476.12 244.14-6.34s-27.52 279.21-47 482.46c-2.17 22.64-4.24 44.35-6.15 64.62q-.93 9.71-1.8 19c-1.8 19.23-3.45 36.89-4.89 52.48q-1.12 12.33-2.08 22.85c-2.49 27.41-3.94 44.91-4 48.24a28.13 28.13 0 0 0 .47 5.42c4.16 21.34 32.55 22.03 36.22 22.03Z"/><path class="cls-2" d="M1777.47 430.63H605.38L742.64 982l18.8 75.51 63.93 256.81h1187.75l-235.65-883.69z"/><path class="cls-3" d="m605.37 430.63-19.02 6.34 213.73 896.53 25.29-19.18-220-883.69z"/><path class="cls-1" d="M800.08 1333.5h1180.43l32.6-19.18H825.37l-25.29 19.18z"/><path class="cls-1" transform="rotate(180 1342.4 1500.165)" d="M1214.61 1494.09h255.58v12.15h-255.58z"/><path class="cls-1" d="m1405.22 1333.49-1.32 9.29-240.36 48.56-5.85-2.43 2.81-57.25 223.83-4.25 20.89 6.08z"/><path class="cls-3" d="M1437.67 1494.07c-9.77 0-206.64.37-255-.25-21.08-.26-24.78-18.74-25-30.7l239.23-45c-2.49 27.41-3.94 44.91-4 48.24a28.13 28.13 0 0 0 .47 5.42c4.08 21.35 40.63 22.29 44.3 22.29Z"/><path style="opacity:.2;fill:#699dee" d="m1331.69 1140.71-506.32 173.61-43.24-173.71 549.56.1z"/><path class="cls-3" d="M1777.47 430.63H605.37l176.66 709.98 1185.62.23-190.18-710.21z"/><path class="cls-1" d="M1450.73 1230.61c-3.39-17.41-20.25-31.53-37.67-31.53s-28.79 14.12-25.4 31.53 20.24 31.54 37.66 31.54 28.79-14.15 25.41-31.54Z"/><path class="cls-5" d="M1912.37 1110.06H814.93l-124.29-495.1-9.52-37.97-8.13-32.38-19.06-75.94h1081.62l20.93 75.94 8.93 32.38 10.46 37.97 136.5 495.1z"/><path class="cls-6" d="M1735.55 468.67H653.93l19.06 75.94h1083.49l-20.93-75.94z"/><path d="M705.8 493.49c-5.24 0-8.43 4.25-7.13 9.5s6.62 9.49 11.86 9.49 8.43-4.25 7.13-9.49-6.66-9.5-11.86-9.5Zm31.54 0c-5.24 0-8.43 4.25-7.13 9.5s6.62 9.49 11.86 9.49 8.44-4.25 7.13-9.49-6.62-9.5-11.86-9.5Zm45.82 9.51c-1.31-5.25-6.61-9.5-11.86-9.5s-8.43 4.25-7.12 9.5 6.61 9.49 11.86 9.49 8.43-4.26 7.12-9.49Z" style="fill:#e9f3fe"/><path d="M2701.91 1508.38H298.09a2.15 2.15 0 0 1-2.15-2.14 2.16 2.16 0 0 1 2.15-2.15h2403.82a2.16 2.16 0 0 1 2.15 2.15 2.15 2.15 0 0 1-2.15 2.14Z" style="fill:#283250"/><rect class="cls-9" x="763.88" y="1253.87" width="178.81" height="178.81" rx="28.42"/><rect class="cls-10" x="787.57" y="1253.87" width="178.81" height="178.81" rx="28.42"/><rect x="1814" y="76.2" width="178.81" height="178.81" rx="28.42" style="fill:#d86713"/><rect class="cls-6" x="1837.69" y="76.2" width="178.81" height="178.81" rx="28.42"/><rect class="cls-12" x="485.11" y="325.73" width="178.81" height="178.81" rx="28.42"/><rect class="cls-13" x="508.79" y="325.73" width="178.81" height="178.81" rx="28.42"/><path class="cls-5" d="m918.14 1357.94-11-6.08a34.41 34.41 0 0 0-2.17-23.09l9.79-8-10.83-13.2-9.81 8a34.08 34.08 0 0 0-11.74-5.56v-12.68h-17.12V1310a34.37 34.37 0 0 0-16.47 9.74l-11.11-6.12-8.23 15 11.07 6.09a34.41 34.41 0 0 0 2.1 23.12l-9.74 8 10.83 13.17 9.73-8a33.94 33.94 0 0 0 11.82 5.61v12.57h17.07v-12.57a34.3 34.3 0 0 0 16.54-9.81l11 6.08Zm-44.35 6.29a20.9 20.9 0 1 1 20.9-20.9 20.9 20.9 0 0 1-20.9 20.9Zm972-1201.02 55.47-25.77v12.25l-42 18.38v.23l42 18.37v12.25l-55.47-25.77Zm64.02 47.88 24.73-83.78h11.68l-24.74 83.78Zm98.58-37.59-55.47 25.42v-12.25l42.87-18.37v-.23l-42.87-18.38v-12.25l55.47 25.42ZM537 409.28c10.4-.3 11.46-5.73 11.46-10.25a109 109 0 0 0-.91-11.76 110.7 110.7 0 0 1-.75-11.92c0-14.17 8.9-20.36 22.92-20.36H575v12.82h-2.71c-6.79 0-9.2 4.07-9.2 10.71 0 2.71.45 5.43.75 8.6a99.05 99.05 0 0 1 .75 10.25c.16 11.46-4.52 15.68-12.81 17.49v.31c8.29 1.8 13 6.18 12.81 17.64a105.8 105.8 0 0 1-.75 10.56c-.3 3-.75 5.88-.75 8.44 0 6.64 2.26 10.86 9.2 10.86H575v12.67h-5.43c-13.42 0-22.77-5.43-22.77-20.51a110.7 110.7 0 0 1 .75-11.92 109 109 0 0 0 .91-11.76c0-4.22-1.06-9.95-11.46-10.25Zm116.09 11.62c-10.25.3-11.46 6-11.46 10.25a109 109 0 0 0 .91 11.76 112 112 0 0 1 .9 11.92c0 15.08-9.35 20.51-22.92 20.51h-5.43v-12.67h2.72c6.93-.15 9.19-4.22 9.19-10.86a58.57 58.57 0 0 0-.75-8.44 105.8 105.8 0 0 1-.75-10.56c-.15-11.46 4.52-15.84 13-17.64v-.31c-8.45-1.81-13.12-6-13-17.49a99.05 99.05 0 0 1 .75-10.25 60.8 60.8 0 0 0 .75-8.6c0-6.64-2.41-10.56-9.19-10.71h-2.72V355h5.28c14.18 0 23.07 6.19 23.07 20.36a112 112 0 0 1-.9 11.92 109 109 0 0 0-.91 11.76c0 4.52 1.21 10 11.46 10.25Z"/><path class="cls-6" d="M1110.38 599.25H731.92a8.16 8.16 0 0 1-7.85-5.9 8.17 8.17 0 0 1 7.85-10.45h378.46a8.16 8.16 0 0 1 7.85 5.9 8.17 8.17 0 0 1-7.85 10.45Z"/><path class="cls-13" d="M1559.86 636.57H740.8a8.17 8.17 0 0 1-7.85-5.91 8.17 8.17 0 0 1 7.85-10.45h819.06a8.19 8.19 0 0 1 7.86 5.9 8.18 8.18 0 0 1-7.86 10.46Z"/><path class="cls-3" d="M1283.42 673.88H750.09a8.18 8.18 0 0 1-7.86-5.9 8.18 8.18 0 0 1 7.86-10.45h533.33a8.16 8.16 0 0 1 7.85 5.9 8.17 8.17 0 0 1-7.85 10.45Z"/><path class="cls-6" d="M1192.68 871.62H814.23a8.19 8.19 0 0 1-7.86-5.9 8.18 8.18 0 0 1 7.86-10.45h378.45a8.18 8.18 0 0 1 7.86 5.9 8.18 8.18 0 0 1-7.86 10.45Z"/><path class="cls-10" d="M1365.72 946.25H832.39a8.18 8.18 0 0 1-7.85-5.9 8.17 8.17 0 0 1 7.85-10.45h533.33a8.16 8.16 0 0 1 7.85 5.9 8.17 8.17 0 0 1-7.85 10.45Z"/><path class="cls-13" d="M1079.09 728.53h-314a8.2 8.2 0 0 1-7.86-5.9 8.19 8.19 0 0 1 7.86-10.46h314a8.19 8.19 0 0 1 7.86 5.91 8.18 8.18 0 0 1-7.86 10.45Z"/><path class="cls-14" d="M1965.48 1508.56s0-17.16 2.44-22.86 11.42-28.94 11.42-28.94h35s6.52 21.19 6.93 28.12 0 23.68 0 23.68Zm222.52 0s0-17.16-2.45-22.86-11.41-28.94-11.41-28.94h-35s-6.53 21.19-6.93 28.12 0 23.68 0 23.68Z"/><path class="cls-15" d="M2047.6 545.51s-1.24 38.21-6.13 55.33l-38.7 27 145.69 21.8-34.74-48s-10.5-51.23-5-70.18-61.12 14.05-61.12 14.05Z"/><path d="M2047.39 550.79s11.52 27.73 33.22 27.12 26.64-25.15 26.64-25.15Z" style="fill:#ed985f"/><path class="cls-17" d="M2034.43 528.33s-7-35-11.9-45.58-9-57.87 45.24-60.31c0 0 20.78 2.44 32.2-4.49 0 0 0 6.93-2.86 9.38a36 36 0 0 1 33.42 11.82c14.67 16.3-9.78 73.35-8.56 86.8Z"/><path class="cls-15" d="M2078.12 567.2c-15.72-.28-44.66-21.22-44.66-47.15v-40.46c0-9.47 6.6-17.21 14.67-17.21h60c8.06 0 14.67 7.74 14.67 17.21v38.17c-.01 27.24-26.65 49.75-44.68 49.44Z"/><path class="cls-17" d="M2033.46 501.2s.08-24.32 19.33-28.05 62.36 11.85 68.47-5.88-83.3-17.42-87.8-6.12 0 40.05 0 40.05Z"/><path class="cls-18" d="M1969.87 914.35s6.13 187.25-3 294.09.07 255.52.07 255.52 29.33 16.17 61.11 0c0 0 34.87-206.4 34.64-255.52-.23-52.32 37.95-285.93 37.95-285.93Z"/><path class="cls-18" d="M2186.74 1464s-29.32 16.17-61.1 0c0 0-34.86-206.4-34.64-255.53.1-22.09-6.65-76.53-14.49-132-10.72-75.93-23.46-153.87-23.46-153.87l135.8-8.49s-11.2 187.57-2 294.4-.11 255.49-.11 255.49Z"/><path d="M2187.22 945.5s-57.89 11.21-110.71 11.21c-23 0-48.06-2.53-68-5.19-22-2.93-37.82-6-37.82-6s-11.74 1-4.81-56.84c5.27-44 3.62-83.8 2.45-124.7-.14-4.55 0-9.93.24-15.92 2.25-47.69 16.68-133.56 27.67-138.17 0 0 16.34-6.08 45.22-9 0 .56 16.76 25.06 36.66 27.81 12.36-4.89 22.06-9.06 35.59-27a386.82 386.82 0 0 1 55.78 10.76s2.08 9.1 9.93 166.91c3.13 62.44 24.46 166.34 7.8 166.13Z" style="fill:#739af0"/><path class="cls-9" d="M2091 1208.43c.1-22.09-6.65-76.53-14.49-132 8.13-33.15 27.94-65.07 27.94-65.07 25.06 70.27-13.45 197.07-13.45 197.07Z"/><path class="cls-13" d="M1914.83 797.73c-1.38 1.14 3.44 13.08 10.53 28.63 14.6 31.95 38.84 79.13 38.84 79.13a138.83 138.83 0 0 1-7.36 21.54c-40.78-32-67.08-59.31-83.87-80.22-23.59-29.4-28.44-46.26-28.44-46.26 90.82-184.86 154.73-191.67 154.73-191.67L1991.71 731s-72.71 63.23-76.88 66.73Zm288.62 196.09c-13.53 27.09-64.58 26.11-64.58 26.11-9.38-72-11.45-416.45-11.45-416.45 17.27 2.08 40.22 8.27 40.22 8.27 16.57 32.06 22.45 92.09 23.89 134.4.79 23.69.21 41.82-.66 46.37-1.3 6.75.34 39 2.83 75.68 3.86 57.29 9.75 125.62 9.75 125.62Z"/><path class="cls-13" d="M2028 602.54s-3.42 345.41-12.79 417.39c0 0-51 1-64.58-26.11 0 0 21-212.57 17.67-229.86-2.31-12.06 3.67-111.14 25.74-153.71.04 0 19.35-5.98 33.96-7.71Z"/><path class="cls-15" d="M1959.37 907.81s22-20.37 31-9 10.59 29.34 3.67 28.12-21.19-7.75-23.23-4.49-11.17 9.5-13.94 4.55 2.5-19.18 2.5-19.18Z"/><path class="cls-15" d="M1964.2 905.49a138.83 138.83 0 0 1-7.36 21.54c-40.78-32-67.08-59.31-83.87-80.22 12.66-.94 31.13-5.46 52.39-20.45 14.64 31.95 38.84 79.13 38.84 79.13Z"/><path class="cls-13" d="M2315 800.55s-4.84 16.86-28.44 46.26c-16.79 20.91-43.09 48.17-83.87 80.22a140.14 140.14 0 0 1-7.36-21.54s24.24-47.18 38.84-79.13c7.09-15.55 11.91-27.49 10.53-28.63-3.27-2.72-47.66-41.29-67.47-58.49l-9.41-8.2-4.54-120.35s60.86 5 151.72 189.86Z"/><path class="cls-15" d="M2200.12 907.81s-22-20.37-31-9-10.6 29.34-3.67 28.12 21.19-7.75 23.23-4.49 11.17 9.5 13.94 4.55-2.5-19.18-2.5-19.18Z"/><path class="cls-15" d="M2195.28 905.49a140.14 140.14 0 0 0 7.36 21.54c40.79-32 67.09-59.31 83.87-80.22-12.65-.94-31.12-5.46-52.39-20.45-14.59 31.95-38.84 79.13-38.84 79.13Z"/><path class="cls-12" d="M2244.66 797.73c-3.27-2.72-47.66-41.29-67.47-58.49 0 0 19.77-14.82 32 6.78s35.47 51.71 35.47 51.71Z"/><path class="cls-18" d="M2057.75 518.24c-5.74 0-17.23-1.27-19.25-11.26a9 9 0 0 1 1.65-7.77 10.69 10.69 0 0 1 8.41-3.57h17.66c3.36 0 5.71 1 7 2.87 2.14 3.21.5 8-.3 9.94-2.75 6.57-6.54 9.63-11.91 9.65-.26.02-1.48.14-3.26.14Zm-9.19-21.44a9.55 9.55 0 0 0-7.51 3.15 7.9 7.9 0 0 0-1.41 6.8c1 5.12 4.88 8.4 11.44 9.73a35 35 0 0 0 9.8.46h.07c4.86 0 8.31-2.84 10.87-8.93.57-1.36 2.28-6 .41-8.85-1-1.56-3.06-2.35-6-2.35Zm49.93 21.44c-1.77 0-3-.12-3.23-.14-5.37 0-9.15-3.08-11.9-9.65-.81-1.92-2.44-6.73-.31-9.94 1.27-1.9 3.61-2.87 7-2.87h17.66a10.69 10.69 0 0 1 8.41 3.57 9 9 0 0 1 1.65 7.77c-2.04 10.02-13.54 11.26-19.28 11.26ZM2090 496.8c-2.94 0-5 .79-6 2.35-1.88 2.82-.16 7.49.41 8.85 2.55 6.09 6 8.93 10.87 8.93h.07a35.41 35.41 0 0 0 9.79-.46c6.56-1.33 10.41-4.61 11.44-9.73a7.9 7.9 0 0 0-1.41-6.8 9.53 9.53 0 0 0-7.51-3.15Z"/><path class="cls-18" d="M2071.79 503.81a.71.71 0 0 1-.63-.41.7.7 0 0 1 .35-.92c.29-.14 7.21-3.23 13.35 0a.69.69 0 1 1-.65 1.22c-5.54-2.93-12.06 0-12.13 0a.59.59 0 0 1-.29.11Z"/><path class="cls-12" d="M2193.7 868.2c-28.93-81.55-16.5-129-16.5-129l14.33 6.91c.79 23.69 2 42.4 2 47 .04 12.71-.01 35.14.17 75.09Z"/><path class="cls-17" d="M2462.85 567.44s-42.37-2.12-43.56-26.58-36.19-42.28-26.05-61.91c12.43-24.08 1.09-47.22 16.78-63.4 17.29-17.84 39.14-8.15 50.66-18.55s32.61-20 53.39-7.13 36.65 5.93 50.31 18.29c15.1 13.66 9.38 30.86 21.83 40.19 11.41 8.56 6.75 31.95-2.86 50.94-6.93 13.7 9 26.53-18.37 42.27-11.41 6.55-8.93 23-43.57 25.88-15.61 1.28-49.41-6.03-58.56 0Z"/><path class="cls-14" d="M2382 1508.8s0-17.16 2.44-22.86 11.41-28.94 11.41-28.94h35.05s6.52 21.19 6.93 28.12 0 23.68 0 23.68Zm222.53 0s0-17.16-2.45-22.86-11.41-28.94-11.41-28.94h-35.05s-6.52 21.19-6.92 28.12 0 23.68 0 23.68Z"/><path class="cls-20" d="M2464.12 545.75s-1.24 38.21-6.13 55.33l-38.7 27 145.71 21.8-34.74-48s-10.49-51.23-5-70.18-61.14 14.05-61.14 14.05Z"/><path class="cls-21" d="M2463.91 551s11.52 27.73 33.22 27.12 26.64-25.12 26.64-25.12Z"/><path class="cls-20" d="M2494.64 567.44c-15.72-.28-44.67-21.22-44.67-47.15v-40.46c0-9.47 6.61-17.21 14.68-17.21h60c8.07 0 14.67 7.74 14.67 17.21V518c-.01 27.19-26.64 49.75-44.68 49.44Z"/><path class="cls-22" d="M2386.39 914.59s6.13 187.25-3 294.09.06 255.52.06 255.52 29.33 16.17 61.11 0c0 0 34.87-206.4 34.65-255.52-.24-52.32 37.94-285.93 37.94-285.93Z"/><path class="cls-22" d="M2603.26 1464.2s-29.32 16.17-61.1 0c0 0-34.86-206.4-34.64-255.53.1-22.09-6.65-76.53-14.49-132-10.72-75.93-23.46-153.87-23.46-153.87l135.79-8.49s-11.19 187.57-2 294.4-.1 255.49-.1 255.49Z"/><path class="cls-18" d="M2579.76 610.93v.07a384.71 384.71 0 0 0-49.53-9.14c-13.53 18-23.23 22.13-35.6 27-19.89-2.75-36.65-27.25-36.65-27.81-21.67 2.22-36.28 6.19-42.23 8-1.18.14-64.74 8.54-154.71 191.67 0 0 4.85 16.86 28.44 46.26 16.79 20.91 43.09 48.17 83.87 80.22a140.06 140.06 0 0 0 7.36-21.55s-24.24-47.18-38.84-79.12c-7.09-15.55-11.91-27.49-10.52-28.64 2.62-2.18 31.95-27.64 53.61-46.46-.18 4.71-.22 9-.11 12.7 1.17 40.91 2.82 80.66-2.45 124.7-6.93 57.87 4.81 56.84 4.81 56.84s15.79 3.09 37.82 6c19.93 2.66 45 5.19 68 5.19 52.82 0 110.71-11.21 110.71-11.21 16.66.21-4.67-103.69-7.79-166.2-.72-14.52-1.4-27.77-2-39.88 19.91 17.29 64 55.6 67.25 58.3 1.38 1.15-3.44 13.09-10.53 28.64-14.6 31.94-38.84 79.12-38.84 79.12a140.06 140.06 0 0 0 7.36 21.55c40.78-32 67.08-59.31 83.87-80.22 23.59-29.4 28.44-46.26 28.44-46.26-90.84-184.77-151.74-189.77-151.74-189.77Z"/><path class="cls-9" d="M2425 951.76c-22-2.93-37.82-6-37.82-6s-11.74 1-4.81-56.84c5.27-44 3.62-83.79 2.45-124.7-.14-4.55 0-9.93.24-15.92 3.37 5.4 41 66.14 51.11 111.28 7.41 32.9-3.71 71.69-11.17 92.18Z"/><path class="cls-23" d="M2507.52 1208.67c.1-22.09-6.65-76.53-14.49-132 8.13-33.15 27.94-65.06 27.94-65.06 25.03 70.25-13.45 197.06-13.45 197.06Z"/><path class="cls-20" d="M2375.89 908.05s22-20.37 31-9 10.59 29.34 3.67 28.12-21.2-7.75-23.23-4.49-11.17 9.5-13.94 4.55 2.5-19.18 2.5-19.18Z"/><path class="cls-20" d="M2380.72 905.73a140.14 140.14 0 0 1-7.36 21.54c-40.78-32-67.08-59.31-83.87-80.22 12.66-.94 31.13-5.46 52.39-20.45 14.6 31.94 38.84 79.13 38.84 79.13Zm235.92 2.32s-22-20.37-31-9-10.6 29.34-3.67 28.12 21.19-7.75 23.23-4.49 11.17 9.5 13.94 4.55-2.5-19.18-2.5-19.18Z"/><path class="cls-20" d="M2611.8 905.73a140.14 140.14 0 0 0 7.36 21.54c40.79-32 67.09-59.31 83.88-80.22-12.66-.94-31.13-5.46-52.39-20.45-14.6 31.94-38.85 79.13-38.85 79.13Z"/><path class="cls-9" d="M2661.18 798c-3.27-2.71-47.66-41.28-67.47-58.48 0 0 19.77-14.82 32 6.78s35.47 51.7 35.47 51.7Zm70.3 2.79s-4.85 16.86-28.44 46.26c-27.31-.38 28.44-46.26 28.44-46.26Z"/><path class="cls-17" d="M2450 496.24s10.92-33.32 46.68-28.12 38.86 12.84 42.66 21.7 11.13-32.4 11.13-32.4l-42.17-12.53s-46.86 9.36-54.72 14.36c-14.92 9.51-14.92 16.4-14.92 16.4Zm22.76 24.85c-6.17 0-18.52-1.37-20.68-12.1a9.69 9.69 0 0 1 1.77-8.35 11.5 11.5 0 0 1 9-3.83h19c3.61 0 6.13 1 7.49 3.08 2.3 3.45.54 8.61-.32 10.68-3 7.06-7 10.35-12.8 10.36a33 33 0 0 1-3.46.16Zm-9.88-23a10.26 10.26 0 0 0-8.07 3.39 8.49 8.49 0 0 0-1.51 7.31c1.11 5.5 5.24 9 12.29 10.45a37.37 37.37 0 0 0 10.53.49h.07c5.23 0 8.94-3.05 11.69-9.6.61-1.47 2.45-6.48.43-9.51-1.11-1.68-3.28-2.53-6.45-2.53Zm53.66 23a33 33 0 0 1-3.47-.16c-5.77 0-9.84-3.3-12.8-10.36-.86-2.07-2.62-7.23-.33-10.68 1.37-2.05 3.89-3.08 7.5-3.08h19a11.5 11.5 0 0 1 9 3.83 9.72 9.72 0 0 1 1.77 8.35c-2.15 10.73-14.5 12.1-20.67 12.1Zm-9.1-23c-3.17 0-5.34.85-6.45 2.53-2 3-.18 8 .44 9.51 2.74 6.55 6.45 9.6 11.68 9.6h.07a37.37 37.37 0 0 0 10.53-.49c7.05-1.43 11.18-5 12.29-10.45a8.52 8.52 0 0 0-1.51-7.31 10.26 10.26 0 0 0-8.07-3.39Z"/><path class="cls-17" d="M2487.85 505.58a.76.76 0 0 1-.68-.43.77.77 0 0 1 .37-1c.31-.14 7.75-3.47 14.35 0a.75.75 0 1 1-.7 1.32c-6-3.15-13 0-13 0a.67.67 0 0 1-.34.11Zm-892.49-102.31c-2.88-3.12-9.31-6.67-17.77-9.56 14.87-6.69 27.52-14.58 18.77-19.39-3.78-2.09-8.3-1.79-13.06-.06 7.32-7.41 10.85-13.79 3.71-15.46-10.85-2.54-22.14 11.44-30 24.33 5.12-11.05 7.75-22-1.78-22.17-11-.19-13.14 14.4-13 27-.91 0-1.82 0-2.73.06-3.1-13.95-9.1-31.3-19.34-26.66-5.16 2.33-5 7.33-2.27 13.12-4.85-3.72-9.64-5-13.44-1.07-5.8 6 1.33 13.12 10.75 19.07a58.16 58.16 0 0 0-18.55 10.79c-32 27.94 2.89 91.22 2.89 91.22l91.35-2.34c28.64-45.57 14.84-77.61 4.47-88.88Z"/><path class="cls-14" d="M1430 1505.33s0-17.55 2.51-23.38 11.66-29.59 11.66-29.59h35.84s6.67 21.67 7.09 28.76 0 24.21 0 24.21Zm227.6 0s0-17.55-2.5-23.38-11.67-29.59-11.67-29.59h-35.84s-6.67 21.67-7.08 28.76 0 24.21 0 24.21Z"/><path class="cls-20" d="M1514 520.53s-1.26 39.07-6.27 56.57l-39.57 27.61 149 22.29-35.53-49.09s-10.73-52.38-5.1-71.76-62.53 14.38-62.53 14.38Z"/><path class="cls-21" d="M1513.8 525.92s11.78 28.36 34 27.74 27.2-25.72 27.2-25.72Z"/><path class="cls-20" d="M1545.23 542.7c-16.08-.29-45.67-21.69-45.67-48.21v-41.38c0-9.68 6.75-17.6 15-17.6h61.34c8.26 0 15 7.92 15 17.6v39c.01 27.89-27.23 50.89-45.67 50.59Z"/><path class="cls-24" d="M1434.54 897.69s6.27 191.48-3.11 300.74.07 261.3.07 261.3 30 16.53 62.49 0c0 0 35.65-211.07 35.43-261.3-.24-53.5 38.8-292.39 38.8-292.39Z"/><path class="cls-24" d="M1656.31 1459.72s-30 16.54-62.49 0c0 0-35.64-211.06-35.42-261.3.1-22.59-6.8-78.26-14.81-135-11-77.65-24-157.35-24-157.35l138.87-8.68s-11.46 191.81-2.08 301.05-.07 261.28-.07 261.28Z"/><path class="cls-25" d="M1632.28 587.18v.08a395.13 395.13 0 0 0-50.65-9.35c-13.83 18.37-23.75 22.63-36.39 27.63-20.34-2.81-37.49-27.87-37.49-28.44-29.52 3-46.24 9.24-46.24 9.24-11.24 4.71-26 92.52-28.29 141.29-.29 6.12-.39 11.62-.25 16.27 1.2 41.84 2.88 82.49-2.5 127.53-7.09 59.17 4.91 58.12 4.91 58.12s16.15 3.16 38.68 6.15c20.38 2.73 46 5.31 69.53 5.31 54 0 113.2-11.46 113.2-11.46 17 .21-4.77-106-8-170-.74-14.84-1.43-28.39-2.07-40.78-13.76 60 29 102 30.33 106.07 0 0 38.59-28.21 34.6-15.43-15.33 49.1 2.47 59.64 2.47 59.64 3.59 13.62 65 44.94 65 44.94 17-13.34 30.83-12.11 22.57-20.69-32-33.28-48.45-42.17-56.37-60.8-.16-.35 13.93-4.51 13.68-4.81-48.37-57-51.21-74.48-56.67-105.64-19.24-110.05-70.05-134.87-70.05-134.87Z"/><path d="M1474.06 935.7c-22.53-3-38.68-6.15-38.68-6.15s-12 1.05-4.91-58.12c5.38-45 3.7-85.69 2.5-127.53-.14-4.65 0-10.15.25-16.27 3.45 5.52 41.9 67.63 52.26 113.79 7.52 33.67-3.83 73.33-11.42 94.28Z" style="fill:#578e9b"/><path class="cls-14" d="M1558.4 1198.42c.1-22.59-6.8-78.26-14.81-135 8.31-33.91 28.56-66.54 28.56-66.54 25.63 71.87-13.75 201.54-13.75 201.54Z"/><path class="cls-20" d="M1670 891s-22.51-20.84-31.67-9.17-10.84 30-3.75 28.76 21.67-7.92 23.75-4.59 11.42 9.71 14.25 4.65S1670 891 1670 891Z"/><path class="cls-20" d="M1670 891c3.59 13.62 2.58 19.65 2.58 19.65 41.71-32.77 68.6-60.65 85.76-82-12.94-1-24.9-3.85-46.64-19.18C1693.74 864.21 1670 891 1670 891Z"/><path class="cls-17" d="M1499.56 469.89s11.16-34.07 47.73-28.75 39.73 13.13 43.62 22.19 11.39-33.13 11.39-33.13l-43.14-12.82s-47.8 9.76-56 14.69c-12.74 7.73-8.76 11.57-8.76 11.57Z"/><path class="cls-25" d="M1548.3 824.45c-14 2.11-85.6 18.73-136.64 25.17-28.78 3.63-51 4-52.73-3.21-4.75-20.11 11.4-148.2 37.08-199.75s73.25-62.7 73.25-62.7l13.54 81.63-68.81 137 16.75.3 115 2Z"/><path class="cls-20" d="M1548.3 824.45c-14 2.11-23 5.81-72.36 14.49-4.81-17.52-2.16-27.69 8.64-35.05l61.15 1.09Z"/><path class="cls-17" d="M1585.32 473.62a11.16 11.16 0 0 0-8.77-3.73h-18.41c-3.51 0-6 1-7.27 3a6.77 6.77 0 0 0-1 3.06 17.22 17.22 0 0 0-8.19.14 6.82 6.82 0 0 0-1.05-3.2c-1.32-2-3.77-3-7.27-3h-18.41a11.16 11.16 0 0 0-8.77 3.73 9.4 9.4 0 0 0-1.71 8.1c2.09 10.4 14.08 11.74 20.06 11.74a31.16 31.16 0 0 0 3.37-.16c5.6 0 9.55-3.21 12.41-10.06a18 18 0 0 0 1.4-5.65 15.88 15.88 0 0 1 8.11-.17 17.89 17.89 0 0 0 1.41 5.82c2.86 6.85 6.81 10.05 12.41 10.06a31.08 31.08 0 0 0 3.36.16c6 0 18-1.34 20.07-11.74a9.4 9.4 0 0 0-1.75-8.1Zm-46.16 9.16c-2.66 6.35-6.26 9.31-11.34 9.31h-.07a36.64 36.64 0 0 1-10.21-.48c-6.84-1.39-10.85-4.8-11.93-10.14a8.27 8.27 0 0 1 1.47-7.1 10 10 0 0 1 7.83-3.28h18.41c3.07 0 5.18.83 6.26 2.46a5.68 5.68 0 0 1 .87 2.86c-.94.3-1.54.57-1.62.6a.73.73 0 0 0 .3 1.39.67.67 0 0 0 .31-.07s.38-.17 1-.38a17.84 17.84 0 0 1-1.28 4.83Zm46.69-1.3c-1.08 5.34-5.09 8.75-11.93 10.14a36.64 36.64 0 0 1-10.21.48h-.08c-5.07 0-8.67-3-11.33-9.31a17.94 17.94 0 0 1-1.27-4.94q.53.21 1 .48a.72.72 0 0 0 1-.3.74.74 0 0 0-.3-1 13 13 0 0 0-1.74-.74 5.53 5.53 0 0 1 .86-2.74c1.08-1.63 3.18-2.46 6.26-2.46h18.41a10 10 0 0 1 7.83 3.28 8.27 8.27 0 0 1 1.5 7.11Z"/><path d="M1530.52 516s20.23-2.2 29.65 0c0 0-5 8.22-13.23 8.22s-14.42-3.06-16.42-8.22Z" style="fill:#fff0e6"/><path class="cls-22" d="M1610.66 891.77c-30.78-12.91-49.67-36.52-54.63-68.28-4-25.65 2-50.82 5.89-63.54a18.7 18.7 0 0 1 25.08-11.73l52.06 21.84-7.45 17.76-51.5-21.61c-7.59 25-18.46 84.14 38 107.81Zm86.63 36.35 7.45-17.76c56.43 23.67 91-25.52 103.52-48.45l-51.51-21.61 7.45-17.75 52.06 21.84a18.7 18.7 0 0 1 9.24 26.13c-6.34 11.71-20.11 33.61-41.21 48.72-26.14 18.76-56.22 21.76-87 8.88Zm41.4-190.52a11.45 11.45 0 1 1-6.13-15 11.46 11.46 0 0 1 6.13 15Z"/><path class="cls-23" d="M1732.56 722.62a11.06 11.06 0 0 0-1.63-.53 7.43 7.43 0 1 1-13.31 6.56 1 1 0 0 0 0 .1 11.45 11.45 0 1 0 15-6.13Z"/><path class="cls-22" d="M1690.76 1045.46a6.61 6.61 0 0 0-3.9-7.92 49.37 49.37 0 0 1-19.61-14.76c-14.46-18.17-35.21-55.79 14.46-80.67C1783.24 891.26 1777.6 800 1777.6 800l-64.84-27.2-67-28.09s-67 60.82-32.11 168.89c17.06 52.88-24.31 64.43-47.41 66.84a49.44 49.44 0 0 1-24.27-3.64 6.6 6.6 0 0 0-8.39 2.76 6.41 6.41 0 0 0 3.17 9l72.67 30.49 72.67 30.49a6.42 6.42 0 0 0 8.67-4.08Z"/><path class="cls-22" d="m1777.6 800-131.79-55.29a8.34 8.34 0 0 1-4.47-10.92 8.34 8.34 0 0 1 10.92-4.47l131.79 55.29a8.34 8.34 0 0 1 4.47 10.92 8.34 8.34 0 0 1-10.92 4.47Z"/><path class="cls-23" d="M1784.65 784.88a8.35 8.35 0 0 1-11.5 6.62l-131.79-55.29a6.36 6.36 0 0 1-.59-.28 8.34 8.34 0 0 0 5 8.76L1777.6 800a8.34 8.34 0 0 0 7.05-15.1Z"/><path class="cls-22" d="M1774.92 780.76 1663.51 734c-4.86-2-7.35-7.13-5.57-11.38 1.78-4.25 7.17-6 12-4l111.41 46.74c4.86 2 7.35 7.14 5.57 11.39-1.75 4.25-7.14 6.05-12 4.01Z"/><path class="cls-23" d="M1781.58 765.46a7.91 7.91 0 0 1-.42 1.39c-1.78 4.24-7.17 6-12 4l-111.42-46.74-.19-.09c-.8 3.92 1.64 8.18 6 10l111.41 46.74c4.86 2 10.25.25 12-4s-.66-9.2-5.38-11.3Zm-90.82 280a6.61 6.61 0 0 0-3.9-7.92 49.37 49.37 0 0 1-19.61-14.76c-14.46-18.17-35.21-55.79 14.46-80.67 101.53-50.85 97.44-141.48 97.44-141.48l-66.39-27.85-1.13-.48c9 33 6.53 72.57-9.51 110.8-30.07 71.69-97 112.73-153.35 95.95a51 51 0 0 1-6.75-2.27 6.6 6.6 0 0 0-8.39 2.76 6.41 6.41 0 0 0 3.17 9l72.67 30.49 72.67 30.49a6.42 6.42 0 0 0 8.62-4.06Z"/><path class="cls-20" d="M1532.29 809.48s37.82-26.07 50.23-17 13.39 30.63-38 32.42Zm271.23 83.86s-15.66 12.85-22 21.15 9.75 18.63 22 3.91 0-25.06 0-25.06Z"/></svg>