<svg id="Слой_1" data-name="Слой 1" xmlns="http://www.w3.org/2000/svg" viewBox="0 0 3050 1918.43"><defs><style>.cls-1{fill:#4364cc;}.cls-2{fill:#768fdb;}.cls-3{fill:#95adf5;}.cls-4{fill:#f37a50;}.cls-5{fill:#2c2858;}.cls-6{fill:#8a284c;}.cls-7{fill:#e62552;}.cls-8{fill:#3f964f;}.cls-9{fill:#0e6a41;}.cls-10{fill:#de623c;}.cls-11{fill:#fff;}.cls-12{fill:#e86686;}.cls-13{fill:#201d40;}.cls-14{fill:#494c7f;}.cls-15{fill:#ffd0b7;}.cls-16{fill:#f5a3b7;}</style></defs><path class="cls-1" d="M1738.88,1552.75l-42.21,196c-1.12,5.22-3,8.36-5,8.36h0c-3.72,0-6.56-10.46-6-22l9.19-182.36Z"/><path class="cls-1" d="M2813.59,1552.75l42.21,196c1.13,5.22,3,8.36,5,8.36h0c3.72,0,6.56-10.46,6-22l-9.19-182.36Z"/><path class="cls-1" d="M2486.4,1552.75l42.2,196c1.13,5.22,3,8.36,5,8.36h0c3.72,0,6.56-10.46,6-22l-9.18-182.36Z"/><path class="cls-2" d="M1681.89,1263.69h450.2a47.28,47.28,0,0,1,47.28,47.28v240.34a36.76,36.76,0,0,1-36.76,36.76H1681.89a0,0,0,0,1,0,0V1263.69A0,0,0,0,1,1681.89,1263.69Z" transform="translate(3861.27 2851.77) rotate(180)"/><path class="cls-1" d="M1776.28,1263.69h450.2a47.28,47.28,0,0,1,47.28,47.28v240.34a36.76,36.76,0,0,1-36.76,36.76H1776.28a0,0,0,0,1,0,0V1263.69A0,0,0,0,1,1776.28,1263.69Z" transform="translate(4050.04 2851.77) rotate(180)"/><path class="cls-2" d="M1999.69,1141.43h804.93a0,0,0,0,1,0,0v169a35.29,35.29,0,0,1-35.29,35.29H1999.69a0,0,0,0,1,0,0v-204.3A0,0,0,0,1,1999.69,1141.43Z" transform="translate(4804.3 2487.16) rotate(180)"/><path class="cls-3" d="M1775.44,1340.18H2859.36a0,0,0,0,1,0,0v49.71a43.1,43.1,0,0,1-43.1,43.1H1775.44a0,0,0,0,1,0,0v-92.82A0,0,0,0,1,1775.44,1340.18Z" transform="translate(4634.81 2773.17) rotate(180)"/><rect class="cls-2" x="1775.44" y="1422.21" width="1083.92" height="166.1" transform="translate(4634.81 3010.52) rotate(180)"/><path class="cls-1" d="M2750,1141.43h109.3a0,0,0,0,1,0,0v204.3a0,0,0,0,1,0,0h-74a35.29,35.29,0,0,1-35.29-35.29v-169A0,0,0,0,1,2750,1141.43Z" transform="translate(5609.23 2487.16) rotate(180)"/><path class="cls-4" d="M1774.06,1706.43,1739,1717.85l-16.69-30.79c1.44-1.23,2.37-22.5,2.73-38.67l58.09,4.1C1781.39,1668.9,1778.05,1690.43,1774.06,1706.43Z"/><path class="cls-5" d="M1712.37,1729.36s-13.71-19.91-29.43-20.17c0,0-29.37,3.66-38.89,16.75-3,4.11-1.18,12.34.46,17.57,1,3.27,4.08,6.69,13,8.85,13.14,3.19,30.67,4.51,62.1-5.91,37.71-12.51,44.11-8.82,58-14.34,14.39-5.72,8.46-23.37,3.29-40.6C1780.86,1691.51,1771.59,1713.64,1712.37,1729.36Z"/><path class="cls-1" d="M1721.14,1684a149.49,149.49,0,0,1-38.49,18.16c-12.33,3.71-45.29,12.41-38.43,34.32,1,3.27,4.08,6.69,13,8.85,13.14,3.19,30.67,4.51,62.1-5.92,37.71-12.5,44.11-8.82,58-14.33,14.38-5.72,6.23-25.66,1.06-42.89h0c-.07,4.47-1.35,16.26-27.31,28.48C1743.29,1714.33,1747.45,1678.79,1721.14,1684Z"/><path class="cls-4" d="M1913.19,1702.35,1879,1716.2l-18.81-29.54c1.35-1.32.78-22.61,0-38.76h58.24C1917.86,1664.39,1916.05,1686.1,1913.19,1702.35Z"/><path class="cls-6" d="M1945.72,1309c-78.69,19.87-188.39,79-198.76,91.5-21.44,25.79-23.16,109.93-24.12,259.19h63.8c18-117.75,41-170,41.86-217.34,0,0,61.38.15,150.94-41.46,44.15-20.52,90-44.07,73.68-84.1C2040.12,1284.85,2020.75,1290,1945.72,1309Z"/><path class="cls-7" d="M2032.85,1301.73c-65.73,11.25-148.95,92.88-159.33,105.36-21.43,25.79-12.36,108.78-13.31,258h60.22c6.1-77.7,36.18-166.29,32.31-222.78,0,0,64.69-9.6,154.25-51.21,44.15-20.51,89-18.47,78.28-69.76C2178.23,1287.66,2109.12,1288.67,2032.85,1301.73Z"/><path class="cls-4" d="M1838,1033.69c16.62-16.77,5.72-34,5.72-34,9.12-2,57.24,70.94,78,117.27,36.19-36.48,100-85.75,117.22-88.62,0,0,23.27-6.26,31.63,21.88,7.46,25.1-21.64,42.89-21.64,42.89s-124.5,87.9-142.91,80.08C1877.33,1161.08,1851.4,1056.47,1838,1033.69Z"/><path class="cls-4" d="M1812,1031.62c10.16.62,22.72-4.4,26.64,4.71l20.05-9.78,1.21-12.09c-17.23-27.61-59.22-35.44-63.38-35.8-10.8-.95-15.82-2.07-16.66-.62S1776.33,989.1,1792,991c19.67,2.36,6.62,18.09-33.29,3.12-10-3.75-28.8,1.12-22,8.42C1744.21,1010.56,1765.74,1028.8,1812,1031.62Z"/><path class="cls-5" d="M2032.92,1048.92c-31-4.3-80.26-17.61-59.48-65.35S1997.3,954.1,1976,906s6.17-95.38,42.45-92.57,50.85,28.62,91.25,12.77,83.49,16,74.91,53.26-11.86,55.07,6.85,70.76,89.41,21.9,71.23,72.8-31.46,50.81-17,71.87-2.13,52-41.39,56.58-77.2-2.64-100.41-42.65S2032.92,1048.92,2032.92,1048.92Z"/><path class="cls-8" d="M1966.62,1067c26.26-15.91,69.71-60.42,102.75-47.23s21.83,53.15,6,69.66-64.91,54.33-64.91,54.33Z"/><path class="cls-9" d="M2181.28,1312.19c-14.71-75.88-11.11-75.71-17.22-111.42-15.1-88.24,62.63-159.09-51-194.06l-50.31,11.15c-48.35,23.87-57.8,66.78-62.56,96.08-9.07,55.75-1.15,139-1.15,139l-19,47.54s13.19,13.23,75.74,25S2181.28,1312.19,2181.28,1312.19Z"/><path class="cls-4" d="M2192.8,1086.81c12.07,44.7,13.37,192.49,3.13,205.73l-51.84-28.74s-24-153.86-26.74-179.59C2112.49,1039.66,2173.23,1013.81,2192.8,1086.81Z"/><path class="cls-8" d="M2116.4,1157.31c-4.81-34-11.23-98.9,17.28-120.18s55.79,4.65,61.62,26.76,12.4,83.73,12.4,83.73Z"/><path class="cls-4" d="M2133,930.74c-1.08,40.11-27.49,72-59,71.11s-56.18-34-55.11-74.16,27.48-72,59-71.11S2134.1,890.62,2133,930.74Z"/><path class="cls-4" d="M2122.75,953.92l-43.31,41.43s.23,23-.46,30.57c-1.44,15.71,17.38,18.47,30.19,6.17s14-25.38,14-25.38Z"/><path class="cls-5" d="M2012.42,913.83c14.41-1.77,44.58-10.72,53-26.35,13.67,25.26,53,43.73,83.6,49.83-4.72-27.88-15.68-78.69-69.69-89.34C2036.85,839.6,2012.42,913.83,2012.42,913.83Z"/><path d="M2034.43,936.81a5.48,5.48,0,1,1-3.93-6.68A5.48,5.48,0,0,1,2034.43,936.81Z"/><path d="M2079.42,936.24a5.94,5.94,0,1,1-4.25-7.23A5.93,5.93,0,0,1,2079.42,936.24Z"/><path class="cls-5" d="M2084.82,930.07a2,2,0,0,1-1.13-.76c-4.24-5.66-12.36-5.22-12.44-5.22A2.06,2.06,0,1,1,2071,920c.42,0,10.42-.62,16,6.86a2.06,2.06,0,0,1-2.17,3.23Z"/><path class="cls-5" d="M2021.76,929.45a2.59,2.59,0,0,1-.62-.27,2.06,2.06,0,0,1-.58-2.86,14.49,14.49,0,0,1,13.34-6.43,2.07,2.07,0,0,1-.5,4.1,10.34,10.34,0,0,0-9.4,4.6A2.07,2.07,0,0,1,2021.76,929.45Z"/><path class="cls-10" d="M2041,945.68c-2.31,3.65-4.23,7.32-6.66,9.68a2.17,2.17,0,0,0-.1,3c3.12,3.55,10.44,5.46,14.87,6.33a.58.58,0,0,0,.39-1.08c-4.86-2.73-7.18-5-8.23-6.3a2.57,2.57,0,0,1-.47-2.3c.49-1.84,1.44-5.58,2-8.62A1,1,0,0,0,2041,945.68Z"/><path class="cls-4" d="M2118.65,934c-6.09,7.21-6.25,17.1-.35,22.08s15.62,3.18,21.71-4,6.24-17.1.34-22.08S2124.73,926.82,2118.65,934Z"/><path class="cls-10" d="M2126.88,952.49a2.09,2.09,0,0,1-.84-.45c-3.58-3.13-4.73-7.25-3.07-11a10,10,0,0,1,9.89-5.91,2.06,2.06,0,1,1-.46,4.1,5.89,5.89,0,0,0-5.65,3.48c-.92,2.1-.21,4.33,2,6.26a2.07,2.07,0,0,1-1.88,3.56Z"/><path class="cls-4" d="M2148,1259.59c15-4.74,49.64,27.74,48.43,33.1-44.53,81.68-158.62,115.22-158.62,115.22l-19.94-15.06S2094.7,1328.16,2148,1259.59Z"/><path class="cls-4" d="M2037.81,1407.91c-2.22,21.31-34,49.08-61.73,51.06s-18.84-24.79-7.93-31.73,26.62-13.86,22.73-19.33-10.84-4-15.79-10.43c-4.42-5.71,17.21-17,42.78-4.63Z"/><path class="cls-11" d="M2060.46,977.11c.8,3.81-1.92,7.61-6.08,8.49s-8.18-1.5-9-5.3,1.92-7.61,6.08-8.49S2059.65,973.3,2060.46,977.11Z"/><path class="cls-5" d="M1853.27,1729.56s-15.08-18.9-30.78-18c0,0-29,5.71-37.61,19.44-2.7,4.31-.32,12.39,1.69,17.5,1.25,3.19,4.54,6.38,13.57,7.91,13.33,2.26,30.91,2.34,61.53-10.27,36.74-15.13,43.38-11.9,56.83-18.38,13.94-6.71,6.8-23.9.42-40.72C1918.92,1687,1911.23,1709.71,1853.27,1729.56Z"/><path class="cls-1" d="M1858.82,1683.7a149.39,149.39,0,0,1-37.11,20.82c-12,4.57-44.31,15.57-35.93,36.94,1.26,3.19,4.55,6.39,13.57,7.92,13.34,2.25,30.92,2.34,61.54-10.27,36.73-15.13,43.38-11.91,56.83-18.38,13.94-6.72,4.42-26-2-42.86h0c.25,4.46-.2,16.31-25.24,30.33C1883.05,1712.38,1884.7,1676.65,1858.82,1683.7Z"/><g id="c"><path class="cls-12" d="M2373.63,1016.75c-39.68,12.06-59.44,95.6-76.33,183C2270.23,1253,2250,1294,2224,1347.61c24.25,5.49,44.33-9.78,44.33-9.78s61.66-56.66,90.26-119c6.55-14.27,8.78-43,12.49-55.73C2372.75,1123.13,2373.63,1016.75,2373.63,1016.75Z"/><path class="cls-4" d="M2164.33,1706.61,2129.27,1718l-16.69-30.79c1.45-1.22,2.37-22.5,2.73-38.67l58.1,4.1C2171.67,1669.07,2168.33,1690.6,2164.33,1706.61Z"/><path class="cls-13" d="M2102.64,1729.53s-13.71-19.91-29.43-20.17c0,0-29.37,3.66-38.89,16.75-3,4.11-1.18,12.34.46,17.57,1,3.27,4.08,6.69,13,8.85,13.14,3.19,30.67,4.52,62.1-5.91,37.71-12.51,44.11-8.82,58-14.34,14.39-5.71,8.46-23.36,3.29-40.59C2171.13,1691.69,2161.86,1713.81,2102.64,1729.53Z"/><path class="cls-5" d="M2111.41,1684.18a149.52,149.52,0,0,1-38.48,18.16c-12.34,3.71-45.3,12.42-38.44,34.32,1,3.27,4.08,6.69,13,8.85,13.14,3.19,30.67,4.51,62.1-5.91,37.71-12.51,44.11-8.83,58-14.34,14.38-5.72,6.23-25.66,1.06-42.89h0c-.07,4.47-1.35,16.26-27.31,28.48C2133.56,1714.5,2137.72,1679,2111.41,1684.18Z"/><path class="cls-14" d="M2118.19,1710.68a3,3,0,0,1-2.89-2.11c-3.44-10.71-14.75-10.73-15.22-10.73a3,3,0,0,1-.1-6.07c5.61-.11,17.23,2.9,21.1,14.94a3,3,0,0,1-2,3.82A3,3,0,0,1,2118.19,1710.68Z"/><path class="cls-14" d="M2104.5,1717.25a3,3,0,0,1-2.89-2.11c-3.44-10.71-14.74-10.72-15.22-10.72a3,3,0,0,1-.09-6.07c5.61-.11,17.23,2.89,21.09,14.94a3,3,0,0,1-2,3.82A3.33,3.33,0,0,1,2104.5,1717.25Z"/><path class="cls-4" d="M2304.54,1710.74l-34.17,13.86-18.81-29.55c1.35-1.32,4.88-24,4.1-40.11l54.14,1.35C2309.22,1672.78,2307.4,1694.49,2304.54,1710.74Z"/><path class="cls-13" d="M2336,1309.13c-78.69,19.87-188.39,79-198.76,91.5-21.43,25.79-27.16,109.94-28.11,259.19h70c18-117.75,38.82-170,39.63-217.34,0,0,61.38.15,150.94-41.46,44.15-20.51,90-44.07,73.68-84.1C2430.39,1285,2411,1290.19,2336,1309.13Z"/><path class="cls-5" d="M2425.55,1310.12c-65.73,11.26-149,92.88-159.33,105.36-21.43,25.79-18.81,108.79-19.77,258l69.81,1.77c6.1-77.7,33-168.06,29.18-224.55,0,0,61.21-17.61,155.9-45.65,51.8-15.33,67-24.53,74.8-59.55,2.65-11.91,5.48-39.29-.17-45C2551,1275.39,2487.76,1299.47,2425.55,1310.12Z"/><path class="cls-13" d="M2244.62,1738s-15.08-18.9-30.77-18c0,0-29,5.71-37.62,19.44-2.69,4.31-.31,12.39,1.69,17.5,1.25,3.19,4.54,6.39,13.57,7.92,13.34,2.25,30.91,2.34,61.54-10.27,36.73-15.13,43.37-11.91,56.83-18.38,13.94-6.72,6.79-23.91.41-40.73C2310.27,1695.38,2302.59,1718.1,2244.62,1738Z"/><path class="cls-5" d="M2250.18,1692.1a149.74,149.74,0,0,1-37.12,20.81c-12,4.57-44.31,15.58-35.92,36.95,1.25,3.19,4.54,6.38,13.57,7.91,13.34,2.26,30.91,2.34,61.53-10.27,36.74-15.13,43.38-11.9,56.83-18.38,13.95-6.71,4.42-26-2-42.85h0c.25,4.45-.19,16.31-25.23,30.32C2274.4,1720.78,2276.05,1685,2250.18,1692.1Z"/><path class="cls-14" d="M2264.73,1718.82a3,3,0,0,1-2.88-2.11c-3.44-10.71-14.75-10.73-15.23-10.73a3,3,0,0,1-.09-6.07c5.61-.11,17.23,2.9,21.1,14.94a3.06,3.06,0,0,1-2.9,4Z"/><path class="cls-14" d="M2251.05,1725.39a3,3,0,0,1-2.89-2.11c-3.44-10.7-14.74-10.72-15.22-10.72a3,3,0,0,1-.1-6.07c5.61-.11,17.23,2.89,21.1,14.94a3,3,0,0,1-2,3.82A3,3,0,0,1,2251.05,1725.39Z"/><polygon id="v-2" class="cls-4" points="2472.33 949.89 2472.3 949.89 2445.83 949.98 2439.84 1012.49 2470.73 1028.81 2503.68 1012.68 2498.35 949.98 2472.33 949.89"/><path class="cls-5" d="M2484.31,940.39c22.2,9.63,43-16.16,43-16.16,14.79,1.89,16.62-12.86,16.62-12.86,7.3,0,18.36-4.56,19.31-18.18.8-11.53-9.95-14.2-7.52-27.26,1.94-10.48,16.68-33.19-15.15-44.81,0,0,4.85-19.11-13.27-29.45-22.21-12.67-32.41-.09-43.64-.65-12.55-.62-34.46-18.89-45.83,7.18,0,0-16.8-4.6-28.1,5.25-10.53,9.17-10.67,24.88-7.45,31.64,0,0-14.74.55-21.61,12.3-4.6,7.89-4.58,19.86,2.29,27.72a25.67,25.67,0,0,0,9.39,6.84c5.2,2.53,1.17,17.27,5.13,21.53a115.24,115.24,0,0,0,21.58,17.65Z"/><path class="cls-4" d="M2532.28,909.69c-7.42,43.21-46.53,76-80.46,70.17s-49.85-48.06-42.43-91.27,40.94-73.51,74.88-67.68S2539.7,866.48,2532.28,909.69Z"/><path d="M2425.78,898.75a6,6,0,1,1-3.21-7.84A6,6,0,0,1,2425.78,898.75Z"/><path d="M2473.46,907.27a6.48,6.48,0,1,1-3.47-8.48A6.47,6.47,0,0,1,2473.46,907.27Z"/><path class="cls-10" d="M2436.67,906.19c-6.59,7.93-14.88,17.58-14.88,17.58s1.94,9.57,14,11.32c-4.82-2.8-9.4-6.91-6.4-13.43S2436.67,906.19,2436.67,906.19Z"/><path class="cls-5" d="M2484.19,901a3.41,3.41,0,0,0,.66-.22,3,3,0,0,0,1.41-4c-1.94-4.06-8-11.26-16.88-9.4a3,3,0,0,0,1.22,5.85c6.61-1.38,10.23,6,10.27,6.12A3,3,0,0,0,2484.19,901Z"/><path class="cls-5" d="M2429.26,885.05a2.5,2.5,0,0,0,1.32-4.12c-.15-.16-3.63-3.89-8.65-3.75-3.44.09-6.62,1.9-9.46,5.38a2.49,2.49,0,1,0,3.85,3.15c1.89-2.3,3.82-3.5,5.74-3.56a7.22,7.22,0,0,1,4.84,2.14A2.48,2.48,0,0,0,2429.26,885.05Z"/><path class="cls-5" d="M2406.38,836.32l79.46-37.92,68.2,64.34-26.83,54.92c5.78-27.31-13.11-23.48-19.27-33.77S2501.57,860,2478.21,865c0,0-13.07-16.06-26.11-2.64-10.09,10.38-18.22,5.44-27.19,3.51-10.59-2.27-11.07,8.52-17.3,6.34Z"/><path class="cls-4" d="M2523.15,905c-7.74,6.82-9.49,17.47-3.91,23.8s16.37,5.94,24.11-.88,9.48-17.47,3.9-23.8S2530.88,898.15,2523.15,905Z"/><path class="cls-10" d="M2529.09,926.23a2.24,2.24,0,0,1-.83-.61c-3.38-4-4-8.6-1.55-12.42a10.87,10.87,0,0,1,11.63-4.81,2.25,2.25,0,0,1-1.15,4.36,6.43,6.43,0,0,0-6.67,2.85c-1.33,2.12-.92,4.65,1.17,7.09a2.26,2.26,0,0,1-2.6,3.54Z"/><path class="cls-11" d="M2449.39,953.2c-.87,4.83-5.86,8-11.14,7s-8.84-5.65-8-10.48,5.87-8,11.15-7S2450.27,948.37,2449.39,953.2Z"/><g id="v"><path id="v-25" class="cls-15" d="M2527.9,1028.1a171.07,171.07,0,0,0-59.71-8.9c-68.67,0-79.19,17.35-79.19,17l51,139.94,28.23,13.93,30.89-9.15S2539.12,1032.27,2527.9,1028.1Z"/><path class="cls-16" d="M2579.24,1306.37s-55.91,14.31-107.82,14.66c-51.89-.38-106.75-19.06-106.75-19.06s7-95.31,6.26-131.91c-1-42,2.7-97.77,2.7-153.31,0,0,36.81-5.93,57.58-8.49,3.37-.42,6.32-.74,8.63-.94,0,0,11.83,24.82,63.38,0a66.06,66.06,0,0,1,9.82,0c21.65,1.3,56.54,9.47,56.54,9.47,0,55.39,2.23,109.68,1.48,151.72C2573.37,1206,2579.24,1306.37,2579.24,1306.37Z"/></g><g id="c-2" data-name="c"><path class="cls-4" d="M2442.69,1136.82l-12.56-7.28s-3.48-17.82-23.66-18.25l5.64,18.25s-9.93,7.71-33.49-5.48c-23-5.18-13.18,11.61-20.82,12.82-11.26,1.78,8.21,23.9,31.2,27.29,29.75,4.38,33.28-1.71,33.28-1.71l16.84,5.89Z"/><path id="c-3" data-name="c" class="cls-12" d="M2559,1155.86c-42-2.93-113.63-23.67-113.63-23.67-11.47,17.58-8.3,40.94-8.3,40.94,65.22,57.18,163.38,75.66,193.49,61.9,27.5-12.56,8.09-179.94-60.95-218.28l-2.39.22C2543.51,1057,2559,1155.86,2559,1155.86Z"/></g><path id="c-4" data-name="c" class="cls-4" d="M2229.33,1352.52a6.77,6.77,0,0,0,.81-1.93c.1.06.19.14.3.2,6.08,3.89,13.26,3.5,16-.87a7,7,0,0,0,.92-2.32c4.47,1.05,8.71,0,10.69-3.14a7.28,7.28,0,0,0,1.09-4.16c4.4,1.33,9,.14,11.19-3.35,2.79-4.37.84-10.59-4.35-13.91s-11.66-2.46-14.44,1.9a8,8,0,0,0-1.23,3.6c-5.65-2.78-11.76-2.09-14.28,1.85a6.83,6.83,0,0,0-.92,2.32c-4.48-1-8.71,0-10.7,3.15a7.26,7.26,0,0,0-1.09,3.84c-3.85-1.36-8-.39-9.91,2.68-2.35,3.69-.71,8.95,3.68,11.74S2227,1356.2,2229.33,1352.52Z"/><path class="cls-12" d="M2513,1007.28h0c-3.59,6-8.66,10.52-15.82,14.12-11.33,5.71-26.73,8.14-36.21,7.4-7.51-.59-15.84-3.66-21.17-7.89-5.67-4.49-8.13-10.23-8.63-12.66,3.37-.42,6.84-.94,9.14-1.14,0,0,11.32,25,62.87.2A66.06,66.06,0,0,1,2513,1007.28Z"/></g><path class="cls-2" d="M2471.11,1260h330.8a40.31,40.31,0,0,1,40.31,40.31v252.73a31.34,31.34,0,0,1-31.34,31.34H2462.14a31.34,31.34,0,0,1-31.34-31.34V1300.33A40.31,40.31,0,0,1,2471.11,1260Z" transform="translate(5273.03 2844.42) rotate(180)"/><path class="cls-1" d="M2528.86,1260H2823a36.34,36.34,0,0,1,36.34,36.34V1560a28.26,28.26,0,0,1-28.26,28.26H2528.86a0,0,0,0,1,0,0V1260A0,0,0,0,1,2528.86,1260Z" transform="translate(5388.22 2848.33) rotate(180)"/><g id="с"><path id="с-2" data-name="с" class="cls-1" d="M1356,1762.2h0a13.81,13.81,0,0,0,13.81-13.81V1503.63h-27.63v244.76A13.81,13.81,0,0,0,1356,1762.2Z"/><path id="с-3" data-name="с" class="cls-1" d="M1259,1762.2h0a13.81,13.81,0,0,0,13.81-13.81V1503.63h-27.62v244.76A13.81,13.81,0,0,0,1259,1762.2Z"/><path id="с-4" data-name="с" class="cls-1" d="M1131.84,1762.2h0a13.81,13.81,0,0,0,13.82-13.81V1503.63H1118v244.76A13.81,13.81,0,0,0,1131.84,1762.2Z"/><path id="с-5" data-name="с" class="cls-1" d="M1034.91,1762.2h0a13.81,13.81,0,0,0,13.81-13.81V1503.63h-27.63v244.76A13.81,13.81,0,0,0,1034.91,1762.2Z"/><rect id="с-6" data-name="с" class="cls-2" x="1011.98" y="1100.6" width="142.78" height="342.4" transform="translate(2166.75 2543.59) rotate(180)"/><path class="cls-3" d="M1045,1376.07h356.38a57.86,57.86,0,0,1,57.86,57.86v41.56a0,0,0,0,1,0,0H1045a0,0,0,0,1,0,0v-99.42a0,0,0,0,1,0,0Z"/><path id="с-7" data-name="с" class="cls-1" d="M1045,1133.59v298.05a6,6,0,0,0,6,6h375.6a33,33,0,0,1,33,33h0a33,33,0,0,1-33,33H1012a33,33,0,0,1-33-33V1133.59a33,33,0,0,1,33-33h0A33,33,0,0,1,1045,1133.59Z"/></g><g id="c-5" data-name="c"><rect class="cls-4" x="1177.82" y="996.12" width="59.26" height="38.22"/><path class="cls-4" d="M922,998.93c9.91-7.06,22.93-12.31,22.93-12.31,13.53,21.11,21.36,97.42,34,122.05,56.34-74.7,105.68-95.32,125.2-98.57,0,0,33.8-8.81,43.26,23,8.45,28.41-24.49,48.55-24.49,48.55s-140.89,99.47-161.73,90.63C928.66,1158.55,897.74,1084.2,922,998.93Z"/><path class="cls-4" d="M891.16,1008.32c11.5.7,25.72-5,30.15,5.32L944,1002.58l2.16-14c-19.49-31.24-67.82-39.79-72.52-40.2-12.23-1.08-17.9-2.34-18.86-.7s-3.95,12.51,13.79,14.65c22.26,2.67,7.48,20.47-37.68,3.52-11.31-4.24-32.59,1.27-24.89,9.53C814.48,984.49,838.85,1005.13,891.16,1008.32Z"/><path class="cls-6" d="M915.42,1008.21c9.92-7.06,29.46-21.59,29.46-21.59,20.78,28.61,28.57,86.84,34,122.05,56.34-74.7,105.68-95.32,125.2-98.57,0,0,33.8-8.81,43.26,23,8.45,28.41-24.3,61.37-24.3,61.37s-142,103.09-162.81,94.25C927.78,1175,891.22,1093.49,915.42,1008.21Z"/><path class="cls-4" d="M1482.78,998.93c-9.91-7.06-22.93-12.31-22.93-12.31-13.53,21.11-21.36,97.42-34,122.05-56.34-74.7-105.68-95.32-125.2-98.57,0,0-33.8-8.81-43.26,23-8.45,28.41,24.49,48.55,24.49,48.55s140.9,99.47,161.73,90.63C1476.07,1158.55,1507,1084.2,1482.78,998.93Z"/><path class="cls-4" d="M1513.57,1008.32c-11.5.7-25.72-5-30.15,5.32l-22.69-11.06-2.16-14c19.49-31.24,67.81-39.79,72.52-40.2,12.23-1.08,17.9-2.34,18.86-.7s4,12.51-13.79,14.65c-22.26,2.67-7.48,20.47,37.68,3.52,11.31-4.24,32.59,1.27,24.89,9.53C1590.25,984.49,1565.88,1005.13,1513.57,1008.32Z"/><path class="cls-6" d="M1492.36,1007.56c-9.91-7.06-32.51-20.94-32.51-20.94-13.53,21.11-26.5,90.73-39.12,115.35-56.34-74.7-100.53-88.62-120-91.87,0,0-33.8-8.81-43.26,23-8.45,28.41,22.58,61.37,22.58,61.37s129.33,117.74,159.26,105.93C1482.71,1183.29,1516.57,1092.83,1492.36,1007.56Z"/><path class="cls-4" d="M1488.77,1683.61l14,42.46,39.81-31c-1.44-1.22,3-29.49,2.67-45.66l-52.51-1.84C1490.14,1664.11,1488.77,1683.61,1488.77,1683.61Z"/><path class="cls-13" d="M1555.08,1729.46s13.74-19.89,29.45-20.13c0,0,29.37,3.7,38.86,16.81,3,4.11,1.17,12.34-.48,17.57-1,3.26-4.09,6.68-13,8.82-13.14,3.17-30.67,4.47-62.08-6-37.68-12.56-44.08-8.88-57.95-14.42-14.37-5.73-8.42-23.37-3.22-40.59C1486.67,1691.52,1495.9,1713.66,1555.08,1729.46Z"/><path class="cls-5" d="M1546.38,1684.11a149.49,149.49,0,0,0,38.45,18.2c12.33,3.73,45.27,12.48,38.38,34.38-1,3.26-4.09,6.68-13,8.82-13.15,3.17-30.67,4.47-62.08-6-37.68-12.56-44.09-8.88-58-14.42-14.37-5.73-6.2-25.66-1-42.87h0c.06,4.46,1.32,16.25,27.26,28.5C1524.2,1714.38,1520.09,1678.85,1546.38,1684.11Z"/><path class="cls-14" d="M1539.57,1710.59a3,3,0,0,0,2.89-2.11c3.45-10.7,14.76-10.7,15.24-10.7a3,3,0,0,0,.1-6.07c-5.61-.12-17.23,2.87-21.11,14.91a3,3,0,0,0,2.88,4Z"/><path class="cls-14" d="M1553.24,1717.18a3,3,0,0,0,2.9-2.11c3.45-10.7,14.75-10.7,15.23-10.7a3,3,0,0,0,.1-6.07c-5.61-.12-17.23,2.88-21.11,14.91a3,3,0,0,0,2,3.82A3,3,0,0,0,1553.24,1717.18Z"/><path class="cls-13" d="M1326.19,1316.06c78.16,21.77,193.25,84.45,203.32,97.18,20.79,26.29,11.44,99.47,19.14,262.73l-64.06-1.71c-14.47-125.8-44.84-174.69-44.49-222.07,0,0-61.35-1.34-149.85-45.12-43.63-21.57-88.89-46.24-71.6-85.85C1232.42,1289.66,1251.66,1295.29,1326.19,1316.06Z"/><path class="cls-4" d="M1349.61,1711.34l37.65,21.36,18.18-30c-1.42-1.25-5-31.08-5.1-47.25l-50.4,4C1351.41,1675.83,1345.88,1695.27,1349.61,1711.34Z"/><path class="cls-5" d="M1242.73,1318.66c91.26,12.24,157.75,103,165,117.52,14.79,29.52-7.2,89.13,1.8,238.08l-67.39-4.43c-10.27-77.24-26.87-137.6-26.06-194.2,0,0-47.88-35.18-143.92-58.07-52.54-12.52-68.25-20.89-77.89-55.42-3.28-11.75-7.58-38.93-2.24-44.92C1115.65,1290.74,1180.18,1310.28,1242.73,1318.66Z"/><path class="cls-13" d="M1403.77,1746s17.63-16.54,33-13.45c0,0,27.92,9.82,34.43,24.63,2,4.65-1.46,12.31-4.18,17.07-1.7,3-5.41,5.67-14.56,5.89-13.52.32-30.92-2.12-59.41-19-34.18-20.24-41.22-18-53.6-26.33-12.83-8.65-3.29-24.63,5.43-40.36C1344.92,1694.5,1349.27,1718.09,1403.77,1746Z"/><path class="cls-14" d="M1386.61,1724.22a3,3,0,0,0,3.17-1.67c4.93-10.11,16.12-8.5,16.6-8.43a3,3,0,0,0,1-6c-5.54-.91-17.47.4-23,11.77a3,3,0,0,0,1.4,4A2.71,2.71,0,0,0,1386.61,1724.22Z"/><path class="cls-14" d="M1399.21,1732.69a3.06,3.06,0,0,0,3.17-1.67c4.93-10.11,16.12-8.5,16.59-8.43a3,3,0,0,0,1-6c-5.54-.91-17.47.4-23,11.76a3,3,0,0,0,1.4,4.06A3,3,0,0,0,1399.21,1732.69Z"/><g id="v-2-2" data-name="v"><path id="h-5" class="cls-7" d="M1104.05,1010.1s47.68-7.33,67.87-4.24c37.14,31.26,70.88,0,70.88,0,22.65-.76,57.88,4.24,57.88,4.24,0,62.11,31.6,311.39,31.6,311.39s-29.1,35.17-124.81,35.17c-58-.38-119.26-14.52-119.26-14.52S1104.05,1072,1104.05,1010.1Z"/></g><path class="cls-5" d="M1156.05,981.19c-32.17,3.82-49-37.26-49-37.26-19.7-3.26-16.38-22.88-16.38-22.88-9.35-2.86-21.8-12.9-17.79-30.73,3.4-15.11,18.21-14.39,20.12-32.08,1.53-14.19-8.66-49,36.64-51.66,0,0,1.12-26.38,28.33-32.68,33.36-7.73,41.61,12.32,56.23,15.92,16.33,4,51.45-11,56,26.82,0,0,23.32.55,34,17.52,10,15.81,4.13,36-2.58,43.45,0,0,18.69,6.37,23,24.08,2.88,11.88-1.75,27.23-13.58,34.67a34.44,34.44,0,0,1-14.67,5.18c-7.64,1.24-8.13,21.69-14.85,25.64-10.8,6.34-22.54,10.81-34.46,14.35Z"/><path class="cls-4" d="M1279.69,902.66c3.71,55.46-26.74,102.67-68,105.43s-77.72-40-81.43-95.45,29.29-91.29,70.55-94S1276,847.19,1279.69,902.66Z"/><path d="M1175,931.18a8,8,0,1,1,7.41-8.47A8,8,0,0,1,1175,931.18Z"/><path d="M1238.26,927a8,8,0,1,1,7.41-8.47A8,8,0,0,1,1238.26,927Z"/><path class="cls-10" d="M1214.45,931c10.77,6.72,14.17,9.54,18.3,11.75-2.12,9.35-16.2,14.86-20.36,14.08,9.69-5.61,10.65-12.39,10.65-12.39Z"/><path class="cls-4" d="M1143.59,921.77c7.71,11.5,7.05,25.46-1.48,31.17s-21.68,1-29.39-10.49-7-25.46,1.48-31.17S1135.89,910.26,1143.59,921.77Z"/><path class="cls-10" d="M1136,943.58a2.48,2.48,0,0,1-1-.14,2.54,2.54,0,0,1-1.57-3.24c1.52-4.42,1.33-7.88-.57-10.29-2.94-3.71-9.34-4.49-13.91-4a2.55,2.55,0,0,1-.51-5.07c6.14-.62,14.21.62,18.42,5.94,2.1,2.66,4,7.43,1.38,15.11A2.56,2.56,0,0,1,1136,943.58Z"/><path class="cls-5" d="M1104.05,873.14l88.29-74,100,48.52-10.82,71.62c-3.17-32.93-23.16-21.89-33.79-31.33-10.78-9.56-15.68-24.74-40.31-10.76,0,0-20.48-13.51-30.46,6.3-7.72,15.32-18.67,12.62-29.5,13.63-12.77,1.19-9.48,13.56-17.31,13.31Z"/><path class="cls-5" d="M1248.17,907.89a24.7,24.7,0,0,1-18.09-7.37,3.54,3.54,0,0,1,5.33-4.67c.29.32,6,6.5,16.86,4.58a3.54,3.54,0,0,1,1.24,7A31,31,0,0,1,1248.17,907.89Z"/><path class="cls-5" d="M1163.82,907.89a24.76,24.76,0,0,0,18.1-7.37,3.55,3.55,0,0,0-5.34-4.67c-.28.32-6,6.5-16.85,4.58a3.54,3.54,0,0,0-1.24,7A30.84,30.84,0,0,0,1163.82,907.89Z"/><path class="cls-11" d="M1229.77,977.29c0,6-6.47,10.91-14.45,10.91s-14.45-4.88-14.45-10.91,6.47-10.9,14.45-10.9S1229.77,971.27,1229.77,977.29Z"/></g><path class="cls-1" d="M857,1611.92l42.21,134.57c1.12,3.59,3,5.74,5,5.74h0c3.72,0,6.56-7.18,6-15.11L901,1611.92Z"/><path class="cls-1" d="M467.75,1611.92l-42.2,134.57c-1.13,3.59-3,5.74-5,5.74h0c-3.72,0-6.56-7.18-6-15.11l9.19-125.2Z"/><path class="cls-1" d="M267,1611.92l-42.2,134.57c-1.13,3.59-3,5.74-5,5.74h0c-3.73,0-6.56-7.18-6-15.11l9.19-125.2Z"/><path class="cls-2" d="M508.87,1292.49H898.28A36.76,36.76,0,0,1,935,1329.26v240.34a47.28,47.28,0,0,1-47.28,47.28H508.87a0,0,0,0,1,0,0V1292.49A0,0,0,0,1,508.87,1292.49Z"/><path class="cls-1" d="M414.48,1292.49H803.9a36.76,36.76,0,0,1,36.76,36.76v240.34a47.28,47.28,0,0,1-47.28,47.28H414.48a0,0,0,0,1,0,0V1292.49a0,0,0,0,1,0,0Z"/><path class="cls-2" d="M332,1170.23H652.19a36.37,36.37,0,0,1,36.37,36.37v167.93a0,0,0,0,1,0,0H332a0,0,0,0,1,0,0v-204.3A0,0,0,0,1,332,1170.23Z"/><path class="cls-3" d="M298.21,1369H798.39a43.1,43.1,0,0,1,43.1,43.1v49.71a0,0,0,0,1,0,0H298.21a0,0,0,0,1,0,0V1369A0,0,0,0,1,298.21,1369Z"/><rect class="cls-2" x="298.21" y="1451.01" width="543.29" height="166.1"/><path class="cls-1" d="M258,1170.23h74a0,0,0,0,1,0,0v204.3a0,0,0,0,1,0,0H222.73a0,0,0,0,1,0,0v-169A35.28,35.28,0,0,1,258,1170.23Z"/><path class="cls-4" d="M936.33,1571.35l20.74,29s18.53,23.62,40.61,12.53,12.3-46.56,12.3-46.56l-25.38-33.4Z"/><path class="cls-5" d="M1009.11,1562.49a166.12,166.12,0,0,0,46.53-8.47c13.55-4.61,49-18,56.94,6.19,1.18,3.62.63,8.69-6,16.39-9.82,11.38-24.81,23.91-60,34.8-42.18,13.07-45.58,20.53-61.69,24.52-16.7,4.13-22.22-19.16-28.68-38.09h0c2.95,4,11.72,13.83,43.09,8.09C1008.68,1604.21,982,1574.77,1009.11,1562.49Z"/><path class="cls-4" d="M760.66,1671.1v19.67s1.34,30,25.75,33.81,37.08-30.72,37.08-30.72l-.9-31Z"/><path class="cls-13" d="M689,1202.94c-11.6-2.7-44.93,34.59-43.7,38.57,30.73,41.86,130.52,65.35,130.52,65.35l16.25-10.6S733.4,1251.64,689,1202.94Z"/><path class="cls-13" d="M602.1,1085.18c3.5,34.58,32.49,149.78,43.22,156.33l43.7-38.57s-29.74-121-34.71-139.79C645.79,1030.61,596.26,1028.74,602.1,1085.18Z"/><path class="cls-5" d="M713.93,894.19c3.18-43.32-9.35-81.6-43.89-101.09-35-19.75-78.87-.38-78.87-.38h0s-37.13-13.2-70.78,23.86-8.19,69.68-22,96.71c-8.15,16-49.6,19.3-38.89,71.44,3.09,15,21.17,25.16,36.49,26.17,26.92,1.77,52-8.64,62.89,1.77,36,34.28,115.62,21.88,126.76-9.48,3.46-9.72,75.13,9.09,68-57.14C750,912.49,711.08,932.9,713.93,894.19Z"/><path class="cls-4" d="M628.7,980.24s-4.65,42.6-6.13,58.31l-57.36,1.69c17.53-27.13,9.62-104.47,9.62-104.47Z"/><path class="cls-4" d="M544.94,925.77c11.92,49.81,53.31,82.59,92.43,73.23s61.16-57.34,49.24-107.15-53.31-82.6-92.43-73.23S533,876,544.94,925.77Z"/><path d="M668.27,904.93a7,7,0,1,0,3.15-9.38A7,7,0,0,0,668.27,904.93Z"/><path d="M613.33,918.48a7.57,7.57,0,1,0,3.4-10.15A7.57,7.57,0,0,0,613.33,918.48Z"/><path class="cls-5" d="M605,912.21a2.6,2.6,0,0,0,1.22-1.25c3.79-8.18,14.05-9.78,14.15-9.8a2.63,2.63,0,0,0-.75-5.21c-.53.08-13.17,2-18.18,12.8a2.64,2.64,0,0,0,1.28,3.5A2.6,2.6,0,0,0,605,912.21Z"/><path class="cls-5" d="M683.53,894.79a2.64,2.64,0,0,0,.68-4.23,18.46,18.46,0,0,0-18.35-4.5,2.63,2.63,0,1,0,1.7,5,13.19,13.19,0,0,1,13,3.27A2.63,2.63,0,0,0,683.53,894.79Z"/><path class="cls-10" d="M663.77,920.14c3.84,4,7.21,8,10.87,10.33a2.77,2.77,0,0,1,.92,3.69c-3,5.25-11.61,9.58-16.91,11.83a.74.74,0,0,1-.77-1.24c5.35-4.69,7.64-8.15,8.61-10a3.31,3.31,0,0,0,0-3c-1.1-2.17-3.28-6.59-4.76-10.24A1.25,1.25,0,0,1,663.77,920.14Z"/><path class="cls-4" d="M563.76,926.08c9.51,7.4,12.31,19.7,6.25,27.48s-18.66,8.09-28.17.7-12.3-19.7-6.25-27.48S554.26,918.69,563.76,926.08Z"/><path class="cls-10" d="M558.35,951.3a2.61,2.61,0,0,0,.93-.77c3.65-4.86,4-10.31.92-14.6a12.71,12.71,0,0,0-13.91-4.77,2.63,2.63,0,0,0,1.66,5,7.51,7.51,0,0,1,8,2.84c1.71,2.39,1.41,5.36-.85,8.36a2.63,2.63,0,0,0,3.28,3.94Z"/><path class="cls-10" d="M645.07,973.57c-19,0-27-11.82-27.4-12.46a2.9,2.9,0,0,1,4.86-3.18c.45.67,10.84,15.63,38,7.28a2.91,2.91,0,1,1,1.7,5.56A58.32,58.32,0,0,1,645.07,973.57Z"/><path class="cls-5" d="M544,921.36c46.7-6.25,112-53.82,117.39-78.24-9-29.33-57.15-44.07-84.33-30.48S524.19,884.45,544,921.36Z"/><path class="cls-8" d="M584.25,1387.89l236.92-10.12s11.69-59.13,2.9-82.58-226.47-18.61-226.47-18.61Z"/><path class="cls-9" d="M514.57,1236.06c-6.42,14.84-31.44,59-29,94.79,2.5,37,28.57,69.12,72.68,68.42,0,0,83.16-47.27,65.16-144.1C623.38,1255.17,579.85,1238.17,514.57,1236.06Z"/><path class="cls-9" d="M551.65,1407.7l208.7,19.69s71.58-30.21,71.18-55.87-210.69-95.86-210.69-95.86C497.51,1239.69,456.4,1392.76,551.65,1407.7Z"/><path class="cls-9" d="M831.53,1371.52l-4.19,294.37s-52.09,22-70.35.17c-8.62-99.91-49.64-188.42-3.84-249.32C814.49,1335.16,831.53,1371.52,831.53,1371.52Z"/><path class="cls-8" d="M823.56,1294.51,997.23,1533s-38.76,51.8-65.82,45.74c-46.7-59.09-141.19-128.38-141.79-202.74C788.81,1276.42,823.56,1294.51,823.56,1294.51Z"/><path class="cls-4" d="M648.06,1349.1c-14.26-3.31-33.63-4.79-31.53-12.09s10.06-8.38,12.94-17.07c2.55-7.7-24.39-11.6-47,10.69l-2.23-2.62L564,1350.88l2.89,2.18c11.07,21.59,54.64,41.11,84.65,32.9C681.9,1377.65,662.31,1352.41,648.06,1349.1Z"/><path class="cls-5" d="M572.67,1020.23l50.8,9.23c19.37,36.3,40.75,72.52,40.8,94.36.06,28.76-39.39,147.86-39.39,147.86-51.92,6.84-94.21.28-126.27-20.53,25-70.81-17.72-158.24,28.66-206C538.85,1033.21,557.37,1027.93,572.67,1020.23Z"/><path class="cls-4" d="M802.19,1297.53c-.56-.72-1-1-1.19-1.85a.41.41,0,0,0-.33.48c-5.55,5.66-13.65,6.82-17.39,2.56l-1.67-2.17c-4.58,2.14-9.62,1.87-12.25-1a8.15,8.15,0,0,1-2.06-4.17c-4.5,2.54-9.55,2.28-13.14-1.19-4.14-4.18-3.46-11.39,1.45-16.09s11.88-5.23,15.94-1.44a6.94,6.94,0,0,1,2,3.77c5.38-4.38,12.36-4.9,15.94-1.44l1.67,2.17c4.58-2.14,9.63-1.88,12.26.94a8,8,0,0,1,2,3.78c3.7-2.39,8.74-2.12,11.37.69,3.59,3.46,2.68,9.47-1.11,13.53S805.7,1300.59,802.19,1297.53Z"/><path class="cls-13" d="M512,1063.63c-24.48,38.13-106.29,120.93-98.8,174.39,5.25,37.43,147.55,119,147.55,119L581.64,1326l-91.93-106.49s80.45-113.27,90.32-135.46C597.29,1045.23,550.45,1003.66,512,1063.63Z"/><path class="cls-5" d="M825,1690.23a166.22,166.22,0,0,0,42.77,20.18c13.71,4.12,50.35,13.8,42.72,38.14-1.14,3.64-4.54,7.44-14.43,9.84-14.6,3.54-34.09,5-69-6.58-41.91-13.9-49-9.8-64.44-15.93-16-6.35-6.93-28.51-1.18-47.66h0c.07,5,1.49,18.07,30.35,31.64C800.4,1723.92,795.78,1684.43,825,1690.23Z"/><path class="cls-2" d="M317.11,1292.49h236.7a36.76,36.76,0,0,1,36.76,36.76v240.34a47.28,47.28,0,0,1-47.28,47.28H317.11a0,0,0,0,1,0,0V1292.49A0,0,0,0,1,317.11,1292.49Z"/><path class="cls-1" d="M222.73,1292.49h236.7a36.76,36.76,0,0,1,36.76,36.76v240.34a47.28,47.28,0,0,1-47.28,47.28H222.73a0,0,0,0,1,0,0V1292.49A0,0,0,0,1,222.73,1292.49Z"/><path class="cls-7" d="M1536.52,539.34h309.12a69.29,69.29,0,0,1,69.29,69.28V752.73A69.29,69.29,0,0,1,1845.64,822h-2.29l24.81,83.12a3.94,3.94,0,0,1-6.16,4.26L1747.46,822H1536.52a69.28,69.28,0,0,1-69.28-69.28V608.62A69.28,69.28,0,0,1,1536.52,539.34Z"/><path class="cls-11" d="M1845.5,660.35H1548.72a34.3,34.3,0,0,1-34.3-34.3h0a34.3,34.3,0,0,1,34.3-34.29H1845.5a34.29,34.29,0,0,1,34.29,34.29h0A34.3,34.3,0,0,1,1845.5,660.35Z"/><path class="cls-11" d="M1845.5,765.08H1548.72a34.3,34.3,0,0,1-34.3-34.3h0a34.3,34.3,0,0,1,34.3-34.29H1845.5a34.29,34.29,0,0,1,34.29,34.29h0A34.3,34.3,0,0,1,1845.5,765.08Z"/><path class="cls-3" d="M2901.82,559.37H2616.06a64,64,0,0,0-64,64V756.62a64,64,0,0,0,64,64h2.12l-22.93,76.83a3.64,3.64,0,0,0,5.7,3.94l105.87-80.77h195a64,64,0,0,0,64-64V623.41A64,64,0,0,0,2901.82,559.37Z"/><rect class="cls-11" x="2585.85" y="613.82" width="339.39" height="58.14" rx="25.84"/><path class="cls-11" d="M2759,759.85H2624.23a29.07,29.07,0,0,1-29.07-29.07h0a29.08,29.08,0,0,1,29.07-29.07H2759A29.08,29.08,0,0,1,2788,730.78h0A29.07,29.07,0,0,1,2759,759.85Z"/><path class="cls-3" d="M2100.48,137.78H1814.73a64,64,0,0,0-64,64V335a64.05,64.05,0,0,0,64,64.05h2.12l-22.94,76.83a3.64,3.64,0,0,0,5.7,3.94l105.88-80.77h195A64,64,0,0,0,2164.53,335V201.82A64,64,0,0,0,2100.48,137.78Z"/><path class="cls-11" d="M2008.66,250.36H1813.59a29.06,29.06,0,0,1-29.07-29.06h0a29.06,29.06,0,0,1,29.07-29.07h195.07a29.06,29.06,0,0,1,29.07,29.07h0A29.06,29.06,0,0,1,2008.66,250.36Z"/><path class="cls-11" d="M2106.32,338.26H1822.9a29.06,29.06,0,0,1-29.07-29.07h0a29.07,29.07,0,0,1,29.07-29.07h283.42a29.07,29.07,0,0,1,29.07,29.07h0A29.06,29.06,0,0,1,2106.32,338.26Z"/><path class="cls-3" d="M654,344.2H1029a84,84,0,0,1,84,84V603a84,84,0,0,1-84,84h-2.79l30.1,100.81a4.78,4.78,0,0,1-7.48,5.17L909.87,687H654a84,84,0,0,1-84-84V428.23A84,84,0,0,1,654,344.2Z"/><rect class="cls-11" x="623.3" y="415.64" width="445.3" height="76.28" rx="33.9" transform="translate(1691.89 907.56) rotate(180)"/><path class="cls-11" d="M841.47,607.24h176.77a38.14,38.14,0,0,0,38.14-38.14h0A38.14,38.14,0,0,0,1018.24,531H841.47a38.13,38.13,0,0,0-38.14,38.13h0A38.13,38.13,0,0,0,841.47,607.24Z"/></svg>