<svg id="Слой_1" data-name="Слой 1" xmlns="http://www.w3.org/2000/svg" viewBox="0 0 3050 1918.43"><defs><style>.cls-1{fill:#4364cc}.cls-2{fill:#768fdb}.cls-3{fill:#95adf5}.cls-4{fill:#f37a50}.cls-5{fill:#2c2858}.cls-6{fill:#8a284c}.cls-7{fill:#e62552}.cls-8{fill:#3f964f}.cls-9{fill:#0e6a41}.cls-10{fill:#de623c}.cls-11{fill:#fff}.cls-12{fill:#e86686}.cls-13{fill:#201d40}.cls-14{fill:#494c7f}</style></defs><path class="cls-1" d="m1738.88 1552.75-42.21 196c-1.12 5.22-3 8.36-5 8.36-3.72 0-6.56-10.46-6-22l9.19-182.36Zm1074.71 0 42.21 196c1.13 5.22 3 8.36 5 8.36 3.72 0 6.56-10.46 6-22l-9.19-182.36Zm-327.19 0 42.2 196c1.13 5.22 3 8.36 5 8.36 3.72 0 6.56-10.46 6-22l-9.18-182.36Z"/><path class="cls-2" d="M1681.89 1263.69h450.2a47.28 47.28 0 0 1 47.28 47.28v240.34a36.76 36.76 0 0 1-36.76 36.76h-460.72v-324.38Z" transform="rotate(180 1930.635 1425.885)"/><path class="cls-1" d="M1776.28 1263.69h450.2a47.28 47.28 0 0 1 47.28 47.28v240.34a36.76 36.76 0 0 1-36.76 36.76h-460.72v-324.38Z" transform="rotate(180 2025.02 1425.885)"/><path class="cls-2" d="M1999.69 1141.43h804.93v169a35.29 35.29 0 0 1-35.29 35.29h-769.64v-204.3.01Z" transform="rotate(180 2402.15 1243.58)"/><path class="cls-3" d="M1775.44 1340.18h1083.92v49.71a43.1 43.1 0 0 1-43.1 43.1H1775.44v-92.82.01Z" transform="rotate(180 2317.405 1386.585)"/><path class="cls-2" transform="rotate(180 2317.405 1505.26)" d="M1775.44 1422.21h1083.92v166.1H1775.44z"/><path class="cls-1" d="M2750 1141.43h109.3v204.3h-74a35.29 35.29 0 0 1-35.29-35.29v-169l-.01-.01Z" transform="rotate(180 2804.615 1243.58)"/><path class="cls-4" d="m1774.06 1706.43-35.06 11.42-16.69-30.79c1.44-1.23 2.37-22.5 2.73-38.67l58.09 4.1c-1.74 16.41-5.08 37.94-9.07 53.94Z"/><path class="cls-5" d="M1712.37 1729.36s-13.71-19.91-29.43-20.17c0 0-29.37 3.66-38.89 16.75-3 4.11-1.18 12.34.46 17.57 1 3.27 4.08 6.69 13 8.85 13.14 3.19 30.67 4.51 62.1-5.91 37.71-12.51 44.11-8.82 58-14.34 14.39-5.72 8.46-23.37 3.29-40.6-.04 0-9.31 22.13-68.53 37.85Z"/><path class="cls-1" d="M1721.14 1684a149.49 149.49 0 0 1-38.49 18.16c-12.33 3.71-45.29 12.41-38.43 34.32 1 3.27 4.08 6.69 13 8.85 13.14 3.19 30.67 4.51 62.1-5.92 37.71-12.5 44.11-8.82 58-14.33 14.38-5.72 6.23-25.66 1.06-42.89-.07 4.47-1.35 16.26-27.31 28.48-7.78 3.66-3.62-31.88-29.93-26.67Z"/><path class="cls-4" d="M1913.19 1702.35 1879 1716.2l-18.81-29.54c1.35-1.32.78-22.61 0-38.76h58.24c-.57 16.49-2.38 38.2-5.24 54.45Z"/><path class="cls-6" d="M1945.72 1309c-78.69 19.87-188.39 79-198.76 91.5-21.44 25.79-23.16 109.93-24.12 259.19h63.8c18-117.75 41-170 41.86-217.34 0 0 61.38.15 150.94-41.46 44.15-20.52 90-44.07 73.68-84.1-13-31.94-32.37-26.79-107.4-7.79Z"/><path class="cls-7" d="M2032.85 1301.73c-65.73 11.25-148.95 92.88-159.33 105.36-21.43 25.79-12.36 108.78-13.31 258h60.22c6.1-77.7 36.18-166.29 32.31-222.78 0 0 64.69-9.6 154.25-51.21 44.15-20.51 89-18.47 78.28-69.76-7.04-33.68-76.15-32.67-152.42-19.61Z"/><path class="cls-4" d="M1838 1033.69c16.62-16.77 5.72-34 5.72-34 9.12-2 57.24 70.94 78 117.27 36.19-36.48 100-85.75 117.22-88.62 0 0 23.27-6.26 31.63 21.88 7.46 25.1-21.64 42.89-21.64 42.89s-124.5 87.9-142.91 80.08c-28.69-12.11-54.62-116.72-68.02-139.5Z"/><path class="cls-4" d="M1812 1031.62c10.16.62 22.72-4.4 26.64 4.71l20.05-9.78 1.21-12.09c-17.23-27.61-59.22-35.44-63.38-35.8-10.8-.95-15.82-2.07-16.66-.62S1776.33 989.1 1792 991c19.67 2.36 6.62 18.09-33.29 3.12-10-3.75-28.8 1.12-22 8.42 7.5 8.02 29.03 26.26 75.29 29.08Z"/><path class="cls-5" d="M2032.92 1048.92c-31-4.3-80.26-17.61-59.48-65.35S1997.3 954.1 1976 906s6.17-95.38 42.45-92.57 50.85 28.62 91.25 12.77 83.49 16 74.91 53.26-11.86 55.07 6.85 70.76 89.41 21.9 71.23 72.8-31.46 50.81-17 71.87-2.13 52-41.39 56.58-77.2-2.64-100.41-42.65-70.97-59.9-70.97-59.9Z"/><path class="cls-8" d="M1966.62 1067c26.26-15.91 69.71-60.42 102.75-47.23s21.83 53.15 6 69.66-64.91 54.33-64.91 54.33Z"/><path class="cls-9" d="M2181.28 1312.19c-14.71-75.88-11.11-75.71-17.22-111.42-15.1-88.24 62.63-159.09-51-194.06l-50.31 11.15c-48.35 23.87-57.8 66.78-62.56 96.08-9.07 55.75-1.15 139-1.15 139l-19 47.54s13.19 13.23 75.74 25 125.5-13.29 125.5-13.29Z"/><path class="cls-4" d="M2192.8 1086.81c12.07 44.7 13.37 192.49 3.13 205.73l-51.84-28.74s-24-153.86-26.74-179.59c-4.86-44.55 55.88-70.4 75.45 2.6Z"/><path class="cls-8" d="M2116.4 1157.31c-4.81-34-11.23-98.9 17.28-120.18s55.79 4.65 61.62 26.76 12.4 83.73 12.4 83.73Z"/><path class="cls-4" d="M2133 930.74c-1.08 40.11-27.49 72-59 71.11s-56.18-34-55.11-74.16 27.48-72 59-71.11 56.21 34.04 55.11 74.16Z"/><path class="cls-4" d="m2122.75 953.92-43.31 41.43s.23 23-.46 30.57c-1.44 15.71 17.38 18.47 30.19 6.17s14-25.38 14-25.38Z"/><path class="cls-5" d="M2012.42 913.83c14.41-1.77 44.58-10.72 53-26.35 13.67 25.26 53 43.73 83.6 49.83-4.72-27.88-15.68-78.69-69.69-89.34-42.48-8.37-66.91 65.86-66.91 65.86Z"/><path d="M2034.43 936.81a5.48 5.48 0 1 1-3.93-6.68 5.48 5.48 0 0 1 3.93 6.68Zm44.99-.57a5.94 5.94 0 1 1-4.25-7.23 5.93 5.93 0 0 1 4.25 7.23Z"/><path class="cls-5" d="M2084.82 930.07a2 2 0 0 1-1.13-.76c-4.24-5.66-12.36-5.22-12.44-5.22a2.06 2.06 0 1 1-.25-4.09c.42 0 10.42-.62 16 6.86a2.06 2.06 0 0 1-2.17 3.23Zm-63.06-.62a2.59 2.59 0 0 1-.62-.27 2.06 2.06 0 0 1-.58-2.86 14.49 14.49 0 0 1 13.34-6.43 2.07 2.07 0 0 1-.5 4.1 10.34 10.34 0 0 0-9.4 4.6 2.07 2.07 0 0 1-2.24.86Z"/><path class="cls-10" d="M2041 945.68c-2.31 3.65-4.23 7.32-6.66 9.68a2.17 2.17 0 0 0-.1 3c3.12 3.55 10.44 5.46 14.87 6.33a.58.58 0 0 0 .39-1.08c-4.86-2.73-7.18-5-8.23-6.3a2.57 2.57 0 0 1-.47-2.3c.49-1.84 1.44-5.58 2-8.62a1 1 0 0 0-1.8-.71Z"/><path class="cls-4" d="M2118.65 934c-6.09 7.21-6.25 17.1-.35 22.08s15.62 3.18 21.71-4 6.24-17.1.34-22.08-15.62-3.18-21.7 4Z"/><path class="cls-10" d="M2126.88 952.49a2.09 2.09 0 0 1-.84-.45c-3.58-3.13-4.73-7.25-3.07-11a10 10 0 0 1 9.89-5.91 2.06 2.06 0 1 1-.46 4.1 5.89 5.89 0 0 0-5.65 3.48c-.92 2.1-.21 4.33 2 6.26a2.07 2.07 0 0 1-1.88 3.56Z"/><path class="cls-4" d="M2148 1259.59c15-4.74 49.64 27.74 48.43 33.1-44.53 81.68-158.62 115.22-158.62 115.22l-19.94-15.06s76.83-64.69 130.13-133.26Zm-110.19 148.32c-2.22 21.31-34 49.08-61.73 51.06s-18.84-24.79-7.93-31.73 26.62-13.86 22.73-19.33-10.84-4-15.79-10.43c-4.42-5.71 17.21-17 42.78-4.63Z"/><path class="cls-11" d="M2060.46 977.11c.8 3.81-1.92 7.61-6.08 8.49s-8.18-1.5-9-5.3 1.92-7.61 6.08-8.49 8.19 1.49 9 5.3Z"/><path class="cls-5" d="M1853.27 1729.56s-15.08-18.9-30.78-18c0 0-29 5.71-37.61 19.44-2.7 4.31-.32 12.39 1.69 17.5 1.25 3.19 4.54 6.38 13.57 7.91 13.33 2.26 30.91 2.34 61.53-10.27 36.74-15.13 43.38-11.9 56.83-18.38 13.94-6.71 6.8-23.9.42-40.72 0-.04-7.69 22.67-65.65 42.52Z"/><path class="cls-1" d="M1858.82 1683.7a149.39 149.39 0 0 1-37.11 20.82c-12 4.57-44.31 15.57-35.93 36.94 1.26 3.19 4.55 6.39 13.57 7.92 13.34 2.25 30.92 2.34 61.54-10.27 36.73-15.13 43.38-11.91 56.83-18.38 13.94-6.72 4.42-26-2-42.86.25 4.46-.2 16.31-25.24 30.33-7.43 4.18-5.78-31.55-31.66-24.5Z"/><g id="c"><path class="cls-12" d="M2373.63 1016.75c-39.68 12.06-59.44 95.6-76.33 183-27.07 53.25-47.3 94.25-73.3 147.86 24.25 5.49 44.33-9.78 44.33-9.78s61.66-56.66 90.26-119c6.55-14.27 8.78-43 12.49-55.73 1.67-39.97 2.55-146.35 2.55-146.35Z"/><path class="cls-4" d="m2164.33 1706.61-35.06 11.39-16.69-30.79c1.45-1.22 2.37-22.5 2.73-38.67l58.1 4.1c-1.74 16.43-5.08 37.96-9.08 53.97Z"/><path class="cls-13" d="M2102.64 1729.53s-13.71-19.91-29.43-20.17c0 0-29.37 3.66-38.89 16.75-3 4.11-1.18 12.34.46 17.57 1 3.27 4.08 6.69 13 8.85 13.14 3.19 30.67 4.52 62.1-5.91 37.71-12.51 44.11-8.82 58-14.34 14.39-5.71 8.46-23.36 3.29-40.59-.04 0-9.31 22.12-68.53 37.84Z"/><path class="cls-5" d="M2111.41 1684.18a149.52 149.52 0 0 1-38.48 18.16c-12.34 3.71-45.3 12.42-38.44 34.32 1 3.27 4.08 6.69 13 8.85 13.14 3.19 30.67 4.51 62.1-5.91 37.71-12.51 44.11-8.83 58-14.34 14.38-5.72 6.23-25.66 1.06-42.89-.07 4.47-1.35 16.26-27.31 28.48-7.78 3.65-3.62-31.85-29.93-26.67Z"/><path class="cls-14" d="M2118.19 1710.68a3 3 0 0 1-2.89-2.11c-3.44-10.71-14.75-10.73-15.22-10.73a3 3 0 0 1-.1-6.07c5.61-.11 17.23 2.9 21.1 14.94a3 3 0 0 1-2 3.82 3 3 0 0 1-.89.15Zm-13.69 6.57a3 3 0 0 1-2.89-2.11c-3.44-10.71-14.74-10.72-15.22-10.72a3 3 0 0 1-.09-6.07c5.61-.11 17.23 2.89 21.09 14.94a3 3 0 0 1-2 3.82 3.33 3.33 0 0 1-.89.14Z"/><path class="cls-4" d="m2304.54 1710.74-34.17 13.86-18.81-29.55c1.35-1.32 4.88-24 4.1-40.11l54.14 1.35c-.58 16.49-2.4 38.2-5.26 54.45Z"/><path class="cls-13" d="M2336 1309.13c-78.69 19.87-188.39 79-198.76 91.5-21.43 25.79-27.16 109.94-28.11 259.19h70c18-117.75 38.82-170 39.63-217.34 0 0 61.38.15 150.94-41.46 44.15-20.51 90-44.07 73.68-84.1-12.99-31.92-32.38-26.73-107.38-7.79Z"/><path class="cls-5" d="M2425.55 1310.12c-65.73 11.26-149 92.88-159.33 105.36-21.43 25.79-18.81 108.79-19.77 258l69.81 1.77c6.1-77.7 33-168.06 29.18-224.55 0 0 61.21-17.61 155.9-45.65 51.8-15.33 67-24.53 74.8-59.55 2.65-11.91 5.48-39.29-.17-45-24.97-25.11-88.21-1.03-150.42 9.62Z"/><path class="cls-13" d="M2244.62 1738s-15.08-18.9-30.77-18c0 0-29 5.71-37.62 19.44-2.69 4.31-.31 12.39 1.69 17.5 1.25 3.19 4.54 6.39 13.57 7.92 13.34 2.25 30.91 2.34 61.54-10.27 36.73-15.13 43.37-11.91 56.83-18.38 13.94-6.72 6.79-23.91.41-40.73 0-.1-7.68 22.62-65.65 42.52Z"/><path class="cls-5" d="M2250.18 1692.1a149.74 149.74 0 0 1-37.12 20.81c-12 4.57-44.31 15.58-35.92 36.95 1.25 3.19 4.54 6.38 13.57 7.91 13.34 2.26 30.91 2.34 61.53-10.27 36.74-15.13 43.38-11.9 56.83-18.38 13.95-6.71 4.42-26-2-42.85.25 4.45-.19 16.31-25.23 30.32-7.44 4.19-5.79-31.59-31.66-24.49Z"/><path class="cls-14" d="M2264.73 1718.82a3 3 0 0 1-2.88-2.11c-3.44-10.71-14.75-10.73-15.23-10.73a3 3 0 0 1-.09-6.07c5.61-.11 17.23 2.9 21.1 14.94a3.06 3.06 0 0 1-2.9 4Zm-13.68 6.57a3 3 0 0 1-2.89-2.11c-3.44-10.7-14.74-10.72-15.22-10.72a3 3 0 0 1-.1-6.07c5.61-.11 17.23 2.89 21.1 14.94a3 3 0 0 1-2 3.82 3 3 0 0 1-.89.14Z"/><path id="v-2" class="cls-4" d="M2472.33 949.89h-.03l-26.47.09-5.99 62.51 30.89 16.32 32.95-16.13-5.33-62.7-26.02-.09z"/><path class="cls-5" d="M2484.31 940.39c22.2 9.63 43-16.16 43-16.16 14.79 1.89 16.62-12.86 16.62-12.86 7.3 0 18.36-4.56 19.31-18.18.8-11.53-9.95-14.2-7.52-27.26 1.94-10.48 16.68-33.19-15.15-44.81 0 0 4.85-19.11-13.27-29.45-22.21-12.67-32.41-.09-43.64-.65-12.55-.62-34.46-18.89-45.83 7.18 0 0-16.8-4.6-28.1 5.25-10.53 9.17-10.67 24.88-7.45 31.64 0 0-14.74.55-21.61 12.3-4.6 7.89-4.58 19.86 2.29 27.72a25.67 25.67 0 0 0 9.39 6.84c5.2 2.53 1.17 17.27 5.13 21.53a115.24 115.24 0 0 0 21.58 17.65Z"/><path class="cls-4" d="M2532.28 909.69c-7.42 43.21-46.53 76-80.46 70.17s-49.85-48.06-42.43-91.27 40.94-73.51 74.88-67.68 55.43 45.57 48.01 88.78Z"/><path d="M2425.78 898.75a6 6 0 1 1-3.21-7.84 6 6 0 0 1 3.21 7.84Zm47.68 8.52a6.48 6.48 0 1 1-3.47-8.48 6.47 6.47 0 0 1 3.47 8.48Z"/><path class="cls-10" d="M2436.67 906.19c-6.59 7.93-14.88 17.58-14.88 17.58s1.94 9.57 14 11.32c-4.82-2.8-9.4-6.91-6.4-13.43s7.28-15.47 7.28-15.47Z"/><path class="cls-5" d="M2484.19 901a3.41 3.41 0 0 0 .66-.22 3 3 0 0 0 1.41-4c-1.94-4.06-8-11.26-16.88-9.4a3 3 0 0 0 1.22 5.85c6.61-1.38 10.23 6 10.27 6.12a3 3 0 0 0 3.32 1.65Zm-54.93-15.95a2.5 2.5 0 0 0 1.32-4.12c-.15-.16-3.63-3.89-8.65-3.75-3.44.09-6.62 1.9-9.46 5.38a2.49 2.49 0 1 0 3.85 3.15c1.89-2.3 3.82-3.5 5.74-3.56a7.22 7.22 0 0 1 4.84 2.14 2.48 2.48 0 0 0 2.36.76Z"/><path class="cls-5" d="m2406.38 836.32 79.46-37.92 68.2 64.34-26.83 54.92c5.78-27.31-13.11-23.48-19.27-33.77s-6.37-23.89-29.73-18.89c0 0-13.07-16.06-26.11-2.64-10.09 10.38-18.22 5.44-27.19 3.51-10.59-2.27-11.07 8.52-17.3 6.34Z"/><path class="cls-4" d="M2523.15 905c-7.74 6.82-9.49 17.47-3.91 23.8s16.37 5.94 24.11-.88 9.48-17.47 3.9-23.8-16.37-5.97-24.1.88Z"/><path class="cls-10" d="M2529.09 926.23a2.24 2.24 0 0 1-.83-.61c-3.38-4-4-8.6-1.55-12.42a10.87 10.87 0 0 1 11.63-4.81 2.25 2.25 0 0 1-1.15 4.36 6.43 6.43 0 0 0-6.67 2.85c-1.33 2.12-.92 4.65 1.17 7.09a2.26 2.26 0 0 1-2.6 3.54Z"/><path class="cls-11" d="M2449.39 953.2c-.87 4.83-5.86 8-11.14 7s-8.84-5.65-8-10.48 5.87-8 11.15-7 8.87 5.65 7.99 10.48Z"/><g id="v"><path id="v-25" d="M2527.9 1028.1a171.07 171.07 0 0 0-59.71-8.9c-68.67 0-79.19 17.35-79.19 17l51 139.94 28.23 13.93 30.89-9.15s40-148.65 28.78-152.82Z" style="fill:#ffd0b7"/><path d="M2579.24 1306.37s-55.91 14.31-107.82 14.66c-51.89-.38-106.75-19.06-106.75-19.06s7-95.31 6.26-131.91c-1-42 2.7-97.77 2.7-153.31 0 0 36.81-5.93 57.58-8.49 3.37-.42 6.32-.74 8.63-.94 0 0 11.83 24.82 63.38 0a66.06 66.06 0 0 1 9.82 0c21.65 1.3 56.54 9.47 56.54 9.47 0 55.39 2.23 109.68 1.48 151.72 2.31 37.49 8.18 137.86 8.18 137.86Z" style="fill:#f5a3b7"/></g><g id="c-2" data-name="c"><path class="cls-4" d="m2442.69 1136.82-12.56-7.28s-3.48-17.82-23.66-18.25l5.64 18.25s-9.93 7.71-33.49-5.48c-23-5.18-13.18 11.61-20.82 12.82-11.26 1.78 8.21 23.9 31.2 27.29 29.75 4.38 33.28-1.71 33.28-1.71l16.84 5.89Z"/><path id="c-3" data-name="c" class="cls-12" d="M2559 1155.86c-42-2.93-113.63-23.67-113.63-23.67-11.47 17.58-8.3 40.94-8.3 40.94 65.22 57.18 163.38 75.66 193.49 61.9 27.5-12.56 8.09-179.94-60.95-218.28l-2.39.22c-23.71 40.03-8.22 138.89-8.22 138.89Z"/></g><path id="c-4" data-name="c" class="cls-4" d="M2229.33 1352.52a6.77 6.77 0 0 0 .81-1.93c.1.06.19.14.3.2 6.08 3.89 13.26 3.5 16-.87a7 7 0 0 0 .92-2.32c4.47 1.05 8.71 0 10.69-3.14a7.28 7.28 0 0 0 1.09-4.16c4.4 1.33 9 .14 11.19-3.35 2.79-4.37.84-10.59-4.35-13.91s-11.66-2.46-14.44 1.9a8 8 0 0 0-1.23 3.6c-5.65-2.78-11.76-2.09-14.28 1.85a6.83 6.83 0 0 0-.92 2.32c-4.48-1-8.71 0-10.7 3.15a7.26 7.26 0 0 0-1.09 3.84c-3.85-1.36-8-.39-9.91 2.68-2.35 3.69-.71 8.95 3.68 11.74s9.91 2.08 12.24-1.6Z"/><path class="cls-12" d="M2513 1007.28c-3.59 6-8.66 10.52-15.82 14.12-11.33 5.71-26.73 8.14-36.21 7.4-7.51-.59-15.84-3.66-21.17-7.89-5.67-4.49-8.13-10.23-8.63-12.66 3.37-.42 6.84-.94 9.14-1.14 0 0 11.32 25 62.87.2a66.06 66.06 0 0 1 9.82-.03Z"/></g><path class="cls-2" d="M2471.11 1260h330.8a40.31 40.31 0 0 1 40.31 40.31v252.73a31.34 31.34 0 0 1-31.34 31.34h-348.74a31.34 31.34 0 0 1-31.34-31.34v-252.71a40.31 40.31 0 0 1 40.31-40.33Z" transform="rotate(180 2636.515 1422.21)"/><path class="cls-1" d="M2528.86 1260H2823a36.34 36.34 0 0 1 36.34 36.34V1560a28.26 28.26 0 0 1-28.26 28.26h-302.22V1260Z" transform="rotate(180 2694.11 1424.165)"/><g id="с"><path id="с-2" data-name="с" class="cls-1" d="M1356 1762.2a13.81 13.81 0 0 0 13.81-13.81v-244.76h-27.63v244.76a13.81 13.81 0 0 0 13.82 13.81Z"/><path id="с-3" data-name="с" class="cls-1" d="M1259 1762.2a13.81 13.81 0 0 0 13.81-13.81v-244.76h-27.62v244.76a13.81 13.81 0 0 0 13.81 13.81Z"/><path id="с-4" data-name="с" class="cls-1" d="M1131.84 1762.2a13.81 13.81 0 0 0 13.82-13.81v-244.76H1118v244.76a13.81 13.81 0 0 0 13.84 13.81Z"/><path id="с-5" data-name="с" class="cls-1" d="M1034.91 1762.2a13.81 13.81 0 0 0 13.81-13.81v-244.76h-27.63v244.76a13.81 13.81 0 0 0 13.82 13.81Z"/><path id="с-6" data-name="с" class="cls-2" transform="rotate(180 1083.375 1271.795)" d="M1011.98 1100.6h142.78V1443h-142.78z"/><path class="cls-3" d="M1045 1376.07h356.38a57.86 57.86 0 0 1 57.86 57.86v41.56H1045v-99.42Z"/><path id="с-7" data-name="с" class="cls-1" d="M1045 1133.59v298.05a6 6 0 0 0 6 6h375.6a33 33 0 0 1 33 33 33 33 0 0 1-33 33H1012a33 33 0 0 1-33-33v-337.05a33 33 0 0 1 33-33 33 33 0 0 1 33 33Z"/></g><g id="c-5" data-name="c"><path class="cls-4" d="M1177.82 996.12h59.26v38.22h-59.26zM922 998.93c9.91-7.06 22.93-12.31 22.93-12.31 13.53 21.11 21.36 97.42 34 122.05 56.34-74.7 105.68-95.32 125.2-98.57 0 0 33.8-8.81 43.26 23 8.45 28.41-24.49 48.55-24.49 48.55s-140.89 99.47-161.73 90.63c-32.51-13.73-63.43-88.08-39.17-173.35Z"/><path class="cls-4" d="M891.16 1008.32c11.5.7 25.72-5 30.15 5.32l22.69-11.06 2.16-14c-19.49-31.24-67.82-39.79-72.52-40.2-12.23-1.08-17.9-2.34-18.86-.7s-3.95 12.51 13.79 14.65c22.26 2.67 7.48 20.47-37.68 3.52-11.31-4.24-32.59 1.27-24.89 9.53 8.48 9.11 32.85 29.75 85.16 32.94Z"/><path class="cls-6" d="M915.42 1008.21c9.92-7.06 29.46-21.59 29.46-21.59 20.78 28.61 28.57 86.84 34 122.05 56.34-74.7 105.68-95.32 125.2-98.57 0 0 33.8-8.81 43.26 23 8.45 28.41-24.3 61.37-24.3 61.37s-142 103.09-162.81 94.25c-32.45-13.72-69.01-95.23-44.81-180.51Z"/><path class="cls-4" d="M1482.78 998.93c-9.91-7.06-22.93-12.31-22.93-12.31-13.53 21.11-21.36 97.42-34 122.05-56.34-74.7-105.68-95.32-125.2-98.57 0 0-33.8-8.81-43.26 23-8.45 28.41 24.49 48.55 24.49 48.55s140.9 99.47 161.73 90.63c32.46-13.73 63.39-88.08 39.17-173.35Z"/><path class="cls-4" d="M1513.57 1008.32c-11.5.7-25.72-5-30.15 5.32l-22.69-11.06-2.16-14c19.49-31.24 67.81-39.79 72.52-40.2 12.23-1.08 17.9-2.34 18.86-.7s4 12.51-13.79 14.65c-22.26 2.67-7.48 20.47 37.68 3.52 11.31-4.24 32.59 1.27 24.89 9.53-8.48 9.11-32.85 29.75-85.16 32.94Z"/><path class="cls-6" d="M1492.36 1007.56c-9.91-7.06-32.51-20.94-32.51-20.94-13.53 21.11-26.5 90.73-39.12 115.35-56.34-74.7-100.53-88.62-120-91.87 0 0-33.8-8.81-43.26 23-8.45 28.41 22.58 61.37 22.58 61.37s129.33 117.74 159.26 105.93c43.4-17.11 77.26-107.57 53.05-192.84Z"/><path class="cls-4" d="m1488.77 1683.61 14 42.46 39.81-31c-1.44-1.22 3-29.49 2.67-45.66l-52.51-1.84c-2.6 16.54-3.97 36.04-3.97 36.04Z"/><path class="cls-13" d="M1555.08 1729.46s13.74-19.89 29.45-20.13c0 0 29.37 3.7 38.86 16.81 3 4.11 1.17 12.34-.48 17.57-1 3.26-4.09 6.68-13 8.82-13.14 3.17-30.67 4.47-62.08-6-37.68-12.56-44.08-8.88-57.95-14.42-14.37-5.73-8.42-23.37-3.22-40.59.01 0 9.24 22.14 68.42 37.94Z"/><path class="cls-5" d="M1546.38 1684.11a149.49 149.49 0 0 0 38.45 18.2c12.33 3.73 45.27 12.48 38.38 34.38-1 3.26-4.09 6.68-13 8.82-13.15 3.17-30.67 4.47-62.08-6-37.68-12.56-44.09-8.88-58-14.42-14.37-5.73-6.2-25.66-1-42.87.06 4.46 1.32 16.25 27.26 28.5 7.81 3.66 3.7-31.87 29.99-26.61Z"/><path class="cls-14" d="M1539.57 1710.59a3 3 0 0 0 2.89-2.11c3.45-10.7 14.76-10.7 15.24-10.7a3 3 0 0 0 .1-6.07c-5.61-.12-17.23 2.87-21.11 14.91a3 3 0 0 0 2.88 4Zm13.67 6.59a3 3 0 0 0 2.9-2.11c3.45-10.7 14.75-10.7 15.23-10.7a3 3 0 0 0 .1-6.07c-5.61-.12-17.23 2.88-21.11 14.91a3 3 0 0 0 2 3.82 3 3 0 0 0 .88.15Z"/><path class="cls-13" d="M1326.19 1316.06c78.16 21.77 193.25 84.45 203.32 97.18 20.79 26.29 11.44 99.47 19.14 262.73l-64.06-1.71c-14.47-125.8-44.84-174.69-44.49-222.07 0 0-61.35-1.34-149.85-45.12-43.63-21.57-88.89-46.24-71.6-85.85 13.77-31.56 33.01-25.93 107.54-5.16Z"/><path class="cls-4" d="m1349.61 1711.34 37.65 21.36 18.18-30c-1.42-1.25-5-31.08-5.1-47.25l-50.4 4c1.47 16.38-4.06 35.82-.33 51.89Z"/><path class="cls-5" d="M1242.73 1318.66c91.26 12.24 157.75 103 165 117.52 14.79 29.52-7.2 89.13 1.8 238.08l-67.39-4.43c-10.27-77.24-26.87-137.6-26.06-194.2 0 0-47.88-35.18-143.92-58.07-52.54-12.52-68.25-20.89-77.89-55.42-3.28-11.75-7.58-38.93-2.24-44.92 23.62-26.48 88.15-6.94 150.7 1.44Z"/><path class="cls-13" d="M1403.77 1746s17.63-16.54 33-13.45c0 0 27.92 9.82 34.43 24.63 2 4.65-1.46 12.31-4.18 17.07-1.7 3-5.41 5.67-14.56 5.89-13.52.32-30.92-2.12-59.41-19-34.18-20.24-41.22-18-53.6-26.33-12.83-8.65-3.29-24.63 5.43-40.36.04.05 4.39 23.64 58.89 51.55Z"/><path class="cls-14" d="M1386.61 1724.22a3 3 0 0 0 3.17-1.67c4.93-10.11 16.12-8.5 16.6-8.43a3 3 0 0 0 1-6c-5.54-.91-17.47.4-23 11.77a3 3 0 0 0 1.4 4 2.71 2.71 0 0 0 .83.33Zm12.6 8.47a3.06 3.06 0 0 0 3.17-1.67c4.93-10.11 16.12-8.5 16.59-8.43a3 3 0 0 0 1-6c-5.54-.91-17.47.4-23 11.76a3 3 0 0 0 1.4 4.06 3 3 0 0 0 .84.28Z"/><g id="v-2-2" data-name="v"><path id="h-5" class="cls-7" d="M1104.05 1010.1s47.68-7.33 67.87-4.24c37.14 31.26 70.88 0 70.88 0 22.65-.76 57.88 4.24 57.88 4.24 0 62.11 31.6 311.39 31.6 311.39s-29.1 35.17-124.81 35.17c-58-.38-119.26-14.52-119.26-14.52s15.84-270.14 15.84-332.04Z"/></g><path class="cls-5" d="M1156.05 981.19c-32.17 3.82-49-37.26-49-37.26-19.7-3.26-16.38-22.88-16.38-22.88-9.35-2.86-21.8-12.9-17.79-30.73 3.4-15.11 18.21-14.39 20.12-32.08 1.53-14.19-8.66-49 36.64-51.66 0 0 1.12-26.38 28.33-32.68 33.36-7.73 41.61 12.32 56.23 15.92 16.33 4 51.45-11 56 26.82 0 0 23.32.55 34 17.52 10 15.81 4.13 36-2.58 43.45 0 0 18.69 6.37 23 24.08 2.88 11.88-1.75 27.23-13.58 34.67a34.44 34.44 0 0 1-14.67 5.18c-7.64 1.24-8.13 21.69-14.85 25.64-10.8 6.34-22.54 10.81-34.46 14.35Z"/><path class="cls-4" d="M1279.69 902.66c3.71 55.46-26.74 102.67-68 105.43s-77.72-40-81.43-95.45 29.29-91.29 70.55-94 75.19 28.55 78.88 84.02Z"/><path d="M1175 931.18a8 8 0 1 1 7.41-8.47 8 8 0 0 1-7.41 8.47Zm63.26-4.18a8 8 0 1 1 7.41-8.47 8 8 0 0 1-7.41 8.47Z"/><path class="cls-10" d="M1214.45 931c10.77 6.72 14.17 9.54 18.3 11.75-2.12 9.35-16.2 14.86-20.36 14.08 9.69-5.61 10.65-12.39 10.65-12.39Z"/><path class="cls-4" d="M1143.59 921.77c7.71 11.5 7.05 25.46-1.48 31.17s-21.68 1-29.39-10.49-7-25.46 1.48-31.17 21.69-1.02 29.39 10.49Z"/><path class="cls-10" d="M1136 943.58a2.48 2.48 0 0 1-1-.14 2.54 2.54 0 0 1-1.57-3.24c1.52-4.42 1.33-7.88-.57-10.29-2.94-3.71-9.34-4.49-13.91-4a2.55 2.55 0 0 1-.51-5.07c6.14-.62 14.21.62 18.42 5.94 2.1 2.66 4 7.43 1.38 15.11a2.56 2.56 0 0 1-2.24 1.69Z"/><path class="cls-5" d="m1104.05 873.14 88.29-74 100 48.52-10.82 71.62c-3.17-32.93-23.16-21.89-33.79-31.33-10.78-9.56-15.68-24.74-40.31-10.76 0 0-20.48-13.51-30.46 6.3-7.72 15.32-18.67 12.62-29.5 13.63-12.77 1.19-9.48 13.56-17.31 13.31Z"/><path class="cls-5" d="M1248.17 907.89a24.7 24.7 0 0 1-18.09-7.37 3.54 3.54 0 0 1 5.33-4.67c.29.32 6 6.5 16.86 4.58a3.54 3.54 0 0 1 1.24 7 31 31 0 0 1-5.34.46Zm-84.35 0a24.76 24.76 0 0 0 18.1-7.37 3.55 3.55 0 0 0-5.34-4.67c-.28.32-6 6.5-16.85 4.58a3.54 3.54 0 0 0-1.24 7 30.84 30.84 0 0 0 5.33.46Z"/><path class="cls-11" d="M1229.77 977.29c0 6-6.47 10.91-14.45 10.91s-14.45-4.88-14.45-10.91 6.47-10.9 14.45-10.9 14.45 4.88 14.45 10.9Z"/></g><path class="cls-1" d="m857 1611.92 42.21 134.57c1.12 3.59 3 5.74 5 5.74 3.72 0 6.56-7.18 6-15.11l-9.21-125.2Zm-389.25 0-42.2 134.57c-1.13 3.59-3 5.74-5 5.74-3.72 0-6.56-7.18-6-15.11l9.19-125.2Zm-200.75 0-42.2 134.57c-1.13 3.59-3 5.74-5 5.74-3.73 0-6.56-7.18-6-15.11l9.19-125.2Z"/><path class="cls-2" d="M508.87 1292.49h389.41a36.76 36.76 0 0 1 36.72 36.77v240.34a47.28 47.28 0 0 1-47.28 47.28H508.87v-324.39Z"/><path class="cls-1" d="M414.48 1292.49H803.9a36.76 36.76 0 0 1 36.76 36.76v240.34a47.28 47.28 0 0 1-47.28 47.28h-378.9v-324.38Z"/><path class="cls-2" d="M332 1170.23h320.19a36.37 36.37 0 0 1 36.37 36.37v167.93H332v-204.3Z"/><path class="cls-3" d="M298.21 1369h500.18a43.1 43.1 0 0 1 43.1 43.1v49.71H298.21V1369Z"/><path class="cls-2" d="M298.21 1451.01H841.5v166.1H298.21z"/><path class="cls-1" d="M258 1170.23h74v204.3H222.73v-169a35.28 35.28 0 0 1 35.27-35.3Z"/><path class="cls-4" d="m936.33 1571.35 20.74 29s18.53 23.62 40.61 12.53 12.3-46.56 12.3-46.56l-25.38-33.4Z"/><path class="cls-5" d="M1009.11 1562.49a166.12 166.12 0 0 0 46.53-8.47c13.55-4.61 49-18 56.94 6.19 1.18 3.62.63 8.69-6 16.39-9.82 11.38-24.81 23.91-60 34.8-42.18 13.07-45.58 20.53-61.69 24.52-16.7 4.13-22.22-19.16-28.68-38.09 2.95 4 11.72 13.83 43.09 8.09 9.38-1.71-17.3-31.15 9.81-43.43Z"/><path class="cls-4" d="M760.66 1671.1v19.67s1.34 30 25.75 33.81 37.08-30.72 37.08-30.72l-.9-31Z"/><path class="cls-13" d="M689 1202.94c-11.6-2.7-44.93 34.59-43.7 38.57 30.73 41.86 130.52 65.35 130.52 65.35l16.25-10.6s-58.67-44.62-103.07-93.32Z"/><path class="cls-13" d="M602.1 1085.18c3.5 34.58 32.49 149.78 43.22 156.33l43.7-38.57s-29.74-121-34.71-139.79c-8.52-32.54-58.05-34.41-52.21 22.03Z"/><path class="cls-5" d="M713.93 894.19c3.18-43.32-9.35-81.6-43.89-101.09-35-19.75-78.87-.38-78.87-.38s-37.13-13.2-70.78 23.86-8.19 69.68-22 96.71c-8.15 16-49.6 19.3-38.89 71.44 3.09 15 21.17 25.16 36.49 26.17 26.92 1.77 52-8.64 62.89 1.77 36 34.28 115.62 21.88 126.76-9.48 3.46-9.72 75.13 9.09 68-57.14-3.64-33.56-42.56-13.15-39.71-51.86Z"/><path class="cls-4" d="M628.7 980.24s-4.65 42.6-6.13 58.31l-57.36 1.69c17.53-27.13 9.62-104.47 9.62-104.47Z"/><path class="cls-4" d="M544.94 925.77c11.92 49.81 53.31 82.59 92.43 73.23s61.16-57.34 49.24-107.15-53.31-82.6-92.43-73.23S533 876 544.94 925.77Z"/><path d="M668.27 904.93a7 7 0 1 0 3.15-9.38 7 7 0 0 0-3.15 9.38Zm-54.94 13.55a7.57 7.57 0 1 0 3.4-10.15 7.57 7.57 0 0 0-3.4 10.15Z"/><path class="cls-5" d="M605 912.21a2.6 2.6 0 0 0 1.22-1.25c3.79-8.18 14.05-9.78 14.15-9.8a2.63 2.63 0 0 0-.75-5.21c-.53.08-13.17 2-18.18 12.8a2.64 2.64 0 0 0 1.28 3.5 2.6 2.6 0 0 0 2.28-.04Zm78.53-17.42a2.64 2.64 0 0 0 .68-4.23 18.46 18.46 0 0 0-18.35-4.5 2.63 2.63 0 1 0 1.7 5 13.19 13.19 0 0 1 13 3.27 2.63 2.63 0 0 0 2.97.46Z"/><path class="cls-10" d="M663.77 920.14c3.84 4 7.21 8 10.87 10.33a2.77 2.77 0 0 1 .92 3.69c-3 5.25-11.61 9.58-16.91 11.83a.74.74 0 0 1-.77-1.24c5.35-4.69 7.64-8.15 8.61-10a3.31 3.31 0 0 0 0-3c-1.1-2.17-3.28-6.59-4.76-10.24a1.25 1.25 0 0 1 2.04-1.37Z"/><path class="cls-4" d="M563.76 926.08c9.51 7.4 12.31 19.7 6.25 27.48s-18.66 8.09-28.17.7-12.3-19.7-6.25-27.48 18.67-8.09 28.17-.7Z"/><path class="cls-10" d="M558.35 951.3a2.61 2.61 0 0 0 .93-.77c3.65-4.86 4-10.31.92-14.6a12.71 12.71 0 0 0-13.91-4.77 2.63 2.63 0 0 0 1.66 5 7.51 7.51 0 0 1 8 2.84c1.71 2.39 1.41 5.36-.85 8.36a2.63 2.63 0 0 0 3.28 3.94Zm86.72 22.27c-19 0-27-11.82-27.4-12.46a2.9 2.9 0 0 1 4.86-3.18c.45.67 10.84 15.63 38 7.28a2.91 2.91 0 1 1 1.7 5.56 58.32 58.32 0 0 1-17.16 2.8Z"/><path class="cls-5" d="M544 921.36c46.7-6.25 112-53.82 117.39-78.24-9-29.33-57.15-44.07-84.33-30.48S524.19 884.45 544 921.36Z"/><path class="cls-8" d="m584.25 1387.89 236.92-10.12s11.69-59.13 2.9-82.58-226.47-18.61-226.47-18.61Z"/><path class="cls-9" d="M514.57 1236.06c-6.42 14.84-31.44 59-29 94.79 2.5 37 28.57 69.12 72.68 68.42 0 0 83.16-47.27 65.16-144.1-.03 0-43.56-17-108.84-19.11Z"/><path class="cls-9" d="m551.65 1407.7 208.7 19.69s71.58-30.21 71.18-55.87-210.69-95.86-210.69-95.86c-123.33-35.97-164.44 117.1-69.19 132.04Z"/><path class="cls-9" d="m831.53 1371.52-4.19 294.37s-52.09 22-70.35.17c-8.62-99.91-49.64-188.42-3.84-249.32 61.34-81.58 78.38-45.22 78.38-45.22Z"/><path class="cls-8" d="M823.56 1294.51 997.23 1533s-38.76 51.8-65.82 45.74c-46.7-59.09-141.19-128.38-141.79-202.74-.81-99.58 33.94-81.49 33.94-81.49Z"/><path class="cls-4" d="M648.06 1349.1c-14.26-3.31-33.63-4.79-31.53-12.09s10.06-8.38 12.94-17.07c2.55-7.7-24.39-11.6-47 10.69l-2.23-2.62-16.24 22.87 2.89 2.18c11.07 21.59 54.64 41.11 84.65 32.9 30.36-8.31 10.77-33.55-3.48-36.86Z"/><path class="cls-5" d="m572.67 1020.23 50.8 9.23c19.37 36.3 40.75 72.52 40.8 94.36.06 28.76-39.39 147.86-39.39 147.86-51.92 6.84-94.21.28-126.27-20.53 25-70.81-17.72-158.24 28.66-206 11.58-11.94 30.1-17.22 45.4-24.92Z"/><path class="cls-4" d="M802.19 1297.53c-.56-.72-1-1-1.19-1.85a.41.41 0 0 0-.33.48c-5.55 5.66-13.65 6.82-17.39 2.56l-1.67-2.17c-4.58 2.14-9.62 1.87-12.25-1a8.15 8.15 0 0 1-2.06-4.17c-4.5 2.54-9.55 2.28-13.14-1.19-4.14-4.18-3.46-11.39 1.45-16.09s11.88-5.23 15.94-1.44a6.94 6.94 0 0 1 2 3.77c5.38-4.38 12.36-4.9 15.94-1.44l1.67 2.17c4.58-2.14 9.63-1.88 12.26.94a8 8 0 0 1 2 3.78c3.7-2.39 8.74-2.12 11.37.69 3.59 3.46 2.68 9.47-1.11 13.53s-9.98 4.49-13.49 1.43Z"/><path class="cls-13" d="M512 1063.63c-24.48 38.13-106.29 120.93-98.8 174.39 5.25 37.43 147.55 119 147.55 119l20.89-31.02-91.93-106.49s80.45-113.27 90.32-135.46c17.26-38.82-29.58-80.39-68.03-20.42Z"/><path class="cls-5" d="M825 1690.23a166.22 166.22 0 0 0 42.77 20.18c13.71 4.12 50.35 13.8 42.72 38.14-1.14 3.64-4.54 7.44-14.43 9.84-14.6 3.54-34.09 5-69-6.58-41.91-13.9-49-9.8-64.44-15.93-16-6.35-6.93-28.51-1.18-47.66.07 5 1.49 18.07 30.35 31.64 8.61 4.06 3.99-35.43 33.21-29.63Z"/><path class="cls-2" d="M317.11 1292.49h236.7a36.76 36.76 0 0 1 36.76 36.76v240.34a47.28 47.28 0 0 1-47.28 47.28H317.11v-324.38Z"/><path class="cls-1" d="M222.73 1292.49h236.7a36.76 36.76 0 0 1 36.76 36.76v240.34a47.28 47.28 0 0 1-47.28 47.28H222.73v-324.38Z"/><path class="cls-7" d="M1536.52 539.34h309.12a69.29 69.29 0 0 1 69.29 69.28v144.11a69.29 69.29 0 0 1-69.29 69.27h-2.29l24.81 83.12a3.94 3.94 0 0 1-6.16 4.26L1747.46 822h-210.94a69.28 69.28 0 0 1-69.28-69.28v-144.1a69.28 69.28 0 0 1 69.28-69.28Z"/><path class="cls-11" d="M1845.5 660.35h-296.78a34.3 34.3 0 0 1-34.3-34.3 34.3 34.3 0 0 1 34.3-34.29h296.78a34.29 34.29 0 0 1 34.29 34.29 34.3 34.3 0 0 1-34.29 34.3Zm0 104.73h-296.78a34.3 34.3 0 0 1-34.3-34.3 34.3 34.3 0 0 1 34.3-34.29h296.78a34.29 34.29 0 0 1 34.29 34.29 34.3 34.3 0 0 1-34.29 34.3Z"/><path class="cls-3" d="M2901.82 559.37h-285.76a64 64 0 0 0-64 64v133.25a64 64 0 0 0 64 64h2.12l-22.93 76.83a3.64 3.64 0 0 0 5.7 3.94l105.87-80.77h195a64 64 0 0 0 64-64V623.41a64 64 0 0 0-64-64.04Z"/><rect class="cls-11" x="2585.85" y="613.82" width="339.39" height="58.14" rx="25.84"/><path class="cls-11" d="M2759 759.85h-134.77a29.07 29.07 0 0 1-29.07-29.07 29.08 29.08 0 0 1 29.07-29.07H2759a29.08 29.08 0 0 1 29 29.07 29.07 29.07 0 0 1-29 29.07Z"/><path class="cls-3" d="M2100.48 137.78h-285.75a64 64 0 0 0-64 64V335a64.05 64.05 0 0 0 64 64.05h2.12l-22.94 76.83a3.64 3.64 0 0 0 5.7 3.94l105.88-80.77h195a64 64 0 0 0 64.04-64.05V201.82a64 64 0 0 0-64.05-64.04Z"/><path class="cls-11" d="M2008.66 250.36h-195.07a29.06 29.06 0 0 1-29.07-29.06 29.06 29.06 0 0 1 29.07-29.07h195.07a29.06 29.06 0 0 1 29.07 29.07 29.06 29.06 0 0 1-29.07 29.06Zm97.66 87.9H1822.9a29.06 29.06 0 0 1-29.07-29.07 29.07 29.07 0 0 1 29.07-29.07h283.42a29.07 29.07 0 0 1 29.07 29.07 29.06 29.06 0 0 1-29.07 29.07Z"/><path class="cls-3" d="M654 344.2h375a84 84 0 0 1 84 84V603a84 84 0 0 1-84 84h-2.79l30.1 100.81a4.78 4.78 0 0 1-7.48 5.17L909.87 687H654a84 84 0 0 1-84-84V428.23a84 84 0 0 1 84-84.03Z"/><rect class="cls-11" x="623.3" y="415.64" width="445.3" height="76.28" rx="33.9" transform="rotate(180 845.945 453.78)"/><path class="cls-11" d="M841.47 607.24h176.77a38.14 38.14 0 0 0 38.14-38.14 38.14 38.14 0 0 0-38.14-38.1H841.47a38.13 38.13 0 0 0-38.14 38.13 38.13 38.13 0 0 0 38.14 38.11Z"/></svg>