<svg xmlns="http://www.w3.org/2000/svg" xmlns:xlink="http://www.w3.org/1999/xlink" viewBox="0 0 532.35 308.69"><defs><style>.cls-1{mask:url(#mask);filter:url(#luminosity-noclip-4)}.cls-11,.cls-13,.cls-14,.cls-15,.cls-16,.cls-17,.cls-18,.cls-19,.cls-2,.cls-20,.cls-21,.cls-22,.cls-23,.cls-24,.cls-25,.cls-26,.cls-27,.cls-28,.cls-29,.cls-30,.cls-31,.cls-32,.cls-33,.cls-36,.cls-38,.cls-4,.cls-6{mix-blend-mode:multiply}.cls-2{fill:url(#linear-gradient)}.cls-3{mask:url(#mask-2);filter:url(#luminosity-noclip-5)}.cls-4{fill:url(#linear-gradient-2)}.cls-5{mask:url(#mask-3);filter:url(#luminosity-noclip-6)}.cls-6{fill:url(#linear-gradient-3)}.cls-7{isolation:isolate}.cls-8{fill:url(#linear-gradient-4)}.cls-9{fill:url(#linear-gradient-5)}.cls-10{fill:url(#linear-gradient-6)}.cls-11{opacity:.9}.cls-12,.cls-46{fill:#fff}.cls-12{opacity:0}.cls-13,.cls-78{fill:#f5f4f5}.cls-13{opacity:.02}.cls-14,.cls-79{fill:#ebeaeb}.cls-14,.cls-78{opacity:.05}.cls-15,.cls-80{fill:#e0dfe0}.cls-15{opacity:.07}.cls-16,.cls-81{fill:#d6d4d6}.cls-16,.cls-79{opacity:.1}.cls-17,.cls-82{fill:#ccc9cc}.cls-17{opacity:.12}.cls-18,.cls-83{fill:#c2bfc2}.cls-18,.cls-80{opacity:.14}.cls-19,.cls-84{fill:#b7b4b7}.cls-19{opacity:.17}.cls-20,.cls-85{fill:#ada9ad}.cls-20,.cls-81{opacity:.19}.cls-21,.cls-86{fill:#a39fa3}.cls-21{opacity:.21}.cls-22,.cls-87{fill:#999499}.cls-22,.cls-82{opacity:.24}.cls-23,.cls-88{fill:#8e898e}.cls-23{opacity:.26}.cls-24,.cls-89{fill:#847e84}.cls-24,.cls-83{opacity:.29}.cls-25,.cls-90{fill:#7a747a}.cls-25{opacity:.31}.cls-26,.cls-91{fill:#706970}.cls-26,.cls-84{opacity:.33}.cls-27,.cls-92{fill:#655e65}.cls-27{opacity:.36}.cls-28,.cls-93{fill:#5b545b}.cls-28,.cls-85{opacity:.38}.cls-29,.cls-94{fill:#514951}.cls-29{opacity:.4}.cls-30,.cls-95{fill:#473e47}.cls-30,.cls-86{opacity:.43}.cls-31,.cls-96{fill:#3c333c}.cls-31{opacity:.45}.cls-32,.cls-97{fill:#322932}.cls-32,.cls-87{opacity:.48}.cls-33,.cls-98{fill:#281e28}.cls-33,.cls-38{opacity:.5}.cls-34{fill:#695d7f}.cls-35{mask:url(#mask-4)}.cls-36,.cls-77{opacity:.4}.cls-36{fill:url(#linear-gradient-7)}.cls-37{mask:url(#mask-5)}.cls-38{fill:url(#linear-gradient-8)}.cls-39{fill:#292038}.cls-40{fill:url(#linear-gradient-9)}.cls-41{fill:url(#linear-gradient-10)}.cls-42{fill:#1e182b}.cls-43{fill:url(#linear-gradient-11)}.cls-44{fill:url(#linear-gradient-12)}.cls-45{fill:url(#linear-gradient-13)}.cls-47{fill:url(#linear-gradient-14)}.cls-48{fill:url(#linear-gradient-15)}.cls-49{fill:url(#linear-gradient-16)}.cls-50{fill:url(#linear-gradient-17)}.cls-51{fill:url(#linear-gradient-18)}.cls-52{fill:url(#linear-gradient-19)}.cls-53{fill:url(#linear-gradient-20)}.cls-54{fill:url(#linear-gradient-21)}.cls-55{fill:url(#linear-gradient-22)}.cls-56{fill:url(#linear-gradient-23)}.cls-57{fill:url(#linear-gradient-24)}.cls-58{fill:url(#linear-gradient-25)}.cls-59{fill:url(#linear-gradient-26)}.cls-60{fill:url(#linear-gradient-27)}.cls-61{fill:url(#linear-gradient-28)}.cls-62{fill:url(#linear-gradient-29)}.cls-63{fill:url(#linear-gradient-30)}.cls-64{mask:url(#mask-6)}.cls-65{fill:url(#linear-gradient-31)}.cls-66{fill:url(#linear-gradient-32)}.cls-67{fill:url(#linear-gradient-33)}.cls-68{fill:url(#linear-gradient-34)}.cls-69{fill:url(#linear-gradient-35)}.cls-70{fill:url(#linear-gradient-36)}.cls-71{fill:url(#linear-gradient-37)}.cls-72{fill:url(#linear-gradient-38)}.cls-73{fill:url(#linear-gradient-39)}.cls-74{fill:url(#linear-gradient-40)}.cls-75{fill:url(#linear-gradient-41)}.cls-76{fill:url(#linear-gradient-42)}.cls-88{opacity:.52}.cls-89{opacity:.57}.cls-90{opacity:.62}.cls-91{opacity:.67}.cls-92{opacity:.71}.cls-93{opacity:.76}.cls-94{opacity:.81}.cls-95{opacity:.86}.cls-96{opacity:.9}.cls-97{opacity:.95}.cls-99{fill:url(#linear-gradient-43)}.cls-100{fill:url(#linear-gradient-44)}.cls-101{fill:url(#linear-gradient-45)}.cls-102{fill:url(#linear-gradient-46)}.cls-103{fill:url(#linear-gradient-47)}.cls-104{fill:url(#linear-gradient-48)}.cls-105{fill:url(#linear-gradient-49)}.cls-106{fill:url(#linear-gradient-50)}.cls-107{fill:url(#linear-gradient-51)}.cls-108{fill:url(#linear-gradient-52)}.cls-109{fill:url(#linear-gradient-53)}.cls-110{fill:url(#linear-gradient-54)}.cls-111{fill:url(#linear-gradient-55)}.cls-112{fill:url(#linear-gradient-56)}.cls-113{fill:url(#linear-gradient-57)}.cls-114{fill:url(#linear-gradient-58)}</style><filter id="luminosity-noclip" width="339.04" height="32766" x="93.56" y="-8371.44" color-interpolation-filters="sRGB" filterUnits="userSpaceOnUse"><feFlood flood-color="#fff" result="bg"/><feBlend in="SourceGraphic" in2="bg"/></filter><linearGradient id="linear-gradient" x1="299.26" x2="295.01" y1="259.94" y2="252.44" gradientUnits="userSpaceOnUse"><stop offset="0" stop-color="#fff"/><stop offset="1"/></linearGradient><filter id="luminosity-noclip-2" width="339.04" height="32766" x="93.61" y="-8371.44" color-interpolation-filters="sRGB" filterUnits="userSpaceOnUse"><feFlood flood-color="#fff" result="bg"/><feBlend in="SourceGraphic" in2="bg"/></filter><linearGradient id="linear-gradient-2" x1="208.8" x2="213.98" y1="289.01" y2="280.09" xlink:href="#linear-gradient"/><filter id="luminosity-noclip-3" width="35.25" height="32766" x="299.65" y="-8371.44" color-interpolation-filters="sRGB" filterUnits="userSpaceOnUse"><feFlood flood-color="#fff" result="bg"/><feBlend in="SourceGraphic" in2="bg"/></filter><linearGradient id="linear-gradient-3" x1="357.04" x2="304.7" y1="79.95" y2="85.73" xlink:href="#linear-gradient"/><linearGradient id="linear-gradient-4" x1="9.75" x2="347.89" y1="183.2" y2="183.2" gradientUnits="userSpaceOnUse"><stop offset="0" stop-color="#ff4b4f"/><stop offset="1" stop-color="#e41600"/></linearGradient><linearGradient id="linear-gradient-5" x1="86.87" x2="347.89" y1="183.2" y2="183.2" gradientUnits="userSpaceOnUse"><stop offset="0" stop-color="#3fecff"/><stop offset="1" stop-color="#0089ff"/></linearGradient><linearGradient id="linear-gradient-6" x1="67.36" x2="319.07" y1="183.2" y2="183.2" gradientUnits="userSpaceOnUse"><stop offset="0" stop-color="#ffe44f"/><stop offset="1" stop-color="#ff4700"/></linearGradient><filter id="luminosity-noclip-4" width="339.04" height="193.91" x="93.56" y="103.49" color-interpolation-filters="sRGB" filterUnits="userSpaceOnUse"><feFlood flood-color="#fff" result="bg"/><feBlend in="SourceGraphic" in2="bg"/></filter><mask id="mask-4" width="339.04" height="193.91" x="93.56" y="103.49" maskUnits="userSpaceOnUse"><g class="cls-1"><path d="M427.53,167.7c-6.48-6.55-6.69-.68-5.41,6.44l-118.68-68.8a17.44,17.44,0,0,0-16.59.51L112.71,206.17c-7.06-3.23-13.54-4.28-16.44.46-5.27,8.61-1.73,13.28,1.25,16.18a10.42,10.42,0,0,0,2.72,2.11l.15.09,121.87,70.57a17.16,17.16,0,0,0,16.31-.52L425.7,187.14S439.94,180.26,427.53,167.7Z" class="cls-2"/></g></mask><linearGradient id="linear-gradient-7" x1="308.82" x2="305.67" y1="254.71" y2="249.15" gradientUnits="userSpaceOnUse"><stop offset="0" stop-color="#150020"/><stop offset="1" stop-color="#c0abff"/></linearGradient><filter id="luminosity-noclip-5" width="339.04" height="193.91" x="93.61" y="103.49" color-interpolation-filters="sRGB" filterUnits="userSpaceOnUse"><feFlood flood-color="#fff" result="bg"/><feBlend in="SourceGraphic" in2="bg"/></filter><mask id="mask-5" width="339.04" height="193.91" x="93.61" y="103.49" maskUnits="userSpaceOnUse"><g class="cls-3"><path d="M427.58,167.7c-6.48-6.55-6.69-.68-5.41,6.44l-118.68-68.8a17.44,17.44,0,0,0-16.59.51L112.76,206.17c-7.06-3.23-13.54-4.28-16.44.46-5.27,8.6-1.73,13.28,1.25,16.18a10.6,10.6,0,0,0,2.72,2.11l.15.09,121.87,70.57a17.16,17.16,0,0,0,16.31-.52L425.75,187.14S440,180.26,427.58,167.7Z" class="cls-4"/></g></mask><linearGradient id="linear-gradient-8" x1="227.66" x2="232.83" y1="299.87" y2="290.99" xlink:href="#linear-gradient-7"/><linearGradient id="linear-gradient-9" x1="201.49" x2="171.91" y1="268.77" y2="248.79" gradientUnits="userSpaceOnUse"><stop offset="0" stop-color="#9c74ff"/><stop offset="1" stop-color="#fff6ff"/></linearGradient><linearGradient id="linear-gradient-10" x1="207.27" x2="177.69" y1="271.4" y2="251.42" xlink:href="#linear-gradient-9"/><linearGradient id="linear-gradient-11" x1="285.89" x2="274.16" y1="281.01" y2="270.26" gradientTransform="translate(2.68 -5.89) rotate(0.81)" xlink:href="#linear-gradient-9"/><linearGradient id="linear-gradient-12" x1="300.01" x2="288.29" y1="272.71" y2="261.96" gradientTransform="translate(2.68 -5.89) rotate(0.81)" xlink:href="#linear-gradient-9"/><linearGradient id="linear-gradient-13" x1="271.63" x2="264.22" y1="284.14" y2="277.35" gradientTransform="translate(2.68 -5.89) rotate(0.81)" xlink:href="#linear-gradient-9"/><linearGradient id="linear-gradient-14" x1="300.16" x2="294.73" y1="185.32" y2="179.55" gradientUnits="userSpaceOnUse"><stop offset="0" stop-color="#ef8c93"/><stop offset="1" stop-color="#f9c7d2"/></linearGradient><linearGradient id="linear-gradient-15" x1="286.04" x2="299.98" y1="181.35" y2="192.41" gradientUnits="userSpaceOnUse"><stop offset="0" stop-color="#393243"/><stop offset="1" stop-color="#000500"/></linearGradient><linearGradient id="linear-gradient-16" x1="285.24" x2="299.34" y1="183.66" y2="194.85" xlink:href="#linear-gradient-15"/><linearGradient id="linear-gradient-17" x1="294.5" x2="292.62" y1="184.63" y2="179.28" gradientUnits="userSpaceOnUse"><stop offset="0" stop-color="#acacaf"/><stop offset="1" stop-color="#fff"/></linearGradient><linearGradient id="linear-gradient-18" x1="287.76" x2="286.15" y1="189.42" y2="184.84" xlink:href="#linear-gradient-17"/><linearGradient id="linear-gradient-19" x1="316.95" x2="284.4" y1="197.57" y2="185.17" xlink:href="#linear-gradient-17"/><linearGradient id="linear-gradient-20" x1="333.7" x2="324.04" y1="197.64" y2="187.35" xlink:href="#linear-gradient-14"/><linearGradient id="linear-gradient-21" x1="319.81" x2="331.93" y1="194.5" y2="204.12" xlink:href="#linear-gradient-15"/><linearGradient id="linear-gradient-22" x1="324.15" x2="331.89" y1="200.06" y2="206.2" xlink:href="#linear-gradient-15"/><linearGradient id="linear-gradient-23" x1="327.32" x2="325.55" y1="198.75" y2="193.7" xlink:href="#linear-gradient-17"/><linearGradient id="linear-gradient-24" x1="326.24" x2="323.87" y1="207.12" y2="200.37" xlink:href="#linear-gradient-17"/><linearGradient id="linear-gradient-25" x1="341.01" x2="321.54" y1="202.39" y2="200.74" xlink:href="#linear-gradient-17"/><linearGradient id="linear-gradient-26" x1="321.78" x2="280.21" y1="163.39" y2="116.09" gradientUnits="userSpaceOnUse"><stop offset="0" stop-color="#393243"/><stop offset="1" stop-color="#82788b"/></linearGradient><linearGradient id="linear-gradient-27" x1="350.54" x2="301.25" y1="172.12" y2="116.03" xlink:href="#linear-gradient-26"/><linearGradient id="linear-gradient-28" x1="323.79" x2="334.96" y1="108.04" y2="116.9" xlink:href="#linear-gradient-15"/><linearGradient id="linear-gradient-29" x1="331.65" x2="316.66" y1="121.85" y2="102.95" gradientUnits="userSpaceOnUse"><stop offset="0" stop-color="#ac9dc0"/><stop offset="1" stop-color="#f0f6ff"/></linearGradient><linearGradient id="linear-gradient-30" x1="308.71" x2="323.84" y1="104.25" y2="34.71" xlink:href="#linear-gradient-29"/><filter id="luminosity-noclip-6" width="35.25" height="56.33" x="299.65" y="55.16" color-interpolation-filters="sRGB" filterUnits="userSpaceOnUse"><feFlood flood-color="#fff" result="bg"/><feBlend in="SourceGraphic" in2="bg"/></filter><mask id="mask-6" width="35.25" height="56.33" x="299.65" y="55.16" maskUnits="userSpaceOnUse"><g class="cls-5"><path d="M331.23,75.07V74.9a.7.7,0,0,1,0-.12,22.85,22.85,0,0,1-.13-2.8l-5.31-16.82S318,64,316,71.34a31.71,31.71,0,0,0-1.44,8.73s.15.55-1.2-1.61S312,75.75,312,74.26s-.61-4.6-1-4.94-.92.27-.92.27l-.9,2.16s-5.82-7.64-6.91-7.64-2.77,4.53-2.64,6.56,2.51,5.82,3.79,7.18,3.64,1.28,4.5,2.3,5,18.17,8.78,23.64a18.83,18.83,0,0,0,6,5.73,40.52,40.52,0,0,0,4.36,2,23.85,23.85,0,0,0,5.52-1.43c3.21-1.44,2.49-1.26,1.22-8.66A252.24,252.24,0,0,1,331.23,75.07Z" class="cls-6"/></g></mask><linearGradient id="linear-gradient-31" x1="357.04" x2="304.7" y1="79.95" y2="85.73" xlink:href="#linear-gradient-26"/><linearGradient id="linear-gradient-32" x1="324.44" x2="308.56" y1="40.63" y2="48.84" xlink:href="#linear-gradient-26"/><linearGradient id="linear-gradient-33" x1="317.66" x2="311.98" y1="36.93" y2="51.01" gradientUnits="userSpaceOnUse"><stop offset="0" stop-color="#ef8c93"/><stop offset="1" stop-color="#f9c7c0"/></linearGradient><linearGradient id="linear-gradient-34" x1="318" x2="302.75" y1="23.34" y2="33.17" xlink:href="#linear-gradient-33"/><linearGradient id="linear-gradient-35" x1="302.77" x2="327.58" y1="9.72" y2="29.41" xlink:href="#linear-gradient-15"/><linearGradient id="linear-gradient-36" x1="327.69" x2="321.74" y1="15.11" y2="19.53" gradientTransform="translate(-2.71 60.26) rotate(-8.51)" gradientUnits="userSpaceOnUse"><stop offset="0" stop-color="#ef8c93"/><stop offset="1" stop-color="#ffcdca"/></linearGradient><linearGradient id="linear-gradient-37" x1="324.05" x2="319.36" y1="17.75" y2="21.23" gradientTransform="translate(-2.71 60.26) rotate(-8.51)" gradientUnits="userSpaceOnUse"><stop offset="0" stop-color="#ef7f7d"/><stop offset="1" stop-color="#ffcdca"/></linearGradient><linearGradient id="linear-gradient-38" x1="273.09" x2="312.52" y1="61.17" y2="62.36" gradientUnits="userSpaceOnUse"><stop offset="0" stop-color="#0ff"/><stop offset="1" stop-color="#3998ff"/></linearGradient><linearGradient id="linear-gradient-39" x1="331.19" x2="299.97" y1="72.42" y2="80.88" xlink:href="#linear-gradient-33"/><linearGradient id="linear-gradient-40" x1="327.82" x2="332.56" y1="69.75" y2="47.91" xlink:href="#linear-gradient-29"/><linearGradient id="linear-gradient-41" x1="390.89" x2="384.72" y1="138.81" y2="138.81" gradientUnits="userSpaceOnUse"><stop offset="0" stop-color="#ff5a00"/><stop offset="1" stop-color="#ff9b0c"/></linearGradient><linearGradient id="linear-gradient-42" x1="444.3" x2="393.79" y1="101.65" y2="94.55" gradientUnits="userSpaceOnUse"><stop offset="0" stop-color="#ff3100"/><stop offset="1" stop-color="#ffcd50"/></linearGradient><linearGradient id="linear-gradient-43" x1="382.59" x2="371.09" y1="273.18" y2="273.18" xlink:href="#linear-gradient-41"/><linearGradient id="linear-gradient-44" x1="482.37" x2="388.06" y1="274.1" y2="260.85" xlink:href="#linear-gradient-42"/><linearGradient id="linear-gradient-45" x1="368.92" x2="363.73" y1="169.28" y2="169.28" gradientUnits="userSpaceOnUse"><stop offset="0" stop-color="#3998ff"/><stop offset="1" stop-color="#00cfff"/></linearGradient><linearGradient id="linear-gradient-46" x1="355.37" x2="402.37" y1="142.37" y2="143.8" xlink:href="#linear-gradient-38"/><linearGradient id="linear-gradient-47" x1="215.86" x2="197.05" y1="208.3" y2="208.3" xlink:href="#linear-gradient-41"/><linearGradient id="linear-gradient-48" x1="382.47" x2="228.25" y1="210.9" y2="189.22" xlink:href="#linear-gradient-42"/><linearGradient id="linear-gradient-49" x1="292.51" x2="285.67" y1="220.74" y2="220.74" xlink:href="#linear-gradient-41"/><linearGradient id="linear-gradient-50" x1="366.2" x2="289.35" y1="223.98" y2="213.18" xlink:href="#linear-gradient-42"/><linearGradient id="linear-gradient-51" x1="287.72" x2="282.62" y1="213.39" y2="213.39" gradientUnits="userSpaceOnUse"><stop offset="0" stop-color="#ff8700"/><stop offset="1" stop-color="#ffaf00"/></linearGradient><linearGradient id="linear-gradient-52" x1="344.45" x2="288.38" y1="225" y2="211.17" gradientUnits="userSpaceOnUse"><stop offset="0" stop-color="#ff8700"/><stop offset="1" stop-color="#fff"/></linearGradient><linearGradient id="linear-gradient-53" x1="298.11" x2="287.96" y1="208.74" y2="208.74" xlink:href="#linear-gradient-41"/><linearGradient id="linear-gradient-54" x1="479.35" x2="470.76" y1="179.18" y2="179.18" xlink:href="#linear-gradient-45"/><linearGradient id="linear-gradient-55" x1="470.06" x2="568.98" y1="169.8" y2="172.8" xlink:href="#linear-gradient-38"/><linearGradient id="linear-gradient-56" x1="476.94" x2="470.99" y1="170.5" y2="170.5" xlink:href="#linear-gradient-45"/><linearGradient id="linear-gradient-57" x1="543.08" x2="477.71" y1="184.04" y2="167.91" gradientUnits="userSpaceOnUse"><stop offset="0" stop-color="#3fecff"/><stop offset="1" stop-color="#fff"/></linearGradient><linearGradient id="linear-gradient-58" x1="489.05" x2="477.22" y1="165.08" y2="165.08" xlink:href="#linear-gradient-45"/></defs><g class="cls-7"><g id="content"><g id="_9" data-name="9"><polygon points="9.75 167.02 141.14 242.88 347.89 123.52 276.02 126.13 266.81 141.99 196.54 125.9 126.44 132.91 177.36 176.41 122.65 168.56 74.5 177.35 9.75 167.02" class="cls-8"/><polygon points="141.14 242.88 86.86 211.55 103.58 188.71 147.59 196.87 121.41 150.78 172.4 156.67 241.07 165.71 230.56 142.95 281.79 147.5 347.89 123.52 141.14 242.88" class="cls-9"/><polygon points="141.14 242.88 96.18 216.92 164.05 218.43 173.13 186.71 196.93 176.98 181.73 139.61 264.28 160.56 347.89 123.52 141.14 242.88" class="cls-10"/></g><g id="_8" data-name="8"><g class="cls-11"><path d="M110.58,236.9l210.7-121a21.9,21.9,0,0,1,20.8-.64l104.71,60.76c5.41,3.95,6.46,11.83.48,15.31L237.46,312a21.53,21.53,0,0,1-20.46.65L112.31,252C104.8,247.49,105.23,240.48,110.58,236.9Z" class="cls-12"/><path d="M111.85,236.86,321.46,116.5a21.67,21.67,0,0,1,20.6-.63L445.76,176c5.36,3.91,6.4,11.72.47,15.16L237.5,311.2a21.33,21.33,0,0,1-20.25.64L113.56,251.77C106.13,247.34,106.55,240.4,111.85,236.86Z" class="cls-13"/><path d="M113.12,236.82,321.64,117.07a21.44,21.44,0,0,1,20.4-.63L444.73,176c5.31,3.87,6.34,11.6.47,15L237.55,310.43a21.12,21.12,0,0,1-20.06.64L114.82,251.58C107.45,247.2,107.88,240.33,113.12,236.82Z" class="cls-14"/><path d="M114.39,236.78,321.82,117.63A21.26,21.26,0,0,1,342,117l101.69,59c5.25,3.84,6.26,11.49.46,14.87L237.6,309.67a20.92,20.92,0,0,1-19.86.63L116.07,251.4C108.78,247.06,109.2,240.25,114.39,236.78Z" class="cls-15"/><path d="M115.66,236.74,322,118.2a21,21,0,0,1,20-.62L442.68,176c5.2,3.8,6.2,11.38.46,14.72L237.65,308.9a20.71,20.71,0,0,1-19.67.63L117.32,251.21C110.1,246.91,110.52,240.18,115.66,236.74Z" class="cls-16"/><path d="M116.93,236.7,322.19,118.77a20.81,20.81,0,0,1,19.79-.61L441.65,176c5.15,3.75,6.14,11.26.45,14.57L237.69,308.14a20.46,20.46,0,0,1-19.46.62L118.57,251C111.43,246.77,111.84,240.1,116.93,236.7Z" class="cls-17"/><path d="M118.2,236.66,322.37,119.33a20.6,20.6,0,0,1,19.59-.6L440.62,176c5.1,3.71,6.08,11.14.45,14.42l-203.33,117a20.27,20.27,0,0,1-19.27.61l-98.64-57.15C112.75,246.63,113.16,240,118.2,236.66Z" class="cls-18"/><path d="M119.47,236.62,322.55,119.9a20.4,20.4,0,0,1,19.39-.6L439.59,176c5.05,3.68,6,11,.45,14.28L237.79,306.61a20.06,20.06,0,0,1-19.08.61l-97.63-56.56C114.08,246.49,114.48,240,119.47,236.62Z" class="cls-19"/><path d="M120.74,236.58l202-116.11a20.16,20.16,0,0,1,19.2-.59L438.57,176c5,3.64,5.95,10.92.44,14.13L237.84,305.85a19.88,19.88,0,0,1-18.88.6l-96.63-56C115.41,246.34,115.8,239.88,120.74,236.58Z" class="cls-20"/><path d="M122,236.54,322.91,121a20,20,0,0,1,19-.58l95.63,55.49c4.94,3.6,5.89,10.8.43,14L237.88,305.09a19.68,19.68,0,0,1-18.68.59l-95.61-55.4C116.73,246.2,117.13,239.8,122,236.54Z" class="cls-21"/><path d="M123.28,236.5,323.09,121.6a19.78,19.78,0,0,1,18.8-.58l94.62,54.91c4.89,3.56,5.83,10.69.43,13.83l-199,114.56a19.45,19.45,0,0,1-18.48.59L124.84,250.1C118.06,246.06,118.45,239.73,123.28,236.5Z" class="cls-22"/><path d="M124.55,236.46l198.72-114.3a19.6,19.6,0,0,1,18.6-.57l93.61,54.32c4.84,3.53,5.77,10.58.43,13.69L238,303.56a19.27,19.27,0,0,1-18.29.58l-93.6-54.23C119.38,245.92,119.77,239.65,124.55,236.46Z" class="cls-23"/><path d="M125.82,236.41,323.46,122.73a19.33,19.33,0,0,1,18.39-.56l92.6,53.73c4.79,3.49,5.71,10.46.43,13.54L238,302.79a19,19,0,0,1-18.09.58l-92.59-53.64C120.71,245.77,121.09,239.58,125.82,236.41Z" class="cls-24"/><path d="M127.09,236.37,323.64,123.3a19.1,19.1,0,0,1,18.19-.56l91.6,53.15c4.73,3.45,5.64,10.35.41,13.39L238.07,302a18.83,18.83,0,0,1-17.89.57L128.6,249.54C122,245.63,122.41,239.5,127.09,236.37Z" class="cls-25"/><path d="M128.36,236.33,323.82,123.86a19,19,0,0,1,18-.55l90.59,52.57c4.68,3.41,5.58,10.23.41,13.24L238.12,301.27a18.63,18.63,0,0,1-17.69.56l-90.58-52.47C123.36,245.49,123.73,239.43,128.36,236.33Z" class="cls-26"/><path d="M129.63,236.29,324,124.43a18.72,18.72,0,0,1,17.79-.55l89.58,52c4.63,3.38,5.52,10.12.41,13.1L238.17,300.5a18.42,18.42,0,0,1-17.5.56l-89.56-51.89C124.68,245.34,125.05,239.35,129.63,236.29Z" class="cls-27"/><path d="M130.9,236.25,324.18,125a18.49,18.49,0,0,1,17.59-.54l88.57,51.39c4.58,3.34,5.46,10,.4,13L238.21,299.74a18.21,18.21,0,0,1-17.3.55L132.36,249C126,245.2,126.37,239.28,130.9,236.25Z" class="cls-28"/><path d="M132.17,236.21,324.36,125.56a18.28,18.28,0,0,1,17.39-.53l87.56,50.81c4.53,3.3,5.4,9.89.4,12.8L238.26,299a18,18,0,0,1-17.1.55L133.61,248.8C127.33,245.06,127.7,239.2,132.17,236.21Z" class="cls-29"/><path d="M133.44,236.17l191.1-110a18.11,18.11,0,0,1,17.19-.53l86.56,50.22c4.47,3.27,5.33,9.78.39,12.66L238.31,298.21a17.8,17.8,0,0,1-16.91.54l-86.53-50.14C128.66,244.92,129,239.13,133.44,236.17Z" class="cls-30"/><path d="M134.71,236.13l190-109.43a17.85,17.85,0,0,1,17-.52l85.55,49.63c4.42,3.23,5.27,9.67.39,12.51L238.36,297.45a17.6,17.6,0,0,1-16.71.53l-85.53-49.55C130,244.77,130.34,239.05,134.71,236.13Z" class="cls-31"/><path d="M136,236.09,324.91,127.26a17.67,17.67,0,0,1,16.79-.51l84.53,49.05c4.37,3.18,5.21,9.55.38,12.36L238.4,296.68a17.37,17.37,0,0,1-16.51.53l-84.52-49C131.31,244.63,131.66,239,136,236.09Z" class="cls-32"/><path d="M137.25,236.05,325.09,127.83a17.44,17.44,0,0,1,16.59-.51l83.52,48.47c4.32,3.14,5.15,9.43.38,12.21L238.45,295.92a17.16,17.16,0,0,1-16.31.52l-83.52-48.38C132.64,244.49,133,238.9,137.25,236.05Z" class="cls-33"/></g><path d="M427.14,167.72s-6.29-.7-5,6.42L341.8,127.53a17.42,17.42,0,0,0-16.58.51L151.07,228.36c-7-3.23-13.53-4.28-16.44.46-5.27,8.61-1.72,13.28,1.25,16.18a10.77,10.77,0,0,0,2.72,2.11l.15.09,83.52,48.38a17.16,17.16,0,0,0,16.31-.52L425.71,187.14S438.09,179.62,427.14,167.72Z" class="cls-34"/><g class="cls-35"><path d="M427.13,167.72s-6.29-.7-5,6.42l-80.33-46.61a17.42,17.42,0,0,0-16.58.51L151.06,228.36c-7.05-3.23-13.53-4.28-16.44.46-5.27,8.61-1.72,13.28,1.25,16.18a10.77,10.77,0,0,0,2.72,2.11l.15.09,83.52,48.38a17.16,17.16,0,0,0,16.31-.52L425.7,187.14S438.12,180,427.13,167.72Z" class="cls-36"/></g><g class="cls-37"><path d="M427.18,167.72s-6.29-.7-5,6.42l-80.32-46.61a17.44,17.44,0,0,0-16.59.51L151.11,228.36c-7.05-3.23-13.53-4.28-16.43.46-5.27,8.61-1.73,13.28,1.24,16.18a10.66,10.66,0,0,0,2.73,2.11l.15.09,83.51,48.38a17.16,17.16,0,0,0,16.31-.52L425.75,187.14S437.94,179.75,427.18,167.72Z" class="cls-38"/></g><path d="M137.28,226.12,325.12,117.91a17.44,17.44,0,0,1,16.59-.51l83.53,48.46c4.31,3.15,5.15,9.44.38,12.21L238.49,286a17.15,17.15,0,0,1-16.32.52l-83.51-48.38C132.67,234.56,133,229,137.28,226.12Z" class="cls-39"/><path d="M172.73,250.74l-.1-.06c-.54-.31-.48-.85.14-1.21h0a2.31,2.31,0,0,1,2.09-.09l.1.06c.54.31.47.85-.15,1.2h0A2.33,2.33,0,0,1,172.73,250.74Z" class="cls-40"/><path d="M194.34,263.11l-18.58-10.64c-.54-.3-.47-.84.14-1.2h0a2.35,2.35,0,0,1,2.09-.1l18.58,10.64c.53.31.47.85-.15,1.21h0A2.29,2.29,0,0,1,194.34,263.11Z" class="cls-41"/><path d="M279.16,264.92a1.2,1.2,0,0,0-.87.1h0l-9.23,5.37h0a2.27,2.27,0,0,0-1,1.32,1.75,1.75,0,0,0,.85,2.26,1.2,1.2,0,0,0,.85-.09h0l.09-.05,9-5.26h0a2.17,2.17,0,0,0,1.09-1.39A1.75,1.75,0,0,0,279.16,264.92Z" class="cls-42"/><path d="M280.07,265.59a1.23,1.23,0,0,0-.86.09h0L270,271.05h0a2.21,2.21,0,0,0-1,1.32,1.76,1.76,0,0,0,.85,2.26,1.17,1.17,0,0,0,.84-.09h0l.08,0,9.05-5.27h0a2.14,2.14,0,0,0,1.09-1.38A1.74,1.74,0,0,0,280.07,265.59Z" class="cls-43"/><path d="M293.39,256.83a1.23,1.23,0,0,0-.86.09h0l-9.23,5.37h0a2.21,2.21,0,0,0-1,1.32,1.75,1.75,0,0,0,.85,2.25,1.2,1.2,0,0,0,.85-.08h0l.08,0,9-5.27h0a2.14,2.14,0,0,0,1.09-1.38A1.74,1.74,0,0,0,293.39,256.83Z" class="cls-42"/><path d="M294.31,257.49a1.17,1.17,0,0,0-.86.1h0L284.21,263h0a2.17,2.17,0,0,0-1,1.32,1.74,1.74,0,0,0,.85,2.26,1.17,1.17,0,0,0,.84-.09h0l.08-.05,9.05-5.27h0a2.14,2.14,0,0,0,1.09-1.38A1.74,1.74,0,0,0,294.31,257.49Z" class="cls-44"/><path d="M264.89,273.24a1.23,1.23,0,0,0-.86.09h0l-2.26,1.25h0a2.13,2.13,0,0,0-1,1.32,1.74,1.74,0,0,0,.85,2.26,1.17,1.17,0,0,0,.84-.09h0l.08,0,2.07-1.15h0a2.14,2.14,0,0,0,1.09-1.38A1.74,1.74,0,0,0,264.89,273.24Z" class="cls-42"/><path d="M265.81,273.9a1.2,1.2,0,0,0-.87.1h0l-2.25,1.25h0a2.22,2.22,0,0,0-1,1.32,1.74,1.74,0,0,0,.85,2.26,1.17,1.17,0,0,0,.84-.09h0l.08-.05,2.07-1.14h0a2.14,2.14,0,0,0,1.09-1.38A1.75,1.75,0,0,0,265.81,273.9Z" class="cls-45"/><path d="M419.41,167.68l-80.88-46.56a12.22,12.22,0,0,0-11.62.36L142.83,227.64c-3,2-3.23,5.91,1,8.41l16.49,9.48,2.5-1.45c2.94-1.7,7.37-1.89,9.92-.43l36.51,21c2.55,1.46,2.23,4-.7,5.73L206,271.82l18.65,10.73a12,12,0,0,0,11.43-.37L419.68,176.24A4.87,4.87,0,0,0,419.41,167.68Z" class="cls-46"/></g><g id="_7" data-name="7"><polygon points="301.64 178.75 302.59 182.57 297.37 187.94 292.5 185.32 295.05 179.25 297.55 177.23 301.64 178.75" class="cls-47"/><path d="M293,177.23c.83-.41,2.91,1.37,3.92,2s-.54,3.74-.6,4.37,1.18.59,2.22.2c.73-.28,1.94-.63,2.84-.88a1.25,1.25,0,0,0,.89-1.5l-.19-.83a3.12,3.12,0,0,1,1.83,2.79c.24,2.26,1.19,3.44-.41,4.27s-17.79,5.28-19.1,5.34-3.25-1.64-3.77-2.61-.9-1.51.21-2.36c1.38-1.06,5.7-3.39,7-4.58S293,177.23,293,177.23Z" class="cls-48"/><path d="M303.63,189.13c1.24-.65.95-1.51.65-2.91h0c-.24,1.19-1.77,1.48-3.38,2s-11.15,3.5-13.34,3.85c-1.78.29-3.62.77-5.28-.53a3.23,3.23,0,0,1-1.39-2.22,1.87,1.87,0,0,0-.51,2.63,5.42,5.42,0,0,0,4.15,2.55C286.49,194.47,302,190,303.63,189.13Z" class="cls-49"/><path d="M292.68,177.7l3.08,2.11a.81.81,0,0,1,.3,1.07l-.81,1.48A1.6,1.6,0,0,1,293,183l-3-2Z" class="cls-50"/><path d="M288.43,182.85h0l-.47.47a72.06,72.06,0,0,1-6.17,4s.95,1.64,2,1.93,6.65-2,7.71-3S288.43,182.85,288.43,182.85Z" class="cls-51"/><path d="M303.54,187.61c1.24-.64.95-1.5.65-2.9h0c-.25,1.19-1.78,1.48-3.38,1.95s-11.15,3.5-13.34,3.86c-1.78.29-3.62.77-5.28-.53-1.36-1.07-1.31-2-1.31-2a1.66,1.66,0,0,0-.59,2.42,5.4,5.4,0,0,0,4.15,2.55C286.4,193,301.94,188.44,303.54,187.61Z" class="cls-52"/><polygon points="324.47 186.95 324.55 191.4 328.47 200.53 330.99 200.18 332.34 192.92 331.61 186.95 324.47 186.95" class="cls-53"/><path d="M321.8,197c.34-4.12.39-6,1.18-6.45s6,.09,6.68.79.19,4.25.06,4.91.56.76,1-.61c.51-1.55.9-1.65.73-3a4.12,4.12,0,0,1,.56-2.31s.35,0,.78.87a12.18,12.18,0,0,1,.54,4.23c0,2.15-1,4.49-1.88,6.89-1.13,3.11-3,6.76-4.17,7.15-1.54.51-5.91.87-7.3-1.18a3.38,3.38,0,0,1-.25-3.1A41.87,41.87,0,0,0,321.8,197Z" class="cls-54"/><path d="M333.18,194.09a34.2,34.2,0,0,1-1.19,5.59c-.7,2.51-3.75,8.25-4.69,8.95s-4.33.71-6.09,0-.92-3.7-.92-3.7c-.22.69-.42,1.28-.54,1.71a3.41,3.41,0,0,0,.25,3.11c1.39,2.05,5.75,1.67,7.3,1.17,2.35-.74,3.56-4,4.69-7.12.87-2.4,2.15-4.78,2.15-6.93A6.82,6.82,0,0,0,333.18,194.09Z" class="cls-55"/><path d="M323.41,193.35l-.15,2a1.23,1.23,0,0,0,1.12,1.31l2.63.22a1.22,1.22,0,0,0,1.33-1.17l.06-2a1.22,1.22,0,0,0-1.14-1.27l-2.55-.17A1.22,1.22,0,0,0,323.41,193.35Z" class="cls-56"/><path d="M324,199.33a1.44,1.44,0,0,0-1.54,1c-.46,1.45-1.11,4.14-.95,4.69.31,1,4.36,1.38,5.13.77.61-.49,1-3.32,1.23-4.84a1.18,1.18,0,0,0-1-1.31Z" class="cls-57"/><path d="M333.18,192.72A34.11,34.11,0,0,1,332,198.3c-.7,2.52-3.75,8.26-4.69,9s-4.33.7-6.09,0-.92-3.7-.92-3.7c-.22.69-.42,1.28-.54,1.71a3.38,3.38,0,0,0,.25,3.1c1.39,2,5.76,1.69,7.3,1.18,1.17-.39,3-4,4.17-7.15.87-2.4,1.88-4.74,1.88-6.89A21.22,21.22,0,0,0,333.18,192.72Z" class="cls-58"/><path d="M295.39,102.75s1.47,31.81.93,36.28a16.14,16.14,0,0,0,.61,6.36,12.4,12.4,0,0,1,.47,4.73c-.73,7-1.61,25.37-1.94,26.9-.4,1.9.9,3,3.07,3.41s3.75.43,4.69-.79,1.5-11.66,4-18,.42-13.42.59-16,4.6-12.45,5.55-16.65,1.14-19.09,1.14-19.09Z" class="cls-59"/><path d="M309.59,108.71s2.9,24.41,6.18,33.52,2.48,13.58,4.37,15.88,3,24.69,3.12,27.57,1.76,4,4.87,4,4.47-.68,4.47-4.61,2-17.32.95-23.69-2.44-9.88-2.71-13,1.76-19.9,1.76-33.57-5.42-14.49-5.42-14.49Z" class="cls-60"/><path d="M326.3,118c4.06,2.24,6.2,2,6.2,2,.06-1.83.1-3.65.1-5.42a31.56,31.56,0,0,0-1-8.43l-9.92,4.51S322.24,115.79,326.3,118Z" class="cls-61"/><path d="M327.11,117c-3.1-1.7-4.13-5.1-4.45-6.61l-.94.42s.52,5.15,4.58,7.38,6.2,2,6.2,2c0-.41,0-.81,0-1.22A14.48,14.48,0,0,1,327.11,117Z" class="cls-62"/><path d="M307.74,37.59s-5.59-1.53-7.4-.9S295,42.2,294,47.7s2.06,29.24,2.06,29.24-1.16,20.94-1.43,24.09c-.21,2.45,1.54,5.42,12.59,9s22.15,1.44,25.36,0,2.48-1.26,1.22-8.66a246.93,246.93,0,0,1-2.59-26.33c-.19-6,4.12-24.75,4.12-24.75a58.71,58.71,0,0,0-8.67-6.68C321,39.94,307.74,37.59,307.74,37.59Z" class="cls-63"/><g class="cls-64"><path d="M331.23,75.07V74.9a.7.7,0,0,1,0-.12,22.85,22.85,0,0,1-.13-2.8l-5.31-16.82S318,64,316,71.34a31.71,31.71,0,0,0-1.44,8.73s.15.55-1.2-1.61S312,75.75,312,74.26s-.61-4.6-1-4.94-.92.27-.92.27l-.9,2.16s-5.82-7.64-6.91-7.64-2.77,4.53-2.64,6.56,2.51,5.82,3.79,7.18,3.64,1.28,4.5,2.3,5,18.17,8.78,23.64a18.83,18.83,0,0,0,6,5.73,40.52,40.52,0,0,0,4.36,2,23.85,23.85,0,0,0,5.52-1.43c3.21-1.44,2.49-1.26,1.22-8.66A252.24,252.24,0,0,1,331.23,75.07Z" class="cls-65"/></g><path d="M309.81,41.7s-2.3,4.14-1.35,6.22,3.88,3.57,8,2.76c4.5-.89,7.49-3.93,7.76-6a4.75,4.75,0,0,0-1.2-4.06A6.89,6.89,0,0,0,320.23,39Z" class="cls-66"/><path d="M309.4,37.91a12.42,12.42,0,0,1,.28,5.28c-.46,3.11-.5,3.83,1,5.05s4.92,1.85,8.22-.22,3.61-3.21,3.61-4.38-1.85-4.51-1.58-8.26a68,68,0,0,1,.87-6.91l.71-3.15-3-1.31Z" class="cls-67"/><path d="M304.85,18.73c-1.45.88-1.83,3.07-1.92,4.76-.18,3.08-.25,8,.79,10.54,1.58,3.88,2.85,5.28,3.52,5.77s5.78,0,8.23-1.76a13.29,13.29,0,0,0,5.26-6.93,9.14,9.14,0,0,0-.36-5.56l-13.9-6.82Z" class="cls-68"/><path d="M321.5,26.4s-1.27-1-2.17,0c-1.14,1.31-.2,2.85-1.76,2.64s0-3.38-1.35-4.33-7.58-.11-10.43-3.11c-1.58-1.68-1.17.09-2.23,0a4,4,0,0,1-3.18-2.78c-.27-1.35.81-2.43,2-1.83l.86.34s-2.57-3.11-.95-6.63,4.46-4.21,5.32-3.52C309.17,8.4,308,10,310,11s3.21.44,4.2.27c1.55-.27,1.11,1.33,2.5,1.76,2.64.81,5.37-1.35,8.06,2.64,3.06,4.56,1.84,8.14.67,9.41-.68.73-1,1.12-.76,1.73s1.44-.31,1.85.64-3.66,3.85-4,5.41.68,2.1-.07,3-1.55.2-2-.81.75-4.34.75-4.34S322.54,27.4,321.5,26.4Z" class="cls-69"/><path d="M318.82,31.85a.6.6,0,0,0,.66.73,3.48,3.48,0,0,0,3.31-3.13c.33-2.29-1.31-2.45-2.25-2.35a.86.86,0,0,0-.77.68Z" class="cls-70"/><path d="M319.52,30.94a.34.34,0,0,0,.37.41,1.94,1.94,0,0,0,1.86-1.76c.19-1.29-.73-1.38-1.26-1.32a.48.48,0,0,0-.43.38Z" class="cls-71"/><path d="M296,81.48,275.24,70.73A4.31,4.31,0,0,1,273.37,65l10.41-21A4.32,4.32,0,0,1,289.62,42L310.36,52.8a4.31,4.31,0,0,1,1.88,5.74l-10.42,21A4.31,4.31,0,0,1,296,81.48Z" class="cls-72"/><path d="M298.67,70.33a.85.85,0,0,0,.34-1.1l-.77-1.55a8.22,8.22,0,0,0,1.12-1.39l1.61.51a.8.8,0,0,0,1-.55l.92-2.9a.79.79,0,0,0-.49-1l-1.61-.5a8.37,8.37,0,0,0-.13-1.87l1.52-.85a.85.85,0,0,0,.34-1.1l-1.31-2.65a.74.74,0,0,0-1-.33l-1.51.85a7.82,7.82,0,0,0-1.39-1.19l.52-1.71a.79.79,0,0,0-.51-1l-2.76-.83a.8.8,0,0,0-1,.56L293,53.43a7.59,7.59,0,0,0-1.7.2l-.76-1.56a.75.75,0,0,0-1-.32l-2.59,1.46a.84.84,0,0,0-.34,1.09l.77,1.56a7.84,7.84,0,0,0-1.12,1.39l-1.61-.51a.79.79,0,0,0-1,.54l-.92,2.9a.8.8,0,0,0,.49,1l1.61.51a8.41,8.41,0,0,0,.13,1.87l-1.52.85a.84.84,0,0,0-.34,1.09l1.31,2.66a.74.74,0,0,0,1,.32l1.51-.85a8.32,8.32,0,0,0,1.4,1.2l-.51,1.7a.79.79,0,0,0,.5,1l2.76.82a.79.79,0,0,0,1-.55l.51-1.7a8,8,0,0,0,1.68-.2l.76,1.55a.74.74,0,0,0,1,.32Zm-9.45-6.56A4.38,4.38,0,0,1,291,58.09a3.83,3.83,0,0,1,5.38,1.67,4.39,4.39,0,0,1-1.77,5.68A3.84,3.84,0,0,1,289.22,63.77Z" class="cls-46"/><path d="M309.4,64.1l-.9,2.17s-5.82-7.65-6.9-7.65-2.78,4.53-2.64,6.57,2.5,5.82,3.79,7.17,3.64,1.29,4.49,2.3,6.88,20.71,9.65,22.34,3.52-.41,4.95-2.44,6.49-10.63,8.05-15.16,2.71-9.75,2.71-9.75l-9.75-3.45a47.43,47.43,0,0,0-2.71,7.85,31.09,31.09,0,0,0-1.08,9.68S314,75.13,312.63,73s-1.35-2.71-1.29-4.2-.6-4.6-1-4.94S309.4,64.1,309.4,64.1Z" class="cls-73"/><path d="M321.86,65.73a56.52,56.52,0,0,1,2.62-7.92c1.35-2.91,3-6.3,4.8-8a6.63,6.63,0,0,1,3.32-1.9l2.75,2.4s2,2.14,1.51,8.3a33.78,33.78,0,0,1-3.59,11.71s-2.5.61-6.22-1.08A14.84,14.84,0,0,1,321.86,65.73Z" class="cls-74"/></g><g id="_6" data-name="6"><path d="M406.18,173.35h0l-.13-79.79H369l.12,79.45a1,1,0,0,0,0,.34h0a2.69,2.69,0,0,0,1.51,1.84l13.82,8a6.94,6.94,0,0,0,6.23.26l14.41-8.33A1.76,1.76,0,0,0,406.18,173.35Z" class="cls-75"/><path d="M405,95.43l-14.42,8.32a6.88,6.88,0,0,1-6.23-.26l-13.82-8c-1.84-1.07-2-2.68-.45-3.6l14.42-8.32a6.91,6.91,0,0,1,6.23.25l13.82,8C406.4,92.9,406.6,94.51,405,95.43Z" class="cls-76"/><path d="M386.22,92.92l.75-5.37-.05,0L377,93.31a1.34,1.34,0,0,0-.23.16Z" class="cls-46"/><path d="M388.26,94.07l-11.51.68.14.1,8,4.62a3,3,0,0,0,2.67-.06l9.93-5.73c.76-.44.81-1.13.1-1.54l-8-4.62-.38-.16Z" class="cls-46"/></g><g id="_5" data-name="5"><g class="cls-77"><path d="M418.66,279.71,396,292.77c-10.23,5.91-28.11,5.17-39.92-1.65l-16.89-9.75c-11.81-6.83-13.09-17.14-2.86-23.05L359,245.26c10.23-5.91,28.1-5.17,39.91,1.65l16.89,9.75C427.61,263.49,428.89,273.8,418.66,279.71Z" class="cls-12"/><path d="M417.85,279.5l-22.18,12.81c-10,5.79-27.56,5.06-39.14-1.63L340,281.12c-11.58-6.69-12.84-16.81-2.81-22.6l22.19-12.81c10-5.79,27.56-5.06,39.14,1.63L415,256.9C426.63,263.59,427.89,273.71,417.85,279.5Z" class="cls-78"/><path d="M417.05,279.29l-21.74,12.55c-9.84,5.68-27,5-38.38-1.59l-16.23-9.37c-11.36-6.56-12.59-16.48-2.76-22.16l21.75-12.55c9.83-5.68,27-5,38.37,1.59l16.24,9.37C425.65,263.69,426.89,273.61,417.05,279.29Z" class="cls-79"/><path d="M416.25,279.08l-21.31,12.3c-9.64,5.56-26.47,4.87-37.6-1.56l-15.91-9.18c-11.13-6.43-12.34-16.15-2.7-21.71L360,246.62c9.63-5.56,26.47-4.86,37.6,1.56l15.91,9.19C424.68,263.79,425.89,273.51,416.25,279.08Z" class="cls-80"/><path d="M415.44,278.87l-20.87,12.05c-9.44,5.45-25.93,4.76-36.83-1.53l-15.58-9c-10.9-6.29-12.08-15.81-2.64-21.26l20.87-12c9.44-5.45,25.93-4.77,36.83,1.52l15.58,9C423.7,263.89,424.88,273.41,415.44,278.87Z" class="cls-81"/><path d="M414.64,278.65l-20.43,11.8c-9.25,5.34-25.39,4.67-36.06-1.49l-15.26-8.81c-10.67-6.16-11.83-15.48-2.59-20.82l20.44-11.8c9.24-5.33,25.38-4.66,36.06,1.5l15.25,8.81C422.72,264,423.88,273.32,414.64,278.65Z" class="cls-82"/><path d="M413.84,278.44l-20,11.55c-9,5.22-24.84,4.56-35.29-1.47l-14.93-8.61c-10.44-6-11.57-15.16-2.53-20.38l20-11.54c9-5.23,24.84-4.57,35.28,1.46l14.93,8.62C421.75,264.1,422.88,273.22,413.84,278.44Z" class="cls-83"/><path d="M413,278.23l-19.56,11.29c-8.84,5.11-24.3,4.47-34.51-1.43l-14.6-8.43c-10.22-5.9-11.33-14.82-2.48-19.93l19.56-11.29c8.84-5.11,24.3-4.47,34.51,1.43l14.61,8.43C420.77,264.2,421.88,273.12,413,278.23Z" class="cls-84"/><path d="M412.23,278l-19.12,11c-8.65,5-23.76,4.37-33.75-1.4l-14.27-8.24c-10-5.77-11.07-14.49-2.43-19.48l19.13-11c8.65-5,23.75-4.37,33.74,1.39l14.28,8.25C419.79,264.3,420.88,273,412.23,278Z" class="cls-85"/><path d="M411.43,277.81,392.74,288.6c-8.45,4.88-23.21,4.26-33-1.37l-13.95-8.06c-9.76-5.63-10.82-14.15-2.37-19l18.69-10.79c8.45-4.88,23.21-4.27,33,1.37l13.95,8C418.82,264.41,419.88,272.93,411.43,277.81Z" class="cls-86"/><path d="M410.62,277.6l-18.24,10.53c-8.26,4.77-22.68,4.17-32.21-1.33l-13.62-7.87c-9.53-5.5-10.56-13.82-2.31-18.59l18.25-10.54c8.25-4.76,22.67-4.16,32.2,1.34L408.31,259C417.84,264.51,418.88,272.83,410.62,277.6Z" class="cls-87"/><path d="M409.82,277.39,392,287.67c-8.06,4.65-22.13,4.07-31.43-1.3l-13.3-7.68c-9.3-5.37-10.31-13.5-2.25-18.15l17.81-10.28c8.05-4.65,22.12-4.07,31.43,1.3l13.29,7.68C416.87,264.61,417.88,272.73,409.82,277.39Z" class="cls-88"/><path d="M409,277.17l-17.38,10c-7.86,4.54-21.58,4-30.66-1.27l-13-7.49c-9.07-5.23-10.06-13.16-2.2-17.7l17.38-10c7.85-4.53,21.58-4,30.65,1.27l13,7.49C415.89,264.71,416.87,272.64,409,277.17Z" class="cls-89"/><path d="M408.21,277l-16.93,9.78c-7.66,4.42-21,3.87-29.89-1.24l-12.64-7.3c-8.85-5.11-9.81-12.83-2.15-17.25l16.94-9.78c7.66-4.42,21-3.87,29.88,1.24l12.65,7.3C414.91,264.81,415.87,272.54,408.21,277Z" class="cls-90"/><path d="M407.41,276.75l-16.5,9.53c-7.46,4.3-20.5,3.76-29.11-1.21L349.48,278c-8.62-5-9.56-12.5-2.09-16.81l16.5-9.53c7.46-4.31,20.49-3.77,29.11,1.21l12.32,7.11C413.94,264.92,414.87,272.44,407.41,276.75Z" class="cls-91"/><path d="M406.61,276.54l-16.07,9.27c-7.26,4.2-20,3.67-28.34-1.17l-12-6.93c-8.39-4.84-9.3-12.17-2-16.36l16.07-9.27c7.26-4.2,19.95-3.67,28.34,1.17l12,6.93C413,265,413.87,272.35,406.61,276.54Z" class="cls-92"/><path d="M405.8,276.33l-15.62,9c-7.07,4.08-19.41,3.57-27.57-1.14l-11.67-6.74c-8.16-4.71-9.05-11.84-2-15.92l15.63-9c7.06-4.08,19.41-3.57,27.57,1.14l11.66,6.74C412,265.12,412.87,272.25,405.8,276.33Z" class="cls-93"/><path d="M405,276.12l-15.19,8.76c-6.87,4-18.87,3.47-26.8-1.11l-11.34-6.54c-7.93-4.58-8.79-11.51-1.92-15.48L364.94,253c6.87-4,18.86-3.47,26.8,1.11l11.33,6.54C411,265.22,411.87,272.15,405,276.12Z" class="cls-94"/><path d="M404.2,275.91l-14.75,8.51c-6.68,3.85-18.33,3.37-26-1.08l-11-6.36c-7.7-4.44-8.54-11.17-1.86-15l14.75-8.52c6.67-3.85,18.32-3.37,26,1.08l11,6.36C410,265.33,410.87,272.05,404.2,275.91Z" class="cls-95"/><path d="M403.39,275.69,389.08,284c-6.47,3.73-17.78,3.27-25.26-1l-10.68-6.17c-7.48-4.32-8.29-10.84-1.82-14.58l14.32-8.26c6.47-3.74,17.78-3.27,25.25,1l10.69,6.17C409.05,265.43,409.87,272,403.39,275.69Z" class="cls-96"/><path d="M402.59,275.48l-13.88,8c-6.27,3.63-17.24,3.17-24.48-1l-10.36-6c-7.25-4.19-8-10.52-1.76-14.14l13.88-8c6.27-3.62,17.23-3.17,24.48,1l10.36,6C408.08,265.53,408.86,271.86,402.59,275.48Z" class="cls-97"/><path d="M401.79,275.27,388.35,283c-6.08,3.51-16.7,3.07-23.72-1l-10-5.8c-7-4.05-7.78-10.18-1.7-13.69l13.44-7.76c6.07-3.51,16.69-3.07,23.71,1l10,5.79C407.1,265.63,407.86,271.76,401.79,275.27Z" class="cls-98"/></g><path d="M411.1,267.38h0L411,259H341.82l.09,8.16c0,.21,0,0,0,.21h0a5.1,5.1,0,0,0,2.82,3.44l25.8,14.89c3.44,2,8.65,2.2,11.63.48l26.92-15.54A3.31,3.31,0,0,0,411.1,267.38Z" class="cls-99"/><path d="M409,262.48,382.09,278c-3,1.72-8.19,1.5-11.63-.49l-25.8-14.89c-3.44-2-3.82-5-.83-6.72l26.91-15.54c3-1.72,8.2-1.5,11.64.49l25.79,14.89C411.62,257.76,412,260.76,409,262.48Z" class="cls-100"/><path d="M373.93,257.79l1.41-10-.11.05-18.52,10.7a2.43,2.43,0,0,0-.44.3Z" class="cls-46"/><path d="M377.75,260l-21.49,1.26c.09.06.16.13.26.19L371.46,270a5.51,5.51,0,0,0,5-.11L395,259.22c1.43-.82,1.51-2.11.18-2.88l-14.93-8.62a3.67,3.67,0,0,0-.7-.29Z" class="cls-46"/></g><g id="_4" data-name="4"><path d="M381.5,187.28h0l-.1-44.66h-30l.1,44.39a1.22,1.22,0,0,0,0,.27h0a2.21,2.21,0,0,0,1.22,1.5l11.19,6.45a5.58,5.58,0,0,0,5.05.21l11.67-6.74A1.43,1.43,0,0,0,381.5,187.28Z" class="cls-101"/><path d="M380.55,144.13l-11.67,6.74a5.61,5.61,0,0,1-5.05-.21l-11.18-6.46c-1.5-.86-1.66-2.17-.37-2.91L364,134.55a5.56,5.56,0,0,1,5,.21l11.19,6.46C381.68,142.08,381.85,143.38,380.55,144.13Z" class="cls-102"/><path d="M361.44,140c-2.74,1.59-2.74,4.16,0,5.75a11,11,0,0,0,9.95,0c2.75-1.59,2.75-4.16,0-5.75l-5,2.88Z" class="cls-46"/><path d="M361.53,138.62l5,2.88,5-2.88A11,11,0,0,0,361.53,138.62Z" class="cls-46"/></g><g id="_3" data-name="3"><g class="cls-77"><path d="M270.71,219.42l-35.19,20.32c-15.92,9.19-43.73,8-62.12-2.57L147.13,222c-18.39-10.61-20.38-26.66-4.46-35.86l35.19-20.32c15.92-9.19,43.73-8,62.12,2.58l26.27,15.17C284.64,194.17,286.63,210.23,270.71,219.42Z" class="cls-12"/><path d="M269.46,219.09,235,239c-15.62,9-42.89,7.88-60.92-2.53l-25.77-14.87c-18-10.41-20-26.16-4.37-35.17l34.52-19.93c15.61-9,42.88-7.88,60.91,2.52l25.77,14.88C283.12,194.33,285.08,210.08,269.46,219.09Z" class="cls-78"/><path d="M268.21,218.76,234.38,238.3c-15.31,8.83-42,7.72-59.71-2.48L149.4,221.24c-17.67-10.21-19.59-25.64-4.28-34.48L179,167.23c15.31-8.84,42-7.73,59.71,2.47l25.27,14.59C281.6,194.49,283.52,209.92,268.21,218.76Z" class="cls-79"/><path d="M267,218.43l-33.15,19.14c-15,8.66-41.2,7.58-58.51-2.42l-24.76-14.29c-17.32-10-19.2-25.12-4.2-33.78l33.16-19.15c15-8.65,41.19-7.57,58.51,2.43l24.75,14.29C280.08,194.65,282,209.77,267,218.43Z" class="cls-80"/><path d="M265.71,218.1l-32.47,18.75c-14.69,8.48-40.35,7.42-57.31-2.37l-24.25-14c-17-9.79-18.8-24.61-4.11-33.09L180,168.64c14.69-8.48,40.35-7.42,57.31,2.38l24.25,14C278.56,194.81,280.4,209.62,265.71,218.1Z" class="cls-81"/><path d="M264.46,217.77l-31.79,18.36c-14.38,8.3-39.51,7.26-56.11-2.32L152.82,220.1c-16.61-9.59-18.41-24.09-4-32.39l31.8-18.36c14.38-8.31,39.5-7.26,56.11,2.32l23.73,13.71C277,195,278.84,209.47,264.46,217.77Z" class="cls-82"/><path d="M263.21,217.44l-31.11,18c-14.08,8.12-38.66,7.11-54.91-2.28L154,219.72c-16.25-9.38-18-23.57-3.94-31.7l31.11-18c14.08-8.13,38.66-7.11,54.91,2.27l23.23,13.41C275.52,195.13,277.29,209.32,263.21,217.44Z" class="cls-83"/><path d="M262,217.12l-30.43,17.57c-13.77,7.95-37.82,6.95-53.71-2.23L155.1,219.34c-15.9-9.18-17.63-23.06-3.86-31l30.44-17.57c13.76-7.95,37.81-6.95,53.7,2.23l22.73,13.12C274,195.29,275.73,209.17,262,217.12Z" class="cls-84"/><path d="M260.71,216.79,231,234c-13.46,7.77-37,6.79-52.51-2.18L156.24,219c-15.55-9-17.23-22.54-3.77-30.31l29.75-17.18c13.46-7.77,37-6.8,52.51,2.18l22.21,12.82C272.48,195.44,274.17,209,260.71,216.79Z" class="cls-85"/><path d="M259.46,216.46l-29.07,16.78c-13.15,7.6-36.12,6.64-51.31-2.12l-21.71-12.54c-15.18-8.76-16.83-22-3.68-29.62l29.07-16.78c13.16-7.6,36.13-6.64,51.31,2.12l21.71,12.54C271,195.6,272.61,208.87,259.46,216.46Z" class="cls-86"/><path d="M258.21,216.13l-28.39,16.39c-12.85,7.42-35.28,6.49-50.11-2.07l-21.2-12.24c-14.83-8.57-16.44-21.52-3.59-28.93l28.39-16.4c12.84-7.41,35.28-6.48,50.11,2.08l21.19,12.24C269.44,195.76,271.05,208.71,258.21,216.13Z" class="cls-87"/><path d="M257,215.8l-27.71,16c-12.54,7.24-34.43,6.33-48.91-2l-20.69-11.94c-14.47-8.36-16.05-21-3.51-28.24l27.71-16c12.54-7.24,34.43-6.33,48.91,2l20.69,11.94C267.92,195.92,269.5,208.56,257,215.8Z" class="cls-88"/><path d="M255.71,215.47l-27,15.61c-12.23,7.06-33.59,6.17-47.71-2l-20.18-11.65c-14.12-8.15-15.65-20.48-3.43-27.54l27-15.61c12.23-7.06,33.58-6.18,47.7,2l20.19,11.65C266.41,196.08,267.94,208.41,255.71,215.47Z" class="cls-89"/><path d="M254.46,215.14l-26.35,15.22c-11.92,6.88-32.74,6-46.51-1.93l-19.67-11.36c-13.77-7.95-15.26-20-3.34-26.85L184.94,175c11.92-6.89,32.74-6,46.51,1.92l19.67,11.36C264.89,196.24,266.38,208.26,254.46,215.14Z" class="cls-90"/><path d="M253.21,214.81l-25.67,14.82c-11.61,6.71-31.9,5.87-45.31-1.87l-19.16-11.07c-13.41-7.74-14.87-19.45-3.26-26.16l25.68-14.82c11.61-6.7,31.89-5.86,45.3,1.88L250,188.66C263.37,196.4,264.82,208.11,253.21,214.81Z" class="cls-91"/><path d="M252,214.48l-25,14.43c-11.31,6.53-31.05,5.71-44.11-1.82l-18.65-10.78c-13.06-7.53-14.47-18.93-3.17-25.46l25-14.43c11.31-6.53,31.05-5.71,44.11,1.83L248.79,189C261.85,196.56,263.26,208,252,214.48Z" class="cls-92"/><path d="M250.71,214.15l-24.31,14c-11,6.35-30.21,5.55-42.9-1.78l-18.16-10.48c-12.69-7.33-14.07-18.42-3.08-24.77l24.32-14c11-6.35,30.2-5.56,42.9,1.78l18.15,10.47C260.33,196.72,261.71,207.81,250.71,214.15Z" class="cls-93"/><path d="M249.46,213.83l-23.63,13.64c-10.69,6.17-29.36,5.4-41.7-1.73l-17.65-10.19c-12.34-7.12-13.68-17.9-3-24.07l23.63-13.65c10.69-6.17,29.36-5.39,41.7,1.73l17.65,10.19C258.81,196.88,260.15,207.65,249.46,213.83Z" class="cls-94"/><path d="M248.21,213.5l-23,13.25c-10.38,6-28.52,5.24-40.5-1.68l-17.14-9.89c-12-6.92-13.29-17.39-2.91-23.39l23-13.25c10.38-6,28.51-5.24,40.5,1.68l17.13,9.89C257.29,197,258.59,207.5,248.21,213.5Z" class="cls-95"/><path d="M247,213.17,224.69,226c-10.07,5.81-27.67,5.08-39.3-1.63l-16.63-9.6c-11.63-6.72-12.89-16.88-2.82-22.69l22.27-12.86c10.07-5.82,27.67-5.09,39.3,1.63l16.63,9.6C255.77,197.19,257,207.35,247,213.17Z" class="cls-96"/><path d="M245.71,212.84,224.12,225.3c-9.77,5.64-26.82,4.94-38.1-1.58l-16.12-9.3c-11.28-6.51-12.5-16.36-2.74-22L188.75,180c9.77-5.64,26.83-4.94,38.1,1.58l16.12,9.3C254.25,197.35,255.48,207.2,245.71,212.84Z" class="cls-97"/><path d="M244.46,212.51l-20.91,12.07c-9.46,5.46-26,4.78-36.9-1.53L171,214c-10.92-6.31-12.11-15.84-2.65-21.3l20.91-12.08c9.46-5.46,26-4.77,36.9,1.53l15.61,9C252.73,197.51,253.92,207.05,244.46,212.51Z" class="cls-98"/></g><path d="M262.48,198.23h0l-.24-12.52h-113l.15,12.17c0,.34,0,0,0,.35h0c.26,2,1.82,4,4.62,5.63l42.18,24.35c5.63,3.25,14.14,3.6,19,.79l44-25.41C261.67,202.17,262.74,200.23,262.48,198.23Z" class="cls-103"/><path d="M259.06,191.41l-44,25.41c-4.87,2.82-13.39,2.46-19-.79l-42.18-24.35c-5.63-3.25-6.24-8.17-1.37-11l44-25.41c4.87-2.82,13.39-2.47,19,.78l42.18,24.36C263.32,183.68,263.93,188.59,259.06,191.41Z" class="cls-104"/><path d="M240.29,183.58c-5.73-1.65-15-3.46-20.82-.11l-2.93,1.69L213,183.6a4.51,4.51,0,0,0-1.79-3.61h0l-6.9-6.22c-.16-.16-.33-.31-.51-.47l-.14-.12h0a10.25,10.25,0,0,0-1.41-1c-5.36-3.09-14-3.09-19.4,0s-5.36,8.11,0,11.21a15,15,0,0,0,1.61.78h0l.22.08c.31.13.63.24,1,.35l10.67,3.95h0a16.77,16.77,0,0,0,6.26,1l2.71,2.05-2.91,1.67c-5.82,3.37-2.7,8.73.16,12,1.32,1.52,4.81,1.85,6.89.65L225.09,197l.68-.4,15.65-9C243.49,186.35,242.92,184.34,240.29,183.58Z" class="cls-46"/></g><g id="_2" data-name="2"><g class="cls-77"><path d="M312.84,225.31l-14.49,8.37c-6.55,3.78-18,3.31-25.57-1.06l-5.35-3.19c-7.57-4.37-8.39-11-1.84-14.77l14.49-8.36c6.56-3.79,18-3.31,25.57,1.06l5.36,3.19C318.58,214.92,319.4,221.53,312.84,225.31Z" class="cls-12"/><path d="M312.33,225.18l-14.21,8.2c-6.43,3.71-17.65,3.25-25.08-1l-5.14-3.07c-7.42-4.28-8.23-10.77-1.8-14.48l14.21-8.2c6.43-3.71,17.65-3.25,25.07,1l5.15,3.07C318,215,318.76,221.47,312.33,225.18Z" class="cls-78"/><path d="M311.82,225l-13.93,8c-6.31,3.64-17.31,3.18-24.59-1l-4.93-2.95c-7.28-4.2-8.07-10.55-1.77-14.19l13.93-8c6.3-3.64,17.31-3.18,24.58,1l4.94,2.95C317.33,215.05,318.12,221.4,311.82,225Z" class="cls-79"/><path d="M311.3,224.91l-13.65,7.88c-6.17,3.56-17,3.11-24.09-1L268.84,229c-7.13-4.12-7.91-10.34-1.73-13.91l13.65-7.88c6.17-3.56,16.95-3.12,24.08,1l4.73,2.83C316.7,215.11,317.47,221.34,311.3,224.91Z" class="cls-80"/><path d="M310.79,224.77l-13.37,7.72c-6.05,3.49-16.61,3-23.6-1l-4.52-2.71c-7-4-7.74-10.13-1.69-13.62L281,207.46c6-3.49,16.61-3.05,23.59,1l4.52,2.71C316.07,215.18,316.83,221.28,310.79,224.77Z" class="cls-81"/><path d="M310.27,224.63l-13.09,7.56c-5.92,3.42-16.26,3-23.1-1l-4.31-2.58c-6.83-4-7.58-9.92-1.66-13.34l13.09-7.56c5.92-3.42,16.27-3,23.1,1l4.31,2.59C315.45,215.25,316.19,221.22,310.27,224.63Z" class="cls-82"/><path d="M309.76,224.5,297,231.89c-5.8,3.35-15.92,2.93-22.61-.93l-4.1-2.47c-6.69-3.86-7.42-9.71-1.62-13.05l12.81-7.4c5.79-3.34,15.91-2.92,22.6.94l4.1,2.47C314.82,215.31,315.55,221.15,309.76,224.5Z" class="cls-83"/><path d="M309.24,224.36l-12.53,7.24c-5.66,3.27-15.56,2.86-22.11-.92l-3.89-2.35c-6.54-3.77-7.25-9.49-1.59-12.76l12.53-7.24c5.67-3.27,15.57-2.86,22.11.92l3.89,2.35C314.2,215.38,314.91,221.09,309.24,224.36Z" class="cls-84"/><path d="M308.73,224.23l-12.25,7.07c-5.54,3.2-15.22,2.8-21.62-.9l-3.68-2.22c-6.4-3.7-7.09-9.28-1.55-12.48l12.25-7.07c5.54-3.2,15.22-2.8,21.61.89l3.69,2.23C313.57,215.44,314.27,221,308.73,224.23Z" class="cls-85"/><path d="M308.21,224.09l-12,6.91c-5.41,3.13-14.87,2.74-21.12-.87L271.65,228c-6.25-3.61-6.93-9.07-1.52-12.19l12-6.91c5.41-3.13,14.87-2.74,21.12.87l3.48,2.11C313,215.51,313.63,221,308.21,224.09Z" class="cls-86"/><path d="M307.7,224,296,230.71c-5.29,3-14.52,2.67-20.63-.86l-3.26-2c-6.11-3.53-6.77-8.86-1.48-11.91l11.69-6.75c5.28-3.05,14.52-2.67,20.62.85l3.27,2C312.32,215.57,313,220.9,307.7,224Z" class="cls-87"/><path d="M307.18,223.82l-11.41,6.59c-5.16,3-14.17,2.6-20.13-.84l-3.05-1.86c-6-3.44-6.61-8.64-1.45-11.62l11.41-6.59c5.16-3,14.17-2.61,20.13.83l3.06,1.87C311.7,215.64,312.34,220.84,307.18,223.82Z" class="cls-88"/><path d="M306.67,223.69l-11.13,6.42c-5,2.91-13.83,2.54-19.64-.81l-2.85-1.75c-5.81-3.35-6.44-8.43-1.41-11.33l11.13-6.43c5-2.91,13.83-2.54,19.64.81l2.85,1.75C311.07,215.7,311.7,220.78,306.67,223.69Z" class="cls-89"/><path d="M306.15,223.55l-10.85,6.26c-4.9,2.84-13.47,2.48-19.14-.79l-2.64-1.62c-5.66-3.27-6.28-8.22-1.37-11.05L283,210.08c4.9-2.83,13.48-2.48,19.14.8l2.64,1.62C310.45,215.77,311.06,220.72,306.15,223.55Z" class="cls-90"/><path d="M305.64,223.42l-10.57,6.1c-4.78,2.76-13.13,2.41-18.65-.78l-2.43-1.5c-5.52-3.18-6.12-8-1.34-10.77l10.57-6.1c4.78-2.76,13.13-2.41,18.65.78l2.43,1.5C309.82,215.83,310.42,220.66,305.64,223.42Z" class="cls-91"/><path d="M305.12,223.28l-10.28,5.94c-4.66,2.69-12.79,2.35-18.16-.75l-2.22-1.38c-5.37-3.11-6-7.8-1.3-10.49l10.29-5.94c4.65-2.68,12.78-2.35,18.15.76l2.22,1.38C309.19,215.9,309.78,220.59,305.12,223.28Z" class="cls-92"/><path d="M304.61,223.14l-10,5.78c-4.53,2.62-12.43,2.29-17.66-.73l-2-1.26c-5.23-3-5.8-7.58-1.27-10.2l10-5.77c4.53-2.62,12.43-2.29,17.66.73l2,1.26C308.57,216,309.14,220.53,304.61,223.14Z" class="cls-93"/><path d="M304.1,223l-9.73,5.62c-4.4,2.54-12.09,2.22-17.17-.72l-1.8-1.13c-5.08-2.94-5.63-7.38-1.23-9.92l9.72-5.61c4.4-2.54,12.09-2.23,17.17.71l1.8,1.14C307.94,216,308.5,220.47,304.1,223Z" class="cls-94"/><path d="M303.58,222.87l-9.45,5.46c-4.27,2.47-11.74,2.16-16.67-.69l-1.59-1c-4.94-2.85-5.47-7.16-1.2-9.63l9.45-5.45c4.27-2.47,11.74-2.16,16.67.69l1.59,1C307.32,216.1,307.85,220.41,303.58,222.87Z" class="cls-95"/><path d="M303.07,222.74,293.9,228c-4.15,2.4-11.39,2.1-16.18-.67l-1.38-.9c-4.79-2.76-5.31-6.94-1.17-9.34l9.17-5.29c4.15-2.4,11.39-2.1,16.18.67l1.38.9C306.69,216.16,307.21,220.34,303.07,222.74Z" class="cls-96"/><path d="M302.55,222.6l-8.89,5.13c-4,2.33-11,2-15.68-.65l-1.18-.77c-4.64-2.68-5.14-6.74-1.12-9.06l8.89-5.13c4-2.32,11-2,15.68.65l1.17.78C306.07,216.23,306.57,220.28,302.55,222.6Z" class="cls-97"/><path d="M302,222.47l-8.61,5c-3.9,2.25-10.7,2-15.19-.63l-1-.66c-4.49-2.59-5-6.52-1.09-8.77l8.61-5c3.89-2.25,10.7-2,15.19.63l1,.66C305.44,216.29,305.93,220.22,302,222.47Z" class="cls-98"/></g><path d="M309.45,216.59h0l-.09-5.15-41.08,3.05.06,5c0,.14,0,0,0,.14h0a3.45,3.45,0,0,0,1.9,2.32l11.9,7c2.32,1.34,5.83,1.48,7.84.33l18.12-10.47A2.23,2.23,0,0,0,309.45,216.59Z" class="cls-105"/><path d="M308.05,213.78l-18.12,10.46c-2,1.16-5.52,1-7.84-.32l-11.9-7c-2.32-1.34-2.57-3.37-.56-4.52L287.75,202c2-1.16,5.52-1,7.83.33l11.9,7C309.8,210.6,310.05,212.62,308.05,213.78Z" class="cls-106"/><g id="_16" data-name="16"><path d="M299.79,208.8l-.91.27a5.67,5.67,0,0,0-1.15-.87h0c-2.48-1.45-6.25-1.61-8.4-.35l-8.78,5.1-2.66.81v2.11h0a3.56,3.56,0,0,0,2.05,2.7c2.49,1.45,6.25,1.61,8.41.35l10-5.81a2.54,2.54,0,0,0,1.45-2.09h0Z" class="cls-107"/><path d="M298.34,211l-10,5.8c-2.16,1.26-5.92,1.1-8.41-.35h0c-2.49-1.45-2.76-3.65-.6-4.91l10-5.81c2.15-1.25,5.92-1.1,8.4.36h0C300.22,207.55,300.49,209.75,298.34,211Z" class="cls-108"/><path d="M296.62,206.67c2,1.14,2,3,0,4.14a7.94,7.94,0,0,1-7.17,0c-2-1.15-2-3,0-4.14A7.88,7.88,0,0,1,296.62,206.67Z" class="cls-109"/></g></g><g id="_1" data-name="1"><g class="cls-77"><path d="M507,183.51l-17.35,10c-7.84,4.53-21.55,4-30.6-1.26l-6.41-3.83c-9.06-5.23-10.05-13.14-2.2-17.67l17.34-10c7.85-4.53,21.55-4,30.61,1.27l6.41,3.82C513.84,171.07,514.82,179,507,183.51Z" class="cls-12"/><path d="M506.36,183.35l-17,9.82c-7.69,4.44-21.13,3.88-30-1.25l-6.16-3.67c-8.89-5.13-9.85-12.89-2.16-17.33l17-9.82c7.69-4.44,21.13-3.89,30,1.24L504.2,166C513.09,171.15,514.05,178.91,506.36,183.35Z" class="cls-78"/><path d="M505.74,183.19l-16.67,9.62c-7.54,4.36-20.71,3.81-29.42-1.22l-5.91-3.53c-8.71-5-9.66-12.63-2.11-17l16.67-9.62c7.54-4.36,20.71-3.81,29.42,1.22l5.91,3.53C512.34,171.23,513.29,178.83,505.74,183.19Z" class="cls-79"/><path d="M505.13,183l-16.34,9.44c-7.39,4.26-20.3,3.73-28.83-1.2l-5.66-3.39c-8.53-4.92-9.46-12.37-2.07-16.64l16.34-9.43c7.39-4.27,20.3-3.74,28.83,1.19l5.66,3.39C511.59,171.31,512.52,178.76,505.13,183Z" class="cls-80"/><path d="M504.51,182.86l-16,9.24c-7.24,4.18-19.88,3.66-28.24-1.17l-5.41-3.24c-8.36-4.83-9.26-12.13-2-16.31l16-9.24c7.23-4.17,19.88-3.65,28.24,1.18l5.4,3.24C510.84,171.38,511.75,178.68,504.51,182.86Z" class="cls-81"/><path d="M503.9,182.7l-15.67,9.05c-7.09,4.09-19.47,3.57-27.65-1.15l-5.16-3.1c-8.18-4.72-9.07-11.87-2-16l15.66-9c7.09-4.09,19.47-3.57,27.65,1.15l5.16,3.1C510.09,171.46,511,178.61,503.9,182.7Z" class="cls-82"/><path d="M503.28,182.54,488,191.39c-6.94,4-19.05,3.5-27.06-1.12l-4.91-3c-8-4.62-8.87-11.61-1.94-15.62l15.33-8.85c6.94-4,19.05-3.5,27.06,1.12l4.91,3C509.34,171.54,510.21,178.53,503.28,182.54Z" class="cls-83"/><path d="M502.66,182.38l-15,8.65c-6.79,3.92-18.64,3.43-26.47-1.09l-4.66-2.81c-7.83-4.52-8.68-11.36-1.9-15.28l15-8.66c6.78-3.92,18.63-3.42,26.47,1.1l4.65,2.81C508.6,171.62,509.45,178.46,502.66,182.38Z" class="cls-84"/><path d="M502.05,182.21l-14.66,8.47c-6.64,3.83-18.22,3.35-25.88-1.07l-4.4-2.67c-7.66-4.42-8.49-11.11-1.86-14.94l14.66-8.46c6.63-3.83,18.21-3.35,25.87,1.07l4.41,2.67C507.85,171.7,508.68,178.38,502.05,182.21Z" class="cls-85"/><path d="M501.43,182.05l-14.33,8.27c-6.48,3.74-17.79,3.27-25.28-1l-4.15-2.52c-7.49-4.32-8.3-10.85-1.82-14.59l14.33-8.27c6.48-3.74,17.8-3.27,25.28,1.05l4.16,2.52C507.1,171.78,507.91,178.31,501.43,182.05Z" class="cls-86"/><path d="M500.82,181.89l-14,8.08c-6.32,3.65-17.38,3.19-24.69-1l-3.9-2.37c-7.31-4.22-8.1-10.6-1.78-14.26l14-8.07c6.32-3.66,17.38-3.2,24.69,1l3.9,2.37C506.35,171.85,507.14,178.24,500.82,181.89Z" class="cls-87"/><path d="M500.2,181.73l-13.66,7.88c-6.17,3.57-17,3.12-24.1-1l-3.65-2.23c-7.13-4.12-7.91-10.35-1.73-13.91l13.65-7.89c6.18-3.56,17-3.11,24.1,1l3.66,2.23C505.6,171.93,506.38,178.16,500.2,181.73Z" class="cls-88"/><path d="M499.58,181.56l-13.32,7.7c-6,3.47-16.55,3-23.5-1l-3.41-2.09c-7-4-7.71-10.09-1.69-13.57L471,164.93c6-3.48,16.55-3,23.51,1L497.9,168C504.85,172,505.61,178.09,499.58,181.56Z" class="cls-89"/><path d="M499,181.4l-13,7.5c-5.87,3.39-16.13,3-22.91-1L459.91,186c-6.78-3.92-7.52-9.84-1.64-13.23l13-7.5c5.87-3.39,16.13-3,22.92.95l3.15,1.94C504.1,172.09,504.84,178,499,181.4Z" class="cls-90"/><path d="M498.35,181.24l-12.65,7.3c-5.72,3.31-15.72,2.89-22.32-.92l-2.91-1.8c-6.61-3.81-7.32-9.58-1.6-12.89l12.65-7.3c5.72-3.3,15.72-2.89,22.32.92l2.91,1.8C503.36,172.17,504.07,177.94,498.35,181.24Z" class="cls-91"/><path d="M497.74,181.08l-12.32,7.11c-5.57,3.21-15.3,2.81-21.73-.9L461,185.64c-6.43-3.72-7.13-9.34-1.56-12.55L471.79,166c5.57-3.22,15.3-2.81,21.73.9l2.65,1.65C502.61,172.25,503.31,177.86,497.74,181.08Z" class="cls-92"/><path d="M497.12,180.92l-12,6.91c-5.42,3.13-14.88,2.74-21.14-.87l-2.41-1.51c-6.25-3.61-6.93-9.08-1.51-12.21l12-6.91c5.41-3.13,14.88-2.74,21.14.87l2.4,1.51C501.86,172.32,502.54,177.79,497.12,180.92Z" class="cls-93"/><path d="M496.5,180.75l-11.64,6.73c-5.27,3-14.47,2.66-20.55-.85l-2.16-1.37c-6.08-3.51-6.74-8.82-1.47-11.86l11.64-6.73c5.27-3,14.47-2.65,20.55.86l2.16,1.36C501.11,172.4,501.77,177.71,496.5,180.75Z" class="cls-94"/><path d="M495.89,180.59l-11.31,6.53c-5.12,3-14.05,2.58-20-.83l-1.9-1.21c-5.91-3.42-6.55-8.57-1.44-11.53L472.59,167c5.12-3,14.05-2.58,20,.83l1.9,1.22C500.36,172.48,501,177.64,495.89,180.59Z" class="cls-95"/><path d="M495.27,180.43l-11,6.34c-5,2.86-13.64,2.5-19.37-.81l-1.65-1.07c-5.73-3.31-6.36-8.32-1.39-11.18l11-6.34c5-2.86,13.63-2.5,19.37.8l1.65,1.08C499.61,172.56,500.23,177.56,495.27,180.43Z" class="cls-96"/><path d="M494.65,180.27,484,186.41c-4.82,2.78-13.22,2.43-18.78-.78l-1.4-.93c-5.56-3.21-6.16-8.06-1.35-10.84l10.64-6.14c4.81-2.78,13.22-2.43,18.77.78l1.41.93C498.86,172.64,499.47,177.49,494.65,180.27Z" class="cls-97"/><path d="M494,180.11l-10.3,5.94c-4.67,2.7-12.81,2.36-18.19-.75l-1.15-.78c-5.38-3.11-6-7.81-1.31-10.5l10.31-6c4.66-2.69,12.8-2.35,18.18.75l1.15.79C498.11,172.72,498.7,177.42,494,180.11Z" class="cls-98"/></g><path d="M502.92,174.22h0l-.12-6.17-49.16,3.65.07,6c0,.17,0,0,0,.17h0a4.12,4.12,0,0,0,2.28,2.78L470.25,189c2.78,1.6,7,1.78,9.38.39l21.68-12.52A2.69,2.69,0,0,0,502.92,174.22Z" class="cls-110"/><path d="M501.23,170.86l-21.69,12.52c-2.4,1.39-6.6,1.21-9.37-.39l-14.25-8.34c-2.77-1.6-3.07-4-.67-5.42l21.69-12.52c2.4-1.38,6.6-1.21,9.37.39l14.25,8.34C503.33,167.05,503.63,169.47,501.23,170.86Z" class="cls-111"/><g id="_16-2" data-name="16"><path d="M491,165.15l-1.06.32a6.34,6.34,0,0,0-1.34-1h0c-2.9-1.69-7.28-1.87-9.79-.41l-10.25,6-3.1.95v2.46h0c0,1.1.85,2.25,2.39,3.15,2.9,1.69,7.29,1.88,9.8.41l11.65-6.77a3,3,0,0,0,1.69-2.44h0Z" class="cls-112"/><path d="M489.32,167.72l-11.65,6.77c-2.51,1.47-6.9,1.29-9.8-.41h0c-2.9-1.69-3.22-4.25-.7-5.72l11.65-6.77c2.51-1.47,6.89-1.29,9.79.41h0C491.51,163.69,491.83,166.25,489.32,167.72Z" class="cls-113"/><path d="M487.32,162.66c2.31,1.34,2.31,3.5,0,4.83a9.26,9.26,0,0,1-8.36,0c-2.31-1.33-2.31-3.49,0-4.83A9.26,9.26,0,0,1,487.32,162.66Z" class="cls-114"/></g></g></g></g></svg>