<svg xmlns="http://www.w3.org/2000/svg" xmlns:xlink="http://www.w3.org/1999/xlink" viewBox="0 0 532.35 308.69"><defs><linearGradient id="linear-gradient" x1="299.26" y1="259.94" x2="295.01" y2="252.44" gradientUnits="userSpaceOnUse"><stop offset="0" stop-color="#fff"/><stop offset="1"/></linearGradient><linearGradient id="linear-gradient-2" x1="208.8" y1="289.01" x2="213.98" y2="280.09" xlink:href="#linear-gradient"/><linearGradient id="linear-gradient-3" x1="357.04" y1="79.95" x2="304.7" y2="85.73" xlink:href="#linear-gradient"/><linearGradient id="linear-gradient-4" x1="9.75" y1="183.2" x2="347.89" y2="183.2" gradientUnits="userSpaceOnUse"><stop offset="0" stop-color="#ff4b4f"/><stop offset="1" stop-color="#e41600"/></linearGradient><linearGradient id="linear-gradient-5" x1="86.87" y1="183.2" x2="347.89" y2="183.2" gradientUnits="userSpaceOnUse"><stop offset="0" stop-color="#3fecff"/><stop offset="1" stop-color="#0089ff"/></linearGradient><linearGradient id="linear-gradient-6" x1="67.36" y1="183.2" x2="319.07" y2="183.2" gradientUnits="userSpaceOnUse"><stop offset="0" stop-color="#ffe44f"/><stop offset="1" stop-color="#ff4700"/></linearGradient><linearGradient id="linear-gradient-7" x1="308.82" y1="254.71" x2="305.67" y2="249.15" gradientUnits="userSpaceOnUse"><stop offset="0" stop-color="#150020"/><stop offset="1" stop-color="#c0abff"/></linearGradient><linearGradient id="linear-gradient-8" x1="227.66" y1="299.87" x2="232.83" y2="290.99" xlink:href="#linear-gradient-7"/><linearGradient id="linear-gradient-9" x1="201.49" y1="268.77" x2="171.91" y2="248.79" gradientUnits="userSpaceOnUse"><stop offset="0" stop-color="#9c74ff"/><stop offset="1" stop-color="#fff6ff"/></linearGradient><linearGradient id="linear-gradient-10" x1="207.27" y1="271.4" x2="177.69" y2="251.42" xlink:href="#linear-gradient-9"/><linearGradient id="linear-gradient-11" x1="285.89" y1="281.01" x2="274.16" y2="270.26" gradientTransform="rotate(.81 417.965 186.623)" xlink:href="#linear-gradient-9"/><linearGradient id="linear-gradient-12" x1="300.01" y1="272.71" x2="288.29" y2="261.96" gradientTransform="rotate(.81 417.965 186.623)" xlink:href="#linear-gradient-9"/><linearGradient id="linear-gradient-13" x1="271.63" y1="284.14" x2="264.22" y2="277.35" gradientTransform="rotate(.81 417.965 186.623)" xlink:href="#linear-gradient-9"/><linearGradient id="linear-gradient-14" x1="300.16" y1="185.32" x2="294.73" y2="179.55" gradientUnits="userSpaceOnUse"><stop offset="0" stop-color="#ef8c93"/><stop offset="1" stop-color="#f9c7d2"/></linearGradient><linearGradient id="linear-gradient-15" x1="286.04" y1="181.35" x2="299.98" y2="192.41" gradientUnits="userSpaceOnUse"><stop offset="0" stop-color="#393243"/><stop offset="1" stop-color="#000500"/></linearGradient><linearGradient id="linear-gradient-16" x1="285.24" y1="183.66" x2="299.34" y2="194.85" xlink:href="#linear-gradient-15"/><linearGradient id="linear-gradient-17" x1="294.5" y1="184.63" x2="292.62" y2="179.28" gradientUnits="userSpaceOnUse"><stop offset="0" stop-color="#acacaf"/><stop offset="1" stop-color="#fff"/></linearGradient><linearGradient id="linear-gradient-18" x1="287.76" y1="189.42" x2="286.15" y2="184.84" xlink:href="#linear-gradient-17"/><linearGradient id="linear-gradient-19" x1="316.95" y1="197.57" x2="284.4" y2="185.17" xlink:href="#linear-gradient-17"/><linearGradient id="linear-gradient-20" x1="333.7" y1="197.64" x2="324.04" y2="187.35" xlink:href="#linear-gradient-14"/><linearGradient id="linear-gradient-21" x1="319.81" y1="194.5" x2="331.93" y2="204.12" xlink:href="#linear-gradient-15"/><linearGradient id="linear-gradient-22" x1="324.15" y1="200.06" x2="331.89" y2="206.2" xlink:href="#linear-gradient-15"/><linearGradient id="linear-gradient-23" x1="327.32" y1="198.75" x2="325.55" y2="193.7" xlink:href="#linear-gradient-17"/><linearGradient id="linear-gradient-24" x1="326.24" y1="207.12" x2="323.87" y2="200.37" xlink:href="#linear-gradient-17"/><linearGradient id="linear-gradient-25" x1="341.01" y1="202.39" x2="321.54" y2="200.74" xlink:href="#linear-gradient-17"/><linearGradient id="linear-gradient-26" x1="321.78" y1="163.39" x2="280.21" y2="116.09" gradientUnits="userSpaceOnUse"><stop offset="0" stop-color="#393243"/><stop offset="1" stop-color="#82788b"/></linearGradient><linearGradient id="linear-gradient-27" x1="350.54" y1="172.12" x2="301.25" y2="116.03" xlink:href="#linear-gradient-26"/><linearGradient id="linear-gradient-28" x1="323.79" y1="108.04" x2="334.96" y2="116.9" xlink:href="#linear-gradient-15"/><linearGradient id="linear-gradient-29" x1="331.65" y1="121.85" x2="316.66" y2="102.95" gradientUnits="userSpaceOnUse"><stop offset="0" stop-color="#ac9dc0"/><stop offset="1" stop-color="#f0f6ff"/></linearGradient><linearGradient id="linear-gradient-30" x1="308.71" y1="104.25" x2="323.84" y2="34.71" xlink:href="#linear-gradient-29"/><linearGradient id="linear-gradient-31" x1="357.04" y1="79.95" x2="304.7" y2="85.73" xlink:href="#linear-gradient-26"/><linearGradient id="linear-gradient-32" x1="324.44" y1="40.63" x2="308.56" y2="48.84" xlink:href="#linear-gradient-26"/><linearGradient id="linear-gradient-33" x1="317.66" y1="36.93" x2="311.98" y2="51.01" gradientUnits="userSpaceOnUse"><stop offset="0" stop-color="#ef8c93"/><stop offset="1" stop-color="#f9c7c0"/></linearGradient><linearGradient id="linear-gradient-34" x1="318" y1="23.34" x2="302.75" y2="33.17" xlink:href="#linear-gradient-33"/><linearGradient id="linear-gradient-35" x1="302.77" y1="9.72" x2="327.58" y2="29.41" xlink:href="#linear-gradient-15"/><linearGradient id="linear-gradient-36" x1="327.69" y1="15.11" x2="321.74" y2="19.53" gradientTransform="rotate(-8.51 403.615 48.342)" gradientUnits="userSpaceOnUse"><stop offset="0" stop-color="#ef8c93"/><stop offset="1" stop-color="#ffcdca"/></linearGradient><linearGradient id="linear-gradient-37" x1="324.05" y1="17.75" x2="319.36" y2="21.23" gradientTransform="rotate(-8.51 403.615 48.342)" gradientUnits="userSpaceOnUse"><stop offset="0" stop-color="#ef7f7d"/><stop offset="1" stop-color="#ffcdca"/></linearGradient><linearGradient id="linear-gradient-38" x1="273.09" y1="61.17" x2="312.52" y2="62.36" gradientUnits="userSpaceOnUse"><stop offset="0" stop-color="#0ff"/><stop offset="1" stop-color="#3998ff"/></linearGradient><linearGradient id="linear-gradient-39" x1="331.19" y1="72.42" x2="299.97" y2="80.88" xlink:href="#linear-gradient-33"/><linearGradient id="linear-gradient-40" x1="327.82" y1="69.75" x2="332.56" y2="47.91" xlink:href="#linear-gradient-29"/><linearGradient id="linear-gradient-41" x1="390.89" y1="138.81" x2="384.72" y2="138.81" gradientUnits="userSpaceOnUse"><stop offset="0" stop-color="#ff5a00"/><stop offset="1" stop-color="#ff9b0c"/></linearGradient><linearGradient id="linear-gradient-42" x1="444.3" y1="101.65" x2="393.79" y2="94.55" gradientUnits="userSpaceOnUse"><stop offset="0" stop-color="#ff3100"/><stop offset="1" stop-color="#ffcd50"/></linearGradient><linearGradient id="linear-gradient-43" x1="382.59" y1="273.18" x2="371.09" y2="273.18" xlink:href="#linear-gradient-41"/><linearGradient id="linear-gradient-44" x1="482.37" y1="274.1" x2="388.06" y2="260.85" xlink:href="#linear-gradient-42"/><linearGradient id="linear-gradient-45" x1="368.92" y1="169.28" x2="363.73" y2="169.28" gradientUnits="userSpaceOnUse"><stop offset="0" stop-color="#3998ff"/><stop offset="1" stop-color="#00cfff"/></linearGradient><linearGradient id="linear-gradient-46" x1="355.37" y1="142.37" x2="402.37" y2="143.8" xlink:href="#linear-gradient-38"/><linearGradient id="linear-gradient-47" x1="215.86" y1="208.3" x2="197.05" y2="208.3" xlink:href="#linear-gradient-41"/><linearGradient id="linear-gradient-48" x1="382.47" y1="210.9" x2="228.25" y2="189.22" xlink:href="#linear-gradient-42"/><linearGradient id="linear-gradient-49" x1="292.51" y1="220.74" x2="285.67" y2="220.74" xlink:href="#linear-gradient-41"/><linearGradient id="linear-gradient-50" x1="366.2" y1="223.98" x2="289.35" y2="213.18" xlink:href="#linear-gradient-42"/><linearGradient id="linear-gradient-51" x1="287.72" y1="213.39" x2="282.62" y2="213.39" gradientUnits="userSpaceOnUse"><stop offset="0" stop-color="#ff8700"/><stop offset="1" stop-color="#ffaf00"/></linearGradient><linearGradient id="linear-gradient-52" x1="344.45" y1="225" x2="288.38" y2="211.17" gradientUnits="userSpaceOnUse"><stop offset="0" stop-color="#ff8700"/><stop offset="1" stop-color="#fff"/></linearGradient><linearGradient id="linear-gradient-53" x1="298.11" y1="208.74" x2="287.96" y2="208.74" xlink:href="#linear-gradient-41"/><linearGradient id="linear-gradient-54" x1="479.35" y1="179.18" x2="470.76" y2="179.18" xlink:href="#linear-gradient-45"/><linearGradient id="linear-gradient-55" x1="470.06" y1="169.8" x2="568.98" y2="172.8" xlink:href="#linear-gradient-38"/><linearGradient id="linear-gradient-56" x1="476.94" y1="170.5" x2="470.99" y2="170.5" xlink:href="#linear-gradient-45"/><linearGradient id="linear-gradient-57" x1="543.08" y1="184.04" x2="477.71" y2="167.91" gradientUnits="userSpaceOnUse"><stop offset="0" stop-color="#3fecff"/><stop offset="1" stop-color="#fff"/></linearGradient><linearGradient id="linear-gradient-58" x1="489.05" y1="165.08" x2="477.22" y2="165.08" xlink:href="#linear-gradient-45"/><filter id="luminosity-noclip" x="93.56" y="-8371.44" width="339.04" height="32766" filterUnits="userSpaceOnUse" color-interpolation-filters="sRGB"><feFlood flood-color="#fff" result="bg"/><feBlend in="SourceGraphic" in2="bg"/></filter><filter id="luminosity-noclip-2" x="93.61" y="-8371.44" width="339.04" height="32766" filterUnits="userSpaceOnUse" color-interpolation-filters="sRGB"><feFlood flood-color="#fff" result="bg"/><feBlend in="SourceGraphic" in2="bg"/></filter><filter id="luminosity-noclip-3" x="299.65" y="-8371.44" width="35.25" height="32766" filterUnits="userSpaceOnUse" color-interpolation-filters="sRGB"><feFlood flood-color="#fff" result="bg"/><feBlend in="SourceGraphic" in2="bg"/></filter><filter id="luminosity-noclip-4" x="93.56" y="103.49" width="339.04" height="193.91" filterUnits="userSpaceOnUse" color-interpolation-filters="sRGB"><feFlood flood-color="#fff" result="bg"/><feBlend in="SourceGraphic" in2="bg"/></filter><filter id="luminosity-noclip-5" x="93.61" y="103.49" width="339.04" height="193.91" filterUnits="userSpaceOnUse" color-interpolation-filters="sRGB"><feFlood flood-color="#fff" result="bg"/><feBlend in="SourceGraphic" in2="bg"/></filter><filter id="luminosity-noclip-6" x="299.65" y="55.16" width="35.25" height="56.33" filterUnits="userSpaceOnUse" color-interpolation-filters="sRGB"><feFlood flood-color="#fff" result="bg"/><feBlend in="SourceGraphic" in2="bg"/></filter><mask id="mask" x="93.56" y="-8371.44" width="339.04" height="32766" maskUnits="userSpaceOnUse"/><mask id="mask-2" x="93.61" y="-8371.44" width="339.04" height="32766" maskUnits="userSpaceOnUse"/><mask id="mask-3" x="299.65" y="-8371.44" width="35.25" height="32766" maskUnits="userSpaceOnUse"/><mask id="mask-4" x="93.56" y="103.49" width="339.04" height="193.91" maskUnits="userSpaceOnUse"><g style="mask:url(#mask);filter:url(#luminosity-noclip-4)"><path d="M427.53 167.7c-6.48-6.55-6.69-.68-5.41 6.44l-118.68-68.8a17.44 17.44 0 0 0-16.59.51L112.71 206.17c-7.06-3.23-13.54-4.28-16.44.46-5.27 8.61-1.73 13.28 1.25 16.18a10.42 10.42 0 0 0 2.72 2.11l.15.09 121.87 70.57a17.16 17.16 0 0 0 16.31-.52L425.7 187.14s14.24-6.88 1.83-19.44Z" style="fill:url(#linear-gradient);mix-blend-mode:multiply"/></g></mask><mask id="mask-5" x="93.61" y="103.49" width="339.04" height="193.91" maskUnits="userSpaceOnUse"><g style="mask:url(#mask-2);filter:url(#luminosity-noclip-5)"><path d="M427.58 167.7c-6.48-6.55-6.69-.68-5.41 6.44l-118.68-68.8a17.44 17.44 0 0 0-16.59.51L112.76 206.17c-7.06-3.23-13.54-4.28-16.44.46-5.27 8.6-1.73 13.28 1.25 16.18a10.6 10.6 0 0 0 2.72 2.11l.15.09 121.87 70.57a17.16 17.16 0 0 0 16.31-.52l187.13-107.92s14.25-6.88 1.83-19.44Z" style="fill:url(#linear-gradient-2);mix-blend-mode:multiply"/></g></mask><mask id="mask-6" x="299.65" y="55.16" width="35.25" height="56.33" maskUnits="userSpaceOnUse"><g style="mask:url(#mask-3);filter:url(#luminosity-noclip-6)"><path d="M331.23 75.07v-.17a.7.7 0 0 1 0-.12 22.85 22.85 0 0 1-.13-2.8l-5.31-16.82S318 64 316 71.34a31.71 31.71 0 0 0-1.44 8.73s.15.55-1.2-1.61-1.36-2.71-1.36-4.2-.61-4.6-1-4.94-.92.27-.92.27l-.9 2.16s-5.82-7.64-6.91-7.64-2.77 4.53-2.64 6.56 2.51 5.82 3.79 7.18 3.64 1.28 4.5 2.3 5 18.17 8.78 23.64a18.83 18.83 0 0 0 6 5.73 40.52 40.52 0 0 0 4.36 2 23.85 23.85 0 0 0 5.52-1.43c3.21-1.44 2.49-1.26 1.22-8.66a252.24 252.24 0 0 1-2.57-26.36Z" style="fill:url(#linear-gradient-3);mix-blend-mode:multiply"/></g></mask><style>.cls-46{fill:#fff}.cls-78{fill:#f5f4f5}.cls-79{fill:#ebeaeb}.cls-78{opacity:.05}.cls-80{fill:#e0dfe0}.cls-81{fill:#d6d4d6}.cls-79{opacity:.1}.cls-82{fill:#ccc9cc}.cls-83{fill:#c2bfc2}.cls-80{opacity:.14}.cls-84{fill:#b7b4b7}.cls-85{fill:#ada9ad}.cls-81{opacity:.19}.cls-86{fill:#a39fa3}.cls-87{fill:#999499}.cls-82{opacity:.24}.cls-88{fill:#8e898e}.cls-89{fill:#847e84}.cls-83{opacity:.29}.cls-90{fill:#7a747a}.cls-91{fill:#706970}.cls-84{opacity:.33}.cls-92{fill:#655e65}.cls-93{fill:#5b545b}.cls-85{opacity:.38}.cls-94{fill:#514951}.cls-95{fill:#473e47}.cls-86{opacity:.43}.cls-96{fill:#3c333c}.cls-97{fill:#322932}.cls-87{opacity:.48}.cls-98{fill:#281e28}.cls-77{opacity:.4}.cls-42{fill:#1e182b}.cls-88{opacity:.52}.cls-89{opacity:.57}.cls-90{opacity:.62}.cls-91{opacity:.67}.cls-92{opacity:.71}.cls-93{opacity:.76}.cls-94{opacity:.81}.cls-95{opacity:.86}.cls-96{opacity:.9}.cls-97{opacity:.95}</style></defs><g style="isolation:isolate"><g id="content"><g id="_9" data-name="9"><path style="fill:url(#linear-gradient-4)" d="m9.75 167.02 131.39 75.86 206.75-119.36-71.87 2.61-9.21 15.86-70.27-16.09-70.1 7.01 50.92 43.5-54.71-7.85-48.15 8.79-64.75-10.33z"/><path style="fill:url(#linear-gradient-5)" d="m141.14 242.88-54.28-31.33 16.72-22.84 44.01 8.16-26.18-46.09 50.99 5.89 68.67 9.04-10.51-22.76 51.23 4.55 66.1-23.98-206.75 119.36z"/><path style="fill:url(#linear-gradient-6)" d="m141.14 242.88-44.96-25.96 67.87 1.51 9.08-31.72 23.8-9.73-15.2-37.37 82.55 20.95 83.61-37.04-206.75 119.36z"/></g><g id="_8" data-name="8"><g style="opacity:.9;mix-blend-mode:multiply"><path d="M111.85 236.86 321.46 116.5a21.67 21.67 0 0 1 20.6-.63L445.76 176c5.36 3.91 6.4 11.72.47 15.16L237.5 311.2a21.33 21.33 0 0 1-20.25.64l-103.69-60.07c-7.43-4.43-7.01-11.37-1.71-14.91Z" style="opacity:.02;fill:#f5f4f5;mix-blend-mode:multiply"/><path d="m113.12 236.82 208.52-119.75a21.44 21.44 0 0 1 20.4-.63L444.73 176c5.31 3.87 6.34 11.6.47 15L237.55 310.43a21.12 21.12 0 0 1-20.06.64l-102.67-59.49c-7.37-4.38-6.94-11.25-1.7-14.76Z" style="opacity:.05;fill:#ebeaeb;mix-blend-mode:multiply"/><path d="m114.39 236.78 207.43-119.15A21.26 21.26 0 0 1 342 117l101.69 59c5.25 3.84 6.26 11.49.46 14.87L237.6 309.67a20.92 20.92 0 0 1-19.86.63l-101.67-58.9c-7.29-4.34-6.87-11.15-1.68-14.62Z" style="opacity:.07;fill:#e0dfe0;mix-blend-mode:multiply"/><path d="M115.66 236.74 322 118.2a21 21 0 0 1 20-.62L442.68 176c5.2 3.8 6.2 11.38.46 14.72L237.65 308.9a20.71 20.71 0 0 1-19.67.63l-100.66-58.32c-7.22-4.3-6.8-11.03-1.66-14.47Z" style="opacity:.1;fill:#d6d4d6;mix-blend-mode:multiply"/><path d="m116.93 236.7 205.26-117.93a20.81 20.81 0 0 1 19.79-.61L441.65 176c5.15 3.75 6.14 11.26.45 14.57L237.69 308.14a20.46 20.46 0 0 1-19.46.62L118.57 251c-7.14-4.23-6.73-10.9-1.64-14.3Z" style="opacity:.12;fill:#ccc9cc;mix-blend-mode:multiply"/><path d="m118.2 236.66 204.17-117.33a20.6 20.6 0 0 1 19.59-.6L440.62 176c5.1 3.71 6.08 11.14.45 14.42l-203.33 117a20.27 20.27 0 0 1-19.27.61l-98.64-57.15c-7.08-4.25-6.67-10.88-1.63-14.22Z" style="opacity:.14;fill:#c2bfc2;mix-blend-mode:multiply"/><path d="M119.47 236.62 322.55 119.9a20.4 20.4 0 0 1 19.39-.6l97.65 56.7c5.05 3.68 6 11 .45 14.28L237.79 306.61a20.06 20.06 0 0 1-19.08.61l-97.63-56.56c-7-4.17-6.6-10.66-1.61-14.04Z" style="opacity:.17;fill:#b7b4b7;mix-blend-mode:multiply"/><path d="m120.74 236.58 202-116.11a20.16 20.16 0 0 1 19.2-.59L438.57 176c5 3.64 5.95 10.92.44 14.13L237.84 305.85a19.88 19.88 0 0 1-18.88.6l-96.63-56c-6.92-4.11-6.53-10.57-1.59-13.87Z" style="opacity:.19;fill:#ada9ad;mix-blend-mode:multiply"/><path d="M122 236.54 322.91 121a20 20 0 0 1 19-.58l95.63 55.49c4.94 3.6 5.89 10.8.43 14L237.88 305.09a19.68 19.68 0 0 1-18.68.59l-95.61-55.4c-6.86-4.08-6.46-10.48-1.59-13.74Z" style="opacity:.21;fill:#a39fa3;mix-blend-mode:multiply"/><path d="m123.28 236.5 199.81-114.9a19.78 19.78 0 0 1 18.8-.58l94.62 54.91c4.89 3.56 5.83 10.69.43 13.83l-199 114.56a19.45 19.45 0 0 1-18.48.59l-94.62-54.81c-6.78-4.04-6.39-10.37-1.56-13.6Z" style="opacity:.24;fill:#999499;mix-blend-mode:multiply"/><path d="m124.55 236.46 198.72-114.3a19.6 19.6 0 0 1 18.6-.57l93.61 54.32c4.84 3.53 5.77 10.58.43 13.69L238 303.56a19.27 19.27 0 0 1-18.29.58l-93.6-54.23c-6.73-3.99-6.34-10.26-1.56-13.45Z" style="opacity:.26;fill:#8e898e;mix-blend-mode:multiply"/><path d="m125.82 236.41 197.64-113.68a19.33 19.33 0 0 1 18.39-.56l92.6 53.73c4.79 3.49 5.71 10.46.43 13.54L238 302.79a19 19 0 0 1-18.09.58l-92.59-53.64c-6.61-3.96-6.23-10.15-1.5-13.32Z" style="opacity:.29;fill:#847e84;mix-blend-mode:multiply"/><path d="M127.09 236.37 323.64 123.3a19.1 19.1 0 0 1 18.19-.56l91.6 53.15c4.73 3.45 5.64 10.35.41 13.39L238.07 302a18.83 18.83 0 0 1-17.89.57l-91.58-53.03c-6.6-3.91-6.19-10.04-1.51-13.17Z" style="opacity:.31;fill:#7a747a;mix-blend-mode:multiply"/><path d="m128.36 236.33 195.46-112.47a19 19 0 0 1 18-.55l90.59 52.57c4.68 3.41 5.58 10.23.41 13.24l-194.7 112.15a18.63 18.63 0 0 1-17.69.56l-90.58-52.47c-6.49-3.87-6.12-9.93-1.49-13.03Z" style="opacity:.33;fill:#706970;mix-blend-mode:multiply"/><path d="M129.63 236.29 324 124.43a18.72 18.72 0 0 1 17.79-.55l89.58 52c4.63 3.38 5.52 10.12.41 13.1L238.17 300.5a18.42 18.42 0 0 1-17.5.56l-89.56-51.89c-6.43-3.83-6.06-9.82-1.48-12.88Z" style="opacity:.36;fill:#655e65;mix-blend-mode:multiply"/><path d="M130.9 236.25 324.18 125a18.49 18.49 0 0 1 17.59-.54l88.57 51.39c4.58 3.34 5.46 10 .4 13L238.21 299.74a18.21 18.21 0 0 1-17.3.55L132.36 249c-6.36-3.8-5.99-9.72-1.46-12.75Z" style="opacity:.38;fill:#5b545b;mix-blend-mode:multiply"/><path d="m132.17 236.21 192.19-110.65a18.28 18.28 0 0 1 17.39-.53l87.56 50.81c4.53 3.3 5.4 9.89.4 12.8L238.26 299a18 18 0 0 1-17.1.55l-87.55-50.75c-6.28-3.74-5.91-9.6-1.44-12.59Z" style="opacity:.4;fill:#514951;mix-blend-mode:multiply"/><path d="m133.44 236.17 191.1-110a18.11 18.11 0 0 1 17.19-.53l86.56 50.22c4.47 3.27 5.33 9.78.39 12.66L238.31 298.21a17.8 17.8 0 0 1-16.91.54l-86.53-50.14c-6.21-3.69-5.87-9.48-1.43-12.44Z" style="opacity:.43;fill:#473e47;mix-blend-mode:multiply"/><path d="m134.71 236.13 190-109.43a17.85 17.85 0 0 1 17-.52l85.55 49.63c4.42 3.23 5.27 9.67.39 12.51L238.36 297.45a17.6 17.6 0 0 1-16.71.53l-85.53-49.55c-6.12-3.66-5.78-9.38-1.41-12.3Z" style="opacity:.45;fill:#3c333c;mix-blend-mode:multiply"/><path d="m136 236.09 188.91-108.83a17.67 17.67 0 0 1 16.79-.51l84.53 49.05c4.37 3.18 5.21 9.55.38 12.36L238.4 296.68a17.37 17.37 0 0 1-16.51.53l-84.52-49c-6.06-3.58-5.71-9.21-1.37-12.12Z" style="opacity:.48;fill:#322932;mix-blend-mode:multiply"/><path d="m137.25 236.05 187.84-108.22a17.44 17.44 0 0 1 16.59-.51l83.52 48.47c4.32 3.14 5.15 9.43.38 12.21L238.45 295.92a17.16 17.16 0 0 1-16.31.52l-83.52-48.38c-5.98-3.57-5.62-9.16-1.37-12.01Z" style="opacity:.5;fill:#281e28;mix-blend-mode:multiply"/></g><path d="M427.14 167.72s-6.29-.7-5 6.42l-80.34-46.61a17.42 17.42 0 0 0-16.58.51L151.07 228.36c-7-3.23-13.53-4.28-16.44.46-5.27 8.61-1.72 13.28 1.25 16.18a10.77 10.77 0 0 0 2.72 2.11l.15.09 83.52 48.38a17.16 17.16 0 0 0 16.31-.52l187.13-107.92s12.38-7.52 1.43-19.42Z" style="fill:#695d7f"/><g style="mask:url(#mask-4)"><path d="M427.13 167.72s-6.29-.7-5 6.42l-80.33-46.61a17.42 17.42 0 0 0-16.58.51L151.06 228.36c-7.05-3.23-13.53-4.28-16.44.46-5.27 8.61-1.72 13.28 1.25 16.18a10.77 10.77 0 0 0 2.72 2.11l.15.09 83.52 48.38a17.16 17.16 0 0 0 16.31-.52L425.7 187.14s12.42-7.14 1.43-19.42Z" style="fill:url(#linear-gradient-7);opacity:.4;mix-blend-mode:multiply"/></g><g style="mask:url(#mask-5)"><path d="M427.18 167.72s-6.29-.7-5 6.42l-80.32-46.61a17.44 17.44 0 0 0-16.59.51L151.11 228.36c-7.05-3.23-13.53-4.28-16.43.46-5.27 8.61-1.73 13.28 1.24 16.18a10.66 10.66 0 0 0 2.73 2.11l.15.09 83.51 48.38a17.16 17.16 0 0 0 16.31-.52l187.13-107.92s12.19-7.39 1.43-19.42Z" style="fill:url(#linear-gradient-8);opacity:.5;mix-blend-mode:multiply"/></g><path d="m137.28 226.12 187.84-108.21a17.44 17.44 0 0 1 16.59-.51l83.53 48.46c4.31 3.15 5.15 9.44.38 12.21L238.49 286a17.15 17.15 0 0 1-16.32.52l-83.51-48.38c-5.99-3.58-5.66-9.14-1.38-12.02Z" style="fill:#292038"/><path d="m172.73 250.74-.1-.06c-.54-.31-.48-.85.14-1.21a2.31 2.31 0 0 1 2.09-.09l.1.06c.54.31.47.85-.15 1.2a2.33 2.33 0 0 1-2.08.1Z" style="fill:url(#linear-gradient-9)"/><path d="m194.34 263.11-18.58-10.64c-.54-.3-.47-.84.14-1.2a2.35 2.35 0 0 1 2.09-.1l18.58 10.64c.53.31.47.85-.15 1.21a2.29 2.29 0 0 1-2.08.09Z" style="fill:url(#linear-gradient-10)"/><path class="cls-42" d="M279.16 264.92a1.2 1.2 0 0 0-.87.1l-9.23 5.37a2.27 2.27 0 0 0-1 1.32 1.75 1.75 0 0 0 .85 2.26 1.2 1.2 0 0 0 .85-.09l.09-.05 9-5.26a2.17 2.17 0 0 0 1.09-1.39 1.75 1.75 0 0 0-.78-2.26Z"/><path d="M280.07 265.59a1.23 1.23 0 0 0-.86.09l-9.21 5.37a2.21 2.21 0 0 0-1 1.32 1.76 1.76 0 0 0 .85 2.26 1.17 1.17 0 0 0 .84-.09h.08l9.05-5.27a2.14 2.14 0 0 0 1.09-1.38 1.74 1.74 0 0 0-.84-2.3Z" style="fill:url(#linear-gradient-11)"/><path class="cls-42" d="M293.39 256.83a1.23 1.23 0 0 0-.86.09l-9.23 5.37a2.21 2.21 0 0 0-1 1.32 1.75 1.75 0 0 0 .85 2.25 1.2 1.2 0 0 0 .85-.08h.08l9-5.27a2.14 2.14 0 0 0 1.09-1.38 1.74 1.74 0 0 0-.78-2.3Z"/><path d="M294.31 257.49a1.17 1.17 0 0 0-.86.1l-9.24 5.41a2.17 2.17 0 0 0-1 1.32 1.74 1.74 0 0 0 .85 2.26 1.17 1.17 0 0 0 .84-.09l.08-.05 9.05-5.27a2.14 2.14 0 0 0 1.09-1.38 1.74 1.74 0 0 0-.81-2.3Z" style="fill:url(#linear-gradient-12)"/><path class="cls-42" d="M264.89 273.24a1.23 1.23 0 0 0-.86.09l-2.26 1.25a2.13 2.13 0 0 0-1 1.32 1.74 1.74 0 0 0 .85 2.26 1.17 1.17 0 0 0 .84-.09h.08l2.07-1.15a2.14 2.14 0 0 0 1.09-1.38 1.74 1.74 0 0 0-.81-2.3Z"/><path d="M265.81 273.9a1.2 1.2 0 0 0-.87.1l-2.25 1.25a2.22 2.22 0 0 0-1 1.32 1.74 1.74 0 0 0 .85 2.26 1.17 1.17 0 0 0 .84-.09l.08-.05 2.07-1.14a2.14 2.14 0 0 0 1.09-1.38 1.75 1.75 0 0 0-.81-2.27Z" style="fill:url(#linear-gradient-13)"/><path class="cls-46" d="m419.41 167.68-80.88-46.56a12.22 12.22 0 0 0-11.62.36L142.83 227.64c-3 2-3.23 5.91 1 8.41l16.49 9.48 2.5-1.45c2.94-1.7 7.37-1.89 9.92-.43l36.51 21c2.55 1.46 2.23 4-.7 5.73l-2.55 1.44 18.65 10.73a12 12 0 0 0 11.43-.37l183.6-105.94a4.87 4.87 0 0 0-.27-8.56Z"/></g><g id="_7" data-name="7"><path style="fill:url(#linear-gradient-14)" d="m301.64 178.75.95 3.82-5.22 5.37-4.87-2.62 2.55-6.07 2.5-2.02 4.09 1.52z"/><path d="M293 177.23c.83-.41 2.91 1.37 3.92 2s-.54 3.74-.6 4.37 1.18.59 2.22.2c.73-.28 1.94-.63 2.84-.88a1.25 1.25 0 0 0 .89-1.5l-.19-.83a3.12 3.12 0 0 1 1.83 2.79c.24 2.26 1.19 3.44-.41 4.27s-17.79 5.28-19.1 5.34-3.25-1.64-3.77-2.61-.9-1.51.21-2.36c1.38-1.06 5.7-3.39 7-4.58s5.16-6.21 5.16-6.21Z" style="fill:url(#linear-gradient-15)"/><path d="M303.63 189.13c1.24-.65.95-1.51.65-2.91-.24 1.19-1.77 1.48-3.38 2s-11.15 3.5-13.34 3.85c-1.78.29-3.62.77-5.28-.53a3.23 3.23 0 0 1-1.39-2.22 1.87 1.87 0 0 0-.51 2.63 5.42 5.42 0 0 0 4.15 2.55c1.96-.03 17.47-4.5 19.1-5.37Z" style="fill:url(#linear-gradient-16)"/><path d="m292.68 177.7 3.08 2.11a.81.81 0 0 1 .3 1.07l-.81 1.48a1.6 1.6 0 0 1-2.25.64l-3-2Z" style="fill:url(#linear-gradient-17)"/><path d="m288.43 182.85-.47.47a72.06 72.06 0 0 1-6.17 4s.95 1.64 2 1.93 6.65-2 7.71-3-3.07-3.4-3.07-3.4Z" style="fill:url(#linear-gradient-18)"/><path d="M303.54 187.61c1.24-.64.95-1.5.65-2.9-.25 1.19-1.78 1.48-3.38 1.95s-11.15 3.5-13.34 3.86c-1.78.29-3.62.77-5.28-.53-1.36-1.07-1.31-2-1.31-2a1.66 1.66 0 0 0-.59 2.42 5.4 5.4 0 0 0 4.15 2.55c1.96.04 17.5-4.52 19.1-5.35Z" style="fill:url(#linear-gradient-19)"/><path style="fill:url(#linear-gradient-20)" d="m324.47 186.95.08 4.45 3.92 9.13 2.52-.35 1.35-7.26-.73-5.97h-7.14z"/><path d="M321.8 197c.34-4.12.39-6 1.18-6.45s6 .09 6.68.79.19 4.25.06 4.91.56.76 1-.61c.51-1.55.9-1.65.73-3a4.12 4.12 0 0 1 .56-2.31s.35 0 .78.87a12.18 12.18 0 0 1 .54 4.23c0 2.15-1 4.49-1.88 6.89-1.13 3.11-3 6.76-4.17 7.15-1.54.51-5.91.87-7.3-1.18a3.38 3.38 0 0 1-.25-3.1 41.87 41.87 0 0 0 2.07-8.19Z" style="fill:url(#linear-gradient-21)"/><path d="M333.18 194.09a34.2 34.2 0 0 1-1.19 5.59c-.7 2.51-3.75 8.25-4.69 8.95s-4.33.71-6.09 0-.92-3.7-.92-3.7c-.22.69-.42 1.28-.54 1.71a3.41 3.41 0 0 0 .25 3.11c1.39 2.05 5.75 1.67 7.3 1.17 2.35-.74 3.56-4 4.69-7.12.87-2.4 2.15-4.78 2.15-6.93a6.82 6.82 0 0 0-.96-2.78Z" style="fill:url(#linear-gradient-22)"/><path d="m323.41 193.35-.15 2a1.23 1.23 0 0 0 1.12 1.31l2.63.22a1.22 1.22 0 0 0 1.33-1.17l.06-2a1.22 1.22 0 0 0-1.14-1.27l-2.55-.17a1.22 1.22 0 0 0-1.3 1.08Z" style="fill:url(#linear-gradient-23)"/><path d="M324 199.33a1.44 1.44 0 0 0-1.54 1c-.46 1.45-1.11 4.14-.95 4.69.31 1 4.36 1.38 5.13.77.61-.49 1-3.32 1.23-4.84a1.18 1.18 0 0 0-1-1.31Z" style="fill:url(#linear-gradient-24)"/><path d="M333.18 192.72a34.11 34.11 0 0 1-1.18 5.58c-.7 2.52-3.75 8.26-4.69 9s-4.33.7-6.09 0-.92-3.7-.92-3.7c-.22.69-.42 1.28-.54 1.71a3.38 3.38 0 0 0 .25 3.1c1.39 2 5.76 1.69 7.3 1.18 1.17-.39 3-4 4.17-7.15.87-2.4 1.88-4.74 1.88-6.89a21.22 21.22 0 0 0-.18-2.83Z" style="fill:url(#linear-gradient-25)"/><path d="M295.39 102.75s1.47 31.81.93 36.28a16.14 16.14 0 0 0 .61 6.36 12.4 12.4 0 0 1 .47 4.73c-.73 7-1.61 25.37-1.94 26.9-.4 1.9.9 3 3.07 3.41s3.75.43 4.69-.79 1.5-11.66 4-18 .42-13.42.59-16 4.6-12.45 5.55-16.65 1.14-19.09 1.14-19.09Z" style="fill:url(#linear-gradient-26)"/><path d="M309.59 108.71s2.9 24.41 6.18 33.52 2.48 13.58 4.37 15.88 3 24.69 3.12 27.57 1.76 4 4.87 4 4.47-.68 4.47-4.61 2-17.32.95-23.69-2.44-9.88-2.71-13 1.76-19.9 1.76-33.57-5.42-14.49-5.42-14.49Z" style="fill:url(#linear-gradient-27)"/><path d="M326.3 118c4.06 2.24 6.2 2 6.2 2 .06-1.83.1-3.65.1-5.42a31.56 31.56 0 0 0-1-8.43l-9.92 4.51s.56 5.13 4.62 7.34Z" style="fill:url(#linear-gradient-28)"/><path d="M327.11 117c-3.1-1.7-4.13-5.1-4.45-6.61l-.94.42s.52 5.15 4.58 7.38 6.2 2 6.2 2v-1.22a14.48 14.48 0 0 1-5.39-1.97Z" style="fill:url(#linear-gradient-29)"/><path d="M307.74 37.59s-5.59-1.53-7.4-.9S295 42.2 294 47.7s2.06 29.24 2.06 29.24-1.16 20.94-1.43 24.09c-.21 2.45 1.54 5.42 12.59 9s22.15 1.44 25.36 0 2.48-1.26 1.22-8.66a246.93 246.93 0 0 1-2.59-26.33c-.19-6 4.12-24.75 4.12-24.75a58.71 58.71 0 0 0-8.67-6.68c-5.66-3.67-18.92-6.02-18.92-6.02Z" style="fill:url(#linear-gradient-30)"/><g style="mask:url(#mask-6)"><path d="M331.23 75.07v-.17a.7.7 0 0 1 0-.12 22.85 22.85 0 0 1-.13-2.8l-5.31-16.82S318 64 316 71.34a31.71 31.71 0 0 0-1.44 8.73s.15.55-1.2-1.61-1.36-2.71-1.36-4.2-.61-4.6-1-4.94-.92.27-.92.27l-.9 2.16s-5.82-7.64-6.91-7.64-2.77 4.53-2.64 6.56 2.51 5.82 3.79 7.18 3.64 1.28 4.5 2.3 5 18.17 8.78 23.64a18.83 18.83 0 0 0 6 5.73 40.52 40.52 0 0 0 4.36 2 23.85 23.85 0 0 0 5.52-1.43c3.21-1.44 2.49-1.26 1.22-8.66a252.24 252.24 0 0 1-2.57-26.36Z" style="fill:url(#linear-gradient-31)"/></g><path d="M309.81 41.7s-2.3 4.14-1.35 6.22 3.88 3.57 8 2.76c4.5-.89 7.49-3.93 7.76-6a4.75 4.75 0 0 0-1.2-4.06 6.89 6.89 0 0 0-2.79-1.62Z" style="fill:url(#linear-gradient-32)"/><path d="M309.4 37.91a12.42 12.42 0 0 1 .28 5.28c-.46 3.11-.5 3.83 1 5.05s4.92 1.85 8.22-.22 3.61-3.21 3.61-4.38-1.85-4.51-1.58-8.26a68 68 0 0 1 .87-6.91l.71-3.15-3-1.31Z" style="fill:url(#linear-gradient-33)"/><path d="M304.85 18.73c-1.45.88-1.83 3.07-1.92 4.76-.18 3.08-.25 8 .79 10.54 1.58 3.88 2.85 5.28 3.52 5.77s5.78 0 8.23-1.76a13.29 13.29 0 0 0 5.26-6.93 9.14 9.14 0 0 0-.36-5.56l-13.9-6.82Z" style="fill:url(#linear-gradient-34)"/><path d="M321.5 26.4s-1.27-1-2.17 0c-1.14 1.31-.2 2.85-1.76 2.64s0-3.38-1.35-4.33-7.58-.11-10.43-3.11c-1.58-1.68-1.17.09-2.23 0a4 4 0 0 1-3.18-2.78c-.27-1.35.81-2.43 2-1.83l.86.34s-2.57-3.11-.95-6.63 4.46-4.21 5.32-3.52C309.17 8.4 308 10 310 11s3.21.44 4.2.27c1.55-.27 1.11 1.33 2.5 1.76 2.64.81 5.37-1.35 8.06 2.64 3.06 4.56 1.84 8.14.67 9.41-.68.73-1 1.12-.76 1.73s1.44-.31 1.85.64-3.66 3.85-4 5.41.68 2.1-.07 3-1.55.2-2-.81.75-4.34.75-4.34 1.34-3.31.3-4.31Z" style="fill:url(#linear-gradient-35)"/><path d="M318.82 31.85a.6.6 0 0 0 .66.73 3.48 3.48 0 0 0 3.31-3.13c.33-2.29-1.31-2.45-2.25-2.35a.86.86 0 0 0-.77.68Z" style="fill:url(#linear-gradient-36)"/><path d="M319.52 30.94a.34.34 0 0 0 .37.41 1.94 1.94 0 0 0 1.86-1.76c.19-1.29-.73-1.38-1.26-1.32a.48.48 0 0 0-.43.38Z" style="fill:url(#linear-gradient-37)"/><path d="m296 81.48-20.76-10.75a4.31 4.31 0 0 1-1.87-5.73l10.41-21a4.32 4.32 0 0 1 5.84-2l20.74 10.8a4.31 4.31 0 0 1 1.88 5.74l-10.42 21a4.31 4.31 0 0 1-5.82 1.94Z" style="fill:url(#linear-gradient-38)"/><path class="cls-46" d="M298.67 70.33a.85.85 0 0 0 .34-1.1l-.77-1.55a8.22 8.22 0 0 0 1.12-1.39l1.61.51a.8.8 0 0 0 1-.55l.92-2.9a.79.79 0 0 0-.49-1l-1.61-.5a8.37 8.37 0 0 0-.13-1.87l1.52-.85a.85.85 0 0 0 .34-1.1l-1.31-2.65a.74.74 0 0 0-1-.33l-1.51.85a7.82 7.82 0 0 0-1.39-1.19l.52-1.71a.79.79 0 0 0-.51-1l-2.76-.83a.8.8 0 0 0-1 .56l-.56 1.7a7.59 7.59 0 0 0-1.7.2l-.76-1.56a.75.75 0 0 0-1-.32l-2.59 1.46a.84.84 0 0 0-.34 1.09l.77 1.56a7.84 7.84 0 0 0-1.12 1.39l-1.61-.51a.79.79 0 0 0-1 .54l-.92 2.9a.8.8 0 0 0 .49 1l1.61.51a8.41 8.41 0 0 0 .13 1.87l-1.52.85a.84.84 0 0 0-.34 1.09l1.31 2.66a.74.74 0 0 0 1 .32l1.51-.85a8.32 8.32 0 0 0 1.4 1.2l-.51 1.7a.79.79 0 0 0 .5 1l2.76.82a.79.79 0 0 0 1-.55l.51-1.7a8 8 0 0 0 1.68-.2l.76 1.55a.74.74 0 0 0 1 .32Zm-9.45-6.56a4.38 4.38 0 0 1 1.78-5.68 3.83 3.83 0 0 1 5.38 1.67 4.39 4.39 0 0 1-1.77 5.68 3.84 3.84 0 0 1-5.39-1.67Z"/><path d="m309.4 64.1-.9 2.17s-5.82-7.65-6.9-7.65-2.78 4.53-2.64 6.57 2.5 5.82 3.79 7.17 3.64 1.29 4.49 2.3 6.88 20.71 9.65 22.34 3.52-.41 4.95-2.44 6.49-10.63 8.05-15.16 2.71-9.75 2.71-9.75l-9.75-3.45a47.43 47.43 0 0 0-2.71 7.85 31.09 31.09 0 0 0-1.08 9.68S314 75.13 312.63 73s-1.35-2.71-1.29-4.2-.6-4.6-1-4.94-.94.24-.94.24Z" style="fill:url(#linear-gradient-39)"/><path d="M321.86 65.73a56.52 56.52 0 0 1 2.62-7.92c1.35-2.91 3-6.3 4.8-8a6.63 6.63 0 0 1 3.32-1.9l2.75 2.4s2 2.14 1.51 8.3a33.78 33.78 0 0 1-3.59 11.71s-2.5.61-6.22-1.08a14.84 14.84 0 0 1-5.19-3.51Z" style="fill:url(#linear-gradient-40)"/></g><g id="_6" data-name="6"><path d="m406.18 173.35-.13-79.79H369l.12 79.45a1 1 0 0 0 0 .34 2.69 2.69 0 0 0 1.51 1.84l13.82 8a6.94 6.94 0 0 0 6.23.26l14.41-8.33a1.76 1.76 0 0 0 1.09-1.77Z" style="fill:url(#linear-gradient-41)"/><path d="m405 95.43-14.42 8.32a6.88 6.88 0 0 1-6.23-.26l-13.82-8c-1.84-1.07-2-2.68-.45-3.6l14.42-8.32a6.91 6.91 0 0 1 6.23.25l13.82 8c1.85 1.08 2.05 2.69.45 3.61Z" style="fill:url(#linear-gradient-42)"/><path class="cls-46" d="m386.22 92.92.75-5.37h-.05L377 93.31a1.34 1.34 0 0 0-.23.16Z"/><path class="cls-46" d="m388.26 94.07-11.51.68.14.1 8 4.62a3 3 0 0 0 2.67-.06l9.93-5.73c.76-.44.81-1.13.1-1.54l-8-4.62-.38-.16Z"/></g><g id="_5" data-name="5"><g class="cls-77"><path class="cls-78" d="m417.85 279.5-22.18 12.81c-10 5.79-27.56 5.06-39.14-1.63L340 281.12c-11.58-6.69-12.84-16.81-2.81-22.6l22.19-12.81c10-5.79 27.56-5.06 39.14 1.63L415 256.9c11.63 6.69 12.89 16.81 2.85 22.6Z"/><path class="cls-79" d="m417.05 279.29-21.74 12.55c-9.84 5.68-27 5-38.38-1.59l-16.23-9.37c-11.36-6.56-12.59-16.48-2.76-22.16l21.75-12.55c9.83-5.68 27-5 38.37 1.59l16.24 9.37c11.35 6.56 12.59 16.48 2.75 22.16Z"/><path class="cls-80" d="m416.25 279.08-21.31 12.3c-9.64 5.56-26.47 4.87-37.6-1.56l-15.91-9.18c-11.13-6.43-12.34-16.15-2.7-21.71L360 246.62c9.63-5.56 26.47-4.86 37.6 1.56l15.91 9.19c11.17 6.42 12.38 16.14 2.74 21.71Z"/><path class="cls-81" d="m415.44 278.87-20.87 12.05c-9.44 5.45-25.93 4.76-36.83-1.53l-15.58-9c-10.9-6.29-12.08-15.81-2.64-21.26l20.87-12c9.44-5.45 25.93-4.77 36.83 1.52l15.58 9c10.9 6.24 12.08 15.76 2.64 21.22Z"/><path class="cls-82" d="m414.64 278.65-20.43 11.8c-9.25 5.34-25.39 4.67-36.06-1.49l-15.26-8.81c-10.67-6.16-11.83-15.48-2.59-20.82l20.44-11.8c9.24-5.33 25.38-4.66 36.06 1.5l15.25 8.81c10.67 6.16 11.83 15.48 2.59 20.81Z"/><path class="cls-83" d="m413.84 278.44-20 11.55c-9 5.22-24.84 4.56-35.29-1.47l-14.93-8.61c-10.44-6-11.57-15.16-2.53-20.38l20-11.54c9-5.23 24.84-4.57 35.28 1.46l14.93 8.62c10.45 6.03 11.58 15.15 2.54 20.37Z"/><path class="cls-84" d="m413 278.23-19.56 11.29c-8.84 5.11-24.3 4.47-34.51-1.43l-14.6-8.43c-10.22-5.9-11.33-14.82-2.48-19.93l19.56-11.29c8.84-5.11 24.3-4.47 34.51 1.43l14.61 8.43c10.24 5.9 11.35 14.82 2.47 19.93Z"/><path class="cls-85" d="m412.23 278-19.12 11c-8.65 5-23.76 4.37-33.75-1.4l-14.27-8.24c-10-5.77-11.07-14.49-2.43-19.48l19.13-11c8.65-5 23.75-4.37 33.74 1.39l14.28 8.25c9.98 5.78 11.07 14.48 2.42 19.48Z"/><path class="cls-86" d="m411.43 277.81-18.69 10.79c-8.45 4.88-23.21 4.26-33-1.37l-13.95-8.06c-9.76-5.63-10.82-14.15-2.37-19l18.69-10.79c8.45-4.88 23.21-4.27 33 1.37l13.95 8c9.76 5.66 10.82 14.18 2.37 19.06Z"/><path class="cls-87" d="m410.62 277.6-18.24 10.53c-8.26 4.77-22.68 4.17-32.21-1.33l-13.62-7.87c-9.53-5.5-10.56-13.82-2.31-18.59l18.25-10.54c8.25-4.76 22.67-4.16 32.2 1.34l13.62 7.86c9.53 5.51 10.57 13.83 2.31 18.6Z"/><path class="cls-88" d="M409.82 277.39 392 287.67c-8.06 4.65-22.13 4.07-31.43-1.3l-13.3-7.68c-9.3-5.37-10.31-13.5-2.25-18.15l17.81-10.28c8.05-4.65 22.12-4.07 31.43 1.3l13.29 7.68c9.32 5.37 10.33 13.49 2.27 18.15Z"/><path class="cls-89" d="m409 277.17-17.38 10c-7.86 4.54-21.58 4-30.66-1.27l-13-7.49c-9.07-5.23-10.06-13.16-2.2-17.7l17.38-10c7.85-4.53 21.58-4 30.65 1.27l13 7.49c9.1 5.24 10.08 13.17 2.21 17.7Z"/><path class="cls-90" d="m408.21 277-16.93 9.78c-7.66 4.42-21 3.87-29.89-1.24l-12.64-7.3c-8.85-5.11-9.81-12.83-2.15-17.25l16.94-9.78c7.66-4.42 21-3.87 29.88 1.24l12.65 7.3c8.84 5.06 9.8 12.79 2.14 17.25Z"/><path class="cls-91" d="m407.41 276.75-16.5 9.53c-7.46 4.3-20.5 3.76-29.11-1.21L349.48 278c-8.62-5-9.56-12.5-2.09-16.81l16.5-9.53c7.46-4.31 20.49-3.77 29.11 1.21l12.32 7.11c8.62 4.94 9.55 12.46 2.09 16.77Z"/><path class="cls-92" d="m406.61 276.54-16.07 9.27c-7.26 4.2-20 3.67-28.34-1.17l-12-6.93c-8.39-4.84-9.3-12.17-2-16.36l16.07-9.27c7.26-4.2 19.95-3.67 28.34 1.17l12 6.93c8.39 4.82 9.26 12.17 2 16.36Z"/><path class="cls-93" d="m405.8 276.33-15.62 9c-7.07 4.08-19.41 3.57-27.57-1.14l-11.67-6.74c-8.16-4.71-9.05-11.84-2-15.92l15.63-9c7.06-4.08 19.41-3.57 27.57 1.14l11.66 6.74c8.2 4.71 9.07 11.84 2 15.92Z"/><path class="cls-94" d="m405 276.12-15.19 8.76c-6.87 4-18.87 3.47-26.8-1.11l-11.34-6.54c-7.93-4.58-8.79-11.51-1.92-15.48l15.19-8.75c6.87-4 18.86-3.47 26.8 1.11l11.33 6.54c7.93 4.57 8.8 11.5 1.93 15.47Z"/><path class="cls-95" d="m404.2 275.91-14.75 8.51c-6.68 3.85-18.33 3.37-26-1.08l-11-6.36c-7.7-4.44-8.54-11.17-1.86-15l14.75-8.52c6.67-3.85 18.32-3.37 26 1.08l11 6.36c7.66 4.43 8.53 11.15 1.86 15.01Z"/><path class="cls-96" d="M403.39 275.69 389.08 284c-6.47 3.73-17.78 3.27-25.26-1l-10.68-6.17c-7.48-4.32-8.29-10.84-1.82-14.58l14.32-8.26c6.47-3.74 17.78-3.27 25.25 1l10.69 6.17c7.47 4.27 8.29 10.84 1.81 14.53Z"/><path class="cls-97" d="m402.59 275.48-13.88 8c-6.27 3.63-17.24 3.17-24.48-1l-10.36-6c-7.25-4.19-8-10.52-1.76-14.14l13.88-8c6.27-3.62 17.23-3.17 24.48 1l10.36 6c7.25 4.19 8.03 10.52 1.76 14.14Z"/><path class="cls-98" d="M401.79 275.27 388.35 283c-6.08 3.51-16.7 3.07-23.72-1l-10-5.8c-7-4.05-7.78-10.18-1.7-13.69l13.44-7.76c6.07-3.51 16.69-3.07 23.71 1l10 5.79c7.02 4.09 7.78 10.22 1.71 13.73Z"/></g><path d="M411.1 267.38 411 259h-69.18l.09 8.16v.21a5.1 5.1 0 0 0 2.82 3.44l25.8 14.89c3.44 2 8.65 2.2 11.63.48l26.92-15.54a3.31 3.31 0 0 0 2.02-3.26Z" style="fill:url(#linear-gradient-43)"/><path d="M409 262.48 382.09 278c-3 1.72-8.19 1.5-11.63-.49l-25.8-14.89c-3.44-2-3.82-5-.83-6.72l26.91-15.54c3-1.72 8.2-1.5 11.64.49l25.79 14.89c3.45 2.02 3.83 5.02.83 6.74Z" style="fill:url(#linear-gradient-44)"/><path class="cls-46" d="m373.93 257.79 1.41-10-.11.05-18.52 10.7a2.43 2.43 0 0 0-.44.3Z"/><path class="cls-46" d="m377.75 260-21.49 1.26c.09.06.16.13.26.19l14.94 8.55a5.51 5.51 0 0 0 5-.11L395 259.22c1.43-.82 1.51-2.11.18-2.88l-14.93-8.62a3.67 3.67 0 0 0-.7-.29Z"/></g><g id="_4" data-name="4"><path d="m381.5 187.28-.1-44.66h-30l.1 44.39a1.22 1.22 0 0 0 0 .27 2.21 2.21 0 0 0 1.22 1.5l11.19 6.45a5.58 5.58 0 0 0 5.05.21l11.67-6.74a1.43 1.43 0 0 0 .87-1.42Z" style="fill:url(#linear-gradient-45)"/><path d="m380.55 144.13-11.67 6.74a5.61 5.61 0 0 1-5.05-.21l-11.18-6.46c-1.5-.86-1.66-2.17-.37-2.91l11.72-6.74a5.56 5.56 0 0 1 5 .21l11.19 6.46c1.49.86 1.66 2.16.36 2.91Z" style="fill:url(#linear-gradient-46)"/><path class="cls-46" d="M361.44 140c-2.74 1.59-2.74 4.16 0 5.75a11 11 0 0 0 9.95 0c2.75-1.59 2.75-4.16 0-5.75l-5 2.88Z"/><path class="cls-46" d="m361.53 138.62 5 2.88 5-2.88a11 11 0 0 0-10 0Z"/></g><g id="_3" data-name="3"><g class="cls-77"><path class="cls-78" d="M269.46 219.09 235 239c-15.62 9-42.89 7.88-60.92-2.53l-25.77-14.87c-18-10.41-20-26.16-4.37-35.17l34.52-19.93c15.61-9 42.88-7.88 60.91 2.52l25.77 14.88c17.98 10.43 19.94 26.18 4.32 35.19Z"/><path class="cls-79" d="m268.21 218.76-33.83 19.54c-15.31 8.83-42 7.72-59.71-2.48l-25.27-14.58c-17.67-10.21-19.59-25.64-4.28-34.48L179 167.23c15.31-8.84 42-7.73 59.71 2.47l25.27 14.59c17.62 10.2 19.54 25.63 4.23 34.47Z"/><path class="cls-80" d="m267 218.43-33.15 19.14c-15 8.66-41.2 7.58-58.51-2.42l-24.76-14.29c-17.32-10-19.2-25.12-4.2-33.78l33.16-19.15c15-8.65 41.19-7.57 58.51 2.43l24.75 14.29c17.28 10 19.2 25.12 4.2 33.78Z"/><path class="cls-81" d="m265.71 218.1-32.47 18.75c-14.69 8.48-40.35 7.42-57.31-2.37l-24.25-14c-17-9.79-18.8-24.61-4.11-33.09L180 168.64c14.69-8.48 40.35-7.42 57.31 2.38l24.25 14c17 9.79 18.84 24.6 4.15 33.08Z"/><path class="cls-82" d="m264.46 217.77-31.79 18.36c-14.38 8.3-39.51 7.26-56.11-2.32l-23.74-13.71c-16.61-9.59-18.41-24.09-4-32.39l31.8-18.36c14.38-8.31 39.5-7.26 56.11 2.32l23.73 13.71c16.54 9.62 18.38 24.09 4 32.39Z"/><path class="cls-83" d="m263.21 217.44-31.11 18c-14.08 8.12-38.66 7.11-54.91-2.28L154 219.72c-16.25-9.38-18-23.57-3.94-31.7l31.11-18c14.08-8.13 38.66-7.11 54.91 2.27l23.23 13.41c16.21 9.43 17.98 23.62 3.9 31.74Z"/><path class="cls-84" d="m262 217.12-30.43 17.57c-13.77 7.95-37.82 6.95-53.71-2.23l-22.76-13.12c-15.9-9.18-17.63-23.06-3.86-31l30.44-17.57c13.76-7.95 37.81-6.95 53.7 2.23l22.73 13.12c15.89 9.17 17.62 23.05 3.89 31Z"/><path class="cls-85" d="M260.71 216.79 231 234c-13.46 7.77-37 6.79-52.51-2.18L156.24 219c-15.55-9-17.23-22.54-3.77-30.31l29.75-17.18c13.46-7.77 37-6.8 52.51 2.18l22.21 12.82c15.54 8.93 17.23 22.49 3.77 30.28Z"/><path class="cls-86" d="m259.46 216.46-29.07 16.78c-13.15 7.6-36.12 6.64-51.31-2.12l-21.71-12.54c-15.18-8.76-16.83-22-3.68-29.62l29.07-16.78c13.16-7.6 36.13-6.64 51.31 2.12l21.71 12.54c15.22 8.76 16.83 22.03 3.68 29.62Z"/><path class="cls-87" d="m258.21 216.13-28.39 16.39c-12.85 7.42-35.28 6.49-50.11-2.07l-21.2-12.24c-14.83-8.57-16.44-21.52-3.59-28.93l28.39-16.4c12.84-7.41 35.28-6.48 50.11 2.08l21.19 12.24c14.83 8.56 16.44 21.51 3.6 28.93Z"/><path class="cls-88" d="m257 215.8-27.71 16c-12.54 7.24-34.43 6.33-48.91-2l-20.69-11.94c-14.47-8.36-16.05-21-3.51-28.24l27.71-16c12.54-7.24 34.43-6.33 48.91 2l20.69 11.94c14.43 8.36 16.01 21 3.51 28.24Z"/><path class="cls-89" d="m255.71 215.47-27 15.61c-12.23 7.06-33.59 6.17-47.71-2l-20.18-11.65c-14.12-8.15-15.65-20.48-3.43-27.54l27-15.61c12.23-7.06 33.58-6.18 47.7 2l20.19 11.65c14.13 8.15 15.66 20.48 3.43 27.54Z"/><path class="cls-90" d="m254.46 215.14-26.35 15.22c-11.92 6.88-32.74 6-46.51-1.93l-19.67-11.36c-13.77-7.95-15.26-20-3.34-26.85L184.94 175c11.92-6.89 32.74-6 46.51 1.92l19.67 11.36c13.77 7.96 15.26 19.98 3.34 26.86Z"/><path class="cls-91" d="m253.21 214.81-25.67 14.82c-11.61 6.71-31.9 5.87-45.31-1.87l-19.16-11.07c-13.41-7.74-14.87-19.45-3.26-26.16l25.68-14.82c11.61-6.7 31.89-5.86 45.3 1.88L250 188.66c13.37 7.74 14.82 19.45 3.21 26.15Z"/><path class="cls-92" d="m252 214.48-25 14.43c-11.31 6.53-31.05 5.71-44.11-1.82l-18.65-10.78c-13.06-7.53-14.47-18.93-3.17-25.46l25-14.43c11.31-6.53 31.05-5.71 44.11 1.83L248.79 189c13.06 7.56 14.47 19 3.21 25.48Z"/><path class="cls-93" d="m250.71 214.15-24.31 14c-11 6.35-30.21 5.55-42.9-1.78l-18.16-10.48c-12.69-7.33-14.07-18.42-3.08-24.77l24.32-14c11-6.35 30.2-5.56 42.9 1.78l18.15 10.47c12.7 7.35 14.08 18.44 3.08 24.78Z"/><path class="cls-94" d="m249.46 213.83-23.63 13.64c-10.69 6.17-29.36 5.4-41.7-1.73l-17.65-10.19c-12.34-7.12-13.68-17.9-3-24.07l23.63-13.65c10.69-6.17 29.36-5.39 41.7 1.73l17.65 10.19c12.35 7.13 13.69 17.9 3 24.08Z"/><path class="cls-95" d="m248.21 213.5-23 13.25c-10.38 6-28.52 5.24-40.5-1.68l-17.14-9.89c-12-6.92-13.29-17.39-2.91-23.39l23-13.25c10.38-6 28.51-5.24 40.5 1.68l17.13 9.89c12 6.89 13.3 17.39 2.92 23.39Z"/><path class="cls-96" d="M247 213.17 224.69 226c-10.07 5.81-27.67 5.08-39.3-1.63l-16.63-9.6c-11.63-6.72-12.89-16.88-2.82-22.69l22.27-12.86c10.07-5.82 27.67-5.09 39.3 1.63l16.63 9.6c11.63 6.74 12.86 16.9 2.86 22.72Z"/><path class="cls-97" d="m245.71 212.84-21.59 12.46c-9.77 5.64-26.82 4.94-38.1-1.58l-16.12-9.3c-11.28-6.51-12.5-16.36-2.74-22L188.75 180c9.77-5.64 26.83-4.94 38.1 1.58l16.12 9.3c11.28 6.47 12.51 16.32 2.74 21.96Z"/><path class="cls-98" d="m244.46 212.51-20.91 12.07c-9.46 5.46-26 4.78-36.9-1.53L171 214c-10.92-6.31-12.11-15.84-2.65-21.3l20.91-12.08c9.46-5.46 26-4.77 36.9 1.53l15.61 9c10.96 6.36 12.15 15.9 2.69 21.36Z"/></g><path d="m262.48 198.23-.24-12.52h-113l.15 12.17v.35c.26 2 1.82 4 4.62 5.63l42.18 24.35c5.63 3.25 14.14 3.6 19 .79l44-25.41c2.48-1.42 3.55-3.36 3.29-5.36Z" style="fill:url(#linear-gradient-47)"/><path d="m259.06 191.41-44 25.41c-4.87 2.82-13.39 2.46-19-.79l-42.18-24.35c-5.63-3.25-6.24-8.17-1.37-11l44-25.41c4.87-2.82 13.39-2.47 19 .78l42.18 24.36c5.63 3.27 6.24 8.18 1.37 11Z" style="fill:url(#linear-gradient-48)"/><path class="cls-46" d="M240.29 183.58c-5.73-1.65-15-3.46-20.82-.11l-2.93 1.69-3.54-1.56a4.51 4.51 0 0 0-1.79-3.61l-6.9-6.22c-.16-.16-.33-.31-.51-.47l-.14-.12a10.25 10.25 0 0 0-1.41-1c-5.36-3.09-14-3.09-19.4 0s-5.36 8.11 0 11.21a15 15 0 0 0 1.61.78l.22.08c.31.13.63.24 1 .35l10.67 3.95a16.77 16.77 0 0 0 6.26 1l2.71 2.05-2.91 1.67c-5.82 3.37-2.7 8.73.16 12 1.32 1.52 4.81 1.85 6.89.65l15.63-8.92.68-.4 15.65-9c2.07-1.25 1.5-3.26-1.13-4.02Z"/></g><g id="_2" data-name="2"><g class="cls-77"><path class="cls-78" d="m312.33 225.18-14.21 8.2c-6.43 3.71-17.65 3.25-25.08-1l-5.14-3.07c-7.42-4.28-8.23-10.77-1.8-14.48l14.21-8.2c6.43-3.71 17.65-3.25 25.07 1l5.15 3.07c7.47 4.3 8.23 10.77 1.8 14.48Z"/><path class="cls-79" d="m311.82 225-13.93 8c-6.31 3.64-17.31 3.18-24.59-1l-4.93-2.95c-7.28-4.2-8.07-10.55-1.77-14.19l13.93-8c6.3-3.64 17.31-3.18 24.58 1l4.94 2.95c7.28 4.24 8.07 10.59 1.77 14.19Z"/><path class="cls-80" d="m311.3 224.91-13.65 7.88c-6.17 3.56-17 3.11-24.09-1l-4.72-2.79c-7.13-4.12-7.91-10.34-1.73-13.91l13.65-7.88c6.17-3.56 16.95-3.12 24.08 1l4.73 2.83c7.13 4.07 7.9 10.3 1.73 13.87Z"/><path class="cls-81" d="m310.79 224.77-13.37 7.72c-6.05 3.49-16.61 3-23.6-1l-4.52-2.71c-7-4-7.74-10.13-1.69-13.62l13.39-7.7c6-3.49 16.61-3.05 23.59 1l4.52 2.71c6.96 4.01 7.72 10.11 1.68 13.6Z"/><path class="cls-82" d="m310.27 224.63-13.09 7.56c-5.92 3.42-16.26 3-23.1-1l-4.31-2.58c-6.83-4-7.58-9.92-1.66-13.34l13.09-7.56c5.92-3.42 16.27-3 23.1 1l4.31 2.59c6.84 3.95 7.58 9.92 1.66 13.33Z"/><path class="cls-83" d="M309.76 224.5 297 231.89c-5.8 3.35-15.92 2.93-22.61-.93l-4.1-2.47c-6.69-3.86-7.42-9.71-1.62-13.05l12.81-7.4c5.79-3.34 15.91-2.92 22.6.94l4.1 2.47c6.64 3.86 7.37 9.7 1.58 13.05Z"/><path class="cls-84" d="m309.24 224.36-12.53 7.24c-5.66 3.27-15.56 2.86-22.11-.92l-3.89-2.35c-6.54-3.77-7.25-9.49-1.59-12.76l12.53-7.24c5.67-3.27 15.57-2.86 22.11.92l3.89 2.35c6.55 3.78 7.26 9.49 1.59 12.76Z"/><path class="cls-85" d="m308.73 224.23-12.25 7.07c-5.54 3.2-15.22 2.8-21.62-.9l-3.68-2.22c-6.4-3.7-7.09-9.28-1.55-12.48l12.25-7.07c5.54-3.2 15.22-2.8 21.61.89l3.69 2.23c6.39 3.69 7.09 9.25 1.55 12.48Z"/><path class="cls-86" d="m308.21 224.09-12 6.91c-5.41 3.13-14.87 2.74-21.12-.87l-3.44-2.13c-6.25-3.61-6.93-9.07-1.52-12.19l12-6.91c5.41-3.13 14.87-2.74 21.12.87l3.48 2.11c6.27 3.63 6.9 9.12 1.48 12.21Z"/><path class="cls-87" d="m307.7 224-11.7 6.71c-5.29 3-14.52 2.67-20.63-.86l-3.26-2c-6.11-3.53-6.77-8.86-1.48-11.91l11.69-6.75c5.28-3.05 14.52-2.67 20.62.85l3.27 2c6.11 3.53 6.79 8.86 1.49 11.96Z"/><path class="cls-88" d="m307.18 223.82-11.41 6.59c-5.16 3-14.17 2.6-20.13-.84l-3.05-1.86c-6-3.44-6.61-8.64-1.45-11.62l11.41-6.59c5.16-3 14.17-2.61 20.13.83l3.06 1.87c5.96 3.44 6.6 8.64 1.44 11.62Z"/><path class="cls-89" d="m306.67 223.69-11.13 6.42c-5 2.91-13.83 2.54-19.64-.81l-2.85-1.75c-5.81-3.35-6.44-8.43-1.41-11.33l11.13-6.43c5-2.91 13.83-2.54 19.64.81l2.85 1.75c5.81 3.35 6.44 8.43 1.41 11.34Z"/><path class="cls-90" d="m306.15 223.55-10.85 6.26c-4.9 2.84-13.47 2.48-19.14-.79l-2.64-1.62c-5.66-3.27-6.28-8.22-1.37-11.05l10.85-6.27c4.9-2.83 13.48-2.48 19.14.8l2.64 1.62c5.67 3.27 6.28 8.22 1.37 11.05Z"/><path class="cls-91" d="m305.64 223.42-10.57 6.1c-4.78 2.76-13.13 2.41-18.65-.78l-2.43-1.5c-5.52-3.18-6.12-8-1.34-10.77l10.57-6.1c4.78-2.76 13.13-2.41 18.65.78l2.43 1.5c5.52 3.18 6.12 8.01 1.34 10.77Z"/><path class="cls-92" d="m305.12 223.28-10.28 5.94c-4.66 2.69-12.79 2.35-18.16-.75l-2.22-1.38c-5.37-3.11-6-7.8-1.3-10.49l10.29-5.94c4.65-2.68 12.78-2.35 18.15.76l2.22 1.38c5.37 3.1 5.96 7.79 1.3 10.48Z"/><path class="cls-93" d="m304.61 223.14-10 5.78c-4.53 2.62-12.43 2.29-17.66-.73l-2-1.26c-5.23-3-5.8-7.58-1.27-10.2l10-5.77c4.53-2.62 12.43-2.29 17.66.73l2 1.26c5.23 3.05 5.8 7.58 1.27 10.19Z"/><path class="cls-94" d="m304.1 223-9.73 5.62c-4.4 2.54-12.09 2.22-17.17-.72l-1.8-1.13c-5.08-2.94-5.63-7.38-1.23-9.92l9.72-5.61c4.4-2.54 12.09-2.23 17.17.71l1.8 1.14c5.08 2.91 5.64 7.38 1.24 9.91Z"/><path class="cls-95" d="m303.58 222.87-9.45 5.46c-4.27 2.47-11.74 2.16-16.67-.69l-1.59-1c-4.94-2.85-5.47-7.16-1.2-9.63l9.45-5.45c4.27-2.47 11.74-2.16 16.67.69l1.59 1c4.94 2.85 5.47 7.16 1.2 9.62Z"/><path class="cls-96" d="M303.07 222.74 293.9 228c-4.15 2.4-11.39 2.1-16.18-.67l-1.38-.9c-4.79-2.76-5.31-6.94-1.17-9.34l9.17-5.29c4.15-2.4 11.39-2.1 16.18.67l1.38.9c4.79 2.79 5.31 6.97 1.17 9.37Z"/><path class="cls-97" d="m302.55 222.6-8.89 5.13c-4 2.33-11 2-15.68-.65l-1.18-.77c-4.64-2.68-5.14-6.74-1.12-9.06l8.89-5.13c4-2.32 11-2 15.68.65l1.17.78c4.65 2.68 5.15 6.73 1.13 9.05Z"/><path class="cls-98" d="m302 222.47-8.61 5c-3.9 2.25-10.7 2-15.19-.63l-1-.66c-4.49-2.59-5-6.52-1.09-8.77l8.61-5c3.89-2.25 10.7-2 15.19.63l1 .66c4.53 2.59 5.02 6.52 1.09 8.77Z"/></g><path d="m309.45 216.59-.09-5.15-41.08 3.05.06 5v.14a3.45 3.45 0 0 0 1.9 2.32l11.9 7c2.32 1.34 5.83 1.48 7.84.33l18.12-10.47a2.23 2.23 0 0 0 1.35-2.22Z" style="fill:url(#linear-gradient-49)"/><path d="m308.05 213.78-18.12 10.46c-2 1.16-5.52 1-7.84-.32l-11.9-7c-2.32-1.34-2.57-3.37-.56-4.52l18.12-10.4c2-1.16 5.52-1 7.83.33l11.9 7c2.32 1.27 2.57 3.29.57 4.45Z" style="fill:url(#linear-gradient-50)"/><g id="_16" data-name="16"><path d="m299.79 208.8-.91.27a5.67 5.67 0 0 0-1.15-.87c-2.48-1.45-6.25-1.61-8.4-.35l-8.78 5.1-2.66.81v2.11a3.56 3.56 0 0 0 2.05 2.7c2.49 1.45 6.25 1.61 8.41.35l10-5.81a2.54 2.54 0 0 0 1.45-2.09Z" style="fill:url(#linear-gradient-51)"/><path d="m298.34 211-10 5.8c-2.16 1.26-5.92 1.1-8.41-.35-2.49-1.45-2.76-3.65-.6-4.91l10-5.81c2.15-1.25 5.92-1.1 8.4.36 2.49 1.46 2.76 3.66.61 4.91Z" style="fill:url(#linear-gradient-52)"/><path d="M296.62 206.67c2 1.14 2 3 0 4.14a7.94 7.94 0 0 1-7.17 0c-2-1.15-2-3 0-4.14a7.88 7.88 0 0 1 7.17 0Z" style="fill:url(#linear-gradient-53)"/></g></g><g id="_1" data-name="1"><g class="cls-77"><path class="cls-78" d="m506.36 183.35-17 9.82c-7.69 4.44-21.13 3.88-30-1.25l-6.16-3.67c-8.89-5.13-9.85-12.89-2.16-17.33l17-9.82c7.69-4.44 21.13-3.89 30 1.24l6.16 3.66c8.89 5.15 9.85 12.91 2.16 17.35Z"/><path class="cls-79" d="m505.74 183.19-16.67 9.62c-7.54 4.36-20.71 3.81-29.42-1.22l-5.91-3.53c-8.71-5-9.66-12.63-2.11-17l16.67-9.62c7.54-4.36 20.71-3.81 29.42 1.22l5.91 3.53c8.71 5.04 9.66 12.64 2.11 17Z"/><path class="cls-80" d="m505.13 183-16.34 9.44c-7.39 4.26-20.3 3.73-28.83-1.2l-5.66-3.39c-8.53-4.92-9.46-12.37-2.07-16.64l16.34-9.43c7.39-4.27 20.3-3.74 28.83 1.19l5.66 3.39c8.53 4.95 9.46 12.4 2.07 16.64Z"/><path class="cls-81" d="m504.51 182.86-16 9.24c-7.24 4.18-19.88 3.66-28.24-1.17l-5.41-3.24c-8.36-4.83-9.26-12.13-2-16.31l16-9.24c7.23-4.17 19.88-3.65 28.24 1.18l5.4 3.24c8.34 4.82 9.25 12.12 2.01 16.3Z"/><path class="cls-82" d="m503.9 182.7-15.67 9.05c-7.09 4.09-19.47 3.57-27.65-1.15l-5.16-3.1c-8.18-4.72-9.07-11.87-2-16l15.66-9c7.09-4.09 19.47-3.57 27.65 1.15l5.16 3.1c8.2 4.71 9.11 11.86 2.01 15.95Z"/><path class="cls-83" d="M503.28 182.54 488 191.39c-6.94 4-19.05 3.5-27.06-1.12l-4.91-3c-8-4.62-8.87-11.61-1.94-15.62l15.33-8.85c6.94-4 19.05-3.5 27.06 1.12l4.91 3c7.95 4.62 8.82 11.61 1.89 15.62Z"/><path class="cls-84" d="m502.66 182.38-15 8.65c-6.79 3.92-18.64 3.43-26.47-1.09l-4.66-2.81c-7.83-4.52-8.68-11.36-1.9-15.28l15-8.66c6.78-3.92 18.63-3.42 26.47 1.1l4.65 2.81c7.85 4.52 8.7 11.36 1.91 15.28Z"/><path class="cls-85" d="m502.05 182.21-14.66 8.47c-6.64 3.83-18.22 3.35-25.88-1.07l-4.4-2.67c-7.66-4.42-8.49-11.11-1.86-14.94l14.66-8.46c6.63-3.83 18.21-3.35 25.87 1.07l4.41 2.67c7.66 4.42 8.49 11.1 1.86 14.93Z"/><path class="cls-86" d="m501.43 182.05-14.33 8.27c-6.48 3.74-17.79 3.27-25.28-1l-4.15-2.52c-7.49-4.32-8.3-10.85-1.82-14.59l14.33-8.27c6.48-3.74 17.8-3.27 25.28 1.05l4.16 2.52c7.48 4.27 8.29 10.8 1.81 14.54Z"/><path class="cls-87" d="m500.82 181.89-14 8.08c-6.32 3.65-17.38 3.19-24.69-1l-3.9-2.37c-7.31-4.22-8.1-10.6-1.78-14.26l14-8.07c6.32-3.66 17.38-3.2 24.69 1l3.9 2.37c7.31 4.21 8.1 10.6 1.78 14.25Z"/><path class="cls-88" d="m500.2 181.73-13.66 7.88c-6.17 3.57-17 3.12-24.1-1l-3.65-2.23c-7.13-4.12-7.91-10.35-1.73-13.91l13.65-7.89c6.18-3.56 17-3.11 24.1 1l3.66 2.23c7.13 4.12 7.91 10.35 1.73 13.92Z"/><path class="cls-89" d="m499.58 181.56-13.32 7.7c-6 3.47-16.55 3-23.5-1l-3.41-2.09c-7-4-7.71-10.09-1.69-13.57l13.34-7.67c6-3.48 16.55-3 23.51 1l3.39 2.07c6.95 4 7.71 10.09 1.68 13.56Z"/><path class="cls-90" d="m499 181.4-13 7.5c-5.87 3.39-16.13 3-22.91-1l-3.18-1.9c-6.78-3.92-7.52-9.84-1.64-13.23l13-7.5c5.87-3.39 16.13-3 22.92.95l3.15 1.94c6.76 3.93 7.5 9.84 1.66 13.24Z"/><path class="cls-91" d="m498.35 181.24-12.65 7.3c-5.72 3.31-15.72 2.89-22.32-.92l-2.91-1.8c-6.61-3.81-7.32-9.58-1.6-12.89l12.65-7.3c5.72-3.3 15.72-2.89 22.32.92l2.91 1.8c6.61 3.82 7.32 9.59 1.6 12.89Z"/><path class="cls-92" d="m497.74 181.08-12.32 7.11c-5.57 3.21-15.3 2.81-21.73-.9l-2.69-1.65c-6.43-3.72-7.13-9.34-1.56-12.55l12.35-7.09c5.57-3.22 15.3-2.81 21.73.9l2.65 1.65c6.44 3.7 7.14 9.31 1.57 12.53Z"/><path class="cls-93" d="m497.12 180.92-12 6.91c-5.42 3.13-14.88 2.74-21.14-.87l-2.41-1.51c-6.25-3.61-6.93-9.08-1.51-12.21l12-6.91c5.41-3.13 14.88-2.74 21.14.87l2.4 1.51c6.26 3.61 6.94 9.08 1.52 12.21Z"/><path class="cls-94" d="m496.5 180.75-11.64 6.73c-5.27 3-14.47 2.66-20.55-.85l-2.16-1.37c-6.08-3.51-6.74-8.82-1.47-11.86l11.64-6.73c5.27-3 14.47-2.65 20.55.86l2.16 1.36c6.08 3.51 6.74 8.82 1.47 11.86Z"/><path class="cls-95" d="m495.89 180.59-11.31 6.53c-5.12 3-14.05 2.58-20-.83l-1.9-1.21c-5.91-3.42-6.55-8.57-1.44-11.53l11.35-6.55c5.12-3 14.05-2.58 20 .83l1.9 1.22c5.87 3.43 6.51 8.59 1.4 11.54Z"/><path class="cls-96" d="m495.27 180.43-11 6.34c-5 2.86-13.64 2.5-19.37-.81l-1.65-1.07c-5.73-3.31-6.36-8.32-1.39-11.18l11-6.34c5-2.86 13.63-2.5 19.37.8l1.65 1.08c5.73 3.31 6.35 8.31 1.39 11.18Z"/><path class="cls-97" d="M494.65 180.27 484 186.41c-4.82 2.78-13.22 2.43-18.78-.78l-1.4-.93c-5.56-3.21-6.16-8.06-1.35-10.84l10.64-6.14c4.81-2.78 13.22-2.43 18.77.78l1.41.93c5.57 3.21 6.18 8.06 1.36 10.84Z"/><path class="cls-98" d="m494 180.11-10.3 5.94c-4.67 2.7-12.81 2.36-18.19-.75l-1.15-.78c-5.38-3.11-6-7.81-1.31-10.5l10.31-6c4.66-2.69 12.8-2.35 18.18.75l1.15.79c5.42 3.16 6.01 7.86 1.31 10.55Z"/></g><path d="m502.92 174.22-.12-6.17-49.16 3.65.07 6v.17a4.12 4.12 0 0 0 2.28 2.78l14.26 8.35c2.78 1.6 7 1.78 9.38.39l21.68-12.52a2.69 2.69 0 0 0 1.61-2.65Z" style="fill:url(#linear-gradient-54)"/><path d="m501.23 170.86-21.69 12.52c-2.4 1.39-6.6 1.21-9.37-.39l-14.25-8.34c-2.77-1.6-3.07-4-.67-5.42l21.69-12.52c2.4-1.38 6.6-1.21 9.37.39l14.25 8.34c2.77 1.61 3.07 4.03.67 5.42Z" style="fill:url(#linear-gradient-55)"/><g id="_16-2" data-name="16"><path d="m491 165.15-1.06.32a6.34 6.34 0 0 0-1.34-1c-2.9-1.69-7.28-1.87-9.79-.41l-10.25 6-3.1.95v2.46c0 1.1.85 2.25 2.39 3.15 2.9 1.69 7.29 1.88 9.8.41l11.65-6.77a3 3 0 0 0 1.69-2.44Z" style="fill:url(#linear-gradient-56)"/><path d="m489.32 167.72-11.65 6.77c-2.51 1.47-6.9 1.29-9.8-.41-2.9-1.69-3.22-4.25-.7-5.72l11.65-6.77c2.51-1.47 6.89-1.29 9.79.41 2.9 1.69 3.22 4.25.71 5.72Z" style="fill:url(#linear-gradient-57)"/><path d="M487.32 162.66c2.31 1.34 2.31 3.5 0 4.83a9.26 9.26 0 0 1-8.36 0c-2.31-1.33-2.31-3.49 0-4.83a9.26 9.26 0 0 1 8.36 0Z" style="fill:url(#linear-gradient-58)"/></g></g></g></g></svg>