<svg xmlns="http://www.w3.org/2000/svg" xmlns:xlink="http://www.w3.org/1999/xlink" id="OBJECTS" viewBox="0 0 512.37 500"><defs><style>.cls-1,.cls-12,.cls-20,.cls-22,.cls-23,.cls-24,.cls-5{fill:none}.cls-2{clip-path:url(#clip-path)}.cls-18,.cls-3{fill:#fff}.cls-4{fill:#a0c6f4}.cls-18,.cls-20,.cls-5{stroke:#2a1e17}.cls-12,.cls-18,.cls-20,.cls-22,.cls-24,.cls-5{stroke-linecap:round;stroke-linejoin:round}.cls-6{fill:#2a1e17}.cls-7{fill:#f9865f}.cls-8{fill:#2a1e33}.cls-9{fill:#7595ec}.cls-10{fill:#ff8a66}.cls-11{fill:#fff7c9}.cls-12{stroke:#2a1e33}.cls-13{fill:#ff6d66}.cls-14{fill:#fad8b0}.cls-15{fill:#c6cbcb}.cls-16{fill:#fff7dc}.cls-17{fill:#ffe1c0}.cls-19{fill:#91ba83}.cls-20{stroke-width:.67px}.cls-21{fill:#96bd89}.cls-22{stroke:#ff6d66}.cls-23{stroke:#fad8b0;stroke-miterlimit:10}.cls-24{stroke:#a0c6f4}</style><clipPath id="clip-path"><rect width="900" height="500" x="-387.63" class="cls-1"/></clipPath></defs><g class="cls-2"><path d="M334.3,211.86c-32.4-30.37-70.36-38.21-80.39-39.81,6.76-18.23,17.2-45.33,19.8-49.34a37.47,37.47,0,0,1,5.07-.29c7.37,0,23.15,1.53,46,11.8,32.95,14.83,41.77,31.51,43.51,35.59Z" class="cls-3"/><path d="M278.78,124.42c7.21,0,22.67,1.51,45.15,11.62,29.81,13.42,39.44,28.42,42,33.49l-31.82,39.41A161.08,161.08,0,0,0,280,176.8a149.49,149.49,0,0,0-23.38-6.33c7.47-20.07,15.59-40.73,18.32-45.89.89-.08,2.17-.16,3.83-.16m0-4a33.83,33.83,0,0,0-6.07.42c-2.34.78-21.54,52.84-21.54,52.84s45.57,4.65,83.32,41.12l36-44.62s-6-20.26-45-37.78c-22.83-10.27-38.74-12-46.79-12Z" class="cls-4"/><path d="M257.86,177.73s44.81,4.52,72.41,29.87" class="cls-5"/><polygon points="296.55 175.54 313.26 143.04 330.44 176.94 296.55 175.54" class="cls-4"/><polygon points="299.8 175.08 316.51 142.58 333.69 176.47 299.8 175.08" class="cls-5"/><path d="M284.11,118.44s50.23,4.53,81.46,41.64" class="cls-5"/><path d="M309.78,262.46c-2.76-2-4.57-3.39-4.57-3.39.76-1,12.85-13.89,19.85-24.27C325.06,234.8,310.9,263.29,309.78,262.46Z" class="cls-6"/><path d="M138.49,168.59c1.35,2.25,1.95,1.35,5.83,1s9.43,2.54,11.37,7.33,1.35,5.53.3,6.13-8.52,1.5-8.82,3" class="cls-5"/><polygon points="239.26 412.05 235.78 406.16 223.41 426.77 226.66 429.27 239.26 412.05" class="cls-7"/><path d="M157.17,361s-6.41-10.41-3.66-15.52L174,347.62Z" class="cls-7"/><path d="M157.17,361l1.22,2.82-3.77,14.72a5,5,0,0,0,1.59,5.07h0l18.69-27.63a6.44,6.44,0,0,0-1-8.31l-4.18-3.88Z"/><path d="M147.17,186.09c5.85-.14,13.27-.51,11.78-5s-7-15.57-19.65-12.24c0,0-4.45,3.71,1.11,10.39S147.17,186.09,147.17,186.09Z" class="cls-8"/><path d="M176.79,347.87s-10-29.5-1.54-42.45c7-10.69,29.78,6.69,32.9,9L224.46,285s-3.76-5.28-13-10.45S164,253.9,146.07,282.22c-6.63,10.46-6.73,55.37,6,72.58Z" class="cls-9"/><path d="M176.79,347.87s-10-29.5-1.54-42.45c7-10.69,29.78,6.69,32.9,9" class="cls-5"/><path d="M224.46,285c-7.42,7.81-29.41,45.85-34.36,64-6.61,24.32-4.12,44.49,32.24,84l17.57-25.6s-12.36-18.76-10-36.45c3.34-25.59,21.55-50.4,30.76-66.14Z" class="cls-9"/><polygon points="227.25 288.31 256.49 311.25 265.23 297.97 227.25 288.31" class="cls-6"/><path d="M395.17,264.18q6.84,1.47,10.42,5.21c2.39,2.5,1.31,3.8.44,4.56s-4.24-.11-7.17-2.71S395.17,264.18,395.17,264.18Z" class="cls-10"/><path d="M305.21,259.07c.76-1,12.85-13.89,19.85-24.27,0,0,21.15,23.7,23.45,24.47.85.28,6,.21,12.48.15,10.88-.12,25.35-.23,28.55,1.38,5.1,2.54,8.16,3.82,9.43,7.39s1.78,5.9-1.27,6.11c-3.57.26-5.86-4.33-5.86-4.33a71.81,71.81,0,0,1-10.45,4.59s-27.11,10.52-45.23,5.43C331.21,278.6,305.21,259.07,305.21,259.07Z" class="cls-7"/><path d="M140.88,164.4c-2.32.89-3.74,1.95-2.39,4.19s1.95,1.35,5.83,1,9.43,2.54,11.37,7.33,1.35,5.53.3,6.13-8.52,1.5-8.82,3,3,5.91,9.91,5.62l1.64-.3s14.47,14.13,16.57,16.22,17.48,12.52,26,14.64c6.44,1.61,19.5-.46,27.34-2,3.81-.75,6.4-1.36,6.4-1.36S229.1,208.31,227.9,192c0,0-14.08,2.26-23.44,4.32,0,0-21.84-12.18-32.46-17.57,0,0-9.28-11.36-13.61-12.86S144,163.21,140.88,164.4Z" class="cls-7"/><path d="M228.59,220.28c3.81-.75,6.4-1.36,6.4-1.36s-7.13-9-8.32-25.28c0,0-3.22,3.47-2.22,12.7C225.71,218,228.59,220.28,228.59,220.28Z" class="cls-6"/><path d="M226.32,191.81s.2,19.93,5.54,28.24l1.91-.77s-25.15,29.43-33.29,48.66c-1.33,3.15,52.23,37.36,60.14,36.88,0,0,26.1-39.83,35-51.64l9.6,7.44s18.81-19.06,19.82-25.82c0,0-18.17-22.11-33-28.59S263.87,188.65,247.9,189C234.08,189.21,226.32,191.81,226.32,191.81Z" class="cls-11"/><polygon points="305.24 260.62 295.64 253.18 297.17 249.02 305.24 260.62" class="cls-6"/><path d="M319.83,181.83c-1.68,5.23-6.53,20.34-11.94,22.2s-11.05-.47-11.05-.47l-5.76,2.94c-.64,1.93-5.19,3.59-11.06,3.82-4.35.17-7-5.42-5.71-9.46.59-1.86,2.8-11,2.8-11s4.66-17.16,8.95-20.7,8.32-7.06,19.77-2.43C323.37,173.81,319.83,181.83,319.83,181.83Z" class="cls-7"/><path d="M285.06,182.58c-.77,3.2-4.1,9.62-6.29,8.46s-2.95-4.1-1.41-9.75,2.83-18.47,7.19-20.78,6.29.38,6.29.38-1.93-9.36,3.72-10.65c0,0,1.92-.89,1.15,5.52a8.59,8.59,0,0,1,9.24-5.13c7.05.77,9.49,10.65,9.49,10.65a3.57,3.57,0,0,1,3.72-2.7c3.21,0,8.09,4.75,6.93,10,0,0,8.21-2.57,12.57,4s3.85,13.73-6.67,16.55c-11,2.95-10.9-9.88-12.57-11.55S315,174,308.8,176.29s-12.58-4.49-12.58-4.49-1,8.21-2.05,9-3.08,1.8-2.57-2.05,1.16-3.47.77-4.49-2.12-4.27-5.77-1.41C282.5,176,285.06,182.58,285.06,182.58Z" class="cls-8"/><path d="M286.81,184c-2.45-2-4.15-5.68-2-9.3s5.68-4.11,6.75-2.74,1.5,3.68.48,6.42" class="cls-12"/><path d="M226.66,429.27l1.22,2.81-3.77,14.72a5,5,0,0,0,1.59,5.07h0l18.69-27.63a6.44,6.44,0,0,0-.95-8.31l-4.18-3.88Z"/><path d="M290.84,160.89s-1.44-4.65-5.73-5.88" class="cls-12"/><line x1="199.9" x2="251.68" y1="266.53" y2="194.2" class="cls-5"/><path d="M273,199.26c-1.86,2.43-2.72,12.87,5.87,13.54A23.22,23.22,0,0,0,293,209.71" class="cls-5"/><path d="M158.39,165.9s5.91,7.83,6.84,10.62" class="cls-5"/><path d="M380,270.93s3.95,3.25,11.83-1c2.85-1.53.82-5.14-2.8-4.24s-7.9-.45-7.9-.45" class="cls-5"/><path d="M396.53,264.63s3.79,4.43,3.69,7.06" class="cls-5"/><path d="M340.69,264.15s3.43-4.57,7.82-4.88" class="cls-5"/><path d="M196,203.71s2-6.24,8.42-7.38" class="cls-5"/><path d="M213.43,298.39,205.77,313s-25.24,42.71-16.67,70.31" class="cls-5"/><path d="M235.79,347.39l24.83-42.57S293.17,257.61,296.5,251L308,229.7" class="cls-5"/><path d="M203.36,271.07s44.17,32.2,57.26,33.75" class="cls-5"/><path d="M226.32,191.81s0,20.21,5.41,28.49" class="cls-5"/><path d="M323.64,231.6c-1.39,8.32-19.82,25.81-19.82,25.81" class="cls-5"/><circle cx="186.08" cy="332.7" r="2.62" class="cls-6"/><polygon points="432.12 389.05 430.67 379.02 439.23 384.71 434.75 385.69 432.12 389.05" class="cls-5"/><path d="M148.38,217.82c-16.21-14.31-43,21.36,55,134.9,56.55,65.5,101,71.37,107,48.58,10.8-40.88-28.19-51.21-13.68-35.2,21.1,23.28,81.11,28.2,125.84,6.48,44.13-21.44,17-54.73,14.26-56.68" class="cls-5"/><circle cx="423.27" cy="372.37" r="2.62" class="cls-6"/><line x1="385.11" x2="462.85" y1="393.78" y2="349.96" class="cls-5"/><circle cx="150" cy="219.94" r="2.62" class="cls-6"/><circle cx="216.87" cy="165.8" r="5.63" class="cls-13"/><path d="M114.78,122.88a2.48,2.48,0,1,0,2.47,2.48,2.48,2.48,0,0,0-2.47-2.48Z" class="cls-4"/><circle cx="446.17" cy="427.59" r="2.47" class="cls-14"/><path d="M402,315.89,375.4,303.42a2.76,2.76,0,0,1,.06-5l49.46-21.76a2.72,2.72,0,0,1,2.2,0l34,14.58Z" class="cls-8"/><path d="M400.34,274.89c.06,11,1.64,41,1.64,41L461.1,291.2l-1.33-41.75a3.59,3.59,0,0,0-5.08-3.16l-50.89,23.2A5.87,5.87,0,0,0,400.34,274.89Z" class="cls-15"/><path d="M402,315.89,461.1,291.2l-1.33-41.75s-.39-4.56-5.08-3.16" class="cls-5"/><line x1="430.6" x2="434.59" y1="285.88" y2="276.45" class="cls-5"/><line x1="434.59" x2="438.58" y1="285.88" y2="276.45" class="cls-5"/><circle cx="125.44" cy="386.31" r="2.47" class="cls-13"/><circle cx="333.97" cy="398.57" r="3.44" class="cls-13"/><path d="M151.07,423a73.37,73.37,0,0,0,31.23,6.7,1.42,1.42,0,0,1,1.4,1.59l-2.16,17.12a1.41,1.41,0,0,1-1.14,1.21c-4.38.83-22,3.25-35.22-8a1.4,1.4,0,0,1-.44-1.43l4.36-16.33A1.41,1.41,0,0,1,151.07,423Z" class="cls-16"/><path d="M152.62,428s7.62,10.71,10.34,12.25,17.4-7.22,17.4-7.22" class="cls-5"/><line x1="170.15" x2="178.16" y1="438.77" y2="447" class="cls-5"/><line x1="159.02" x2="149.66" y1="437.18" y2="439.73" class="cls-5"/><rect width="8.95" height="8.95" x="387.37" y="220.39" class="cls-17"/><polygon points="388.58 341.09 391.24 345.69 393.9 350.3 388.58 350.3 383.26 350.3 385.92 345.69 388.58 341.09" class="cls-4"/><path d="M173.52,137l.7-20.92c-.08-2,.72-2.57,1.92-2.84,5.68-1.25,23-5.1,41.73.45,2.43.72,2.35,2,2.31,3.16l-.67,19.94a2.69,2.69,0,0,1-3.28,2.27,146,146,0,0,0-20.52-1A116.44,116.44,0,0,0,176,139.67C174.17,140,173.47,138.64,173.52,137Z" class="cls-5"/><path d="M179.84,134l10.94-12.8,12.1,11.95C198.7,131.74,179.84,134,179.84,134Z" class="cls-5"/><polyline points="197.48 127.08 206.31 120 213.76 125.32 214.04 133.63 202.88 133.1" class="cls-5"/><ellipse cx="182.46" cy="119.99" class="cls-5" rx="1.83" ry="2.15" transform="translate(44.72 289.46) rotate(-84.23)"/><path d="M384.92,408.71l7.33,13.54c.77,1.21.5,1.9-.17,2.52-3.14,2.91-12.68,11.77-26.67,15.23-1.81.45-2.24-.4-2.64-1.15l-7-12.91a2,2,0,0,1,1.24-2.67,105.3,105.3,0,0,0,13.4-7A85.23,85.23,0,0,0,382.33,408C383.38,407,384.34,407.65,384.92,408.71Z" class="cls-5"/><path d="M382,413l-2.19,12.19-12.12-3.09C370.88,421.42,382,413,382,413Z" class="cls-5"/><polyline points="373.39 423.92 370.41 431.7 363.7 431.09 360.44 425.92 367.73 422.11" class="cls-5"/><ellipse cx="385.56" cy="422.84" class="cls-5" rx="1.58" ry="1.34" transform="translate(-140.88 198.55) rotate(-24.56)"/><path d="M349.22,177.53,379,200.33a1.47,1.47,0,0,0,2.08-.29l4.5-6.1a1.46,1.46,0,0,0-.27-2L356,168.41a1.47,1.47,0,0,0-2.11.29l-4.92,6.8A1.46,1.46,0,0,0,349.22,177.53Z" class="cls-18"/><polygon points="351.42 176.51 358.65 181.58 362.91 176.49 355.69 170.47 351.42 176.51" class="cls-13"/><polygon points="361.37 183.56 368.6 189.3 372.48 184.53 365.2 178.62 361.37 183.56" class="cls-14"/><polygon points="371.04 191.5 378.26 196.57 381.7 192.15 374.86 186.42 371.04 191.5" class="cls-4"/><path d="M408.67,145.65l6.79,57a2.25,2.25,0,0,0,2.54,2l11.5-1.58a2.24,2.24,0,0,0,1.93-2.45l-5.57-57.34a2.25,2.25,0,0,0-2.57-2l-12.71,1.86A2.25,2.25,0,0,0,408.67,145.65Z" class="cls-18"/><polygon points="412.14 146.98 414.29 160.32 424.43 159.57 423.33 145.2 412.14 146.98" class="cls-13"/><polygon points="415.03 165.42 416.45 179.49 425.83 178.66 424.54 164.35 415.03 165.42" class="cls-19"/><polygon points="416.63 184.52 418.78 197.87 427.31 196.92 426.29 183.29 416.63 184.52" class="cls-14"/><path d="M393.85,157.79l18.8,55.27a1.79,1.79,0,0,0,2.3,1.11l11.78-4.24a1.8,1.8,0,0,0,1.1-2.23l-17.65-55.81a1.8,1.8,0,0,0-2.34-1.14l-12.92,4.79A1.77,1.77,0,0,0,393.85,157.79Z" class="cls-18"/><polygon points="397.67 158.8 402.55 171.41 412.3 168.56 408.24 154.74 397.67 158.8" class="cls-4"/><polygon points="404.32 176.24 408.64 189.71 417.64 186.94 413.4 173.21 404.32 176.24" class="cls-7"/><polygon points="409.86 194.59 414.74 207.19 422.89 204.49 419.06 191.38 409.86 194.59" class="cls-14"/><rect width="105.91" height="23.81" x="151.72" y="227.6" class="cls-9" rx="5.48"/><rect width="55.38" height="3.62" x="163" y="234.61" class="cls-3" rx="1.81"/><line x1="163.52" x2="251.51" y1="242.93" y2="242.93" class="cls-5"/><path d="M115.39,183.17h2.22a1.7,1.7,0,0,1,1.7,1.7v3.32a1.7,1.7,0,0,1-1.7,1.7h-2.22a0,0,0,0,1,0,0v-6.72a0,0,0,0,1,0,0Z" class="cls-19" transform="translate(175.93 -25.91) rotate(47.59)"/><rect width="12.43" height="8.57" x="105.51" y="176.31" class="cls-5" rx=".98" transform="translate(53.73 384.87) rotate(-132.41)"/><rect width="8.87" height="8.1" x="88.78" y="214.74" class="cls-13"/><polyline points="88.78 209.53 88.78 214.74 83.47 214.74" class="cls-5"/><rect width="8.87" height="8.1" x="381.03" y="123.27" class="cls-14"/><polyline points="381.03 118.06 381.03 123.27 375.72 123.27" class="cls-5"/><path d="M140.94,173.34c-92-38.12-162.76,35.3,10.59,147.72,13.65,8.86,34.59,12,34.59,12" class="cls-5"/><circle cx="56.36" cy="175.9" r="2.62" class="cls-6"/><polygon points="39.67 161.51 42.54 158.75 49.14 162.53 52.45 172.76 42.33 168.52 39.67 161.51" class="cls-5"/><polygon points="42.54 158.75 39.67 161.51 38.06 159.56 40.82 156.92 42.54 158.75" class="cls-5"/><line x1="52.45" x2="45.87" y1="172.76" y2="165.53" class="cls-5"/><path d="M68.4,356.34l7.14,36.84a1.48,1.48,0,0,0,1.75,1.16l7.42-1.58a1.47,1.47,0,0,0,1.14-1.69L79.48,354a1.47,1.47,0,0,0-1.77-1.18l-8.19,1.82A1.45,1.45,0,0,0,68.4,356.34Z" class="cls-18"/><polygon points="70.72 357.05 72.76 365.63 79.33 364.66 77.92 355.35 70.72 357.05" class="cls-13"/><polygon points="73.48 368.92 75.08 378.01 81.15 377.02 79.63 367.76 73.48 368.92" class="cls-14"/><polygon points="75.44 381.28 77.48 389.87 82.99 388.84 81.67 380.02 75.44 381.28" class="cls-4"/><polygon points="273.08 448.66 303.29 440.57 304.44 443.84 273.89 451.77 273.08 448.66" class="cls-5"/><line x1="268.89" x2="269.76" y1="444.43" y2="447.17" class="cls-5"/><line x1="268.04" x2="270.59" y1="446.22" y2="445.34" class="cls-5"/><line x1="267.42" x2="269.07" y1="454.9" y2="460.08" class="cls-5"/><line x1="266.02" x2="270.56" y1="458.19" y2="456.74" class="cls-5"/><line x1="260.52" x2="262.66" y1="446.37" y2="453.22" class="cls-5"/><line x1="258.39" x2="264.75" y1="450.63" y2="448.6" class="cls-5"/><polygon points="52.82 120.5 33.7 111.86 34.49 109.68 53.72 118.53 52.82 120.5" class="cls-20"/><line x1="53.2" x2="53.91" y1="124.47" y2="122.67" class="cls-20"/><line x1="54.4" x2="52.71" y1="123.9" y2="123.27" class="cls-20"/><line x1="58.41" x2="59.75" y1="119.65" y2="116.27" class="cls-20"/><line x1="60.53" x2="57.56" y1="118.54" y2="117.37" class="cls-20"/><line x1="58.37" x2="60.16" y1="127.02" y2="122.55" class="cls-20"/><line x1="61.28" x2="57.12" y1="125.71" y2="124.06" class="cls-20"/><path d="M124.26,281.94c-13.48-9.7-26.72-24.78-20.91-40.27,0,0,9.29-6.19,24,1.55L142.07,251Z" class="cls-14"/><path d="M118.15,346.57c-6.07-2.87-31.95-16.35-36.56-39.38-4-19.88,11.24-46.71,18.86-58.57-.49,15.73,15.31,29.05,22.93,34.53a81.52,81.52,0,0,0,21.23,11.22Z" class="cls-3"/><path d="M99.29,253.3c1.65,10.46,9.63,21.29,23.21,31.07a81.33,81.33,0,0,0,20,10.81l-25,49.4c-7.64-3.8-30.21-16.66-34.42-37.68-3.49-17.47,8.35-40.64,16.23-53.6m4.06-11.63S74.7,280.39,80.12,307.49s38.72,41,38.72,41l27.87-55c-8.71-3.19-14.37-5.79-22.45-11.61-13.48-9.7-26.72-24.78-20.91-40.27Z" class="cls-14"/><path d="M95.82,264.17A33.19,33.19,0,0,0,113,288.05" class="cls-5"/><line x1="121.37" x2="136.92" y1="293.61" y2="301.94" class="cls-5"/><path d="M98,286.39s5,11.11,21.1,18.33" class="cls-5"/><path d="M85.26,288.05s.56,11.67,8.34,15.56" class="cls-5"/><path d="M103,247.51s-1.44,15,21.22,34.43" class="cls-5"/><path d="M111.37,250.29s7.22-.56,17.77,7.22" class="cls-5"/><path d="M77.41,298.11c-.46,7.43.47,34.36,39.47,51.54" class="cls-5"/><path d="M326.44,283.13,309.9,316.28s11.22,4.13,2.45,17c0,0,20.74,8.6,34.31-13.73S326.44,283.13,326.44,283.13Z" class="cls-19"/><path d="M288.58,384.45c-8.37,0-17.2-3.42-26.27-10.17L293.25,323l18.41,11.59.12.05a28.44,28.44,0,0,0,10.05,1.74h0a27.7,27.7,0,0,0,16.23-5.13L315.44,370c-.05.07-9.79,14.48-26.86,14.48Z" class="cls-3"/><path d="M293.75,325.1l17,10.71.22.14.23.09a30,30,0,0,0,10.63,1.86,29.56,29.56,0,0,0,12.1-2.54l-19.74,33.77c-.64.94-9.8,13.82-25.6,13.82-7.71,0-15.87-3.05-24.29-9.07l29.45-48.78m52.91-5.56C339,332.16,329,334.9,321.83,334.9a27.08,27.08,0,0,1-9.48-1.63l-19.59-12.33-32.43,53.72C271.19,383,280.66,386,288.59,386c18.12,0,28.15-15.22,28.15-15.22l29.92-51.19Z" class="cls-21"/><path d="M309.9,316.28s12.34,4.36,2.45,17" class="cls-5"/><path d="M292.37,319.78s16.81,15.4,26.11,15.29,20.22-2.31,26.65-13.41" class="cls-5"/><path d="M294.44,339.7s11.53,10.24,24.43,6.95" class="cls-5"/><path d="M306.55,355s6.05,4.53,14.51.24" class="cls-5"/><path d="M278.71,361.32s14,13.89,36,4.73" class="cls-5"/><path d="M286.31,347.77s5.7,4.08,9.27,5.38" class="cls-5"/><path d="M329.28,292.75s12.75,4.17,14.28,21" class="cls-5"/><path d="M335.69,313.54s5.87,9.09-4.05,18.17" class="cls-5"/><path d="M261.51,377.2s32,27.42,55.25-4.64" class="cls-5"/><line x1="30.42" x2="37.88" y1="272.78" y2="272.78" class="cls-22"/><line x1="446.17" x2="453.64" y1="183.02" y2="183.02" class="cls-22"/><line x1="246.03" x2="253.49" y1="131.81" y2="131.81" class="cls-23"/><line x1="460.42" x2="467.77" y1="221.73" y2="223.05" class="cls-23"/><line x1="167.25" x2="174.71" y1="407.95" y2="407.95" class="cls-24"/><circle cx="476.5" cy="314.92" r="2.47" class="cls-19"/><circle cx="12.12" cy="196.29" r="2.47" class="cls-19"/><circle cx="505.26" cy="474.15" r="2.62" class="cls-6"/><path d="M655.28,384.66s20.59-61.31-71.47-25.14C488.1,397.12,449.88,476,465.56,482.2s39-7.82,39-7.82" class="cls-5"/></g></svg>