<svg id="OBJECTS" xmlns="http://www.w3.org/2000/svg" viewBox="0 0 512.37 500"><defs><clipPath id="clip-path"><path style="fill:none" d="M-387.63 0h900v500h-900z"/></clipPath><style>.cls-12,.cls-5{fill:none}.cls-18,.cls-3{fill:#fff}.cls-4{fill:#a0c6f4}.cls-18,.cls-5{stroke:#2a1e17}.cls-12,.cls-18,.cls-5{stroke-linecap:round;stroke-linejoin:round}.cls-6{fill:#2a1e17}.cls-7{fill:#f9865f}.cls-8{fill:#2a1e33}.cls-9{fill:#7595ec}.cls-12{stroke:#2a1e33}.cls-13{fill:#ff6d66}.cls-14{fill:#fad8b0}.cls-19{fill:#91ba83}</style></defs><g style="clip-path:url(#clip-path)"><path class="cls-3" d="M334.3 211.86c-32.4-30.37-70.36-38.21-80.39-39.81 6.76-18.23 17.2-45.33 19.8-49.34a37.47 37.47 0 0 1 5.07-.29c7.37 0 23.15 1.53 46 11.8 32.95 14.83 41.77 31.51 43.51 35.59Z"/><path class="cls-4" d="M278.78 124.42c7.21 0 22.67 1.51 45.15 11.62 29.81 13.42 39.44 28.42 42 33.49l-31.82 39.41A161.08 161.08 0 0 0 280 176.8a149.49 149.49 0 0 0-23.38-6.33c7.47-20.07 15.59-40.73 18.32-45.89.89-.08 2.17-.16 3.83-.16m0-4a33.83 33.83 0 0 0-6.07.42c-2.34.78-21.54 52.84-21.54 52.84s45.57 4.65 83.32 41.12l36-44.62s-6-20.26-45-37.78c-22.83-10.27-38.74-12-46.79-12Z"/><path class="cls-5" d="M257.86 177.73s44.81 4.52 72.41 29.87"/><path class="cls-4" d="m296.55 175.54 16.71-32.5 17.18 33.9-33.89-1.4z"/><path class="cls-5" d="m299.8 175.08 16.71-32.5 17.18 33.89-33.89-1.39zm-15.69-56.64s50.23 4.53 81.46 41.64"/><path class="cls-6" d="M309.78 262.46c-2.76-2-4.57-3.39-4.57-3.39.76-1 12.85-13.89 19.85-24.27 0 0-14.16 28.49-15.28 27.66Z"/><path class="cls-5" d="M138.49 168.59c1.35 2.25 1.95 1.35 5.83 1s9.43 2.54 11.37 7.33 1.35 5.53.3 6.13-8.52 1.5-8.82 3"/><path class="cls-7" d="m239.26 412.05-3.48-5.89-12.37 20.61 3.25 2.5 12.6-17.22zM157.17 361s-6.41-10.41-3.66-15.52l20.49 2.14Z"/><path d="m157.17 361 1.22 2.82-3.77 14.72a5 5 0 0 0 1.59 5.07l18.69-27.63a6.44 6.44 0 0 0-1-8.31l-4.18-3.88Z"/><path class="cls-8" d="M147.17 186.09c5.85-.14 13.27-.51 11.78-5s-7-15.57-19.65-12.24c0 0-4.45 3.71 1.11 10.39s6.76 6.85 6.76 6.85Z"/><path class="cls-9" d="M176.79 347.87s-10-29.5-1.54-42.45c7-10.69 29.78 6.69 32.9 9L224.46 285s-3.76-5.28-13-10.45-47.46-20.65-65.39 7.67c-6.63 10.46-6.73 55.37 6 72.58Z"/><path class="cls-5" d="M176.79 347.87s-10-29.5-1.54-42.45c7-10.69 29.78 6.69 32.9 9"/><path class="cls-9" d="M224.46 285c-7.42 7.81-29.41 45.85-34.36 64-6.61 24.32-4.12 44.49 32.24 84l17.57-25.6s-12.36-18.76-10-36.45c3.34-25.59 21.55-50.4 30.76-66.14Z"/><path class="cls-6" d="m227.25 288.31 29.24 22.94 8.74-13.28-37.98-9.66z"/><path d="M395.17 264.18q6.84 1.47 10.42 5.21c2.39 2.5 1.31 3.8.44 4.56s-4.24-.11-7.17-2.71-3.69-7.06-3.69-7.06Z" style="fill:#ff8a66"/><path class="cls-7" d="M305.21 259.07c.76-1 12.85-13.89 19.85-24.27 0 0 21.15 23.7 23.45 24.47.85.28 6 .21 12.48.15 10.88-.12 25.35-.23 28.55 1.38 5.1 2.54 8.16 3.82 9.43 7.39s1.78 5.9-1.27 6.11c-3.57.26-5.86-4.33-5.86-4.33a71.81 71.81 0 0 1-10.45 4.59s-27.11 10.52-45.23 5.43c-4.95-1.39-30.95-20.92-30.95-20.92ZM140.88 164.4c-2.32.89-3.74 1.95-2.39 4.19s1.95 1.35 5.83 1 9.43 2.54 11.37 7.33 1.35 5.53.3 6.13-8.52 1.5-8.82 3 3 5.91 9.91 5.62l1.64-.3s14.47 14.13 16.57 16.22 17.48 12.52 26 14.64c6.44 1.61 19.5-.46 27.34-2 3.81-.75 6.4-1.36 6.4-1.36s-5.93-10.56-7.13-26.87c0 0-14.08 2.26-23.44 4.32 0 0-21.84-12.18-32.46-17.57 0 0-9.28-11.36-13.61-12.86s-14.39-2.68-17.51-1.49Z"/><path class="cls-6" d="M228.59 220.28c3.81-.75 6.4-1.36 6.4-1.36s-7.13-9-8.32-25.28c0 0-3.22 3.47-2.22 12.7 1.26 11.66 4.14 13.94 4.14 13.94Z"/><path d="M226.32 191.81s.2 19.93 5.54 28.24l1.91-.77s-25.15 29.43-33.29 48.66c-1.33 3.15 52.23 37.36 60.14 36.88 0 0 26.1-39.83 35-51.64l9.6 7.44s18.81-19.06 19.82-25.82c0 0-18.17-22.11-33-28.59S263.87 188.65 247.9 189c-13.82.21-21.58 2.81-21.58 2.81Z" style="fill:#fff7c9"/><path class="cls-6" d="m305.24 260.62-9.6-7.44 1.53-4.16 8.07 11.6z"/><path class="cls-7" d="M319.83 181.83c-1.68 5.23-6.53 20.34-11.94 22.2s-11.05-.47-11.05-.47l-5.76 2.94c-.64 1.93-5.19 3.59-11.06 3.82-4.35.17-7-5.42-5.71-9.46.59-1.86 2.8-11 2.8-11s4.66-17.16 8.95-20.7 8.32-7.06 19.77-2.43c17.54 7.08 14 15.1 14 15.1Z"/><path class="cls-8" d="M285.06 182.58c-.77 3.2-4.1 9.62-6.29 8.46s-2.95-4.1-1.41-9.75 2.83-18.47 7.19-20.78 6.29.38 6.29.38-1.93-9.36 3.72-10.65c0 0 1.92-.89 1.15 5.52a8.59 8.59 0 0 1 9.24-5.13c7.05.77 9.49 10.65 9.49 10.65a3.57 3.57 0 0 1 3.72-2.7c3.21 0 8.09 4.75 6.93 10 0 0 8.21-2.57 12.57 4s3.85 13.73-6.67 16.55c-11 2.95-10.9-9.88-12.57-11.55s-3.42-3.58-9.62-1.29-12.58-4.49-12.58-4.49-1 8.21-2.05 9-3.08 1.8-2.57-2.05 1.16-3.47.77-4.49-2.12-4.27-5.77-1.41c-4.1 3.15-1.54 9.73-1.54 9.73Z"/><path class="cls-12" d="M286.81 184c-2.45-2-4.15-5.68-2-9.3s5.68-4.11 6.75-2.74 1.5 3.68.48 6.42"/><path d="m226.66 429.27 1.22 2.81-3.77 14.72a5 5 0 0 0 1.59 5.07l18.69-27.63a6.44 6.44 0 0 0-.95-8.31l-4.18-3.88Z"/><path class="cls-12" d="M290.84 160.89s-1.44-4.65-5.73-5.88"/><path class="cls-5" d="m199.9 266.53 51.78-72.33m21.32 5.06c-1.86 2.43-2.72 12.87 5.87 13.54a23.22 23.22 0 0 0 14.13-3.09M158.39 165.9s5.91 7.83 6.84 10.62M380 270.93s3.95 3.25 11.83-1c2.85-1.53.82-5.14-2.8-4.24s-7.9-.45-7.9-.45m15.4-.61s3.79 4.43 3.69 7.06m-59.53-7.54s3.43-4.57 7.82-4.88M196 203.71s2-6.24 8.42-7.38m9.01 102.06L205.77 313s-25.24 42.71-16.67 70.31m46.69-35.92 24.83-42.57s32.55-47.21 35.88-53.82l11.5-21.3m-104.64 41.37s44.17 32.2 57.26 33.75m-34.3-113.01s0 20.21 5.41 28.49m91.91 11.3c-1.39 8.32-19.82 25.81-19.82 25.81"/><circle class="cls-6" cx="186.08" cy="332.7" r="2.62"/><path class="cls-5" d="m432.12 389.05-1.45-10.03 8.56 5.69-4.48.98-2.63 3.36zM148.38 217.82c-16.21-14.31-43 21.36 55 134.9 56.55 65.5 101 71.37 107 48.58 10.8-40.88-28.19-51.21-13.68-35.2 21.1 23.28 81.11 28.2 125.84 6.48 44.13-21.44 17-54.73 14.26-56.68"/><circle class="cls-6" cx="423.27" cy="372.37" r="2.62"/><path class="cls-5" d="m385.11 393.78 77.74-43.82"/><circle class="cls-6" cx="150" cy="219.94" r="2.62"/><circle class="cls-13" cx="216.87" cy="165.8" r="5.63"/><path class="cls-4" d="M114.78 122.88a2.48 2.48 0 1 0 2.47 2.48 2.48 2.48 0 0 0-2.47-2.48Z"/><circle class="cls-14" cx="446.17" cy="427.59" r="2.47"/><path class="cls-8" d="m402 315.89-26.6-12.47a2.76 2.76 0 0 1 .06-5l49.46-21.76a2.72 2.72 0 0 1 2.2 0l34 14.58Z"/><path d="M400.34 274.89c.06 11 1.64 41 1.64 41l59.12-24.69-1.33-41.75a3.59 3.59 0 0 0-5.08-3.16l-50.89 23.2a5.87 5.87 0 0 0-3.46 5.4Z" style="fill:#c6cbcb"/><path class="cls-5" d="m402 315.89 59.1-24.69-1.33-41.75s-.39-4.56-5.08-3.16m-24.09 39.59 3.99-9.43m0 9.43 3.99-9.43"/><circle class="cls-13" cx="125.44" cy="386.31" r="2.47"/><circle class="cls-13" cx="333.97" cy="398.57" r="3.44"/><path d="M151.07 423a73.37 73.37 0 0 0 31.23 6.7 1.42 1.42 0 0 1 1.4 1.59l-2.16 17.12a1.41 1.41 0 0 1-1.14 1.21c-4.38.83-22 3.25-35.22-8a1.4 1.4 0 0 1-.44-1.43l4.36-16.33a1.41 1.41 0 0 1 1.97-.86Z" style="fill:#fff7dc"/><path class="cls-5" d="M152.62 428s7.62 10.71 10.34 12.25 17.4-7.22 17.4-7.22m-10.21 5.74 8.01 8.23m-19.14-9.82-9.36 2.55"/><path style="fill:#ffe1c0" d="M387.37 220.39h8.95v8.95h-8.95z"/><path class="cls-4" d="m388.58 341.09 2.66 4.6 2.66 4.61h-10.64l2.66-4.61 2.66-4.6z"/><path class="cls-5" d="m173.52 137 .7-20.92c-.08-2 .72-2.57 1.92-2.84 5.68-1.25 23-5.1 41.73.45 2.43.72 2.35 2 2.31 3.16l-.67 19.94a2.69 2.69 0 0 1-3.28 2.27 146 146 0 0 0-20.52-1 116.44 116.44 0 0 0-19.71 1.61c-1.83.33-2.53-1.03-2.48-2.67Z"/><path class="cls-5" d="m179.84 134 10.94-12.8 12.1 11.95c-4.18-1.41-23.04.85-23.04.85Zm17.64-6.92 8.83-7.08 7.45 5.32.28 8.31-11.16-.53"/><ellipse class="cls-5" cx="182.46" cy="119.99" rx="1.83" ry="2.15" transform="rotate(-84.23 182.452 119.997)"/><path class="cls-5" d="m384.92 408.71 7.33 13.54c.77 1.21.5 1.9-.17 2.52-3.14 2.91-12.68 11.77-26.67 15.23-1.81.45-2.24-.4-2.64-1.15l-7-12.91a2 2 0 0 1 1.24-2.67 105.3 105.3 0 0 0 13.4-7 85.23 85.23 0 0 0 11.92-8.27c1.05-1 2.01-.35 2.59.71Z"/><path class="cls-5" d="m382 413-2.19 12.19-12.12-3.09c3.19-.68 14.31-9.1 14.31-9.1Z"/><path class="cls-5" d="m373.39 423.92-2.98 7.78-6.71-.61-3.26-5.17 7.29-3.81"/><ellipse class="cls-5" cx="385.56" cy="422.84" rx="1.58" ry="1.34" transform="rotate(-24.56 385.641 422.885)"/><path class="cls-18" d="m349.22 177.53 29.78 22.8a1.47 1.47 0 0 0 2.08-.29l4.5-6.1a1.46 1.46 0 0 0-.27-2L356 168.41a1.47 1.47 0 0 0-2.11.29l-4.92 6.8a1.46 1.46 0 0 0 .25 2.03Z"/><path class="cls-13" d="m351.42 176.51 7.23 5.07 4.26-5.09-7.22-6.02-4.27 6.04z"/><path class="cls-14" d="m361.37 183.56 7.23 5.74 3.88-4.77-7.28-5.91-3.83 4.94z"/><path class="cls-4" d="m371.04 191.5 7.22 5.07 3.44-4.42-6.84-5.73-3.82 5.08z"/><path class="cls-18" d="m408.67 145.65 6.79 57a2.25 2.25 0 0 0 2.54 2l11.5-1.58a2.24 2.24 0 0 0 1.93-2.45l-5.57-57.34a2.25 2.25 0 0 0-2.57-2l-12.71 1.86a2.25 2.25 0 0 0-1.91 2.51Z"/><path class="cls-13" d="m412.14 146.98 2.15 13.34 10.14-.75-1.1-14.37-11.19 1.78z"/><path class="cls-19" d="m415.03 165.42 1.42 14.07 9.38-.83-1.29-14.31-9.51 1.07z"/><path class="cls-14" d="m416.63 184.52 2.15 13.35 8.53-.95-1.02-13.63-9.66 1.23z"/><path class="cls-18" d="m393.85 157.79 18.8 55.27a1.79 1.79 0 0 0 2.3 1.11l11.78-4.24a1.8 1.8 0 0 0 1.1-2.23l-17.65-55.81a1.8 1.8 0 0 0-2.34-1.14l-12.92 4.79a1.77 1.77 0 0 0-1.07 2.25Z"/><path class="cls-4" d="m397.67 158.8 4.88 12.61 9.75-2.85-4.06-13.82-10.57 4.06z"/><path class="cls-7" d="m404.32 176.24 4.32 13.47 9-2.77-4.24-13.73-9.08 3.03z"/><path class="cls-14" d="m409.86 194.59 4.88 12.6 8.15-2.7-3.83-13.11-9.2 3.21z"/><rect class="cls-9" x="151.72" y="227.6" width="105.91" height="23.81" rx="5.48"/><rect class="cls-3" x="163" y="234.61" width="55.38" height="3.62" rx="1.81"/><path class="cls-5" d="M163.52 242.93h87.99"/><path class="cls-19" d="M115.39 183.17h2.22a1.7 1.7 0 0 1 1.7 1.7v3.32a1.7 1.7 0 0 1-1.7 1.7h-2.22v-6.72Z" transform="rotate(47.59 117.345 186.536)"/><rect class="cls-5" x="105.51" y="176.31" width="12.43" height="8.57" rx=".98" transform="rotate(-132.41 111.719 180.589)"/><path class="cls-13" d="M88.78 214.74h8.87v8.1h-8.87z"/><path class="cls-5" d="M88.78 209.53v5.21h-5.31"/><path class="cls-14" d="M381.03 123.27h8.87v8.1h-8.87z"/><path class="cls-5" d="M381.03 118.06v5.21h-5.31m-234.78 50.07c-92-38.12-162.76 35.3 10.59 147.72 13.65 8.86 34.59 12 34.59 12"/><circle class="cls-6" cx="56.36" cy="175.9" r="2.62"/><path class="cls-5" d="m39.67 161.51 2.87-2.76 6.6 3.78 3.31 10.23-10.12-4.24-2.66-7.01z"/><path class="cls-5" d="m42.54 158.75-2.87 2.76-1.61-1.95 2.76-2.64 1.72 1.83zm9.91 14.01-6.58-7.23"/><path class="cls-18" d="m68.4 356.34 7.14 36.84a1.48 1.48 0 0 0 1.75 1.16l7.42-1.58a1.47 1.47 0 0 0 1.14-1.69L79.48 354a1.47 1.47 0 0 0-1.77-1.18l-8.19 1.82a1.45 1.45 0 0 0-1.12 1.7Z"/><path class="cls-13" d="m70.72 357.05 2.04 8.58 6.57-.97-1.41-9.31-7.2 1.7z"/><path class="cls-14" d="m73.48 368.92 1.6 9.09 6.07-.99-1.52-9.26-6.15 1.16z"/><path class="cls-4" d="m75.44 381.28 2.04 8.59 5.51-1.03-1.32-8.82-6.23 1.26z"/><path class="cls-5" d="m273.08 448.66 30.21-8.09 1.15 3.27-30.55 7.93-.81-3.11zm-4.19-4.23.87 2.74m-1.72-.95 2.55-.88m-3.17 9.56 1.65 5.18m-3.05-1.89 4.54-1.45m-10.04-10.37 2.14 6.85m-4.27-2.59 6.36-2.03"/><path d="m52.82 120.5-19.12-8.64.79-2.18 19.23 8.85-.9 1.97zm.38 3.97.71-1.8m.49 1.23-1.69-.63m5.7-3.62 1.34-3.38m.78 2.27-2.97-1.17m.81 9.65 1.79-4.47m1.12 3.16-4.16-1.65" style="stroke-width:.67px;stroke-linecap:round;stroke-linejoin:round;stroke:#2a1e17;fill:none"/><path class="cls-14" d="M124.26 281.94c-13.48-9.7-26.72-24.78-20.91-40.27 0 0 9.29-6.19 24 1.55l14.72 7.78Z"/><path class="cls-3" d="M118.15 346.57c-6.07-2.87-31.95-16.35-36.56-39.38-4-19.88 11.24-46.71 18.86-58.57-.49 15.73 15.31 29.05 22.93 34.53a81.52 81.52 0 0 0 21.23 11.22Z"/><path class="cls-14" d="M99.29 253.3c1.65 10.46 9.63 21.29 23.21 31.07a81.33 81.33 0 0 0 20 10.81l-25 49.4c-7.64-3.8-30.21-16.66-34.42-37.68-3.49-17.47 8.35-40.64 16.23-53.6m4.06-11.63s-28.67 38.72-23.25 65.82 38.72 41 38.72 41l27.87-55c-8.71-3.19-14.37-5.79-22.45-11.61-13.48-9.7-26.72-24.78-20.91-40.27Z"/><path class="cls-5" d="M95.82 264.17A33.19 33.19 0 0 0 113 288.05m8.37 5.56 15.55 8.33M98 286.39s5 11.11 21.1 18.33m-33.84-16.67s.56 11.67 8.34 15.56m9.4-56.1s-1.44 15 21.22 34.43m-12.85-31.65s7.22-.56 17.77 7.22m-51.73 40.6c-.46 7.43.47 34.36 39.47 51.54"/><path class="cls-19" d="m326.44 283.13-16.54 33.15s11.22 4.13 2.45 17c0 0 20.74 8.6 34.31-13.73s-20.22-36.42-20.22-36.42Z"/><path class="cls-3" d="M288.58 384.45c-8.37 0-17.2-3.42-26.27-10.17L293.25 323l18.41 11.59.12.05a28.44 28.44 0 0 0 10.05 1.74 27.7 27.7 0 0 0 16.23-5.13L315.44 370c-.05.07-9.79 14.48-26.86 14.48Z"/><path d="m293.75 325.1 17 10.71.22.14.23.09a30 30 0 0 0 10.63 1.86 29.56 29.56 0 0 0 12.1-2.54l-19.74 33.77c-.64.94-9.8 13.82-25.6 13.82-7.71 0-15.87-3.05-24.29-9.07l29.45-48.78m52.91-5.56C339 332.16 329 334.9 321.83 334.9a27.08 27.08 0 0 1-9.48-1.63l-19.59-12.33-32.43 53.72C271.19 383 280.66 386 288.59 386c18.12 0 28.15-15.22 28.15-15.22l29.92-51.19Z" style="fill:#96bd89"/><path class="cls-5" d="M309.9 316.28s12.34 4.36 2.45 17"/><path class="cls-5" d="M292.37 319.78s16.81 15.4 26.11 15.29 20.22-2.31 26.65-13.41m-50.69 18.04s11.53 10.24 24.43 6.95M306.55 355s6.05 4.53 14.51.24m-42.35 6.08s14 13.89 36 4.73m-28.4-18.28s5.7 4.08 9.27 5.38m33.7-60.4s12.75 4.17 14.28 21"/><path class="cls-5" d="M335.69 313.54s5.87 9.09-4.05 18.17m-70.13 45.49s32 27.42 55.25-4.64"/><path d="M30.42 272.78h7.46m408.29-89.76h7.47" style="stroke:#ff6d66;stroke-linecap:round;stroke-linejoin:round;fill:none"/><path d="M246.03 131.81h7.46m206.93 89.92 7.35 1.32" style="stroke:#fad8b0;stroke-miterlimit:10;fill:none"/><path style="stroke:#a0c6f4;stroke-linecap:round;stroke-linejoin:round;fill:none" d="M167.25 407.95h7.46"/><circle class="cls-19" cx="476.5" cy="314.92" r="2.47"/><circle class="cls-19" cx="12.12" cy="196.29" r="2.47"/><circle class="cls-6" cx="505.26" cy="474.15" r="2.62"/><path class="cls-5" d="M655.28 384.66s20.59-61.31-71.47-25.14C488.1 397.12 449.88 476 465.56 482.2s39-7.82 39-7.82"/></g></svg>