<svg xmlns="http://www.w3.org/2000/svg" viewBox="0 0 2710 1469.43"><defs><style>.cls-2{fill:#fae0b2}.cls-3{fill:#f7a491}.cls-4{fill:#07345a}.cls-6{fill:#50bfa5}.cls-21,.cls-7{fill:#f47458}.cls-23,.cls-8{fill:#fff}.cls-9{fill:#13375b}.cls-10{fill:#184655}.cls-11{fill:#355389}.cls-12{fill:#466eb6}.cls-13{fill:#f7cc7f}.cls-15{fill:#f79c8d}.cls-16{fill:#0c2335}.cls-17{fill:#86b1f2}.cls-18{fill:#9bc1f9}.cls-20{fill:#b75742}.cls-21{opacity:.6;mix-blend-mode:multiply}.cls-23{opacity:.1}</style></defs><g style="isolation:isolate"><g id="Layer_1" data-name="Layer 1"><path class="cls-2" d="M545.05 441.05c-4.19-19-8.29-38.19 2.75-59.1 8.93-16.93 24.38-26.66 42.25-28.78 50.64-6 39.82 41.27 110.6 51.5 22 3.18 42.43 6.24 60.79 17.18 33.16 19.75 45.68 51.43 23.69 103-53.85 126.39-182.69 16.56-202.34-5.8-19.5-22.13-35.04-65.75-37.74-78Z"/><path class="cls-3" d="M2086.94 367.24c.3-1.32.56-2.45.76-3.28a56.47 56.47 0 0 1 5.85-14.59c2.12-3.9 5.76-10.63 5.86-14 .06-2.15.44-7.95.65-11.05s.58-6.72.49-8.38a16 16 0 0 1 1.28-4.64 2.66 2.66 0 0 0-3.65-3.35c-2 1-3.3 4-4.08 5.9-2.2 5.28-2.47 14.39-3.26 14s-5.48-15.08-6.13-16.73-6.19-18.72-8.37-21.68-4.37-2.09-4.69 0c-.27 1.8 5.65 25.95 5.65 25.95s.75 3.09-.76 2.31-6.93-22.71-8.35-25.83-3.83-4.53-5.3-1.65c-1.78 3.5 5.44 26.54 5.44 26.54s.86 2.91-.45 2.81-5.6-18.82-6.82-20.32-3.8-1.73-4.59 1.17c-.94 3.42 5.69 23.94 5.69 23.94s.06 1.7-.81 1.25-5.68-16.14-7.52-17.4a1.75 1.75 0 0 0-2.52.32c-2.71 2.48 4.07 17.1 5.11 24.71s5.79 15.64 6 24.83c0 1.43 3.22 18.16 3 19.95Zm247.35-25.76-.2-3.36a57 57 0 0 0-3.34-15.35c-1.45-4.21-3.92-11.44-3.44-14.83.29-2.13.88-7.91 1.19-11s.55-6.73.91-8.34a15.86 15.86 0 0 0-.49-4.79 2.65 2.65 0 0 1 4.15-2.69c1.84 1.34 2.59 4.51 3 6.49 1.29 5.57 0 14.6.88 14.37s7.92-14 8.83-15.48 9.22-17.43 11.86-20 4.66-1.33 4.62.78c0 1.82-9.89 24.66-9.89 24.66s-1.25 2.91.37 2.39 10.61-21.23 12.53-24.07 4.53-3.84 5.5-.75c1.18 3.75-9.78 25.27-9.78 25.27s-1.33 2.72 0 2.84 8.66-17.63 10.12-18.9 4-1.08 4.33 1.92c.35 3.53-9.6 22.65-9.6 22.65s-.34 1.67.59 1.38 8.28-15 10.31-15.91a1.76 1.76 0 0 1 2.44.74c2.25 2.89-6.87 16.18-9.16 23.5s-8.31 14.46-10.08 23.49c-.27 1.4-6.2 17.36-6.28 19.17Z"/><path class="cls-4" d="M2182.21 413.37s14.71-15.51 26.55 3.36c0 0 9.11-5.12 15.51 4 0 0 16.47-5 20.47 19.67 0 0 8.48-1.6 9.6 8.48a24.9 24.9 0 0 1-4 16.79s4.76 3.57 2.6 12.84c-1.84 7.88-8.36 9.07-8.36 9.07s-1.76 13.28-7.51 17.28-13.6 2.08-13.6 2.08-2.08 7.19-8.8 6.55-15-7-22.55-4.15-27-.16-27-.16-21.91-9.76-15.35-32.15c0 0-11.52-10.4-1.44-22.87 0 0-7.36-19.51 7.2-31s26.68-9.79 26.68-9.79Z"/><path d="m2146.44 531.79 37.53 5.15s30.09.74 33.81.74 27.29 136.89 34.11 188.42 1.54 60.64 1.54 60.64-47.58 10.7-82.78 7.58c-36.61-3.24-77.79-23-77.79-23s31.29-99 37.49-129.92 16.09-109.61 16.09-109.61Z" style="fill:#d0e3f7"/><path class="cls-6" d="M2055.45 366s-2.45 102 1.43 109.83c5.6 11.35 68.62 91.88 68.62 91.88s-30.1 126-42.76 169.48c-1.27 4.38-6.92 32.68-6.92 35.44 0 6.12 26.64 13.88 29.8 13.42 2.83-.41 26.06-120.24 40.89-178.88a167.84 167.84 0 0 1 25.49-55.41l10.32-14.65-79.17-79.35s-9.76-88.33-9.76-95.65c-.04-1.92-34.11-3.36-37.94 3.89Zm160.97 171.49 98.72-100.59s13.75-95.12 14.73-98.7 25.48-5.42 35.36-6.39c3.17-.31-1.66 101.32-6.38 118.35-5.59 20.13-80.21 111.81-80.21 111.81s-13.37 49.67-10.15 86.09c5.35 60.51 19.77 143.73 17.19 146.34-16 10.11-77.62 11.19-81.52 4.91-43.04-69.31 12.26-261.82 12.26-261.82Z"/><path class="cls-3" d="m2184.69 518.7-2.69 19.76s-6 28.47 1.71 34 32.64-34.77 32.64-34.77l-2.63-50.07Z"/><path class="cls-7" d="M2214.6 503.8c-6.34 17.08-21.45 27.58-32.17 31.65l2.26-16.75 29.06-31.12Z"/><ellipse class="cls-4" cx="2244.91" cy="453.55" rx="9.69" ry="13.81"/><path class="cls-4" d="M2225.54 423.86c0 4.39-5.28 7.94-11.79 7.94s-11.78-3.55-11.78-7.94 5.27-7.93 11.78-7.93 11.79 3.55 11.79 7.93Z"/><path class="cls-3" d="M2196 435a26.41 26.41 0 0 0-34.56 21 199.33 199.33 0 0 0-2.15 25.36c-.42 23.08 11.53 45.54 22 45.54s39.45-14.94 40.5-47.71c.66-20.19-9.44-38.59-25.79-44.19Z"/><path class="cls-3" d="M2214.08 481.79c0 5.1 3.38 9.22 7.54 9.22s7.54-4.12 7.54-9.22-3.37-9.21-7.54-9.21-7.54 4.12-7.54 9.21Z"/><path class="cls-4" d="M2150.6 423.49c-10.82 8.57-14.62 21.6-8.47 29.1s19.9 6.63 30.73-1.95 14.62-21.61 8.47-29.1-19.9-6.63-30.73 1.95Z"/><path class="cls-4" d="M2178.9 430.52c0 3.73 4.51 6.75 10.06 6.75s10.05-3 10.05-6.75-4.5-6.75-10.05-6.75-10.06 3.02-10.06 6.75ZM2149 459.2a8.58 8.58 0 1 0 8.58-8.68 8.63 8.63 0 0 0-8.58 8.68Z"/><path class="cls-8" d="m2170.77 497.74 23.13-.38s-.39 8.8-10.56 9.26c-12.34.56-12.57-8.88-12.57-8.88Z"/><path class="cls-7" d="M2195 751.26a15.13 15.13 0 0 0 3.4-9.57 15.16 15.16 0 0 0-15.16-15.16h-77.95a15.15 15.15 0 0 0-15.15 15.16 15.13 15.13 0 0 0 3.4 9.57Z"/><path class="cls-9" d="M2081.46 738.48h123.37a4.38 4.38 0 0 1 4.38 4.38v5.18h-132.14v-5.18a4.38 4.38 0 0 1 4.39-4.38Z"/><path class="cls-10" d="M2039.51 693.89h4.67v59.76h-4.67z"/><path class="cls-9" d="m2015.85 730.94-2.44-1.68a5.43 5.43 0 0 1-1.39-7.55l43.79-63.5a5.44 5.44 0 0 1 7.56-1.39l2.44 1.69a5.43 5.43 0 0 1 1.39 7.55l-43.79 63.5a5.43 5.43 0 0 1-7.56 1.38Z"/><rect class="cls-11" x="2044.98" y="654.89" width="21.37" height="31.43" rx="8.39" transform="rotate(34.6 2055.522 670.489)"/><path class="cls-10" d="M2078.2 667.82a17 17 0 1 1-4.33-23.61 17 17 0 0 1 4.33 23.61Z"/><path class="cls-7" d="m1907.86 330.12 7.27-2s7.47-9.2 7.14-11.7-3.15-7.27-1.88-8.27a4.93 4.93 0 0 1 6.89.45c2 2 3 10.8 4 11.16.62.22 4.84-.8 7.9-1.6a5.59 5.59 0 0 1 5.55 1.67 3 3 0 0 1 .21 3.75l-1.29 1.77 1.72 1.38a3 3 0 0 1 .46 4.18l-1 1.3 1.14.78a3 3 0 0 1 .56 4.41l-.94 1.09.25.27a3 3 0 0 1 0 4l-1 1.05-19.38 5.27a13.77 13.77 0 0 1-5.57.34l-7.12.73a1.55 1.55 0 0 1-1.66-1.16l-4.35-17a1.55 1.55 0 0 1 1.1-1.87Z"/><path class="cls-6" d="m1468.34 310.33 6.16-14.26-8.25-13.17a2.13 2.13 0 0 1 2-3.26l15.47 1.45 10-11.92a2.13 2.13 0 0 1 3.72.9l3.4 15.16 14.42 5.8a2.13 2.13 0 0 1 .29 3.82l-13.36 7.92-1.06 15.5a2.13 2.13 0 0 1-3.54 1.46l-11.66-10.27-15.07 3.79a2.14 2.14 0 0 1-2.52-2.92Z"/><path class="cls-12" d="m926.83 294.33-6.62 14.88-25.12-8.01-12.36 20.56-19.78-2.92-1.47 10.01 26.44 3.91 11.72-19.49 26.13 8.34 9.96-22.39-8.9-4.89z"/><path class="cls-13" d="m1298.71 210.7-11.25-18.69-18.07 9.31-11.89-17.92-18.36 6.77-11.09-11.96-6.05 5.61 14.83 16 17.4-6.42 12.37 18.65 17.77-9.16 10.19 16.94 4.15-9.13z"/><path class="cls-11" d="m1737.57 185.94 3.83-7.65 18.68 9.37 8.8-26.72 8.13 2.67-11.9 36.14-27.54-13.81z"/><path d="m521.47 259.75 8.31-13.5-6.67-2.7a2.86 2.86 0 0 1-1.58-3.72 2.86 2.86 0 0 1 3.72-1.57l7.69 3.12 7.43-12.12-7.12-2.89a2.85 2.85 0 0 1-1.58-3.71 2.86 2.86 0 0 1 3.72-1.57l8.15 3.3 8.62-13.87a2.86 2.86 0 0 1 3.5-1.14l1.24.5a2.86 2.86 0 0 1 1.36 4.14l-8 13.09 11.81 4.79 8.61-13.9a2.86 2.86 0 0 1 3.49-1.13l1.36.55a2.85 2.85 0 0 1 1.36 4.13l-8 13.09 6.67 2.71a2.86 2.86 0 0 1 1.57 3.72 2.85 2.85 0 0 1-3.71 1.57l-7.7-3.12-7.31 12.16 7.13 2.89a2.86 2.86 0 0 1 1.57 3.72 2.86 2.86 0 0 1-3.72 1.57l-8.15-3.31-8.81 14.31a2.84 2.84 0 0 1-3.5 1.15l-1.45-.59a2.85 2.85 0 0 1-1.36-4.14l8.31-13.49-11.84-4.79-8.81 14.31a2.86 2.86 0 0 1-3.5 1.15l-1.45-.59a2.85 2.85 0 0 1-1.36-4.12Zm30.1-10.81 7.43-12.12-11.81-4.82-7.43 12.12Z" style="fill:#f48c7f"/><path class="cls-12" d="m2178.52 295.92 5.87-9.54-4.71-1.91a2 2 0 0 1-1.11-2.62 2 2 0 0 1 2.62-1.11l5.44 2.2 5.24-8.56-5-2a2 2 0 0 1-1.11-2.63 2 2 0 0 1 2.62-1.11l5.76 2.34 6.1-9.81a2 2 0 0 1 2.46-.8l.88.35a2 2 0 0 1 1 2.93l-5.67 9.25 8.34 3.38 6.1-9.8a2 2 0 0 1 2.47-.81l1 .39a2 2 0 0 1 1 2.92l-5.82 9.22 4.71 1.91a2 2 0 0 1 1.11 2.62 2 2 0 0 1-2.62 1.11l-5.44-2.2-5.16 8.59 5 2a2 2 0 0 1 1.11 2.63 2 2 0 0 1-2.63 1.11l-5.75-2.33-6.23 10.11a2 2 0 0 1-2.47.81l-1-.42a2 2 0 0 1-1-2.92l5.87-9.54-8.34-3.38-6.16 10.15a2 2 0 0 1-2.47.81l-1-.42a2 2 0 0 1-1.01-2.92Zm21.27-7.64 5.25-8.56-8.35-3.39-5.25 8.56Z"/><path class="cls-13" d="m2365.08 186.05-5.04 8.91-12.28-1.78-8.65 12.66-10.03.47-1.83 5.68 13.41-.63 8.2-11.99 12.77 1.85 7.59-13.41-4.14-1.76z"/><path class="cls-3" d="M796.33 581.25c-.44-1-.23-3.31-.75-4.29-6.89 2.3-16.29 14.63-17.11 13.55-1.06-1.41.47-5.83 1.22-7.19s1.5-3 2.26-4.38a3 3 0 0 0-1.27-4.1c-1.62-1.06-5.8 3.72-6.92 5.65-3.45 6-9.44 23.82-10.22 25.89l-75.87 38S677.5 621.8 669.27 601c-3.32 2.52-6.25 3.69-8.08 2.24-3.67-2.9-23.5-13.37-41.38-24.53a486.78 486.78 0 0 0 22.73 59.22c12.1 25.8 33.05 57.06 38.81 56 6.58-1.26 90.85-64 90.86-64.05s15.79-7.68 21.85-10.18a52.76 52.76 0 0 0 13-8.23c-6.16-9.2-6.92-19.87-10.73-30.22Z"/><path class="cls-9" d="m806.31 625.75-3.55 1.9a5.5 5.5 0 0 1-7.44-2.25l-39.93-74.58a5.52 5.52 0 0 1 2.25-7.45l3.55-1.9a5.5 5.5 0 0 1 7.44 2.26l39.93 74.58a5.49 5.49 0 0 1-2.25 7.44Z"/><rect class="cls-11" x="755.87" y="540.4" width="23.22" height="34.14" rx="8.5" transform="rotate(-28.17 767.402 557.433)"/><path class="cls-10" d="M776 534.32a18.44 18.44 0 1 1-25-7.55 18.43 18.43 0 0 1 25 7.55Z"/><path class="cls-3" d="m763.85 606.41 10 22.62c3.83-1.84 13.47-6.45 18.85-8.76L778 590.2l.12-1.31a7.48 7.48 0 0 1 .1-1 16.57 16.57 0 0 1 1.48-4.55c.75-1.36 1.5-3 2.26-4.38a3 3 0 0 0-1.27-4.1c-1.62-1.06-5.8 3.72-6.92 5.65-3.36 5.85-9.13 22.89-10.15 25.69Z"/><path class="cls-3" d="M790.3 609.65a6.17 6.17 0 0 0 6.84 4.52c5.82-.84 15.29-3.36 15.28-10.82 0-10.76-14.7-29.09-17.59-26.17s-11 24-7.46 26.69c2.02 1.54 2.35 3.57 2.93 5.78Z"/><path class="cls-15" d="M669.25 1321.15c-6-4.39-10.75-7.28-29.75-16.49-1.23-.6-5.74-3.48-7.37-4.47a57.39 57.39 0 0 1-11.83-10.48c-3.41-3.8-5-16-5.8-25.68 2-21.68 33.37-369.34 40-407 6.84-38.85-3.58-98.11-3.58-98.11l-24.25-9.15-46 159.55 3.63 121.45s-10.83 35-12.2 55.93 15.65 190.72 15.65 190.72a89.48 89.48 0 0 1-.91 15c-1.25 6.35-8.21 19.42-5 25.4s6.84 7.47 6.84 7.47l82.72 1.34c4.46.1 1.48-2.81-2.15-5.48Z"/><path class="cls-15" d="M543.71 746.49s-28.71 43.33-35.57 79.19 5 146.07-8.13 193.06c-7.12 25.44-34.11 64.72-38.22 97.6s-18.38 127.75-18.38 127.75c-2.16 10-5.54 22.28-9.93 28-2.69 3.5-7.6 7.94-10.83 14.27-5 9.86-2.24 24.55 1.46 32.63 1.9 4.15-.13 4.14 4.19 5.48 12.81 4 26.44-2.71 31.9-15a76.34 76.34 0 0 0 6.26-27.58 128.79 128.79 0 0 1 4.52-29.15l91.81-225.23 66.47-194.37 17-100.1Z"/><path class="cls-16" d="M462.68 1303c-19.87 3.64-33.09-8-40-16.74-5 9.88-7.52 24.63-3.8 32.74 3.27 7.15 12.83 7 20.36 7.23 8 .29 14.12-4.14 18.07-11.09a65.63 65.63 0 0 0 5.37-12.14Zm169.32-2.82c-21.88 5.63-38 1.8-47.1-1.85-2.33 6.62-5.42 14.93-3.78 19.73 2 5.87 4.87 7.2 7.39 7.26 20 .53 73.19 1.24 88.43 1.44a2.49 2.49 0 0 0 1.93-4.1c-3.75-4.52-45.21-21.48-46.87-22.48Z"/><path class="cls-9" d="M562.33 1028q2.58.18 5.19.33h.26l5.14.29h.31l5.17.25h.26l5.29.2c19.6.64 43.82.39 59.36-2.25 7.92-79.31 10.87-151.68 13.81-167.7 7.11-38.85-6.2-100.17-6.2-100.17l-6.36-1.14 4-22.71-106.65 13.45s-29.87 43.33-37 79.19 6.32 131.47-7.36 178.46c.01 0 29.37 19.35 64.78 21.8Z"/><path class="cls-16" d="m688.14 632.16-31.54 23.16s-45.89-59.32-59.88-74.55c-17.53-19.07 10.31-73.51 22-69.78 26.21 8.34 69.42 121.17 69.42 121.17Z"/><path class="cls-9" d="M568 501.13a77.34 77.34 0 0 0-35.93 12.81c-18.75 12.6 19.79 157.11 22.57 178.29S528.05 772 528.05 772s99.86 19.85 125.82 2.71c0 0 2.28-163.67-.5-178.8s-26-76.64-31.52-82.69S568 501.13 568 501.13Z"/><path class="cls-3" d="M580.88 449.57s-.2 1.14-.56 3.07c-1.72 9.28-8.36 40.05-12.85 48.51C562.06 511.38 586 544 609.1 540c6.87-1.19-5.8-30-5.19-33l4.36-22c.91-4.61 1.84-9.27 2.71-13.66 2.46-12.47 4.48-22.67 4.48-22.67Z"/><path class="cls-7" d="M580.32 452.64c.36-1.93.56-3.07.56-3.07l34.58-.86s-2 10.2-4.48 22.67c-.87 4.36-1.79 9-2.69 13.58-5.34-.78-10.92-3.37-16.51-8.26a43.42 43.42 0 0 1-12.51-18.56c.43-2.14.78-4.06 1.05-5.5Z"/><path class="cls-3" d="M601.68 367.4a40.79 40.79 0 0 0-24.32 15.14c-10.21 13.18-21.22 54 4.15 76.13s50.45-2.93 54.17-29.53 2.97-62.7-34-61.74Z"/><path class="cls-3" d="M643.08 422.57c-1.6 6.41-5.8 10.75-9.39 9.68s-5.19-7.14-3.59-13.55 5.8-10.75 9.39-9.68 5.19 7.13 3.59 13.55Z"/><path class="cls-2" d="M617.34 367.51s-33.14 38.05-48.71 39.84S551 429.74 551 429.74s5.57-47.47 21-56.63 45.34-5.6 45.34-5.6Z"/><path class="cls-3" d="M573.72 416.59c1.27 6.88-1.28 13.2-5.69 14.1s-9-3.94-10.28-10.83 1.28-13.2 5.69-14.1 9.01 3.94 10.28 10.83Z"/><path class="cls-8" d="m619.81 442.32-24.09-.13s.5 9.15 11.1 9.52c12.92.44 12.99-9.39 12.99-9.39Z"/><path class="cls-3" d="M364 484.13c.89-.94 1.56-3.44 2.51-4.28 6.45 5.2 8.75 20 10.05 19.13 1.7-1.08.78-1.92.52-3.67s-.08-1.16-.34-2.91 2.82-2.17 5-2.65 2.4 2.38 2.82 4.89c1.3 7.79 4.46 26.88 4.47 29.41l65.92 70.79s19.85-20 36.95-39c2.54 4 5.2 6.43 7.73 5.61 5.09-1.63 30.44-4.91 54-9.7a554.61 554.61 0 0 1-47.9 54.2c-23.21 22.73-58.05 47.78-63.77 44.3-6.52-4-71.52-104.63-71.53-104.64s-13.77-14.41-19.31-19.53a60.42 60.42 0 0 1-10.65-14c10.26-7.31 15.32-18.41 23.53-27.95Z"/><path class="cls-9" d="M458.25 591.46 484 625.25s51.47-41.5 68.53-50.73c21.38-11.55 9.38-68.35-2.15-68.63-25.81-.61-92.13 85.57-92.13 85.57Z"/><path class="cls-10" d="m392.13 458.31 85.45 52a4.58 4.58 0 0 1 1.53 6.3L410 630.19a4.58 4.58 0 0 1-6.3 1.53l-85.46-52a4.58 4.58 0 0 1-1.53-6.29l69.13-113.57a4.58 4.58 0 0 1 6.29-1.55Z"/><path class="cls-17" d="M454 493.74a1.09 1.09 0 0 0-.36-1.49l-35.14-21.36a1.08 1.08 0 0 0-1.49.36l-2.22 3.65 36.94 22.49Z"/><path class="cls-17" d="M438.74 477.13a6.48 6.48 0 1 0 2.17 8.9 6.48 6.48 0 0 0-2.17-8.9Zm-5.53 9.09a4.16 4.16 0 1 1 5.71-1.39 4.15 4.15 0 0 1-5.71 1.39Z"/><path class="cls-18" d="M453.91 492.54a1.09 1.09 0 0 1 0 1.2l-2.22 3.65-36.9-22.49a5.35 5.35 0 0 0 1.79 7.36l27.79 16.92a5.37 5.37 0 0 0 7.36-1.79l2.22-3.65a1.09 1.09 0 0 0-.04-1.2Zm-35.41-21.65a1.06 1.06 0 0 0-1-.06 1.06 1.06 0 0 1 1 .06Zm-1.28.11a1.09 1.09 0 0 1 .17-.13 1.09 1.09 0 0 0-.17.13Z"/><path d="M359.08 517.08a7.05 7.05 0 0 1-9.13 2.14c-5.88-3.22-15-9.69-12-17.69 4.34-11.55 27.42-25.38 29.33-21.1s2 30.16-2.75 31.62c-2.77.85-3.95 2.95-5.45 5.03Z" style="fill:#e59588"/><path class="cls-20" d="m2380.68 907.12 12.04-149.29h-368.91l12.05 149.29h344.82z"/><path class="cls-20" d="M2209.31 832.82h-153.4l50.52 491.34h204.1l50.52-491.34h-151.74z"/><path class="cls-7" d="M2125.56 832.82h-153.4l50.52 491.34h204.1l50.52-491.34h-151.74z"/><path class="cls-7" d="m2297.1 907.12 12.05-149.29h-368.91l12.04 149.29h344.82z"/><path class="cls-21" d="M2348.02 961.77h-362.68l-5.69-52.39h373.58l-5.21 52.39z"/><path class="cls-13" transform="rotate(180 2165.38 756.505)" d="M1931.53 748.1h467.71v16.82h-467.71z"/><path class="cls-9" d="M1965.42 785.78h292.78v97.9h-292.78z"/><path class="cls-16" d="M1976.93 796.89h281.27v-11.11h-292.78v97.9h11.51v-86.79z"/><path class="cls-2" d="M2053.4 842.84a5.23 5.23 0 0 1-3.84-1.59 5.44 5.44 0 0 1 0-7.69 5.23 5.23 0 0 1 3.84-1.59h14.47a1.79 1.79 0 0 0 1.8-1.81v-14.47h-.17a1.86 1.86 0 0 0-1.82-1.82h-21.53a5.43 5.43 0 0 1 0-10.86h21.72a12.69 12.69 0 0 1 12.5 12.68h.17v14.47a12.68 12.68 0 0 1-12.67 12.68Zm-7.25 28.95a5.43 5.43 0 1 1 0-10.86h21.72a1.81 1.81 0 0 0 1.8-1.82v-14.47h3.63v14.47a5.43 5.43 0 0 1-5.43 5.43h-21.72a1.84 1.84 0 0 0-1.8 1.82 1.81 1.81 0 0 0 1.8 1.8h21.72a9 9 0 0 0 9.05-9v-14.52c0-.28 0-.58-.05-.9A16.6 16.6 0 0 0 2080 841a10.76 10.76 0 0 1 .39 1.77 11.48 11.48 0 0 1 .14 1.86v14.47a12.67 12.67 0 0 1-12.67 12.68Zm21.72-32.58a9 9 0 0 0 9.05-9.05v-14.47h-.18a9 9 0 0 0-9-9.05h-21.55a1.73 1.73 0 0 0-1.27.53 1.71 1.71 0 0 0-.53 1.27 1.66 1.66 0 0 0 .53 1.27 1.69 1.69 0 0 0 1.27.53h21.72a5.18 5.18 0 0 1 3.66 1.59 5.25 5.25 0 0 1 1.57 3.84h.2v14.47a5.43 5.43 0 0 1-5.43 5.43h-14.51a1.74 1.74 0 0 0-1.28.53 1.79 1.79 0 0 0 0 2.56 1.7 1.7 0 0 0 1.28.53Zm36.2 32.58a12.67 12.67 0 0 1-12.67-12.68v-43.42h.17a12.67 12.67 0 0 1 12.5-12.68h7.23a5.24 5.24 0 0 1 3.83 1.6 5.37 5.37 0 0 1 0 7.67 5.23 5.23 0 0 1-3.83 1.59h-7.05a1.83 1.83 0 0 0-1.81 1.82h-.19v43.42a1.86 1.86 0 0 0 1.82 1.82h14.47a1.83 1.83 0 0 0 1.81-1.82v-43.42a1.91 1.91 0 0 0-.14-.71 5.23 5.23 0 0 1-.43-2.07 5.35 5.35 0 0 1 .43-2.08 5.2 5.2 0 0 1 2.93-2.94 5.39 5.39 0 0 1 4.17 0 5.35 5.35 0 0 1 3 2.94 13 13 0 0 1 .71 2.35 13.11 13.11 0 0 1 .25 2.51v43.42a12.67 12.67 0 0 1-12.68 12.68Zm14.47-3.63a9 9 0 0 0 9.05-9v-43.47a8.86 8.86 0 0 0-.17-1.8 10 10 0 0 0-.51-1.67 1.8 1.8 0 0 0-1-1 1.89 1.89 0 0 0-.69-.14 2 2 0 0 0-.69.14 1.8 1.8 0 0 0-1 2.37 4.2 4.2 0 0 1 .31 1 5.49 5.49 0 0 1 .1 1.08v43.42a5.43 5.43 0 0 1-5.43 5.43h-14.47a5.43 5.43 0 0 1-5.43-5.43v-43.4h.18a5.4 5.4 0 0 1 5.25-5.43h7.23a1.68 1.68 0 0 0 1.27-.53 1.64 1.64 0 0 0 .55-1.27 1.69 1.69 0 0 0-.55-1.27 1.71 1.71 0 0 0-1.27-.53h-7.05a9 9 0 0 0-9.05 9.05h-.17v43.42a9 9 0 0 0 9.05 9Zm36.2 3.63a12.67 12.67 0 0 1-12.67-12.68v-43.42h.18a12.65 12.65 0 0 1 12.49-12.69h7.26a5.43 5.43 0 1 1 0 10.86h-7a1.83 1.83 0 0 0-1.8 1.82h-.2v43.42a1.86 1.86 0 0 0 1.82 1.82h14.48a1.72 1.72 0 0 0 1.27-.54 1.74 1.74 0 0 0 .53-1.28v-43.41a1.91 1.91 0 0 0-.14-.71 5.39 5.39 0 0 1-.42-2.07 5.52 5.52 0 0 1 .42-2.08 5.23 5.23 0 0 1 2.93-2.94 5.39 5.39 0 0 1 4.17 0 5.37 5.37 0 0 1 3 2.94 13.79 13.79 0 0 1 .7 2.35 12.35 12.35 0 0 1 .25 2.51v43.42a12.67 12.67 0 0 1-12.67 12.68Zm14.48-3.63a9 9 0 0 0 9.05-9v-43.47a8.86 8.86 0 0 0-.18-1.8 10 10 0 0 0-.51-1.67 1.78 1.78 0 0 0-1-1 2 2 0 0 0-.69-.14 1.89 1.89 0 0 0-.69.14 1.85 1.85 0 0 0-1 1 1.77 1.77 0 0 0 0 1.38 4.67 4.67 0 0 1 .3 1 5.49 5.49 0 0 1 .1 1.08v43.42a5.43 5.43 0 0 1-5.42 5.43h-14.48a5.43 5.43 0 0 1-5.42-5.43v-43.41h.17a5.42 5.42 0 0 1 5.25-5.43h7.3a1.66 1.66 0 0 0 1.27-.53 1.64 1.64 0 0 0 .55-1.27 1.84 1.84 0 0 0-1.82-1.8h-7a9 9 0 0 0-9.05 9.05h-.18v43.42a9 9 0 0 0 9 9Z"/><path class="cls-3" d="m1657.12 605.35-42.28-5.35s-13.23 33.24-31 69.19c-18.88-7.16-68.15-41.29-70.58-42.86s-8.92-41.07-12.94-38.89 3.77 20.85-1.14 22.34-42.87-25.45-43.52-21.74c-1.22 6.94 22.7 17.51 21.6 20.61s-24.13-13.67-27.59-9.3 23 13.56 23.27 16.36-25.85-4.84-25 1.19c.47 3.27 23.31 6.14 22 9.66s-19 4.42-18.18 8.14 14.71-3.06 23.41 1 16.69 1.82 29 12.84 73.06 74.09 91.22 68.24c15.91-5.13 61.73-111.43 61.73-111.43Z"/><path class="cls-9" d="M1630.84 469.48c3.8-18 7.72-36 25.53-49 14.42-10.48 29.91-13.47 46.33-7.5 46.53 16.93 21.5 54 79.24 93.44 17.94 12.26 24.75 16.54 37.63 32.89 18 22.87 27.87 53.57 18.81 78.84-18.73 52.27-76.78 67.37-107.15 56.29-56.53-20.63-103.62-92.53-106.75-112.15-3.35-20.98 3.92-81.24 6.36-92.81Z"/><path class="cls-17" d="M1664.23 545.16s-43.56 5.58-65.9 80.41c0 0 19 16.75 41.33 21.22s17.87-61.43 19-62.54 5.57-39.09 5.57-39.09Z"/><path class="cls-18" d="M1703.77 545.17c-13.74-.21-23.84-.77-32.31-.9a26.49 26.49 0 0 0-25.21 17.31c-7.6 20.49-19.22 52.62-19.85 53.86-7 19.93 3.46 33.24 6 37.53 2.5 4.13 7.16 103.06 7.16 103.06a185.55 185.55 0 0 0 33.93 3.58c23.79-1 54.94-7.48 54.94-7.48-2.62-14.21 2.37-32.07 4.66-46a438.29 438.29 0 0 1 16.35-69c4.86-15 13.21 11.3 17.83 24.49 10.73-4.34 40.72-17.85 40.72-17.85-39.31-106.71-58.48-97.95-104.22-98.6Z"/><path class="cls-3" d="M1696.6 501.13s3.64 29.51 5.79 39.75c2.25 10.72 5.63 44.47-16.53 50s-15.31-36.73-15.68-47.62-6.64-48.9-6.64-48.9Z"/><path d="M1697.81 510.55c-.23.13-.44.28-.67.41-12.25 7-22.91 5.93-30.91.45-1.43-9.43-2.69-17.1-2.69-17.1l33.06 6.82s.49 3.93 1.21 9.42Z" style="opacity:.3;fill:#f47458"/><path class="cls-3" d="M1689.94 424.3a37.93 37.93 0 0 1 20.47 16.59c7.49 12.94 11.22 50.08-16.34 65.93s-47.12-9.54-46.29-33.3 7.43-55.18 42.16-49.22Z"/><path class="cls-3" d="M1641.69 463.33c-.31 6.17 2.33 11.32 5.88 11.5s6.69-4.68 7-10.85-2.32-11.33-5.88-11.51-6.69 4.68-7 10.86Z"/><path class="cls-9" d="M1686 423.32s14.85 38.85 29.4 43 13.38 23.25 13.38 23.25 1.86-44.17-11.43-55-31.35-11.25-31.35-11.25Z"/><path class="cls-3" d="M1709.2 473.91c-2.24 6.07-.77 12.24 3.28 13.77s9.17-2.14 11.41-8.21.77-12.24-3.28-13.78-9.17 2.15-11.41 8.22Zm-25.4 306.24c-.54.07-3-.25-5-.2a37.54 37.54 0 0 0-5.15.47 14.68 14.68 0 0 0-3.15-1.89c-.85-.4-2.25-.54-3.21-1s-1.82-1.3-2.75-1.72c-2.43-1.06-4.66-1.31-5.4 0-.61 1.06 12.91 9.36 12.91 9.36 12.52.07 25.62 6.47 54.63-12.51 16.56-7.26 97-47.11 98.62-55.79.91-4.88-11.43-42.61-21.52-71.26-7.78 3.5-24.32 10.88-33.57 14.77 8.49 18 18.5 42 17.45 44.89-.27.77-1.28 2.14-55.66 37.86-1.37.88-2.77 1.82-4.19 2.75q-5.74 3.78-12.27 8l-15.51-1.63s-24.57 1.7-25.3 4.51c-.32 1.28 1.71 1.92 4.22 2.29h.07l1.11.15c2.7.32 5.55.36 6.24.61a16.35 16.35 0 0 1 3.7 1.82c-15.31 6.28-14.13 4-19.21 3.72-1.28-.1-2.63.27-3.83.17-2.06-.17-3.71-1.4-5.3-1.5a7 7 0 0 0-4.64 1.4c-.54.54.47 1.33 2.43 2.22 11.83 5.14 21.62 3.17 24.76 3.94 2.11.51-1.74 1.3-7.75.66-1.5-.15-3.46.39-5.45-.07-1.33-.3-2.53-1.16-3.83-1.48s-2.43-.27-3.44-.47c-1.32-.24-3.16-1.25-4.22-1.38-3.92-.44-5.84.25-6.28.62-.91.81 16.93 7.68 16.93 7.68s12.3 1.77 15 1.77c.13.01 1.76.75-1.44 1.24Z"/><path class="cls-8" d="m1661 483.56 23.13-.38s-.39 8.79-10.55 9.25c-12.39.57-12.58-8.87-12.58-8.87Z"/><path class="cls-7" d="M1677.72 751.26a15.08 15.08 0 0 0 3.41-9.57 15.16 15.16 0 0 0-15.13-15.16h-78a15.16 15.16 0 0 0-15.16 15.16 15.08 15.08 0 0 0 3.41 9.57Z"/><path class="cls-9" d="M1564.18 738.48h123.37a4.38 4.38 0 0 1 4.38 4.38v5.18H1559.8v-5.18a4.38 4.38 0 0 1 4.38-4.38Z"/><path class="cls-10" d="M1524.15 693.89h4.67v59.76h-4.67z"/><path class="cls-9" d="m1500.5 730.94-2.45-1.68a5.42 5.42 0 0 1-1.38-7.55l43.79-63.5a5.43 5.43 0 0 1 7.55-1.39l2.44 1.69a5.43 5.43 0 0 1 1.39 7.55l-43.79 63.5a5.42 5.42 0 0 1-7.55 1.38Z"/><path class="cls-11" d="m1533.28 684.84-3.78-2.61a8.39 8.39 0 0 1-2.14-11.67l8.31-12a8.4 8.4 0 0 1 11.68-2.15l3.77 2.61a8.39 8.39 0 0 1 2.14 11.67l-8.26 12a8.39 8.39 0 0 1-11.72 2.15Z"/><path class="cls-10" d="M1562.85 667.82a17 17 0 1 1-4.34-23.61 17 17 0 0 1 4.34 23.61Z"/><path class="cls-20" d="m1859.93 907.12 12.04-149.29h-368.91l12.05 149.29h344.82z"/><path class="cls-20" d="M1688.56 832.82h-153.4l50.52 491.34h204.1l50.52-491.34h-151.74z"/><path class="cls-7" d="M1604.81 832.82h-153.4l50.52 491.34h204.1l50.52-491.34h-151.74z"/><path class="cls-7" d="m1776.35 907.12 12.05-149.29h-368.91l12.04 149.29h344.82z"/><path class="cls-21" d="M1827.28 961.77h-362.69l-5.69-52.39h373.58l-5.2 52.39z"/><path class="cls-13" transform="rotate(180 1644.635 756.505)" d="M1410.78 748.1h467.71v16.82h-467.71z"/><path class="cls-9" d="M1444.67 785.78h292.78v97.9h-292.78z"/><path class="cls-16" d="M1456.18 796.89h281.27v-11.11h-292.78v97.9h11.51v-86.79z"/><path class="cls-2" d="M1554.37 871.79a5.43 5.43 0 0 1-5.44-5.43v-21.72a1.81 1.81 0 0 0-1.81-1.8h-14.47a12.68 12.68 0 0 1-12.65-12.68v-21.72a5.43 5.43 0 0 1 10.85 0v21.72a1.84 1.84 0 0 0 1.82 1.81h14.47a12.68 12.68 0 0 1 12.68 12.67v21.72a5.23 5.23 0 0 1-1.59 3.84 5.3 5.3 0 0 1-3.86 1.59Zm0-3.63a1.81 1.81 0 0 0 1.8-1.8v-21.72a9 9 0 0 0-9.05-9h-14.47a5.43 5.43 0 0 1-5.43-5.43v-21.77a1.84 1.84 0 0 0-1.82-1.8 1.81 1.81 0 0 0-1.8 1.8v21.72a9 9 0 0 0 9.05 9.05h14.47a5.43 5.43 0 0 1 5.43 5.43v21.72a1.81 1.81 0 0 0 1.82 1.8Zm5.43-33.76a16.25 16.25 0 0 0-3.63-3.3v-22.66a1.71 1.71 0 0 0-.53-1.27 1.73 1.73 0 0 0-1.27-.53 1.81 1.81 0 0 0-1.82 1.8v21.72h-3.62v-21.72a5.21 5.21 0 0 1 1.59-3.83 5.42 5.42 0 0 1 7.69 0 5.21 5.21 0 0 1 1.59 3.83Zm23.52 30.14a5.45 5.45 0 0 1-5.43-5.43v-14.47a5.45 5.45 0 0 1 5.43-5.43h14.48a9 9 0 0 0 9-9.05v-14.47h-.18a9 9 0 0 0-9.05-9.05h-14.3a9 9 0 0 0-9 9.05v15.37a17.3 17.3 0 0 0-3.15 2.73 17.42 17.42 0 0 1-.39-1.77 14.29 14.29 0 0 1-.12-1.86v-14.47a12.68 12.68 0 0 1 12.71-12.69h14.48a12.69 12.69 0 0 1 12.49 12.68h.18v14.47a12.68 12.68 0 0 1-12.67 12.68h-14.48a1.84 1.84 0 0 0-1.82 1.8v14.47a1.86 1.86 0 0 0 1.82 1.82h14.48a1.72 1.72 0 0 0 1.27-.54 1.74 1.74 0 0 0 .53-1.28v-14.46h3.62v14.47a5.43 5.43 0 0 1-5.42 5.43Zm0 7.25a12.67 12.67 0 0 1-12.67-12.68v-14.47a12.67 12.67 0 0 1 12.67-12.64h14.48a1.75 1.75 0 0 0 1.27-.53 1.77 1.77 0 0 0 .53-1.28v-14.5h-.18a1.84 1.84 0 0 0-1.82-1.82h-14.28a1.86 1.86 0 0 0-1.82 1.82v14.47h-3.61v-14.47a5.48 5.48 0 0 1 5.43-5.45h14.48a5.21 5.21 0 0 1 3.66 1.59 5.29 5.29 0 0 1 1.57 3.84h.19v14.47a5.43 5.43 0 0 1-5.42 5.43h-14.48a9 9 0 0 0-9 9v14.47a9 9 0 0 0 9 9h14.48a9 9 0 0 0 9-9v-14.4a7.28 7.28 0 0 0-.06-.9 16.35 16.35 0 0 0 3.15-2.73 10.76 10.76 0 0 1 .39 1.77 12.73 12.73 0 0 1 .14 1.86v14.47a12.67 12.67 0 0 1-12.67 12.68Zm50.68 0a12.67 12.67 0 0 1-12.67-12.68v-43.42h.18A12.65 12.65 0 0 1 1634 803h7.23a5.43 5.43 0 1 1 0 10.86h-7a1.72 1.72 0 0 0-1.27.54 1.7 1.7 0 0 0-.53 1.28h-.2v43.42a1.72 1.72 0 0 0 .55 1.28 1.69 1.69 0 0 0 1.27.54h14.48a1.72 1.72 0 0 0 1.27-.54 1.7 1.7 0 0 0 .53-1.28v-43.41a1.73 1.73 0 0 0-.14-.71 5.39 5.39 0 0 1-.42-2.07 5.52 5.52 0 0 1 .42-2.08 5.25 5.25 0 0 1 2.94-2.94 5.39 5.39 0 0 1 4.17 0 5.35 5.35 0 0 1 3 2.94 13.79 13.79 0 0 1 .7 2.35 12.35 12.35 0 0 1 .25 2.51v43.42a12.67 12.67 0 0 1-12.67 12.68Zm14.48-3.63a9 9 0 0 0 9-9v-43.47a8.86 8.86 0 0 0-.18-1.8 10 10 0 0 0-.51-1.67 1.78 1.78 0 0 0-1-1 2 2 0 0 0-.69-.14 1.93 1.93 0 0 0-.69.14 1.85 1.85 0 0 0-1 1 1.77 1.77 0 0 0 0 1.38 4.67 4.67 0 0 1 .3 1 5.49 5.49 0 0 1 .11 1.08v43.42a5.43 5.43 0 0 1-5.43 5.43H1634a5.43 5.43 0 0 1-5.42-5.43v-43.41h.17a5.42 5.42 0 0 1 5.25-5.43h7.23a1.7 1.7 0 0 0 1.28-.53 1.67 1.67 0 0 0 .54-1.27 1.72 1.72 0 0 0-.54-1.27 1.74 1.74 0 0 0-1.28-.53h-7a9 9 0 0 0-9.05 9.05h-.18v43.42a9 9 0 0 0 9 9Z"/><path class="cls-23" d="m1475.74 1066.92 262.99-58.27-13.61 132.37-235.92 56.75-13.46-130.85zm16.37 162.71 230.25-62.38-4.79 51.04-220.12 63.23-5.34-51.89zm504.07-162.71 262.99-58.27-13.6 132.37-235.93 56.75-13.46-130.85zm16.38 162.71 230.24-62.38-4.79 51.04-220.12 63.23-5.33-51.89z"/><path d="M1238.49 817.64a5.24 5.24 0 0 0 .56-1.23c4.49-13.92 42.16-130.78 42.36-136.35.19-5-18.58-97.71-18.58-97.71l-38.9 22.65 20.07 84.52c-.69 4.52-16.35 87.65-16.35 87.65s-2.47 15.32-4.48 24.27c-1.58 1.67-3.11 3.25-4.41 4.51a54.29 54.29 0 0 1-8.75 6c-3.38 1.93-9.63 6.65-10.79 8.14-1.35 1.72-4 5.37-5.6 7.58s-3.53 4.75-4.22 6a13.68 13.68 0 0 1-3.09 2.87 2.32 2.32 0 0 0 1.18 4.17c2 .18 4.32-1.48 5.76-2.51 4.07-2.93 8.46-9.6 8.88-9s-2.85 13.78-3.12 15.3-4 16.82-3.73 20 2.3 3.57 3.5 2.16c1-1.22 7.72-22 7.72-22s.86-2.64 1.63-1.36-5.28 20.12-5.65 23.1.77 5.14 3.19 3.67c2.94-1.79 8.15-22.3 8.15-22.3s.7-2.57 1.63-1.89-4.48 16.62-4.26 18.3 2 3 4 1.23c2.27-2.12 6.76-20.47 6.76-20.47s.73-1.3 1.18-.57-3.19 14.66-2.39 16.45a1.54 1.54 0 0 0 2 .91c3.16-.6 4.82-14.63 7.54-20.78s2.87-14.33 6.92-21.3Z" style="fill:#f8a492"/><path class="cls-3" d="m1102.83 592-31.73 19.33-.35 28.83c-38.17 16.71-88.28 28.52-88.28 28.52s-5.22 1.37-12 2.59c-6.29 1.13-15.15 2.72-18.62 3.32a53.36 53.36 0 0 1-14.77.28c-4.15-.41-11.31-1.1-14.3.07-1.88.73-7 2.52-9.8 3.48s-6 2-7.43 2.64a14.9 14.9 0 0 1-4.49.6 2.49 2.49 0 0 0-1.56 4.37c1.63 1.39 4.69 1.39 6.6 1.38 5.38 0 13.36-3.13 13.33-2.31s-11 10.27-12.24 11.43-13.94 12.22-15.7 15.18-.21 4.56 1.71 4.07c1.66-.43 20.4-14.4 20.4-14.4s2.4-1.78 2.28-.18-17.12 14.31-19.3 16.68-2.52 5 .51 5.19c3.68.26 21-14.43 21-14.43s2.2-1.8 2.6-.64-14.24 11.75-15.09 13.35-.11 3.92 2.69 3.55c3.3-.44 18.64-13.7 18.64-13.7s1.44-.67 1.38.24-11.9 10.83-12.31 12.89a1.64 1.64 0 0 0 1.2 2.06c3.14 1.44 13.31-9.79 19.51-13.47s11.42-10.74 19.29-14.32c4.77-2.16 13.2-3.62 20.92-4.57 5.24-.45 11-.95 17.07-1.52 55.34-5.17 128.54-13.76 125.36-31.89-1.66-9.2-11.09-49.37-16.52-68.62Z"/><path class="cls-9" d="m1064.27 627.57 49.08-3.35s2.42-44.68 2.42-66c0-25.85 7.73-64 4.71-63.26-8.49 2-23.15 10-30 19.62-23.48 33.42-26.21 112.99-26.21 112.99Z"/><path class="cls-11" d="M1180.54 494s28 4 35.35 9.47c8.3 6.21 17.5 20.09 17.5 20.09S1199 689 1199 716.81c0 21.54 7.44 74.42 7.44 74.42s-103.83 6.68-143.16-9.13c0 0 12.42-62.9 12.42-79.41s14.86-166.7 18.24-177.19c3.06-9.51 8.67-26.61 27.64-30.83s58.96-.67 58.96-.67Z"/><path class="cls-3" d="m1172.9 449.42 6.93 46.2s-25.3 55-40.4 50.24c-12.68-4-4.88-52.68-4.88-52.68s6.91-26.13 4.84-39.21 33.51-4.55 33.51-4.55Z"/><path class="cls-7" d="M1139.39 454c-2.07-13.08 33.51-4.55 33.51-4.55l.57 3.84a21.36 21.36 0 0 1-3.85 6.43c-7.95 8.66-20.38 13.86-31.12 14.25 1.08-7.08 1.74-14.64.89-19.97Z"/><path class="cls-3" d="M1178.74 384.07c1-.37 8.06 52.61-5.33 67.19s-39.48 19.35-48.84 7.87c-10.35-12.7-9.83-69.65 11-84.65s43.17 9.59 43.17 9.59Z"/><path class="cls-9" d="M1143.49 346.14a57.7 57.7 0 0 1 30.34 17.51c7.31.87 17.24 5 27.49 22.14 12.61 21.12 3.3 44.53-11.38 56s-14.51 24.81-14.51 24.81l-2.28-6.93a38.67 38.67 0 0 1-1.84-16.16 31.71 31.71 0 0 1 2.37-9.71c3.53-7.67-7.58-12.76-10.7-19.14-2.4-4.92-2.51-16.16-6.29-24.28l-4.52-6.2s-10.41-8.2-20.6-5.88-8.73-36.42 11.92-32.16Z"/><path class="cls-3" d="M1163.67 424.1c-.11 6.46 2.8 11.75 6.48 11.82s6.77-5.13 6.88-11.59-2.8-11.76-6.49-11.82-6.77 5.12-6.87 11.59Z"/><path class="cls-8" d="m1123.33 441.27 21.3-.35s-.36 8.1-9.72 8.52c-11.42.56-11.58-8.17-11.58-8.17Z"/><path class="cls-11" d="M1193.81 496.42s16.83.07 37.67 15.16c19 13.72 46.24 116 46.24 116l-48.18 16.67-12.21-50.07-18.74-18.09Z"/><path class="cls-7" d="M1150.63 751.26a15.08 15.08 0 0 0 3.41-9.57 15.16 15.16 0 0 0-15.16-15.16h-78a15.16 15.16 0 0 0-15.16 15.16 15.08 15.08 0 0 0 3.41 9.57Z"/><path class="cls-9" d="M1037.09 738.48h123.37a4.38 4.38 0 0 1 4.38 4.38v5.18h-132.13v-5.18a4.38 4.38 0 0 1 4.38-4.38Z"/><path class="cls-3" d="M1060.12 1193.05s1.67 30 1.68 30c.61 3.81 3 13.21 3 16.67 0 13-56.76-11-44-16.79 1.16-.52 7.19-4.46 7.57-8.89.58-6.81 2.06-20.59 2.06-20.59Z"/><path class="cls-10" d="M1020.92 1222.83s13.33 4 20.15 5 15.83-7.37 20.65-5.11c5.32 2.49 4.78 27 4.78 27s-71.13 4.27-91.22-2.32c-7.96-2.67 18.4-15.32 45.64-24.57Z"/><path class="cls-3" d="M1185.16 1195.92s1.66 30 1.67 30c.62 3.8 3 13.2 3 16.66 0 13-56.76-11-44-16.79 1.15-.52 9-7.4 9.35-11.82.59-6.82.28-17.66.28-17.66Z"/><path class="cls-10" d="M1146 1225.7s13.33 4 20.15 5 15.82-7.37 20.65-5.11c5.31 2.48 5.53 24.87 5.53 24.87s-76 5.62-93.92.35c-8.08-2.4 20.31-15.81 47.59-25.11Z"/><path d="m1095.22 763.35-24 10.54-50.48 245.53 2 184.05 40.46 1s18.82-161 18.82-173.48 87.17-218.35 87.17-218.35Z" style="fill:#e8ba70"/><path class="cls-13" d="M1113.74 776.86s17.68 189.17 17.68 221.06 14.33 210.35 14.33 210.35l40.56-.24s2.92-54.4 7.27-134.43c.68-12.53-.87-37.82 0-50.8 6.31-93.32 18.79-181.17 12.83-216-1-5.6-2.76-20.26-6.27-24-26.56-27.95-86.4-5.94-86.4-5.94Z"/><path class="cls-10" d="M998.98 693.89h4.67v59.76h-4.67z"/><path class="cls-20" d="m1329.37 907.12 12.04-149.29H972.5l12.05 149.29h344.82z"/><path class="cls-20" d="M1158 832.82h-153.39l50.51 491.34h204.1l50.52-491.34H1158z"/><path class="cls-7" d="M1074.25 832.82H920.86l50.51 491.34h204.1l50.52-491.34h-151.74z"/><path class="cls-7" d="m1245.8 907.12 12.04-149.29H888.93l12.04 149.29h344.83z"/><path class="cls-21" d="M1296.72 961.77H934.03l-5.69-52.39h373.58l-5.2 52.39z"/><path class="cls-13" transform="rotate(180 1114.075 756.505)" d="M880.22 748.1h467.71v16.82H880.22z"/><path class="cls-23" d="m944.92 1066.92 262.99-58.27-13.61 132.37-235.92 56.75-13.46-130.85zm17.12 156.62 230.25-62.38-4.79 51.04-220.13 63.22-5.33-51.88z"/><path class="cls-9" d="M914.11 785.78h292.78v97.9H914.11z"/><path class="cls-16" d="M925.62 796.89h281.27v-11.11H914.11v97.9h11.51v-86.79z"/><path class="cls-2" d="M999.31 872.35a5.52 5.52 0 0 1-2.08-.42 5.25 5.25 0 0 1-2.94-2.94 5.39 5.39 0 0 1 0-4.17 5.29 5.29 0 0 1 2.94-2.93 13.83 13.83 0 0 1 2.35-.71 13.11 13.11 0 0 1 2.51-.25h14.47a1.83 1.83 0 0 0 1.81-1.82v-14.47a1.81 1.81 0 0 0-1.81-1.8h-14.47a12.68 12.68 0 0 1-12.67-12.68v-14.47h.17a12.67 12.67 0 0 1 12.5-12.68h14.47a13.11 13.11 0 0 1 2.51.25 13.45 13.45 0 0 1 2.34.71 5.34 5.34 0 0 1 2.95 2.93 5.39 5.39 0 0 1 0 4.17 5.29 5.29 0 0 1-2.95 2.94 5.14 5.14 0 0 1-4.16 0 1.64 1.64 0 0 0-.69-.14h-14.29a1.83 1.83 0 0 0-1.81 1.82h-.19v14.47a1.84 1.84 0 0 0 1.82 1.81h14.47a12.67 12.67 0 0 1 12.68 12.67v14.47a12.67 12.67 0 0 1-12.68 12.68h-14.47a1.73 1.73 0 0 0-.71.14 5.39 5.39 0 0 1-2.07.42Zm0-3.64a1.89 1.89 0 0 0 .69-.14 6.14 6.14 0 0 1 1-.3 5.49 5.49 0 0 1 1.08-.11h14.47a9 9 0 0 0 9-9v-14.52a9 9 0 0 0-9-9h-14.47a5.43 5.43 0 0 1-5.43-5.43v-14.52h.18a5.4 5.4 0 0 1 5.25-5.43h14.47a5.65 5.65 0 0 1 1.08.11 6.14 6.14 0 0 1 1 .3 1.77 1.77 0 0 0 1.38 0 1.71 1.71 0 0 0 1-1 1.8 1.8 0 0 0 .14-.71 1.61 1.61 0 0 0-.14-.67 1.78 1.78 0 0 0-1-1 8.1 8.1 0 0 0-1.68-.49 8.76 8.76 0 0 0-1.79-.18h-14.29a9 9 0 0 0-9 9.05H993v14.47a9 9 0 0 0 9.05 9.05h14.47a5.43 5.43 0 0 1 5.43 5.43v14.47a5.43 5.43 0 0 1-5.43 5.43h-14.47a9 9 0 0 0-1.8.18 10 10 0 0 0-1.67.51 1.81 1.81 0 0 0-1 1 2 2 0 0 0-.12.67 2.21 2.21 0 0 0 .12.71 1.81 1.81 0 0 0 1 1 1.89 1.89 0 0 0 .73.12Zm50.69 3.64a5.57 5.57 0 0 1-2.09-.42A5.2 5.2 0 0 1 1045 869a5.27 5.27 0 0 1 0-4.17 5.24 5.24 0 0 1 2.93-2.93 14.1 14.1 0 0 1 2.35-.71 13.19 13.19 0 0 1 2.51-.25h14.48a1.72 1.72 0 0 0 1.27-.54 1.74 1.74 0 0 0 .53-1.28v-14.48a1.73 1.73 0 0 0-.53-1.27 1.71 1.71 0 0 0-1.27-.53h-14.48a12.68 12.68 0 0 1-12.67-12.68v-14.47h.18a12.65 12.65 0 0 1 12.46-12.69h14.48a13.19 13.19 0 0 1 2.51.25 13.35 13.35 0 0 1 2.33.71 5.34 5.34 0 0 1 3 2.93 5.27 5.27 0 0 1 0 4.17 5.57 5.57 0 0 1-5 3.38 5.36 5.36 0 0 1-2.08-.44 1.7 1.7 0 0 0-.69-.14h-14.3a1.83 1.83 0 0 0-1.8 1.82h-.2v14.47a1.84 1.84 0 0 0 1.82 1.81h14.48a12.67 12.67 0 0 1 12.67 12.67v14.47a12.67 12.67 0 0 1-12.67 12.68h-14.48a1.65 1.65 0 0 0-.7.14 5.47 5.47 0 0 1-2.13.43Zm0-3.64a2 2 0 0 0 .69-.14 6 6 0 0 1 1-.3 5.65 5.65 0 0 1 1.08-.11h14.48a9 9 0 0 0 9-9v-14.52a9 9 0 0 0-9-9h-14.48a5.43 5.43 0 0 1-5.42-5.43v-14.52h.17a5.42 5.42 0 0 1 5.25-5.43h14.48a5.82 5.82 0 0 1 1.08.11 6 6 0 0 1 1 .3 1.77 1.77 0 0 0 .69.14 1.7 1.7 0 0 0 .69-.14 1.69 1.69 0 0 0 1-1 1.81 1.81 0 0 0 .15-.71 1.63 1.63 0 0 0-.15-.67 1.75 1.75 0 0 0-1-1 8.1 8.1 0 0 0-1.68-.49 8.67 8.67 0 0 0-1.78-.18h-14.3a9 9 0 0 0-9 9.05h-.18v14.47a9 9 0 0 0 9 9.05h14.48a5.43 5.43 0 0 1 5.42 5.43v14.47a5.43 5.43 0 0 1-5.42 5.43h-14.48a9 9 0 0 0-1.8.18 9.65 9.65 0 0 0-1.66.51 1.78 1.78 0 0 0-1 1 2 2 0 0 0-.13.67 2.22 2.22 0 0 0 .13.71 1.78 1.78 0 0 0 1 1 1.81 1.81 0 0 0 .69.12Zm53.43 3.08a12.67 12.67 0 0 1-12.67-12.68v-43.42h.18a12.65 12.65 0 0 1 12.49-12.69h7.23a5.43 5.43 0 1 1 0 10.86h-7.05a1.72 1.72 0 0 0-1.27.54 1.74 1.74 0 0 0-.53 1.28h-.2v43.42a1.72 1.72 0 0 0 .55 1.28 1.69 1.69 0 0 0 1.27.54h14.48a1.72 1.72 0 0 0 1.27-.54 1.7 1.7 0 0 0 .53-1.28v-43.41a1.91 1.91 0 0 0-.14-.71 5.39 5.39 0 0 1-.42-2.07 5.52 5.52 0 0 1 .42-2.08 5.26 5.26 0 0 1 2.93-2.94 5.41 5.41 0 0 1 4.18 0 5.38 5.38 0 0 1 3 2.94 14.8 14.8 0 0 1 .71 2.35 13.1 13.1 0 0 1 .24 2.51v43.42a12.67 12.67 0 0 1-12.67 12.68Zm14.48-3.63a9 9 0 0 0 9-9v-43.47a8.86 8.86 0 0 0-.18-1.8 10 10 0 0 0-.51-1.67 1.78 1.78 0 0 0-1-1 2 2 0 0 0-.69-.14 1.89 1.89 0 0 0-.69.14 1.85 1.85 0 0 0-1 1 1.77 1.77 0 0 0 0 1.38 4.67 4.67 0 0 1 .3 1 5.49 5.49 0 0 1 .11 1.08v43.42a5.43 5.43 0 0 1-5.43 5.43h-14.48a5.43 5.43 0 0 1-5.42-5.43v-43.41h.18a5.4 5.4 0 0 1 5.24-5.43h7.23a1.7 1.7 0 0 0 1.28-.53 1.67 1.67 0 0 0 .54-1.27 1.72 1.72 0 0 0-.54-1.27 1.74 1.74 0 0 0-1.28-.53h-7.05a9 9 0 0 0-9 9.05h-.18v43.42a9.06 9.06 0 0 0 9 9Z"/><path class="cls-9" d="m975.33 730.94-2.44-1.68a5.43 5.43 0 0 1-1.39-7.55l43.79-63.5a5.43 5.43 0 0 1 7.55-1.39l2.45 1.69a5.43 5.43 0 0 1 1.38 7.55l-43.79 63.5a5.42 5.42 0 0 1-7.55 1.38Z"/><path class="cls-11" d="m1008.11 684.84-3.77-2.61a8.39 8.39 0 0 1-2.15-11.67l8.31-12a8.4 8.4 0 0 1 11.68-2.15L1026 659a8.39 8.39 0 0 1 2.15 11.67l-8.32 12.05a8.39 8.39 0 0 1-11.72 2.12Z"/><path class="cls-10" d="M1037.68 667.82a17 17 0 1 1-4.34-23.61 17 17 0 0 1 4.34 23.61Z"/><path class="cls-13" d="M267 1323.93h2127.73v7.06H267z"/><path class="cls-9" d="m510.57 808.25-32.13 83.51-38.54 104.89s84.27 50.25 228.52 32.68c0 0 6.55-188.14-13.94-312.19s-143.91 91.11-143.91 91.11Z"/></g></g></svg>