<svg xmlns="http://www.w3.org/2000/svg" xmlns:xlink="http://www.w3.org/1999/xlink" viewBox="0 0 600 400"><defs><style>.cls-1{fill:none;}.cls-2{isolation:isolate;}.cls-3{clip-path:url(#clip-path);}.cls-4{fill:#f1f1f4;}.cls-5{fill:#e0f3ff;}.cls-6{fill:url(#Áåçûìÿííûé_ãðàäèåíò_29);}.cls-7{fill:url(#Áåçûìÿííûé_ãðàäèåíò_28);}.cls-8{fill:#e5e2ff;}.cls-9{fill:url(#Áåçûìÿííûé_ãðàäèåíò_28-2);}.cls-10,.cls-11{opacity:0.62;}.cls-10,.cls-11,.cls-110,.cls-16,.cls-18,.cls-24,.cls-27,.cls-29,.cls-32,.cls-33,.cls-34,.cls-35,.cls-36,.cls-37,.cls-38,.cls-39,.cls-40,.cls-41,.cls-42,.cls-43,.cls-44,.cls-45,.cls-46,.cls-47,.cls-48,.cls-49,.cls-50,.cls-51,.cls-52,.cls-53,.cls-54,.cls-58,.cls-69,.cls-72,.cls-73,.cls-74,.cls-78,.cls-79,.cls-86,.cls-87,.cls-88,.cls-89,.cls-90,.cls-91{mix-blend-mode:multiply;}.cls-10{fill:url(#Áåçûìÿííûé_ãðàäèåíò_27);}.cls-11{fill:url(#Áåçûìÿííûé_ãðàäèåíò_94);}.cls-110,.cls-12,.cls-16,.cls-18,.cls-33,.cls-34,.cls-35,.cls-36,.cls-37,.cls-38,.cls-39,.cls-40,.cls-41,.cls-43,.cls-45,.cls-46,.cls-47,.cls-48,.cls-49,.cls-51,.cls-52,.cls-53,.cls-54,.cls-74{opacity:0.5;}.cls-12{mix-blend-mode:screen;fill:url(#Áåçûìÿííûé_ãðàäèåíò_95);}.cls-13{fill:#fff;}.cls-14{fill:#fe9083;}.cls-15{fill:url(#Áåçûìÿííûé_ãðàäèåíò_354);}.cls-16{fill:url(#Áåçûìÿííûé_ãðàäèåíò_70);}.cls-17{fill:url(#Áåçûìÿííûé_ãðàäèåíò_26);}.cls-18{fill:url(#Áåçûìÿííûé_ãðàäèåíò_70-2);}.cls-19{fill:url(#Áåçûìÿííûé_ãðàäèåíò_178);}.cls-20{fill:url(#Áåçûìÿííûé_ãðàäèåíò_55);}.cls-21{fill:#cb4d7a;}.cls-22{fill:#ee8183;}.cls-23{fill:url(#Áåçûìÿííûé_ãðàäèåíò_71);}.cls-24,.cls-29,.cls-58,.cls-69,.cls-72,.cls-73,.cls-84,.cls-86{opacity:0.6;}.cls-24{fill:url(#Áåçûìÿííûé_ãðàäèåíò_48);}.cls-25{fill:url(#Áåçûìÿííûé_ãðàäèåíò_71-2);}.cls-26{fill:#e28183;}.cls-27,.cls-32{opacity:0.91;}.cls-27{fill:url(#Áåçûìÿííûé_ãðàäèåíò_73);}.cls-28{fill:url(#Áåçûìÿííûé_ãðàäèåíò_71-3);}.cls-29{fill:url(#Áåçûìÿííûé_ãðàäèåíò_48-2);}.cls-30{fill:url(#Áåçûìÿííûé_ãðàäèåíò_64);}.cls-31{fill:url(#Áåçûìÿííûé_ãðàäèåíò_64-2);}.cls-32{fill:url(#Áåçûìÿííûé_ãðàäèåíò_73-2);}.cls-33{fill:url(#Áåçûìÿííûé_ãðàäèåíò_70-3);}.cls-34{fill:url(#Áåçûìÿííûé_ãðàäèåíò_70-4);}.cls-35{fill:url(#Áåçûìÿííûé_ãðàäèåíò_4);}.cls-36{fill:url(#Áåçûìÿííûé_ãðàäèåíò_4-2);}.cls-37{fill:url(#Áåçûìÿííûé_ãðàäèåíò_4-3);}.cls-38{fill:url(#Áåçûìÿííûé_ãðàäèåíò_4-4);}.cls-39{fill:url(#Áåçûìÿííûé_ãðàäèåíò_4-5);}.cls-40{fill:url(#Áåçûìÿííûé_ãðàäèåíò_4-6);}.cls-41{fill:url(#Áåçûìÿííûé_ãðàäèåíò_4-7);}.cls-42{opacity:0.76;fill:url(#Áåçûìÿííûé_ãðàäèåíò_70-5);}.cls-43{fill:url(#Áåçûìÿííûé_ãðàäèåíò_70-6);}.cls-44,.cls-50,.cls-87,.cls-88,.cls-89,.cls-90{opacity:0.3;}.cls-44{fill:url(#Áåçûìÿííûé_ãðàäèåíò_70-7);}.cls-45{fill:url(#Áåçûìÿííûé_ãðàäèåíò_4-8);}.cls-46{fill:url(#Áåçûìÿííûé_ãðàäèåíò_70-8);}.cls-47{fill:url(#Áåçûìÿííûé_ãðàäèåíò_4-9);}.cls-48{fill:url(#Áåçûìÿííûé_ãðàäèåíò_4-10);}.cls-49{fill:url(#Áåçûìÿííûé_ãðàäèåíò_70-9);}.cls-50{fill:url(#Áåçûìÿííûé_ãðàäèåíò_70-10);}.cls-51{fill:url(#Áåçûìÿííûé_ãðàäèåíò_70-11);}.cls-52{fill:url(#Áåçûìÿííûé_ãðàäèåíò_70-12);}.cls-53{fill:url(#Áåçûìÿííûé_ãðàäèåíò_70-13);}.cls-54{fill:#7a4ac0;}.cls-55{fill:url(#Áåçûìÿííûé_ãðàäèåíò_71-4);}.cls-56{fill:url(#Áåçûìÿííûé_ãðàäèåíò_71-5);}.cls-57{fill:url(#Áåçûìÿííûé_ãðàäèåíò_387);}.cls-58{fill:url(#Áåçûìÿííûé_ãðàäèåíò_48-3);}.cls-59{fill:#38368e;}.cls-60{fill:url(#Áåçûìÿííûé_ãðàäèåíò_59);}.cls-61{fill:url(#Áåçûìÿííûé_ãðàäèåíò_184);}.cls-62{fill:#ffebed;}.cls-63{fill:#7f9ec9;}.cls-64{fill:#131163;}.cls-65{fill:#c6659c;}.cls-66{fill:#cb5f7d;}.cls-67{fill:#9f4a8b;}.cls-68{fill:#ffbcaf;}.cls-69{fill:url(#Áåçûìÿííûé_ãðàäèåíò_48-4);}.cls-70{fill:url(#Áåçûìÿííûé_ãðàäèåíò_292);}.cls-71{fill:#d2726c;}.cls-72{fill:url(#Áåçûìÿííûé_ãðàäèåíò_35);}.cls-73{fill:url(#Áåçûìÿííûé_ãðàäèåíò_52);}.cls-74{fill:url(#Áåçûìÿííûé_ãðàäèåíò_397);}.cls-75{fill:url(#Áåçûìÿííûé_ãðàäèåíò_141);}.cls-76{fill:url(#Áåçûìÿííûé_ãðàäèåíò_141-2);}.cls-77{fill:url(#Áåçûìÿííûé_ãðàäèåíò_141-3);}.cls-78,.cls-79{opacity:0.8;}.cls-78{fill:url(#Áåçûìÿííûé_ãðàäèåíò_285);}.cls-79{fill:url(#Áåçûìÿííûé_ãðàäèåíò_285-2);}.cls-80{fill:#34c7ff;}.cls-81{fill:url(#Áåçûìÿííûé_ãðàäèåíò_141-4);}.cls-82{fill:url(#Áåçûìÿííûé_ãðàäèåíò_141-5);}.cls-83{fill:url(#Áåçûìÿííûé_ãðàäèåíò_141-6);}.cls-84{fill:#36d1f7;}.cls-85{fill:#744ca2;}.cls-86{fill:url(#Áåçûìÿííûé_ãðàäèåíò_89);}.cls-87{fill:url(#Áåçûìÿííûé_ãðàäèåíò_85);}.cls-88{fill:url(#Áåçûìÿííûé_ãðàäèåíò_85-2);}.cls-89{fill:url(#Áåçûìÿííûé_ãðàäèåíò_85-3);}.cls-90{fill:url(#Áåçûìÿííûé_ãðàäèåíò_85-4);}.cls-91{fill:#d1d4fb;}.cls-111,.cls-92{mix-blend-mode:soft-light;}.cls-93{fill:#e0ffff;}.cls-94{fill:url(#Áåçûìÿííûé_ãðàäèåíò_65);}.cls-95{fill:url(#Áåçûìÿííûé_ãðàäèåíò_14);}.cls-96{opacity:0.81;fill:url(#Áåçûìÿííûé_ãðàäèåíò_115);}.cls-97{fill:#473da2;}.cls-98{fill:url(#Áåçûìÿííûé_ãðàäèåíò_302);}.cls-99{fill:url(#Áåçûìÿííûé_ãðàäèåíò_302-2);}.cls-100{fill:url(#Áåçûìÿííûé_ãðàäèåíò_322);}.cls-101{fill:url(#Áåçûìÿííûé_ãðàäèåíò_322-2);}.cls-102{fill:url(#Áåçûìÿííûé_ãðàäèåíò_25);}.cls-103{fill:url(#Áåçûìÿííûé_ãðàäèåíò_25-2);}.cls-104,.cls-106{opacity:0.73;}.cls-104{fill:url(#Áåçûìÿííûé_ãðàäèåíò_97);}.cls-105{fill:#953da2;}.cls-106{fill:url(#Áåçûìÿííûé_ãðàäèåíò_97-2);}.cls-107,.cls-108,.cls-109,.cls-110,.cls-111,.cls-115,.cls-116,.cls-117,.cls-118{fill-rule:evenodd;}.cls-107{fill:url(#Áåçûìÿííûé_ãðàäèåíò_206);}.cls-108{fill:url(#Áåçûìÿííûé_ãðàäèåíò_206-2);}.cls-109{fill:url(#Áåçûìÿííûé_ãðàäèåíò_107);}.cls-110{fill:#601734;}.cls-111{fill:#b3d9ff;}.cls-112{fill:#ff1d9c;}.cls-113{fill:#6877ff;}.cls-114{fill:#4f31e0;}.cls-115{fill:url(#Áåçûìÿííûé_ãðàäèåíò_107-2);}.cls-116{fill:url(#Áåçûìÿííûé_ãðàäèåíò_206-3);}.cls-117{fill:url(#Áåçûìÿííûé_ãðàäèåíò_107-3);}.cls-118{fill:url(#Áåçûìÿííûé_ãðàäèåíò_206-4);}</style><clipPath id="clip-path"><rect class="cls-1" width="600" height="400"/></clipPath><linearGradient id="Áåçûìÿííûé_ãðàäèåíò_29" x1="139.84" y1="275.2" x2="139.84" y2="204.01" gradientTransform="matrix(0.91, -0.42, 0.42, 0.91, -75.05, 53.74)" gradientUnits="userSpaceOnUse"><stop offset="0" stop-color="#dbccff"/><stop offset="1" stop-color="#d1bbff"/></linearGradient><linearGradient id="Áåçûìÿííûé_ãðàäèåíò_28" x1="139.83" y1="277.98" x2="139.83" y2="206.79" gradientTransform="matrix(0.91, -0.42, 0.42, 0.91, -75.05, 53.74)" gradientUnits="userSpaceOnUse"><stop offset="0" stop-color="#b5a6e7"/><stop offset="1" stop-color="#7760bf"/></linearGradient><linearGradient id="Áåçûìÿííûé_ãðàäèåíò_28-2" x1="139.83" y1="260.28" x2="139.83" y2="230.27" xlink:href="#Áåçûìÿííûé_ãðàäèåíò_28"/><linearGradient id="Áåçûìÿííûé_ãðàäèåíò_27" x1="135.57" y1="230.87" x2="144.09" y2="230.87" gradientTransform="matrix(0.91, -0.42, 0.42, 0.91, -75.05, 53.74)" gradientUnits="userSpaceOnUse"><stop offset="0" stop-color="#8b8be0"/><stop offset="1" stop-color="#a177b7"/></linearGradient><linearGradient id="Áåçûìÿííûé_ãðàäèåíò_94" x1="139.83" y1="232.85" x2="139.83" y2="227.69" gradientTransform="matrix(0.91, -0.42, 0.42, 0.91, -75.05, 53.74)" gradientUnits="userSpaceOnUse"><stop offset="0" stop-color="#fff"/><stop offset="1" stop-color="#a177b7"/></linearGradient><linearGradient id="Áåçûìÿííûé_ãðàäèåíò_95" x1="144.34" y1="263.34" x2="144.34" y2="230.26" gradientTransform="matrix(0.91, -0.42, 0.42, 0.91, -75.05, 53.74)" gradientUnits="userSpaceOnUse"><stop offset="0"/><stop offset="1" stop-color="#fff"/></linearGradient><linearGradient id="Áåçûìÿííûé_ãðàäèåíò_354" x1="283.54" y1="176.45" x2="283.54" y2="140.84" gradientUnits="userSpaceOnUse"><stop offset="0" stop-color="#d5cdf8"/><stop offset="1" stop-color="#f3edfb"/></linearGradient><linearGradient id="Áåçûìÿííûé_ãðàäèåíò_70" x1="265.21" y1="158.61" x2="301.87" y2="158.61" gradientUnits="userSpaceOnUse"><stop offset="0" stop-color="#ccf"/><stop offset="1" stop-color="#755cbb"/></linearGradient><linearGradient id="Áåçûìÿííûé_ãðàäèåíò_26" x1="273.06" y1="318.73" x2="273.06" y2="139.29" gradientUnits="userSpaceOnUse"><stop offset="0" stop-color="#9e8cef"/><stop offset="1" stop-color="#caafee"/></linearGradient><linearGradient id="Áåçûìÿííûé_ãðàäèåíò_70-2" x1="198.59" y1="206.92" x2="242.29" y2="206.92" xlink:href="#Áåçûìÿííûé_ãðàäèåíò_70"/><linearGradient id="Áåçûìÿííûé_ãðàäèåíò_178" x1="197.24" y1="257.17" x2="197.24" y2="173.26" gradientUnits="userSpaceOnUse"><stop offset="0" stop-color="#9e8cef"/><stop offset="1" stop-color="#dac7f3"/></linearGradient><linearGradient id="Áåçûìÿííûé_ãðàäèåíò_55" x1="341.53" y1="232.99" x2="397.84" y2="232.99" gradientUnits="userSpaceOnUse"><stop offset="0" stop-color="#a999f1"/><stop offset="1" stop-color="#dac7f3"/></linearGradient><linearGradient id="Áåçûìÿííûé_ãðàäèåíò_71" x1="178.92" y1="161.82" x2="178.92" y2="139.69" gradientUnits="userSpaceOnUse"><stop offset="0.02" stop-color="#ffc2a9"/><stop offset="1" stop-color="#ff9595"/></linearGradient><linearGradient id="Áåçûìÿííûé_ãðàäèåíò_48" x1="192.86" y1="161.29" x2="192.86" y2="124.67" gradientUnits="userSpaceOnUse"><stop offset="0" stop-color="#ffeadb"/><stop offset="0.99" stop-color="#c27cb6"/></linearGradient><linearGradient id="Áåçûìÿííûé_ãðàäèåíò_71-2" x1="191.67" y1="186.21" x2="191.67" y2="129.75" xlink:href="#Áåçûìÿííûé_ãðàäèåíò_71"/><linearGradient id="Áåçûìÿííûé_ãðàäèåíò_73" x1="181.57" y1="177.4" x2="199.32" y2="177.4" gradientUnits="userSpaceOnUse"><stop offset="0.02" stop-color="#d1a1d6"/><stop offset="0.99" stop-color="#bd89c4"/></linearGradient><linearGradient id="Áåçûìÿííûé_ãðàäèåíò_71-3" x1="399" y1="220.6" x2="399" y2="145.1" xlink:href="#Áåçûìÿííûé_ãðàäèåíò_71"/><linearGradient id="Áåçûìÿííûé_ãðàäèåíò_48-2" x1="407.92" y1="196.41" x2="407.92" y2="158.9" xlink:href="#Áåçûìÿííûé_ãðàäèåíò_48"/><linearGradient id="Áåçûìÿííûé_ãðàäèåíò_64" x1="415.32" y1="183.46" x2="415.32" y2="166.65" gradientUnits="userSpaceOnUse"><stop offset="0" stop-color="#ffb0b0"/><stop offset="0.98" stop-color="#ffc2a9"/></linearGradient><linearGradient id="Áåçûìÿííûé_ãðàäèåíò_64-2" x1="425.07" y1="186.05" x2="425.07" y2="176.83" xlink:href="#Áåçûìÿííûé_ãðàäèåíò_64"/><linearGradient id="Áåçûìÿííûé_ãðàäèåíò_73-2" x1="385.63" y1="204.43" x2="402.78" y2="204.43" xlink:href="#Áåçûìÿííûé_ãðàäèåíò_73"/><linearGradient id="Áåçûìÿííûé_ãðàäèåíò_70-3" x1="361.76" y1="263.62" x2="361.76" y2="179.11" xlink:href="#Áåçûìÿííûé_ãðàäèåíò_70"/><linearGradient id="Áåçûìÿííûé_ãðàäèåíò_70-4" x1="175.69" y1="246.59" x2="317.04" y2="246.59" xlink:href="#Áåçûìÿííûé_ãðàäèåíò_70"/><linearGradient id="Áåçûìÿííûé_ãðàäèåíò_4" x1="300.31" y1="222.94" x2="327.32" y2="222.94" gradientUnits="userSpaceOnUse"><stop offset="0" stop-color="#ccedff"/><stop offset="1" stop-color="#755cbb"/></linearGradient><linearGradient id="Áåçûìÿííûé_ãðàäèåíò_4-2" x1="275.8" y1="270.36" x2="315.51" y2="270.36" xlink:href="#Áåçûìÿííûé_ãðàäèåíò_4"/><linearGradient id="Áåçûìÿííûé_ãðàäèåíò_4-3" x1="277.64" y1="288.31" x2="320.06" y2="288.31" xlink:href="#Áåçûìÿííûé_ãðàäèåíò_4"/><linearGradient id="Áåçûìÿííûé_ãðàäèåíò_4-4" x1="241.13" y1="243.86" x2="241.13" y2="196.25" xlink:href="#Áåçûìÿííûé_ãðàäèåíò_4"/><linearGradient id="Áåçûìÿííûé_ãðàäèåíò_4-5" x1="244.96" y1="247.86" x2="244.96" y2="211.77" xlink:href="#Áåçûìÿííûé_ãðàäèåíò_4"/><linearGradient id="Áåçûìÿííûé_ãðàäèåíò_4-6" x1="187.93" y1="201.73" x2="187.93" y2="174.46" xlink:href="#Áåçûìÿííûé_ãðàäèåíò_4"/><linearGradient id="Áåçûìÿííûé_ãðàäèåíò_4-7" x1="209.99" y1="177.72" x2="220.98" y2="177.72" xlink:href="#Áåçûìÿííûé_ãðàäèåíò_4"/><linearGradient id="Áåçûìÿííûé_ãðàäèåíò_70-5" x1="329.45" y1="243.86" x2="329.45" y2="193.32" xlink:href="#Áåçûìÿííûé_ãðàäèåíò_70"/><linearGradient id="Áåçûìÿííûé_ãðàäèåíò_70-6" x1="386.27" y1="232.99" x2="386.27" y2="206.58" xlink:href="#Áåçûìÿííûé_ãðàäèåíò_70"/><linearGradient id="Áåçûìÿííûé_ãðàäèåíò_70-7" x1="356.32" y1="231.81" x2="356.32" y2="211.62" xlink:href="#Áåçûìÿííûé_ãðàäèåíò_70"/><linearGradient id="Áåçûìÿííûé_ãðàäèåíò_4-8" x1="182.22" y1="203.47" x2="182.22" y2="195.97" xlink:href="#Áåçûìÿííûé_ãðàäèåíò_4"/><linearGradient id="Áåçûìÿííûé_ãðàäèåíò_70-8" x1="202.25" y1="226.33" x2="202.25" y2="185.35" xlink:href="#Áåçûìÿííûé_ãðàäèåíò_70"/><linearGradient id="Áåçûìÿííûé_ãðàäèåíò_4-9" x1="307.67" y1="197.48" x2="307.67" y2="166.65" xlink:href="#Áåçûìÿííûé_ãðàäèåíò_4"/><linearGradient id="Áåçûìÿííûé_ãðàäèåíò_4-10" x1="267.27" y1="193.32" x2="267.27" y2="150.76" xlink:href="#Áåçûìÿííûé_ãðàäèåíò_4"/><linearGradient id="Áåçûìÿííûé_ãðàäèåíò_70-9" x1="259.03" y1="160.08" x2="305.29" y2="160.08" xlink:href="#Áåçûìÿííûé_ãðàäèåíò_70"/><linearGradient id="Áåçûìÿííûé_ãðàäèåíò_70-10" x1="377.95" y1="229.98" x2="377.95" y2="203.21" xlink:href="#Áåçûìÿííûé_ãðàäèåíò_70"/><linearGradient id="Áåçûìÿííûé_ãðàäèåíò_70-11" x1="340.11" y1="260.18" x2="340.11" y2="179.11" xlink:href="#Áåçûìÿííûé_ãðàäèåíò_70"/><linearGradient id="Áåçûìÿííûé_ãðàäèåíò_70-12" x1="252.95" y1="298.26" x2="252.95" y2="275.02" xlink:href="#Áåçûìÿííûé_ãðàäèåíò_70"/><linearGradient id="Áåçûìÿííûé_ãðàäèåíò_70-13" x1="298.09" y1="291.88" x2="298.09" y2="280.59" xlink:href="#Áåçûìÿííûé_ãðàäèåíò_70"/><linearGradient id="Áåçûìÿííûé_ãðàäèåíò_71-4" x1="297.6" y1="146.81" x2="297.6" y2="69.6" xlink:href="#Áåçûìÿííûé_ãðàäèåíò_71"/><linearGradient id="Áåçûìÿííûé_ãðàäèåíò_71-5" x1="268.82" y1="115.66" x2="268.82" y2="92.89" xlink:href="#Áåçûìÿííûé_ãðàäèåíò_71"/><linearGradient id="Áåçûìÿííûé_ãðàäèåíò_387" x1="308.33" y1="124.27" x2="309.28" y2="119.3" gradientUnits="userSpaceOnUse"><stop offset="0" stop-color="#e1616a"/><stop offset="1" stop-color="#ff8883"/></linearGradient><linearGradient id="Áåçûìÿííûé_ãðàäèåíò_48-3" x1="299.71" y1="120.46" x2="299.71" y2="70.73" xlink:href="#Áåçûìÿííûé_ãðàäèåíò_48"/><linearGradient id="Áåçûìÿííûé_ãðàäèåíò_59" x1="297.29" y1="100.09" x2="297.29" y2="90.24" gradientUnits="userSpaceOnUse"><stop offset="0" stop-color="#cf6074"/><stop offset="1" stop-color="#f37270"/></linearGradient><linearGradient id="Áåçûìÿííûé_ãðàäèåíò_184" x1="316.94" y1="103.22" x2="316.94" y2="94.65" gradientUnits="userSpaceOnUse"><stop offset="0" stop-color="#cf6074"/><stop offset="1" stop-color="#ff817f"/></linearGradient><linearGradient id="Áåçûìÿííûé_ãðàäèåíò_48-4" x1="317.75" y1="108.21" x2="317.75" y2="88.92" xlink:href="#Áåçûìÿííûé_ãðàäèåíò_48"/><linearGradient id="Áåçûìÿííûé_ãðàäèåíò_292" x1="298.63" y1="147.78" x2="298.63" y2="54.15" gradientUnits="userSpaceOnUse"><stop offset="0" stop-color="#2e33a0"/><stop offset="1" stop-color="#0665a5"/></linearGradient><linearGradient id="Áåçûìÿííûé_ãðàäèåíò_35" x1="323.23" y1="88.82" x2="323.23" y2="67.22" gradientUnits="userSpaceOnUse"><stop offset="0" stop-color="#ffeadb"/><stop offset="0.99" stop-color="#8860c7"/></linearGradient><linearGradient id="Áåçûìÿííûé_ãðàäèåíò_52" x1="293.79" y1="147.78" x2="293.79" y2="54.15" gradientUnits="userSpaceOnUse"><stop offset="0" stop-color="#ccc2db"/><stop offset="0.99" stop-color="#8860c7"/></linearGradient><linearGradient id="Áåçûìÿííûé_ãðàäèåíò_397" x1="300.07" y1="147.76" x2="300.07" y2="143.74" gradientUnits="userSpaceOnUse"><stop offset="0" stop-color="#776d7e"/><stop offset="1" stop-color="#9d68c2"/></linearGradient><linearGradient id="Áåçûìÿííûé_ãðàäèåíò_141" x1="311.87" y1="60.87" x2="311.87" y2="57.88" gradientUnits="userSpaceOnUse"><stop offset="0" stop-color="#1f77d1"/><stop offset="1" stop-color="#0686c9"/></linearGradient><linearGradient id="Áåçûìÿííûé_ãðàäèåíò_141-2" x1="292.83" y1="70.71" x2="292.83" y2="61.87" xlink:href="#Áåçûìÿííûé_ãðàäèåíò_141"/><linearGradient id="Áåçûìÿííûé_ãðàäèåíò_141-3" x1="324.85" y1="75.19" x2="324.85" y2="67.22" xlink:href="#Áåçûìÿííûé_ãðàäèåíò_141"/><linearGradient id="Áåçûìÿííûé_ãðàäèåíò_285" x1="272.13" y1="110.26" x2="261.93" y2="97.77" gradientUnits="userSpaceOnUse"><stop offset="0" stop-color="#ffeadb"/><stop offset="0.99" stop-color="#b060f4"/></linearGradient><linearGradient id="Áåçûìÿííûé_ãðàäèåíò_285-2" x1="273.2" y1="108.65" x2="268.18" y2="102.51" xlink:href="#Áåçûìÿííûé_ãðàäèåíò_285"/><linearGradient id="Áåçûìÿííûé_ãðàäèåíò_141-4" x1="292.24" y1="71.5" x2="309.51" y2="71.5" xlink:href="#Áåçûìÿííûé_ãðàäèåíò_141"/><linearGradient id="Áåçûìÿííûé_ãðàäèåíò_141-5" x1="316.6" y1="123.14" x2="321.83" y2="123.14" xlink:href="#Áåçûìÿííûé_ãðàäèåíò_141"/><linearGradient id="Áåçûìÿííûé_ãðàäèåíò_141-6" x1="310.13" y1="119.24" x2="315.78" y2="119.24" xlink:href="#Áåçûìÿííûé_ãðàäèåíò_141"/><linearGradient id="Áåçûìÿííûé_ãðàäèåíò_89" x1="351.8" y1="132.95" x2="528.85" y2="132.95" gradientUnits="userSpaceOnUse"><stop offset="0" stop-color="#9d68c2"/><stop offset="1" stop-color="#aec2ff"/></linearGradient><linearGradient id="Áåçûìÿííûé_ãðàäèåíò_85" x1="387.81" y1="199.82" x2="387.81" y2="146.42" gradientUnits="userSpaceOnUse"><stop offset="0" stop-color="#ccedff"/><stop offset="1" stop-color="#9d68c2"/></linearGradient><linearGradient id="Áåçûìÿííûé_ãðàäèåíò_85-2" x1="478.87" y1="173.78" x2="478.87" y2="150.26" xlink:href="#Áåçûìÿííûé_ãðàäèåíò_85"/><linearGradient id="Áåçûìÿííûé_ãðàäèåíò_85-3" x1="506.63" y1="173.78" x2="506.63" y2="150.26" xlink:href="#Áåçûìÿííûé_ãðàäèåíò_85"/><linearGradient id="Áåçûìÿííûé_ãðàäèåíò_85-4" x1="450.66" y1="173.78" x2="450.66" y2="150.26" xlink:href="#Áåçûìÿííûé_ãðàäèåíò_85"/><linearGradient id="Áåçûìÿííûé_ãðàäèåíò_65" x1="197.67" y1="115.99" x2="197.67" y2="91.37" gradientUnits="userSpaceOnUse"><stop offset="0" stop-color="#d93de3"/><stop offset="1" stop-color="#ff6dba"/></linearGradient><linearGradient id="Áåçûìÿííûé_ãðàäèåíò_14" x1="212.72" y1="115.99" x2="212.72" y2="91.37" gradientUnits="userSpaceOnUse"><stop offset="0" stop-color="#a242ea"/><stop offset="1" stop-color="#fe117e"/></linearGradient><linearGradient id="Áåçûìÿííûé_ãðàäèåíò_115" x1="193.4" y1="375.37" x2="206.71" y2="269.36" gradientUnits="userSpaceOnUse"><stop offset="0" stop-color="#067eff"/><stop offset="1" stop-color="#3e37a0"/></linearGradient><linearGradient id="Áåçûìÿííûé_ãðàäèåíò_302" x1="504.25" y1="113.31" x2="504.25" y2="104.37" gradientUnits="userSpaceOnUse"><stop offset="0" stop-color="#459fff"/><stop offset="1" stop-color="#a96dff"/></linearGradient><linearGradient id="Áåçûìÿííûé_ãðàäèåíò_302-2" x1="84.26" y1="218.04" x2="84.26" y2="206.92" xlink:href="#Áåçûìÿííûé_ãðàäèåíò_302"/><linearGradient id="Áåçûìÿííûé_ãðàäèåíò_322" x1="517.37" y1="113.31" x2="517.37" y2="104.37" gradientUnits="userSpaceOnUse"><stop offset="0" stop-color="#b31a8f"/><stop offset="1" stop-color="#fe117e"/></linearGradient><linearGradient id="Áåçûìÿííûé_ãðàäèåíò_322-2" x1="229.2" y1="142.73" x2="229.2" y2="136.41" xlink:href="#Áåçûìÿííûé_ãðàäèåíò_322"/><linearGradient id="Áåçûìÿííûé_ãðàäèåíò_25" x1="440.86" y1="282.16" x2="440.86" y2="275.84" gradientUnits="userSpaceOnUse"><stop offset="0" stop-color="#8642a0"/><stop offset="1" stop-color="#6456c0"/></linearGradient><linearGradient id="Áåçûìÿííûé_ãðàäèåíò_25-2" x1="112.34" y1="313.33" x2="112.34" y2="307.68" xlink:href="#Áåçûìÿííûé_ãðàäèåíò_25"/><linearGradient id="Áåçûìÿííûé_ãðàäèåíò_97" x1="136.04" y1="282.77" x2="136.04" y2="236.11" gradientUnits="userSpaceOnUse"><stop offset="0" stop-color="#d906e3"/><stop offset="1" stop-color="#ff6df9"/></linearGradient><linearGradient id="Áåçûìÿííûé_ãðàäèåíò_97-2" x1="458.23" y1="348.82" x2="458.23" y2="290.45" xlink:href="#Áåçûìÿííûé_ãðàäèåíò_97"/><linearGradient id="Áåçûìÿííûé_ãðàäèåíò_206" x1="404.32" y1="275.2" x2="399.35" y2="232.51" gradientTransform="matrix(0.97, 0.26, -0.26, 0.97, 63.63, -54.68)" gradientUnits="userSpaceOnUse"><stop offset="0" stop-color="#1852a0"/><stop offset="1" stop-color="#067ed3"/></linearGradient><linearGradient id="Áåçûìÿííûé_ãðàäèåíò_206-2" x1="399.5" y1="275.37" x2="399.5" y2="231.62" xlink:href="#Áåçûìÿííûé_ãðàäèåíò_206"/><linearGradient id="Áåçûìÿííûé_ãðàäèåíò_107" x1="361.94" y1="289.27" x2="358.72" y2="261.66" gradientTransform="matrix(0.94, 0.33, -0.52, 1.49, 181.34, -235.91)" gradientUnits="userSpaceOnUse"><stop offset="0" stop-color="#188dc1"/><stop offset="1" stop-color="#06bfe7"/></linearGradient><linearGradient id="Áåçûìÿííûé_ãðàäèåíò_107-2" x1="412.35" y1="88.1" x2="423.68" y2="46.01" gradientTransform="matrix(1, 0, 0, 1, 0, 0)" xlink:href="#Áåçûìÿííûé_ãðàäèåíò_107"/><linearGradient id="Áåçûìÿííûé_ãðàäèåíò_206-3" x1="392.87" y1="83.24" x2="401.32" y2="51.86" gradientTransform="matrix(1, 0, 0, 1, 0, 0)" xlink:href="#Áåçûìÿííûé_ãðàäèåíò_206"/><linearGradient id="Áåçûìÿííûé_ãðàäèåíò_107-3" x1="121.92" y1="160.57" x2="129.65" y2="131.88" gradientTransform="matrix(-1, 0, 0, 1, 206.66, 0)" xlink:href="#Áåçûìÿííûé_ãðàäèåíò_107"/><linearGradient id="Áåçûìÿííûé_ãðàäèåíò_206-4" x1="108.65" y1="157.26" x2="114.41" y2="135.87" gradientTransform="matrix(-1, 0, 0, 1, 206.66, 0)" xlink:href="#Áåçûìÿííûé_ãðàäèåíò_206"/></defs><g class="cls-2"><g id="illustration"><g class="cls-3"><path class="cls-4" d="M148.21,196.1q0-.37.36-.36l6.7.2a4.81,4.81,0,0,1,1.69.31,2.89,2.89,0,0,1,1.11.74,2.82,2.82,0,0,1,.59,1.14,4.89,4.89,0,0,1,.15,1.47l-.05,1.85a5.44,5.44,0,0,1-.24,1.46,3,3,0,0,1-.66,1.1,3,3,0,0,1-1.15.68,5.18,5.18,0,0,1-1.71.2l-3.61-.11-.75-2.12h-.09l-.07,2.09-2.53-.08Zm2.34,6.33,4.29.13a1.39,1.39,0,0,0,1-.29,1.6,1.6,0,0,0,.34-1.12l.05-1.5a1.69,1.69,0,0,0-.27-1.15,1.52,1.52,0,0,0-1-.33l-4.1-.12a.15.15,0,0,0-.14,0,.18.18,0,0,0,0,.12Z"/><path class="cls-4" d="M162.45,199.93h-.09l-.08,2.68a.15.15,0,0,0,.16.18L170,203l-.07,2.32L160,205a.33.33,0,0,1-.35-.38l.25-8.21a.33.33,0,0,1,.37-.36l9.61.3c.24,0,.36.13.35.38l-.07,2.32-2.37.8h-.1l0-1.2c0-.09,0-.13-.12-.13l-5.07-.16a.18.18,0,0,0-.14,0,.27.27,0,0,0,0,.12l0,1.12,4.17.12,0,1.82-3.5-.1Z"/><path class="cls-4" d="M179.21,199.77h-.1l0-1c0-.1,0-.15-.14-.15l-4.72-.14a.42.42,0,0,0-.36.1.46.46,0,0,0-.11.31v.22a.46.46,0,0,0,.07.34.76.76,0,0,0,.33.12l5.53.94a3.63,3.63,0,0,1,.89.26,1.75,1.75,0,0,1,.59.42,1.34,1.34,0,0,1,.31.63,3.34,3.34,0,0,1,.08.88l0,.71a3.12,3.12,0,0,1-.16,1,1.78,1.78,0,0,1-.46.7,2,2,0,0,1-.83.41,4.57,4.57,0,0,1-1.24.11l-8-.24.07-2.32,7.13.21c.22,0,.36,0,.43-.1a.66.66,0,0,0,.12-.41v-.24a.43.43,0,0,0-.07-.33.47.47,0,0,0-.3-.13l-5.34-.84a3.92,3.92,0,0,1-.92-.25,1.64,1.64,0,0,1-.62-.41,1.46,1.46,0,0,1-.34-.61,2.76,2.76,0,0,1-.08-.85v-.63a2.07,2.07,0,0,1,.57-1.49,2.35,2.35,0,0,1,1.73-.48l8,.24a.35.35,0,0,1,.37.41l-.06,1.84Z"/><path class="cls-4" d="M182.57,205.72l.27-8.94,2.53.08-.27,8.94Z"/><path class="cls-4" d="M194.49,202.25a2.94,2.94,0,0,0,0-.42c0-.14,0-.26,0-.37v-.11l2.5.07-.13,4.39c0,.23-.11.34-.32.34l-6.73-.21a5.16,5.16,0,0,1-1.69-.3,2.71,2.71,0,0,1-1.7-1.89,5.23,5.23,0,0,1-.15-1.47l.06-1.84a4.82,4.82,0,0,1,.24-1.47,2.62,2.62,0,0,1,.66-1.09,2.8,2.8,0,0,1,1.15-.68,4.87,4.87,0,0,1,1.7-.2l6.7.2c.24,0,.35.13.34.38l-.05,1.93-2.38.79h-.1l0-.86c0-.08,0-.12-.11-.12l-4.27-.13a2.28,2.28,0,0,0-.62,0,.85.85,0,0,0-.42.22,1,1,0,0,0-.25.43,2.61,2.61,0,0,0-.09.68l-.05,1.58a1.6,1.6,0,0,0,.27,1.14,1.41,1.41,0,0,0,1,.35l4.24.12c.09,0,.14,0,.14-.14Z"/><path class="cls-4" d="M202.31,197.37a.58.58,0,0,1,.61.37l3.19,6.53a.29.29,0,0,0,.23.16h.14a.17.17,0,0,0,.2-.19l.2-6.73,2.3.07-.26,8.59c0,.23-.12.35-.35.34l-3.64-.11a.74.74,0,0,1-.38-.08.72.72,0,0,1-.24-.29L201,199.51a.26.26,0,0,0-.23-.16h-.13c-.13,0-.19.06-.2.19l-.2,6.72-2.3-.07.26-8.58c0-.24.13-.36.35-.35Z"/><circle class="cls-5" cx="269.05" cy="195.53" r="155.02" transform="translate(-59.46 247.52) rotate(-45)"/><path class="cls-6" d="M155.1,185.61a23.82,23.82,0,0,0-10.56-9.26l-2.35,1.09,5.3,9.61a10.33,10.33,0,0,1-3.24,5.72v0a10.34,10.34,0,0,1-6.47-1.18l-4-10.23-2.36,1.1a23.8,23.8,0,0,0,.34,14s1,2.31,1.17,2.52c.94,1.08,3.36,2.34,8.06,2.05L157.22,232a8.48,8.48,0,1,0,8.76-4.09l-13.3-32.25c3.16-3.34,3.83-6,3.59-7.49A27.3,27.3,0,0,0,155.1,185.61Zm13.32,53.31-4.29,2-3.88-2.71.41-4.72,4.29-2,3.88,2.71Z"/><path class="cls-7" d="M156.27,188.13a23.75,23.75,0,0,0-10.55-9.27l-2.35,1.1,5.29,9.6a10.22,10.22,0,0,1-3.24,5.72h0a10.3,10.3,0,0,1-6.47-1.19l-4-10.22-2.35,1.1a23.84,23.84,0,0,0,.33,14s3.67,4.91,9.23,4.56l16.21,30.92a8.47,8.47,0,1,0,8.76-4.1l-13.31-32.24C157.69,194.09,156.27,188.13,156.27,188.13Zm13.33,53.31-4.29,2-3.88-2.71.41-4.72,4.29-2,3.88,2.72Z"/><rect class="cls-8" x="131.92" y="181.76" width="2.59" height="2.78" transform="translate(-65 73.61) rotate(-25.04)"/><rect class="cls-8" x="142.66" y="176.76" width="2.59" height="2.78" transform="translate(-61.88 77.69) rotate(-25.04)"/><rect class="cls-8" x="164.5" y="239.79" width="4.74" height="2.78" transform="translate(-86.4 93.31) rotate(-25.04)"/><path class="cls-9" d="M145.66,205.86,158.75,231a6.38,6.38,0,0,0,5.28-2.47l-10.65-26.29A10.09,10.09,0,0,0,145.66,205.86ZM163,228.75a7.7,7.7,0,0,1-1.69,1.11,6.5,6.5,0,0,1-1.81.54l-13.1-24.64a13.75,13.75,0,0,1,3.15-2.07,11,11,0,0,1,3.24-.95Z"/><path class="cls-8" d="M163,228.75l1-.21a5.64,5.64,0,0,1-5.28,2.47l.77-.61A7.13,7.13,0,0,0,163,228.75Z"/><path class="cls-10" d="M145.66,205.86l.76-.1a12.16,12.16,0,0,1,6.39-3l.57-.49a9.88,9.88,0,0,0-7.72,3.61Z"/><path class="cls-11" d="M142.19,203.56a28.93,28.93,0,0,0,11.66-5.42l1.7,4.12s-1.93-1.91-6.16-.18c-4.95,2-4.68,6-4.68,6Z"/><path class="cls-12" d="M155.55,202.26a5,5,0,0,0-2.58-.89L165.63,232l1.53-1.58Z"/><path class="cls-13" d="M155.55,202.26s-1.32,4.09,2.49,6Z"/><path class="cls-14" d="M301.46,149.65c.06.43.11.66.11.66a57.27,57.27,0,0,1-1.66,5.66,46,46,0,0,1-6.23,12.12,23.85,23.85,0,0,1-2.72,3.18c-14.59-4.58-21.78-18.85-24.54-26a.36.36,0,0,1,0-.11c-.53-1.34-.88-2.42-1.1-3.12h0c-.17-.56-.25-.87-.25-.87l.18-.37,0-.05c.24-.5.48-1,.7-1.5a71.16,71.16,0,0,0,4-11.17c.71-2.62,1.09-4.64,1.27-5.71.09-.55.13-.85.13-.85l6.8,3.59,23.43,12.4a38.55,38.55,0,0,0-.5,5.94c0,1.25,0,2.37.09,3.32.07,1.16.19,2.08.28,2.68h0A.68.68,0,0,0,301.46,149.65Z"/><path class="cls-15" d="M295,172.84a20.1,20.1,0,0,1-4.84,3.54l-.12.07-.14-.08h0c-.51-.31-2.25-1.38-4.59-3.14-6.12-4.61-16.34-13.93-19.26-26.49l0,0a31.14,31.14,0,0,1-.7-4.59h0c0-.41-.06-.82-.07-1.24a64.43,64.43,0,0,0,5.55,9.92c4.14,6.06,10.35,12.67,17.77,12.71,6.42,0,9.71-4.35,11.38-8.4a22.92,22.92,0,0,0,1.35-4.6,0,0,0,0,0,0,0c.07-.36.12-.68.17-.95h0c0-.14,0-.26.05-.37.06-.45.08-.71.08-.71S304,163.77,295,172.84Z"/><path class="cls-16" d="M295,172.84a20.1,20.1,0,0,1-4.84,3.54h-.27c-.51-.31-2.25-1.38-4.59-3.14-6.12-4.61-16.34-13.93-19.26-26.49l0,0a31.14,31.14,0,0,1-.7-4.59h0c0-.41-.06-.82-.07-1.24a64.43,64.43,0,0,0,5.55,9.92s4,11.1,12.78,16.6c4.38,2.75,7.7,2.35,10.14.73a15.09,15.09,0,0,0,4.95-6.54,15.38,15.38,0,0,0,1.28-5.58q0-.5,0-.9a22.92,22.92,0,0,0,1.35-4.6,0,0,0,0,0,0,0c.07-.36.12-.68.17-.95h0c0-.14,0-.26.05-.37.06-.45.08-.71.08-.71S304,163.77,295,172.84Z"/><path class="cls-17" d="M351.12,263.53l-.16.08c-.82.1-3.37-.46-6.71-3.35h0l0,0s0,0,0,0c-2.8-2.45-6.16-6.54-9.51-13.24-6.7-13.39-8.62-22.33-8.93-23.89l0-.24-3.91,6.2c-2.65,8-7.67,40.95-7.58,42.37s4.45,8.34,4.36,9.19v0c-.12.86-2.08,2.75-2.64,4.81-.38,1.37,2.28,5.69,4.15,8.92h0a13.13,13.13,0,0,1,1.72,3.58c0,1.51-4.74,8.9-4.74,8.9v4l-.07.07-.22.2-.18.15c-1.8,1.42-9.43,6.07-33.27,7.35-28.25,1.51-47.07-7.58-47.07-7.58l1.42-3.89s-1.32-1.13-1.42-1.7,1-1.9,1-1.9-2.84-1.51-2.84-3.41,5.69-7.76,5.5-12.79-4.55-9.47-5.12-12.31,7.39-9.85,7.39-9.85c-6.82-21.6-8.15-50.59-8.15-50.59L232.73,213s-8.15,18.57-15.54,27.66c-.88,1.08-1.81,2.15-2.77,3.18a81,81,0,0,1-6.36,6.15c-5.12,4.46-9.77,7.39-10.95,7.16-1.9-.38-9.48-15.35-9.13-30.7.16-7.3,4.56-15.47,9.13-22,.49-.7,1-1.39,1.48-2.06a104.89,104.89,0,0,1,7.84-9.45c.58-.62.91-.95.91-.95s-1-3.35-1.75-6.26a1.6,1.6,0,0,0-.05-.21.36.36,0,0,0,0-.1.31.31,0,0,0,0-.07c-.42-1.79-.68-3.34-.44-3.72.63-1,4.3-2.15,4.93-2.9s3.28-13.52,5.3-14.91,5.35-2.3,16.72-6.77l1.73-.68c12.75-5.05,25.26-11.18,25.26-11.18l4.8-5.9h2.14l-.7,1.5,0,.05c.34,1.52.73,3,1.17,4.37a.36.36,0,0,0,0,.11C273,166.14,290,172.85,290,172.85c11.8-8.71,11.57-22.54,11.57-22.54v-1.9l2.21.66,1.51,3.6s2.56,4,12.7,8.44a60.32,60.32,0,0,1,5.57,2.85c9.28,5.27,19.6,13.42,20.39,15.15a5.61,5.61,0,0,1,.27.86h0c1.09,4.28,3.33,20.31,5.41,26a13.1,13.1,0,0,0,4.86,6.56h0a7.61,7.61,0,0,0,1.94,1q.24,1.32.45,2.61C361.25,243.62,353,262.23,351.12,263.53Z"/><path class="cls-18" d="M242.29,211.77l-8.24,2.77L232.73,213s-8.15,18.57-15.54,27.66c-.88,1.08-1.81,2.15-2.77,3.18a81,81,0,0,1-6.36,6.15l-6.28-27.07-3.19-20.55a104.89,104.89,0,0,1,7.84-9.45c.58-.62.91-.95.91-.95s-1-3.35-1.75-6.26a1.6,1.6,0,0,0-.05-.21.36.36,0,0,0,0-.1.31.31,0,0,0,0-.07c-.42-1.79-.68-3.34-.44-3.72.63-1,4.3-2.15,4.93-2.9s3.28-13.52,5.3-14.91c0,0-1.32,12.25,5.69,27.79l3.41,4.8,10,8S238.16,209.46,242.29,211.77Z"/><path class="cls-19" d="M218.45,233.93c-1.77,13.13-21.34,23.24-21.34,23.24-4.36,0-9.23-7.58-13.65-16.93s-4.69-36.21-4.92-37.87-2.7-5-2.85-6.4,4-4.36,4-4.36l0-.07,0-.07c-.43-.92-2.85-6.11-2.68-7.06s4.82-3.31,4.82-3.31l.29,5.11s10.78-2,14.43-10.39l.64-2.56,1.8,1.2v11s.37,1.71.94,1.71,4.77-2.1,5.65-1.81,1.76,6.17,2.94,6.92,4.3,2.94,4.77,4a19,19,0,0,1,.25,4.15,42.4,42.4,0,0,0,.41,6.94C214.54,210.27,220.22,220.79,218.45,233.93Z"/><path class="cls-20" d="M397.44,222.68c-.88,1.39-5.3,4.3-6.44,5.44s0,4.87,0,4.87a153.35,153.35,0,0,1-39.88,30.54l-.16.08c-11.66-7.84-10.66-20.75-6.79-31.63a82.1,82.1,0,0,1,10.32-19.38h0a24.41,24.41,0,0,1,5.92-1.64,3.59,3.59,0,0,1,2.19.68c1.42.88,2.62,2.27,3.78,1.69,1.71-.86,5.53-9.89,8.12-10.14,1.81-.17,4.32,1.67,6,2.72.73.46,1.3.77,1.58.69,1-.25,4.17-4.11,4.43-4.21s1.72,1,1.72,1l-1,1.28A35,35,0,0,0,394,219.84l3.47-5.08S398.33,221.29,397.44,222.68Z"/><path class="cls-21" d="M301.51,149.26c0,.13,0,.26-.05.39a7.73,7.73,0,0,1-.19.8,0,0,0,0,1,0,0c-1.19,4.41-6,8.92-12.07,6.75-6.63-2.37-19.25-29.1-19.25-29.1l1.27-5.71,30,24.4.33,2.31Z"/><path class="cls-22" d="M201.78,144.37s-1.83-10.11-1-17.56a81,81,0,0,0-.21-15.92,4.11,4.11,0,0,0-3.14,0c-1.33.76-4.42,8.47-3,14.66s.32,21,.32,21h-2.09l-4.55-6.25-2.21-.64s-12.72,12-12.53,19.14l1.66,6.35,15.67-.54L200.89,153Z"/><path class="cls-23" d="M185.86,139.69A81.23,81.23,0,0,0,188,154.47a3.54,3.54,0,0,1-3.57,3l-.8-.9s-.57,3.17-3.46,3.41l-2.75-2.75.71,2.27a3.89,3.89,0,0,1-3.6,2.33s-4.36-3.41-4.64-7.87l4.31-3.64v-2.8l5.11-3.6.1-2A12.08,12.08,0,0,1,185.86,139.69Z"/><path class="cls-24" d="M201,124.67a7.17,7.17,0,0,1-1.86,2.71,15.85,15.85,0,0,1-4.24,1.34l-.14,17.86h-2.09l-4.55-6.25s2.31,3.56,2.45,6.25l-1.8.88-1.56-5.35-.74,3.85.73,4.8a12.62,12.62,0,0,1,7.58-2.42l.73,1.33s-8.82,7.31-10.86,11.62c0,0,4.36-5.54,14.31-11.65l.94-2.93,1.26-7S199.92,129.59,201,124.67Z"/><path class="cls-25" d="M208.35,155.8c-.82,2.46-9.41,12.69-10.36,14.91a30,30,0,0,0-1.52,5.11C192.25,185,182,186.21,182,186.21l-.47-8.24s-5.49-3.16-6.42-4.89v0l-.11-.29a68.8,68.8,0,0,1,0-7.58l9.61-3.89c4.17-5.4,14.31-11.65,14.31-11.65l.47-2.83c-7.28-3.58-6.06-14.41-4.83-15.74a5.4,5.4,0,0,1,3.5-1.32s2.66,8.71,4.36,12.79S209.17,153.34,208.35,155.8Z"/><path class="cls-26" d="M179.39,141.87s1.07,9.95,4.22,14.69a23.19,23.19,0,0,1-4.32-12.65Z"/><path class="cls-26" d="M174.18,147.51s1,8,6,12.46c0,0-4.37-2.18-6-9.66Z"/><path class="cls-27" d="M199.32,168.59s-10.83,10.52-17.75,9.38l.47,8.24a18.28,18.28,0,0,0,15.07-13A31.55,31.55,0,0,1,199.32,168.59Z"/><path class="cls-28" d="M428.36,182.89s-9.95,18.19-21.6,23.78h-4l-9.19,13.93s-5.94-3.73-6.38-16A11.17,11.17,0,0,0,389.8,200s-3.28-2.58-4.17-4.47-1.2-7.58-1.83-9.92-6-7.2-7.2-7.83-6.63-.95-6.63-.95-.76-2,0-2.9,9.22-4.24,13.83-1.08a20.77,20.77,0,0,0,.82,3.67c.51,1.26,4.55,5.74,5.18,5.74s3.35-2.27,4.55-4a178.56,178.56,0,0,0,8.74-19.32.5.5,0,0,1,0-.13c0-.07.05-.14.06-.2a.93.93,0,0,0,0-.13s0,0,0-.05c1.14-3.85,7.77-11.24,11.31-13.26a2.09,2.09,0,0,1,2.33,1.51s-2.84,8.09-5.81,12.89c-.5.81-1,1.76-1.6,2.78h0c-2.53,4.65-5.38,10.74-5.79,11.63l-.05.11,1.58.81,4.27-4.05,4.38-4.15,10.05,10.61-1,1.26-3.14,4,1.59.29,3.7-4.09Z"/><path class="cls-29" d="M426,186.76l-3.18,4.67S405.4,178,401.61,176.83s-5.18-.38-5.18-.38l-3.91,5s7.2,6.38,7.83,15c0,0-2.4-10.86-10.55-14.15.63,0,3.35-2.27,4.55-4a178.56,178.56,0,0,0,8.74-19.32,5,5,0,0,0,.16,3.41c.86,1.59,5.92.09,6.22,0h0l-5.8,11.63-.05.11,1.58.81,4.27-4.05-2.14,5,15.58,2.75-3.14,4,1.59.29Z"/><path class="cls-30" d="M413.86,166.66s3-.44,5,3.48l-.44,1.26s3,.58,5.81,5.37a16.19,16.19,0,0,1-8.78,6.69s-2.9-.82-3.41-3.28l.57-1.58-2.27,1.71s-2.72.82-3.92-3.23Z"/><path class="cls-31" d="M429.27,181.63a4.67,4.67,0,0,0-2.46-4.8l-6,6.63a3.09,3.09,0,0,0,2.78,2.59S427.69,184.66,429.27,181.63Z"/><path class="cls-32" d="M385.63,195.53a44.46,44.46,0,0,0,17.15,11.14l-4.4,6.66-9.17-11.65.59-1.68S386.13,197.24,385.63,195.53Z"/><path class="cls-26" d="M418.41,171.4s-2.9,4.8-5.81,7.2l-.57,1.58s5.64-3.81,7.72-8.2A3.57,3.57,0,0,0,418.41,171.4Z"/><path class="cls-33" d="M397.44,222.68c-.88,1.39-5.3,4.3-6.44,5.44s0,4.87,0,4.87a153.35,153.35,0,0,1-39.88,30.54l-.16.08c-1.52.19-8.91-1.89-16.3-16.67-6.7-13.39-8.62-22.33-8.93-23.89l0-.24,1.63-2.21,2.42-27.28,1.7,5.49c6.44-7.77,12.51-19.7,12.51-19.7l.27.86h0c1.09,4.28,3.33,20.31,5.41,26a13.1,13.1,0,0,0,4.86,6.56v0h0c-5.93,5.41-8.87,13.19-10.32,19.38a53.68,53.68,0,0,0-1.42,10,67.43,67.43,0,0,1,6.82-17,36.5,36.5,0,0,1,7.33-8.85,58.85,58.85,0,0,1,5.72-4.58c1.42.88,2.62,2.27,3.78,1.69-7.8,11.71-7.61,34.89-.28,30.47s9-13.8,9-13.8c-1.73-11.43-1.22-24.32.17-26.77,1.69,0,6.52,3.45,6.8,3.37A39.6,39.6,0,0,0,388,229l4.17-6.45a40,40,0,0,1-5.62-20.19c.25-.11,1.72,1,1.72,1l-1,1.28A35,35,0,0,0,394,219.84l3.47-5.08S398.33,221.29,397.44,222.68Z"/><path class="cls-34" d="M317,306.81v4l-.07.07-.22.2-.18.15c-1.8,1.42-9.43,6.07-33.27,7.35-28.25,1.51-47.07-7.58-47.07-7.58l1.42-3.89s-1.32-1.13-1.42-1.7,1-1.9,1-1.9-2.84-1.51-2.84-3.41c0-1.71,4.64-6.66,5.39-11.31a6.76,6.76,0,0,0,.11-1.48c-.19-5-4.51-9.43-5.11-12.27v0c-.57-2.84,7.39-9.85,7.39-9.85-6.82-21.6-8.15-50.59-8.15-50.59L232.73,213s-8.15,18.57-15.54,27.66S199,257.55,197.11,257.17c-4.36,0-9.23-7.58-13.65-16.93s-4.69-36.21-4.92-37.87-2.7-5-2.85-6.4c4.74,8.15,12.29,5.75,12.29,5.75-5.47.12-8.31-10.11-8.31-10.11l0-.07,0-.07-2.67-7.05c.3.34,6.55,7.33,12.59,3,6.19-4.42,9.38-13,9.38-13v11s.37,1.71.94,1.71a134.15,134.15,0,0,1-2.74,17.29c-2.81,13.13-6.66,25.81-6.66,25.81s10.44-5.68,14.11-20.08a60.74,60.74,0,0,0,1.87-17.24,43.22,43.22,0,0,0-.84-7.21,1.6,1.6,0,0,0-.05-.21.36.36,0,0,0,0-.1.43.43,0,0,0,0,0l1,2.14,1.92,4.76c2.23,18.48-2.37,46.33-2.37,46.33,6.7-8.34,8.09-26.78,7.8-31.26-.13-2.14-.3-4.78-.41-6.94-.15-2.36-.25-4.15-.25-4.15l13.71,8.18-2.53-8,10,8s9,10.8,18.19,12.06,43.07.51,43.07.51-29.43,1.89-38,4.42-10.23,5.43-10.23,5.43c6.21,31.59,40.58,42.24,41.65,42.56-31.18-4.68-45.69-31.19-45.69-31.19s-.51,14.91,1.89,20.59,16.55,19.58,34.74,22.48a41.89,41.89,0,0,0,4.53.46c15.34.72,28-7.12,29.34-8l.11-.07,0,0c-.49.75-6.78,9.59-32.18,10.56-1.54.06-3,.05-4.5,0h0c-23.54-1-35.53-16.67-35.53-16.67s-8.71,4.68-3.15,11.62l.18.22c1.64,1.89,5.25,4.2,9.52,6.58l.35.2c5.16,2.85,11.21,5.79,15.89,8.22l.07,0a59.23,59.23,0,0,1,6.52,3.73h0c1.32,1,1.59,1.58.3,1.73-6.57.76-31.45-4.67-32.46-3.16s1.23,5.43,1.23,5.43c22.84,11.32,71.71,5.74,73.25,5.57C272.5,318.3,239,305,239,305l1.11,3.92a146.33,146.33,0,0,0,39.69,6.82c21.48.5,34.87-5,34.87-5Z"/><path class="cls-35" d="M300.31,216.87s16.26.89,27,3.73L321.78,229A73.77,73.77,0,0,0,300.31,216.87Z"/><path class="cls-36" d="M315.51,261.71s-10.15,8.47-20.13,12.38a67.34,67.34,0,0,1-19.58,4.3s5.74,1.7,19.85-.57,19-9.92,19-9.92Z"/><path class="cls-37" d="M320.06,294.32h0c-18.78,4.85-42.62-2.11-42.42-3s6.53.38,21.21-2.56c14.23-2.85,19.39-7.91,19.7-8.22-.12.86-2.08,2.75-2.64,4.81C315.53,286.77,318.19,291.09,320.06,294.32Z"/><path class="cls-38" d="M269.05,219.42c-16,1.63-20.36,6.1-20.36,6.1-4.51.57-14.64-11-14.64-11L232.73,213s-8.15,18.57-15.54,27.66c-.88,1.08-1.81,2.15-2.77,3.18l1.05-2.36s1.72-.82,2.22-9.85-3.79-22.48-3.82-24.31-.66-11.09-.66-11.09l13.71,8.18-2.53-8,10,8s3.91,5.88,13.78,10.78C257.46,219.84,267.9,219.47,269.05,219.42Z"/><path class="cls-39" d="M232.73,213l9.56-1.25a71.87,71.87,0,0,0,11.48,5.65l-6.39,9.43s2.54,13.44,9.82,21c0,0-19.32-10.73-22-19.75Z"/><path class="cls-40" d="M176.94,184.42l2.73,7.19s2.78,9.7,8.31,10.11,10.93-16.27,10.93-16.27v-11s-5.88,12.6-12.23,14S176.94,184.42,176.94,184.42Z"/><path class="cls-41" d="M210,178.73s4.93,9.85,11,12.88c0,0-7.21-17.5-5.69-27.79C215.29,163.82,212.64,165.47,210,178.73Z"/><path class="cls-42" d="M329.74,193.32l1.7,5.49,1.72,45.05a109.09,109.09,0,0,1-7.43-20.81l1.59-2.45S330,203.62,329.74,193.32Z"/><path class="cls-43" d="M382.09,206.58s-1,22.13,8.44,24L391,233S378.83,232.54,382.09,206.58Z"/><path class="cls-44" d="M366.4,213.31s-.36.79-3.78-1.69c0,0-11.83,8.38-16.39,20.19,0,0,7.29-10.85,11.17-12s4.82,3.16,4.82,3.16S363.76,216.84,366.4,213.31Z"/><path class="cls-45" d="M175.69,196s4.55,8.39,13.08,5.76c0,0-5.11,3.44-10.23.64C178.54,202.37,175.36,196.92,175.69,196Z"/><path class="cls-46" d="M205.5,185.35s6.26,23.4-10.07,41a27.14,27.14,0,0,0,13-18.05A38.75,38.75,0,0,0,205.5,185.35Z"/><path class="cls-47" d="M317.64,166.65s-.7,10.56-5.77,18.14-15.1,12.69-15.1,12.69,12.6-4.64,18.38-11.17S317.64,166.65,317.64,166.65Z"/><path class="cls-48" d="M253.19,150.76A66.82,66.82,0,0,0,256,168.59c2.84,9,27.51,24.73,27.51,24.73s-25.42-10.57-30.35-20.06S253.19,150.76,253.19,150.76Z"/><path class="cls-49" d="M305.29,152.67c-.78,9.3-3.61,15.78-6.63,20.15-4.16,6-8.66,8.05-8.66,8.05a52,52,0,0,1-11.76-7.09A60,60,0,0,1,259,145.28c6,14.54,14.86,23.35,21.56,28.31a43.28,43.28,0,0,0,9.41,5.52v-4.65a30.9,30.9,0,0,1-3.1-1.36c-11.8-5.95-18-18.35-20.9-26.37l0,0a57,57,0,0,1-2.18-7.39h2.14l-.7,1.5,0,.05c.34,1.52.73,3,1.17,4.37a.36.36,0,0,0,0,.11C273,166.14,290,172.85,290,172.85c11.8-8.71,11.57-22.54,11.57-22.54v-1.9l2.21.66Z"/><path class="cls-50" d="M375.29,203.21s-3.21,10.47-.17,26.77c0,0,1.51-20.65,2.65-22.45s4.32-.95,4.32-.95A72.14,72.14,0,0,0,375.29,203.21Z"/><path class="cls-51" d="M344.17,260.18c-2.8-2.45-6.16-6.54-9.51-13.24-6.7-13.39-8.62-22.33-8.93-23.89l1.59-2.45,2.13-20.6,2-1.19A84.28,84.28,0,0,0,344,179.11a5.61,5.61,0,0,1,.27.86h0c1.09,4.28,3.33,20.31,5.41,26a13.1,13.1,0,0,0,4.86,6.56s-12.31,18.26-12.91,31.29C341.05,255.72,343.69,259.58,344.17,260.18Z"/><path class="cls-52" d="M271.08,298.26s-22.19-3.64-31.25-9.48h0a6.76,6.76,0,0,0,.11-1.48c-.19-5-4.51-9.43-5.11-12.27.1.27.75,1.77,3.9,4.47a66.94,66.94,0,0,0,9.52,6.58l.35.2c6.4,3.78,11.91,6.34,15.89,8.22l.07,0c3.58,1.68,5.9,2.79,6.52,3.73Z"/><path class="cls-53" d="M318.55,280.59c-.12.86-2.08,2.75-2.64,4.81,0,0-8.14,8.62-38.27,6,.2-.85,6.53.38,21.21-2.56C313.08,286,318.24,280.9,318.55,280.59Z"/><path class="cls-54" d="M323.56,164,304.3,170.2l-5.64,2.62H290l-3.1.25-1.64.12-4.67.37-2.35.19-23.1-8.36L251,163.93l-19-6.88,1.73-.68c12.75-5.05,25.26-11.18,25.26-11.18l4.8-5.9h2.14a71.16,71.16,0,0,0,4-11.17l1.27-5.71c.09-.55.13-.85.13-.85l6.8,3.59,22.93,18.34c0,1.25,0,2.37.09,3.32l.33,2.31c.06-.45.08-.71.08-.71l2.21.66,1.51,3.6s2.56,4,12.7,8.44A60.32,60.32,0,0,1,323.56,164Z"/><path class="cls-55" d="M308.89,146.39A31.37,31.37,0,0,1,290,143.61c-9.91-4.8-18.24-19-18.75-22.48s3.79-12.76,3.79-20-3.53-19.58,2.4-26.28,33.22-7.7,42.07.89c0,0,2.74,6.88,2.74,10.77a28.33,28.33,0,0,1-.42,3.91c-.08.59-.19,1.22-.29,1.87-.79,4.71-1.88,10.46-1.37,13a12.64,12.64,0,0,0,.79,2.46h0c1.09,2.52,2.71,4.53,3,6.71C324.34,117.34,320.52,137.55,308.89,146.39Z"/><path class="cls-56" d="M275,99.14s-2.45-6.15-8.61-6.25c0,0-3.6,1.43-4.17,4.17,0,0,1.33,10,2.84,14.59s7.08,4,7.08,4A23.59,23.59,0,0,0,275,99.14Z"/><path class="cls-57" d="M298.63,119.39a5.65,5.65,0,0,1,2.94.5c.88.67,4.1,3.79,8.18,4.65s6.8-2.62,7.67-2.8,1.82,1.05,1.82,1.05a3.42,3.42,0,0,0-2.49-2.06s-.86,3.27-6.77,2.15-8.41-3.74-8.41-3.74l-.3-.54A16.22,16.22,0,0,0,298.63,119.39Z"/><path class="cls-58" d="M289.92,88.8l.08-.63s5.89-10.34,17.54-10.62,14.29,7,14.29,7L324,81.29l-4.92-10-34.24-.56-8.34,6.72-1.05,16.47,3.71,21.74,9,4.8,2.54-2.25c-.94-7.28-6.35-13.93-6.35-13.93l3.95-2.74s10.13,4.9,16,3.43c0,0,4.41-12.85,4.15-22.38C308.45,82.59,293.44,84.81,289.92,88.8Z"/><path class="cls-59" d="M289.4,89.56s.57-3.72,6.85-5.21c7-1.66,12.69-3.06,12.69-3.06s-1.24,4.08-3.57,5.61c0,0-7.41-.27-11.16.59S289.4,89.56,289.4,89.56Z"/><path class="cls-59" d="M321.83,84.57s-3.56,2.74-6,9.27c0,0,2.32-3,4.45-3a1.22,1.22,0,0,1,1.23,1.47A13.65,13.65,0,0,0,321.83,84.57Z"/><path class="cls-60" d="M291.75,100.09s.38-7.86,8.05-9.85a16,16,0,0,1,3,7.58S298.76,97.06,291.75,100.09Z"/><path class="cls-61" d="M313.73,103.22s.62-6.26,4.21-8.57c0,0,2.45,1.83,2.2,7.07C320.14,101.72,318,101,313.73,103.22Z"/><path class="cls-62" d="M291.75,100.09s2.49,3.07,9.47,3.67a10.93,10.93,0,0,0,1.2-6S296,97.16,291.75,100.09Z"/><path class="cls-62" d="M313.73,103.22v.92s1.07,2.24,4.92,2.62a10.82,10.82,0,0,0,1.35-5.07S317.55,101.07,313.73,103.22Z"/><path class="cls-63" d="M299.21,97.61a8.64,8.64,0,0,0-1.61,5.55,27.25,27.25,0,0,0,3.62.6,9.41,9.41,0,0,0,1.2-6A9.78,9.78,0,0,0,299.21,97.61Z"/><path class="cls-63" d="M317.38,101.79s-1,1.08-1.19,4.37a7.52,7.52,0,0,0,2.46.6,9.08,9.08,0,0,0,1.35-5.07A4.38,4.38,0,0,0,317.38,101.79Z"/><path class="cls-59" d="M298.63,103.39s-.63-4.25,1.8-5.87l2,.25a8.59,8.59,0,0,1-1.2,6S299.24,103.53,298.63,103.39Z"/><path class="cls-59" d="M318.26,101.61a18.14,18.14,0,0,0-1.32,4.83,5.55,5.55,0,0,0,1.71.32,8.27,8.27,0,0,0,1.35-5.07A4,4,0,0,0,318.26,101.61Z"/><path class="cls-64" d="M291.75,100.09s4.64-2.7,12.55-1.16l-1.47-1.11A13.24,13.24,0,0,0,291.75,100.09Z"/><path class="cls-64" d="M313.73,103.22a12.49,12.49,0,0,1,8.06-.93L320,101S317.09,100.52,313.73,103.22Z"/><path class="cls-13" d="M296.77,100.09a2.77,2.77,0,0,1,2.4.88A2.2,2.2,0,0,1,296.77,100.09Z"/><path class="cls-13" d="M315.43,103.76s2-.39,2.66.52C318.09,104.28,317,105,315.43,103.76Z"/><path class="cls-65" d="M292.21,100.55A18.19,18.19,0,0,0,301.6,105l.15-2.1-.53.89S295.67,103.43,292.21,100.55Z"/><path class="cls-65" d="M313.73,104.14s.64,2.3,5.34,3.34l-.15-1.12-.27.4S315.31,106.33,313.73,104.14Z"/><path class="cls-66" d="M304.3,113.36a16.67,16.67,0,0,1,5,0c3.22.38,6.85,1.26,8.82,0,0,0-2.62,2.63-4.9,3s-5.75-1.6-5.75-1.6l-1.51,0A4.19,4.19,0,0,1,304.3,113.36Z"/><path class="cls-67" d="M306.15,114.81a2.46,2.46,0,0,1,1.45-.38c.66.13,1.34,1.09,1.34,1.09A6.61,6.61,0,0,0,306.15,114.81Z"/><path class="cls-68" d="M318.09,113.36c.85-.82-3.51-8.59-5.6-8.87s-4,8.7-4,8.7,2.9.41,5.71.78S318.09,113.36,318.09,113.36Z"/><path class="cls-69" d="M321.21,88.92c-1.18-.15-5.35,4.92-5.35,4.92s-2.65,8.21-2.13,10.64,7,3.73,7,3.73l.27-.43h0a12.64,12.64,0,0,1-.79-2.46c-.51-2.52.58-8.27,1.37-13a9.67,9.67,0,0,0,.29-1.87C321.86,89.7,321.75,89,321.21,88.92Z"/><path class="cls-70" d="M321,122.26c-1.33-2.78-.51-4.23-12.06-5.74-16.35-2.15-17.75,2.84-20.53,2.08a2.67,2.67,0,0,1-.33-.12c-3-1.17-10.1-8.14-10.28-17.53-.19-9.76,6.35-16.68,6.35-16.68-2.37-2-3.32-7.76-.76-10.23s6.92-1.89,17.62-.76,10.71.48,10.71.48c3.4.87,5.35,4.06,5.9,5.08.11.2.16.32.16.32l1.33-1.23a17.42,17.42,0,0,1,2.94,10.89s5.87-11.94,5.2-13.63a45.38,45.38,0,0,0-4.82-8h0s-.95-9.09-3.79-9.09-15,2.74-15,2.74a17.22,17.22,0,0,0,1.14-6.72l-.05.05c-4,3.55-7.83,3.94-13.31,6.48a13.87,13.87,0,0,0-5.13,3.72l-.37.44-.39.47c-.38.48-.77,1-1.24,1.47a.33.33,0,0,1-.06.06l0,0a15.68,15.68,0,0,1-1.59,1.49c-3.6,2.93-11.52,4.89-12.47,8s1.2,7.32,2.34,11.68a23.73,23.73,0,0,1,.61,8.21,16.13,16.13,0,0,1,2.52,12c-1.11,6.37-3.54,7.41-3.54,7.41a10.91,10.91,0,0,0-.9,6.79c3.5,13.92,18,22.21,18,22.21,12.88,4.8,21.35,2.71,21.35,2.71h0c9.37-6.11,12.58-26.33,12.72-27.27C323.11,120.3,321.37,123,321,122.26Zm-5.78,12.89c-2.27-.38-2.75-6.13-3.5-6.89s-4.87-.44-4.87-.44-3.79,4.3-5.3,4.42-9.6-3.16-7.85-8.08,7.85-5.56,7.85-5.56a14.8,14.8,0,0,0,7.89,3c4.74.31,6.45-.56,7-.81s3.62,1.13,3.54,5.43C320,129.17,317.52,135.53,315.24,135.15Z"/><path class="cls-71" d="M314.65,106.21s4.08,5.07,3.69,7c-.42,2.09-5.15,3.2-5.15,3.2s3.79-1.31,4.57-3.2A25.4,25.4,0,0,0,314.65,106.21Z"/><path class="cls-72" d="M322.07,88.82a17.42,17.42,0,0,0-2.94-10.89,29.09,29.09,0,0,0,3.31-10.71h0a36.71,36.71,0,0,1,1.54,7.1l3.28.86C327.94,76.88,322.07,88.82,322.07,88.82Z"/><path class="cls-73" d="M317.64,78.84c-.55-1-2.5-4.21-5.9-5.08,0,0,0,.66-10.71-.48S286,71.58,283.41,74s-1.61,8.24.76,10.23c0,0-6.54,6.92-6.35,16.68.18,9.39,7.27,16.36,10.28,17.53l-.14,1s.53,21.5,5.76,23.21,16.06.82,17.07,1.83-.14,2.61-.24,2.76h0s-8.47,2.09-21.35-2.71c0,0-14.48-8.29-18-22.21a10.91,10.91,0,0,1,.9-6.79s2.43-1,3.54-7.41a16.13,16.13,0,0,0-2.52-12,23.73,23.73,0,0,0-.61-8.21c-1.14-4.36-3.29-8.59-2.34-11.68a13.64,13.64,0,0,0,10-2.21s1.06-1.47,5.75-2.23,23.54,1.14,23.54,1.14a16.2,16.2,0,0,0-5.87-2.61c-3.76-1-16.6.16-18,.27,1.47-.26,16-2.76,17.69-2.26s8.06,3.41,8.06,3.41C310.84,69,305.2,62,305.2,62A88.48,88.48,0,0,0,292,63.24a17,17,0,0,0-7.7,3.54l1.24-1.47.39-.47.37-.44,1.82-.31,9.14-3.69c3.07-1.64,7-5.7,7.48-6.2l.05-.05a17.22,17.22,0,0,1-1.14,6.72c7.72-.95,10.33-.47,10.33-.47C317.52,65.37,317.64,78.84,317.64,78.84Z"/><path class="cls-74" d="M289.19,144.62a48.4,48.4,0,0,1,11.87-.84c7.15.29,11.25.32,9.48,3.55C310.54,147.33,301.57,149.36,289.19,144.62Z"/><path class="cls-75" d="M314,60.4s4.34-1.69,6.06-1.42a3.37,3.37,0,0,0-1.39-1.09c-.71-.19-15,3-15,3S312.59,59.83,314,60.4Z"/><path class="cls-76" d="M305.2,62s-.34,4.73-1.85,6.44l-17.69,2.26-5.19-.92a12.86,12.86,0,0,0,4.21-3.43C286.89,63.78,298.43,61.25,305.2,62Z"/><path class="cls-77" d="M322.44,67.22A39.82,39.82,0,0,1,324,74.33l3.28.86A23.67,23.67,0,0,0,322.44,67.22Z"/><path class="cls-78" d="M274.24,107.48s-1.25-6-4.3-8.92a7.16,7.16,0,0,0-6.52-2s.95,11.07,1.94,13.77,2.51,3.41,2.51,3.41a8.52,8.52,0,0,1-2.41-5.53c-.29-3.66-.38-8.83.42-9.44s4.06,1.78,4.06,1.78a10.93,10.93,0,0,0-1.64,4.52c-.62,3.27,1.66,5.64,2.51,5.59s-.05-3.78.1-4.85S272.94,105,274.24,107.48Z"/><path class="cls-79" d="M271.19,100.07a7.46,7.46,0,0,0-3,6.67c.36,4.49,2.93,4.29,2.94,3.35s-.49-3.37-.23-4.74,2.47-.75,2.47-.75A31.85,31.85,0,0,0,271.19,100.07Z"/><path class="cls-80" d="M323.27,120.05s-4.14,18.87-12.73,27.28C310.54,147.33,320.34,143.48,323.27,120.05Z"/><path class="cls-80" d="M318.68,57.89s2.18,1.7,2.59,7.59-2.14,12.45-2.14,12.45a23.73,23.73,0,0,0,3.6-10.27C323,62.29,320.41,58.57,318.68,57.89Z"/><path class="cls-81" d="M292.24,70.24a51.22,51.22,0,0,0,10.59,2.21l6.68.6s-2.23-2.16-7-2.81A48.08,48.08,0,0,0,292.24,70.24Z"/><path class="cls-82" d="M316.64,120.46s2.42,0,3.37,3a25.24,25.24,0,0,1,1,4.5l.85-3.32s-1.11-4.21-2.27-5.15c-.84-.69-2.28-1.38-3-1.21Z"/><path class="cls-83" d="M310.13,117.43l.41,3.6a12.75,12.75,0,0,0,4.89-.57l.35-2.18A27.6,27.6,0,0,0,310.13,117.43Z"/><path class="cls-80" d="M323.56,164s17.23,12.58,19.46,16.91,3.14,17.9,6.17,23.78c0,0-2.07-9.61-3.52-17.15s-1.1-7.64-1.91-9.48S330.09,167.24,323.56,164Z"/><path class="cls-80" d="M320.47,234s-8.3,35.55-7.92,37.95,5.75,7.3,6,8.64c0,0-4.11,5.5-3.92,6.72s7.2,8.92,7,11.31c-.05.69-4.6,8.19-4.6,8.19s5.14-7.37,5.39-8.55-6.29-11-6.49-12c-.49-2.59,3.27-4.49,3.4-6.2s-5.1-5.87-5.14-8.65S320.47,234,320.47,234Z"/><path class="cls-68" d="M208.35,155.8s-4.64-1-6.57-5-.67-9.92-.67-9.92a102.24,102.24,0,0,0,5.45,9.36C208.37,152.58,208.86,155.29,208.35,155.8Z"/><path class="cls-84" d="M351.66,134.61l3.22,91.8a6.76,6.76,0,0,0,6.76,6.53H519.77a6.77,6.77,0,0,0,6.76-6.61l2.21-92.86a6.76,6.76,0,0,0-6.8-6.93l-163.57,1.07A6.76,6.76,0,0,0,351.66,134.61Z"/><path class="cls-85" d="M519.77,233.19H361.64a7,7,0,0,1-7-6.77l-3.22-91.8a7,7,0,0,1,7-7.26l163.57-1.07a7.07,7.07,0,0,1,5,2.1,7,7,0,0,1,2,5.08l-2.22,92.87A7,7,0,0,1,519.77,233.19ZM522,126.79h0l-163.56,1.07a6.52,6.52,0,0,0-6.47,6.75l3.22,91.79a6.49,6.49,0,0,0,6.51,6.29H519.77a6.55,6.55,0,0,0,6.51-6.36l2.22-92.87a6.52,6.52,0,0,0-6.52-6.67Z"/><path class="cls-86" d="M351.89,139.29H528.56l.28-4.84a7.42,7.42,0,0,0-7.46-7.85l-163.5,1.29a6.13,6.13,0,0,0-6.08,6.25Z"/><polygon class="cls-87" points="360.78 146.7 360.78 199.82 414.85 199.82 414.85 146.42 360.78 146.7"/><rect class="cls-88" x="467.11" y="150.26" width="23.52" height="23.52"/><rect class="cls-89" x="494.86" y="150.26" width="23.52" height="23.52"/><rect class="cls-90" x="438.89" y="150.26" width="23.52" height="23.52"/><rect class="cls-91" x="458.23" y="187.5" width="60.15" height="5.63"/><rect class="cls-91" x="443.19" y="196.07" width="75.2" height="1.74"/><rect class="cls-91" x="443.9" y="176.78" width="14.39" height="1.74"/><rect class="cls-91" x="471.68" y="176.78" width="14.39" height="1.74"/><rect class="cls-91" x="499.43" y="176.78" width="14.39" height="1.74"/><rect class="cls-91" x="438.89" y="198.91" width="24.19" height="1.74"/><rect class="cls-91" x="443.19" y="201.71" width="75.2" height="1.74"/><rect class="cls-91" x="438.89" y="204.51" width="79.49" height="1.74"/><rect class="cls-91" x="438.89" y="207.31" width="79.49" height="1.74"/><rect class="cls-91" x="443.19" y="218.63" width="75.2" height="1.74"/><rect class="cls-91" x="438.89" y="221.43" width="79.49" height="1.74"/><rect class="cls-91" x="438.89" y="224.23" width="79.49" height="1.74"/><rect class="cls-91" x="438.89" y="210.11" width="76.3" height="1.74"/><rect class="cls-91" x="443.19" y="212.91" width="75.2" height="1.74"/><rect class="cls-91" x="438.89" y="215.71" width="64.41" height="1.74"/><g class="cls-92"><path class="cls-93" d="M375.93,189.17a15.39,15.39,0,1,1,15.38-15.39A15.4,15.4,0,0,1,375.93,189.17Zm0-29.77a14.39,14.39,0,1,0,14.38,14.38A14.4,14.4,0,0,0,375.93,159.4Z"/></g><circle class="cls-13" cx="375.93" cy="173.78" r="8.36"/><g class="cls-92"><path class="cls-93" d="M414.85,161.8a15.39,15.39,0,1,1,15.39-15.38A15.4,15.4,0,0,1,414.85,161.8Zm0-29.77a14.39,14.39,0,1,0,14.39,14.39A14.4,14.4,0,0,0,414.85,132Z"/></g><circle class="cls-13" cx="414.85" cy="146.42" r="7.87" transform="matrix(0.16, -0.99, 0.99, 0.16, 205.73, 533.47)"/><g class="cls-92"><polygon class="cls-13" points="358.08 132.08 359.21 130.38 365.29 135.7 364.35 137 358.08 132.08"/><polygon class="cls-13" points="365.44 132.08 364.32 130.38 358.24 135.7 359.17 137 365.44 132.08"/></g><rect class="cls-13" x="469.84" y="131.53" width="54.44" height="2.73"/><polygon class="cls-94" points="183.35 92.12 183.35 115.75 211.6 115.99 211.99 91.36 183.35 92.12"/><polygon class="cls-95" points="211.99 91.36 213.83 94.47 212.91 115.97 211.6 115.99 211.99 91.36"/><polygon class="cls-13" points="188.4 100.1 191 96.31 205.12 108.15 202.95 111.04 188.4 100.1"/><polygon class="cls-13" points="205.48 100.1 202.87 96.31 188.76 108.15 190.92 111.04 205.48 100.1"/><path class="cls-96" d="M249.27,370.18H152.58a7.93,7.93,0,0,1-7.92-7.74l-1.8-79.3a7.91,7.91,0,0,1,7.92-8.1H251.44a7.92,7.92,0,0,1,7.92,8.13l-2.17,79.31A7.92,7.92,0,0,1,249.27,370.18Z"/><path class="cls-97" d="M249.27,370.43H152.58a8.22,8.22,0,0,1-8.17-8l-1.8-79.31a8.16,8.16,0,0,1,8.17-8.35H251.44a8.16,8.16,0,0,1,8.17,8.39l-2.17,79.31A8.13,8.13,0,0,1,249.27,370.43Zm-98.49-95.14a7.65,7.65,0,0,0-7.67,7.84l1.8,79.31a7.72,7.72,0,0,0,7.67,7.49h96.69a7.64,7.64,0,0,0,7.67-7.46l2.17-79.3a7.67,7.67,0,0,0-7.67-7.88Z"/><rect class="cls-13" x="168.92" y="291.26" width="50.85" height="2.18"/><rect class="cls-13" x="168.92" y="296.55" width="25.42" height="2.18"/><rect class="cls-13" x="168.92" y="300.98" width="25.42" height="2.18"/><rect class="cls-13" x="197.2" y="300.98" width="20.23" height="2.18"/><rect class="cls-13" x="168.92" y="305.4" width="40.99" height="2.18"/><rect class="cls-13" x="168.92" y="309.82" width="14.59" height="2.18"/><rect class="cls-13" x="186.51" y="323.08" width="25.23" height="2.18"/><rect class="cls-13" x="168.92" y="314.24" width="45.73" height="2.18"/><rect class="cls-13" x="168.92" y="318.66" width="35.18" height="2.18"/><rect class="cls-13" x="168.92" y="323.08" width="16.55" height="2.18"/><rect class="cls-13" x="168.92" y="327.5" width="25.42" height="2.18"/><rect class="cls-13" x="168.92" y="331.92" width="7.29" height="2.18"/><rect class="cls-13" x="179.22" y="331.92" width="26.46" height="2.18"/><rect class="cls-13" x="186.51" y="336.21" width="25.23" height="2.18"/><rect class="cls-13" x="168.92" y="336.21" width="16.55" height="2.18"/><rect class="cls-13" x="168.92" y="340.63" width="25.42" height="2.18"/><rect class="cls-13" x="168.92" y="345.06" width="7.29" height="2.18"/><rect class="cls-13" x="179.22" y="345.06" width="26.46" height="2.18"/><path class="cls-98" d="M508.72,108.84a4.47,4.47,0,1,1-4.47-4.47A4.47,4.47,0,0,1,508.72,108.84Z"/><path class="cls-99" d="M89.82,212.48a5.57,5.57,0,1,1-5.56-5.56A5.56,5.56,0,0,1,89.82,212.48Z"/><circle class="cls-100" cx="517.37" cy="108.84" r="4.47"/><circle class="cls-101" cx="229.2" cy="139.57" r="3.16"/><circle class="cls-102" cx="440.86" cy="279" r="3.16"/><circle class="cls-103" cx="112.34" cy="310.51" r="2.82"/><path class="cls-104" d="M160.49,282.77h-48.8a7.28,7.28,0,0,1-7.27-7l-1.09-32.09a7.28,7.28,0,0,1,7.28-7.53h50.87a7.28,7.28,0,0,1,7.27,7.5l-1,32.1A7.28,7.28,0,0,1,160.49,282.77Z"/><path class="cls-105" d="M160.49,283h-48.8a7.5,7.5,0,0,1-7.52-7.28l-1.09-32.09a7.55,7.55,0,0,1,7.53-7.79h50.87a7.53,7.53,0,0,1,7.52,7.76l-1,32.1A7.49,7.49,0,0,1,160.49,283Zm-49.88-46.66a7,7,0,0,0-7,7.27l1.09,32.09a7,7,0,0,0,7,6.8h48.8a7,7,0,0,0,7-6.82l1-32.09a7,7,0,0,0-7-7.25Z"/><polygon class="cls-13" points="124.7 247.64 112.67 261.59 124.93 271.99 124.93 266.62 117.84 260.48 124.42 253.04 124.7 247.64"/><polygon class="cls-13" points="145.85 248.27 157.89 262.21 145.63 272.61 145.63 267.25 152.72 261.11 144.83 252.76 145.85 248.27"/><polygon class="cls-13" points="127.33 271.99 137.81 248.89 142.74 248.89 130.86 271.99 127.33 271.99"/><path class="cls-106" d="M488.82,348.82H427.77a9.1,9.1,0,0,1-9.1-8.8l-1.36-40.15a9.12,9.12,0,0,1,9.11-9.42h63.63a9.12,9.12,0,0,1,9.11,9.39L497.93,340A9.11,9.11,0,0,1,488.82,348.82Z"/><path class="cls-105" d="M488.82,349.07H427.77a9.32,9.32,0,0,1-9.35-9l-1.36-40.15a9.36,9.36,0,0,1,9.36-9.68h63.63a9.36,9.36,0,0,1,9.36,9.64L498.18,340A9.33,9.33,0,0,1,488.82,349.07Zm-62.4-58.37a8.87,8.87,0,0,0-8.86,9.16L418.92,340a8.82,8.82,0,0,0,8.85,8.56h61.05a8.82,8.82,0,0,0,8.86-8.59l1.23-40.15a8.86,8.86,0,0,0-8.86-9.13Z"/><rect class="cls-91" x="429.55" y="296.91" width="55.91" height="33.21"/><polygon class="cls-13" points="452.55 305.15 452.55 321.88 466.84 312.75 452.55 305.15"/><rect class="cls-91" x="429.55" y="336.24" width="55.91" height="3.04"/><rect class="cls-13" x="429.55" y="336.24" width="14.47" height="3.04"/><path class="cls-107" d="M388.58,286.42l-2.91,8.34C387.28,290.15,389.6,287.16,388.58,286.42Zm-2.91,8.34-2.93,8.35C383.48,302.89,384.05,299.38,385.67,294.76Zm2.91-8.34-2.91,8.34C387.28,290.15,389.6,287.16,388.58,286.42Zm-2.91,8.34-2.93,8.35C383.48,302.89,384.05,299.38,385.67,294.76Zm8.42,7.24,2.84,1.6,3.06-8.35-3.28-.55c.06-.31.11-.62.15-.92a21.39,21.39,0,0,0,.28-4.17l3.43-2.15L399,280.1l-3.29,3.15A9.66,9.66,0,0,0,394,280.8a6,6,0,0,0-.57-.56l2-4.64-5.35-1.74h0l-1.28,4.68a8.74,8.74,0,0,0-3.62.85l-.59-4.42-5.89,4.45,1.36,3.92a22.31,22.31,0,0,0-2.87,4.18l-2.84-1.6-3.06,8.35,3.28.55a22.54,22.54,0,0,0-.43,5.09l-3.43,2.15,1.56,7.36,3.29-3.14a9.13,9.13,0,0,0,2.25,3l-2,4.65,5.26,2.05.81-3,.56-2a9,9,0,0,0,3.63-.85l.58,4.42,5.89-4.46-1.36-3.91a22.31,22.31,0,0,0,2.31-3.21C393.73,302.66,393.91,302.33,394.09,302Zm-8.42-7.24c-1.62,4.62,0,9.37-2.93,8.35s-4-5.6-2.38-10.2,5.3-7.52,8.22-6.49S387.28,290.15,385.67,294.76Zm2.91-8.34-2.91,8.34C387.28,290.15,389.6,287.16,388.58,286.42Zm-2.91,8.34-2.93,8.35C383.48,302.89,384.05,299.38,385.67,294.76Z"/><path class="cls-108" d="M396.93,303.6l3.06-8.35-3.13-1.47-.5-.24.33-4.6,3.46-1.69L399,280.1l-7.55-2.45,1.39,3.31,2.63-5.36-5.35-1.74-2.19-.71-5.27-2.06-1,3.6-4.59-2.18L371.21,277l1.78,4.82-5.5,15.27L364.77,307l5.23.57-1.71,3.93,5.28,2.06,7.54,2.45-1.21-2.42-.76-1.45,2.78.91,4.77,1.55,5.89-4.46-3.64-4.29,4.59-2.83Zm-16.57-10.69c1.62-4.61,5.3-7.52,8.22-6.49l-2.91,8.34-2.93,8.35C379.81,302.08,378.74,297.51,380.36,292.91Z"/><path class="cls-109" d="M389.38,301.14l3.06-8.35-3.28-.55a23.75,23.75,0,0,0,.44-5.08L393,285l-1.57-7.36-3.29,3.14a9,9,0,0,0-2.25-3l2-4.64-5.27-2.06-1.37,5a8.92,8.92,0,0,0-3.62.84l-.58-4.41L371.21,277l1.35,3.92a22.39,22.39,0,0,0-2.87,4.19l-2.84-1.6-3.05,8.35,3.28.55a22.44,22.44,0,0,0-.44,5.08l-3.43,2.15,1.56,7.36,3.29-3.14a9.17,9.17,0,0,0,2.25,3l-2,4.64,5.27,2.05,1.36-5a8.94,8.94,0,0,0,3.63-.85l.58,4.42,5.89-4.46-1.36-3.91a22.39,22.39,0,0,0,2.87-4.19Zm-14.19-.49c-2.93-1-4-5.6-2.38-10.2s5.3-7.52,8.23-6.49,4,5.59,2.38,10.2S378.12,301.67,375.19,300.65Z"/><polygon class="cls-110" points="400.57 287.46 393.03 285.01 389.6 287.16 397.14 289.61 400.57 287.46"/><polygon class="cls-111" points="392.58 310.1 385.03 307.64 383.67 303.73 391.22 306.19 392.58 310.1"/><polygon class="cls-110" points="385.93 277.79 390.06 278.99 391.46 277.65 394.21 278.54 395.48 275.6 387.94 273.14 385.93 277.79"/><path class="cls-110" d="M374.93,308.53l3.95,1.64-.32-2.49A7.08,7.08,0,0,1,374.93,308.53Z"/><path class="cls-110" d="M375.54,285.9l6.66,3.52a10.23,10.23,0,0,1,1.71-1.81S382.17,280.27,375.54,285.9Z"/><polygon class="cls-112" points="222.79 36.96 229.2 49.81 224.92 51.76 218.92 39.96 222.79 36.96"/><polygon class="cls-113" points="78.34 336.3 84.28 342.82 86.61 340.13 81 333.96 78.34 336.3"/><polygon class="cls-114" points="380.12 115.37 374.13 119 371.74 114.45 378.27 110.64 380.12 115.37"/><polygon class="cls-114" points="409.56 345.08 400.99 351.17 398.59 346.63 406.91 341.77 409.56 345.08"/><polygon class="cls-115" points="398.24 84.3 396.79 50.64 440.86 50.64 439.05 84.2 398.24 84.3"/><polygon class="cls-116" points="396.79 50.64 395.47 52.62 396.79 84.3 398.24 84.3 396.79 50.64"/><polygon class="cls-13" points="411.42 57.36 404.51 56.62 405.45 79.68 411.42 79.1 411.42 76.71 407.96 76.79 407.57 59.01 411.42 59.12 411.42 57.36"/><polygon class="cls-13" points="425.58 57.36 432.5 56.62 431.55 79.68 425.58 79.1 425.58 76.71 429.04 76.79 429.44 59.01 425.58 59.12 425.58 57.36"/><polygon class="cls-117" points="94.35 157.98 95.34 135.03 65.3 135.03 66.53 157.91 94.35 157.98"/><polygon class="cls-118" points="95.34 135.03 96.24 136.39 95.34 157.98 94.35 157.98 95.34 135.03"/><path class="cls-13" d="M83.77,139.65a20.7,20.7,0,0,1,3.87.14c.58.27-.15,5.64-.15,5.64l1.31,1.2-1.22,1.19s.06,5.44-.71,5.9-3.43,0-3.43,0v-1.36A7.63,7.63,0,0,0,86,152.2c.36-.29.33-5,.33-5l.58-.63-.58-.69s.1-3.39,0-4.32c0-.62-2.56-.65-2.56-.65Z"/><path class="cls-13" d="M76.22,139.65a20.7,20.7,0,0,0-3.87.14c-.59.27.15,5.64.15,5.64l-1.32,1.2,1.23,1.19s-.06,5.44.71,5.9,3.42,0,3.42,0v-1.36A7.57,7.57,0,0,1,74,152.2c-.36-.29-.33-5-.33-5l-.58-.63.58-.69s-.11-3.39,0-4.32c0-.62,2.56-.65,2.56-.65Z"/><path class="cls-85" d="M347.86,87.33,340.5,68.06l19.09,4Zm-6.57-18.59L348,86.32l10.7-13.94Z"/><rect class="cls-85" x="398.19" y="355.71" width="10.94" height="0.5" transform="matrix(0.59, -0.81, 0.81, 0.59, -122.08, 471.08)"/><polygon class="cls-85" points="339.92 279.16 332.97 270.51 333.36 270.2 340.31 278.85 339.92 279.16"/><polygon class="cls-85" points="125.58 339.88 111.72 329.82 112.01 329.42 125.88 339.48 125.58 339.88"/><rect class="cls-85" x="110.23" y="334.4" width="17.13" height="0.5" transform="translate(-219.4 226.36) rotate(-52.7)"/><rect class="cls-85" x="98.59" y="184.72" width="0.5" height="10.14" transform="translate(-115.15 189.01) rotate(-62.28)"/><polygon class="cls-85" points="448.05 71.37 447.68 71.04 458.05 59.21 458.42 59.54 448.05 71.37"/><rect class="cls-85" x="248.43" y="99.55" width="0.5" height="10.41" transform="translate(-20.63 121.73) rotate(-26.45)"/><rect class="cls-85" x="171.13" y="261.73" width="15.54" height="0.5" transform="translate(-126.41 175.82) rotate(-39.91)"/></g></g></g></svg>