<svg version="1.1" id="Layer_1" xmlns="http://www.w3.org/2000/svg" x="0" y="0" viewBox="0 0 525 90" style="enable-background:new 0 0 525 90" xml:space="preserve"><style>.st0{fill:#fff}</style><g id="Layer_2"><path class="st0" d="M100.3 64.9V22.1h9.1v42.8h-9.1zm46.3 0h-8.9V45.8c.1-1.9-.3-3.7-1.3-5.3-.9-1.2-2.5-1.9-4-1.8-2.5 0-4.3.8-5.4 2.5-1.1 1.7-1.7 4.4-1.7 8.3v15.4h-8.9V32.2h6.8l1.2 4.2h.5c1-1.6 2.4-2.8 4.1-3.6 1.9-.8 3.9-1.3 6-1.2 3.8 0 6.7 1 8.7 3.1s3 5 3 8.9l-.1 21.3zm19.8-6.5c1.9-.1 3.8-.4 5.6-1V64c-2.6 1.1-5.4 1.6-8.2 1.5-3.6 0-6.2-.9-7.8-2.7s-2.4-4.5-2.5-8.1V38.9h-4.3v-3.8l4.9-3 2.6-6.9h5.7v7h9.2v6.7h-9.2v15.8c-.1 1.1.3 2.1 1.1 2.8.8.7 1.9 1 2.9.9zm23.9 7.1c-5.3 0-9.4-1.5-12.4-4.4-3-2.9-4.4-7-4.4-12.4 0-5.5 1.4-9.7 4.1-12.7s6.5-4.5 11.4-4.5c4.6 0 8.2 1.3 10.8 4 2.6 2.7 3.9 6.3 3.9 10.9v4.3h-21.1c0 2.2.8 4.3 2.2 5.9 1.6 1.5 3.7 2.3 5.9 2.1 1.9 0 3.8-.2 5.6-.6 1.9-.5 3.7-1.1 5.5-2V63c-1.6.8-3.3 1.4-5 1.7-2.2.6-4.4.8-6.5.8zM189 37.9c-1.7-.1-3.3.6-4.4 1.8-1.2 1.4-1.8 3.2-1.9 5.1h12.5c.1-1.9-.5-3.7-1.7-5.1-1.2-1.2-2.8-1.8-4.5-1.8zm37-6.3c1 0 2 .1 3 .3l-.7 8.4c-.9-.2-1.8-.3-2.6-.3-2.4-.1-4.8.6-6.7 2.2-1.7 1.6-2.5 3.9-2.4 6.2v16.7h-8.9V32.2h6.8l1.3 5.5h.4c1-1.8 2.4-3.3 4.1-4.4 1.7-1.1 3.7-1.7 5.7-1.7zm16.4 33.3L230 32.2h9.4l6.3 18.7c.7 2.2 1.1 4.4 1.3 6.7h.2c.2-2.3.6-4.5 1.3-6.7l6.3-18.7h9.3L251.6 65h-9.2zm25.7-41.2c0-2.9 1.6-4.4 4.9-4.4 3.2 0 4.9 1.5 4.9 4.4.1 1.2-.4 2.4-1.2 3.2-1 .8-2.3 1.3-3.6 1.2-3.4 0-5-1.4-5-4.4zm9.3 41.3h-8.9V32.2h8.9V65zm21 .5c-5.3 0-9.4-1.5-12.4-4.4-3-2.9-4.5-7-4.5-12.4 0-5.5 1.4-9.7 4.1-12.7 2.7-3 6.5-4.5 11.4-4.5 4.6 0 8.2 1.3 10.8 4 2.6 2.7 3.9 6.3 3.9 10.9v4.3h-21.2c0 2.2.8 4.3 2.2 5.9 1.6 1.5 3.7 2.3 5.9 2.1 1.9 0 3.8-.2 5.6-.6 1.9-.5 3.7-1.1 5.5-2V63c-1.6.8-3.3 1.4-5 1.7-1.9.6-4.1.8-6.3.8zm-1.2-27.6c-1.7-.1-3.3.6-4.5 1.8-1.2 1.4-1.8 3.2-1.9 5.1h12.5c.1-1.9-.5-3.7-1.7-5.1-1.1-1.2-2.7-1.8-4.4-1.8zm45.6 27-2.5-11.5-3.4-14.4h-.2l-6 25.9h-9.6l-9.3-32.7h8.9l3.8 14.5c.6 2.6 1.2 6.2 1.9 10.8h.2c.2-2.4.5-4.7 1-7.1l.5-2.5 4-15.7h9.8l3.8 15.7c.1.4.2 1.1.4 1.9s.3 1.7.5 2.7c.2.9.3 1.9.4 2.8s.2 1.6.2 2.2h.2c.2-1.4.5-3.3.9-5.8.5-2.5.8-4.1 1-5l3.9-14.5h8.8L352.6 65l-9.8-.1zm52.6-35.8c-3.1-.1-6.1 1.3-7.9 3.9-1.9 2.6-2.8 6.1-2.8 10.7 0 9.6 3.6 14.3 10.8 14.3 3.7-.1 7.4-.9 10.9-2.2v7.6c-3.7 1.5-7.7 2.3-11.8 2.2-6.2 0-11-1.9-14.3-5.7s-5-9.2-5-16.3c-.1-4 .7-8 2.4-11.7 1.5-3.2 3.9-5.9 7-7.7 3.3-1.9 7-2.8 10.7-2.7 4.4 0 8.6 1.1 12.5 3l-2.9 7.4c-1.6-.8-3.2-1.4-4.8-2-1.6-.6-3.2-.8-4.8-.8zm36.9 35.8-1.7-4.4h-.2c-1.2 1.7-2.8 3-4.6 3.9-2 .8-4.1 1.2-6.2 1.1-2.7.2-5.4-.8-7.4-2.7-1.8-1.8-2.7-4.4-2.7-7.7 0-3.5 1.2-6 3.6-7.7s6.1-2.6 11-2.7l5.7-.2v-1.4c0-3.3-1.7-5-5.1-5-3.2.1-6.4 1-9.2 2.4l-3-6c3.9-2 8.2-3 12.5-3 4.4 0 7.8 1 10.1 2.9s3.5 4.8 3.5 8.7V65h-6.3zm-2.6-15.2-3.5.1c-2-.1-4 .4-5.8 1.4-1.3.9-2 2.4-1.9 3.9 0 2.5 1.4 3.8 4.3 3.8 1.8.1 3.6-.5 5-1.8 1.3-1.2 1.9-3 1.9-4.8v-2.6zm23.5-2.6 3.9-5 9.2-10h10.1l-13 14.2 13.8 18.5h-10.3l-9.4-13.3-3.8 3.1v10.2h-8.9V19.4h8.9v20.4l-.5 7.4v-.1z"/><path class="st0" d="M493.4 65.5c-5.3 0-9.4-1.5-12.4-4.4-3-2.9-4.5-7-4.5-12.4 0-5.5 1.4-9.7 4.1-12.7 2.7-3 6.6-4.5 11.4-4.5 4.6 0 8.2 1.3 10.8 4 2.6 2.7 3.9 6.3 3.9 10.9v4.3h-21.2c0 2.2.8 4.3 2.2 5.9 1.6 1.5 3.7 2.3 5.9 2.1 1.9 0 3.8-.2 5.6-.6 1.9-.5 3.7-1.1 5.5-2V63c-1.6.8-3.3 1.4-5 1.7-1.9.6-4.1.8-6.3.8zm-1.2-27.6c-1.7-.1-3.3.6-4.5 1.8-1.2 1.4-1.8 3.2-1.9 5.1h12.5c.1-1.9-.5-3.7-1.7-5.1-1.1-1.2-2.7-1.8-4.4-1.8zM62.4 12.7c-2.1.2-4.2.4-6.2.6-12.9 1.5-24 4.5-32.4 8.4-1.9.9-3.8 1.9-5.6 3v37.6l61.1 14.9V39.1L62.4 12.7zm11.3 57.5L23.8 58V46.7l49.9 12.4v11.1zm0-16.8L23.8 41V29.8l49.9 12.4v11.2z"/></g></svg>