<svg width="308" height="64" fill="none" xmlns="http://www.w3.org/2000/svg"><g clip-path="url(#a)" fill="#fff"><path d="M79.581 12.494h16.527a25.815 25.815 0 0 1 11.613 2.412 17.078 17.078 0 0 1 7.459 6.99 21.682 21.682 0 0 1 2.591 10.855 22.028 22.028 0 0 1-2.568 10.92 16.93 16.93 0 0 1-7.437 6.99 25.973 25.973 0 0 1-11.658 2.413H79.58v-40.58Zm15.79 32.093a12.148 12.148 0 0 0 8.933-2.948 12.051 12.051 0 0 0 2.948-8.933 11.938 11.938 0 0 0-2.948-8.933 12.22 12.22 0 0 0-8.933-2.904H90.1v23.718h5.27Zm54.18-3.685h-17.509a6.074 6.074 0 0 0 2.01 3.976 7.103 7.103 0 0 0 4.467 1.206 14.204 14.204 0 0 0 7.995-2.591l2.591 6.7a16.738 16.738 0 0 1-5.137 2.457 20.898 20.898 0 0 1-5.985.893 18.718 18.718 0 0 1-8.465-1.787 12.803 12.803 0 0 1-5.494-5.136 15.386 15.386 0 0 1-1.92-7.84 15.824 15.824 0 0 1 1.809-7.637 13.063 13.063 0 0 1 5.069-5.249 14.45 14.45 0 0 1 7.348-1.876 12.5 12.5 0 0 1 9.603 3.953 15.123 15.123 0 0 1 3.574 10.63l.044 2.301Zm-17.621-4.935h8.934c-.224-3.38-1.713-5.07-4.467-5.07-2.754 0-4.243 1.69-4.467 5.07ZM172.957 24.8h10.027l-12.64 28.296h-8.465L149.44 24.8h10.72l6.231 15.946 6.566-15.946Zm27.983 0h6.7v7.549h-6.7V53.14H190.6V32.304h-5.204V24.8h5.204a11.839 11.839 0 0 1 3.886-8.933 18.112 18.112 0 0 1 10.809-3.417l3.507-.224.58 7.437-2.702.112a9.183 9.183 0 0 0-4.467.983 3.422 3.422 0 0 0-1.273 3.06v.982Zm15.745 26.956a13.018 13.018 0 0 1-5.471-5.159 15.377 15.377 0 0 1-1.921-7.839 15.23 15.23 0 0 1 1.921-7.816 12.931 12.931 0 0 1 5.449-5.092 19.9 19.9 0 0 1 16.482 0 12.931 12.931 0 0 1 5.449 5.092 15.23 15.23 0 0 1 1.921 7.816 15.377 15.377 0 0 1-1.921 7.84 13.062 13.062 0 0 1-5.561 5.158 19.54 19.54 0 0 1-16.437 0h.089Zm13.691-12.998c0-4.763-1.825-7.146-5.472-7.146-3.647 0-5.472 2.383-5.472 7.146 0 4.764 1.825 7.147 5.472 7.147 3.647 0 5.472-2.383 5.472-7.147Zm14.807 14.338V12.494h10.184v40.602h-10.184Zm15.946-42.5h10.72v9.268h-10.72v-9.268Zm.223 42.433V24.8h10.251v28.297l-10.251-.067Zm22.289-1.273a13.02 13.02 0 0 1-5.472-5.159 15.398 15.398 0 0 1-1.921-7.839 15.23 15.23 0 0 1 1.921-7.816 12.931 12.931 0 0 1 5.449-5.092 19.9 19.9 0 0 1 16.482 0 12.928 12.928 0 0 1 5.45 5.092 15.23 15.23 0 0 1 1.92 7.816 15.387 15.387 0 0 1-1.92 7.84 13.066 13.066 0 0 1-5.517 5.158 19.54 19.54 0 0 1-16.437 0h.045Zm13.69-12.998c0-4.763-1.825-7.146-5.472-7.146-3.647 0-5.471 2.383-5.471 7.146 0 4.764 1.824 7.147 5.471 7.147 3.647 0 5.465-2.383 5.45-7.147h.022Z"/><g clip-path="url(#b)"><path d="M61.313 35.24a28.44 28.44 0 0 1-25.68 28.55s-18.436.472-24.536 0a6.37 6.37 0 0 1-5.114-3.857 7.804 7.804 0 0 0 2.714.65c1.996.18 5.405.27 10.16.27 6.975 0 14.578-.202 14.646-.202h.134a29.942 29.942 0 0 0 19.76-9.846 31.4 31.4 0 0 0 7.916-17.315v1.75Z"/><path d="M59.07 28.982a28.439 28.439 0 0 1-25.725 28.529s-18.436.47-24.536 0A6.863 6.863 0 0 1 3 50.558V7.115A6.863 6.863 0 0 1 8.944.229c6.122-.516 24.536 0 24.536 0a28.44 28.44 0 0 1 25.59 28.753Z"/></g></g><defs><clipPath id="a"><path fill="#fff" d="M0 0h308v64H0z"/></clipPath><clipPath id="b"><path fill="#fff" transform="translate(-.09)" d="M0 0h64v64H0z"/></clipPath></defs></svg>