<svg width="288" height="64" fill="none" xmlns="http://www.w3.org/2000/svg"><path d="M112.293 20.387c1.761 1.08 3.251 2.565 4.199 4.59 1.084 2.026 1.625 4.456 1.625 7.157 0 2.7-.541 4.995-1.761 7.02-1.083 2.026-2.709 3.511-4.741 4.456-2.031 1.08-4.47 1.62-7.043 1.62-1.49 0-2.845-.27-4.199-.81-1.355-.404-2.574-1.215-3.522-2.16v14.042h-7.857V19.307h6.773l.678 2.97c2.98-2.43 6.23-3.646 9.617-3.646 2.303 0 4.47.54 6.231 1.756Zm-4.335 16.742c1.355-1.215 2.032-2.835 2.032-4.86 0-2.026-.677-3.646-1.896-4.996-1.219-1.35-2.845-1.89-4.606-1.89-1.49 0-2.845.27-3.928.945-1.084.54-1.896 1.485-2.574 2.7v6.076c.407 1.215 1.22 2.16 2.167 2.836a6.947 6.947 0 0 0 3.793 1.08c2.032 0 3.658-.676 5.012-1.89Zm14.765-12.019c1.219-1.89 2.844-3.511 5.012-4.591 2.167-1.08 4.605-1.755 7.314-1.755 2.709 0 5.148.54 7.315 1.755 2.032 1.08 3.657 2.7 4.876 4.726 1.219 2.025 1.761 4.185 1.761 6.75 0 2.566-.542 4.726-1.761 6.752-1.219 2.025-2.709 3.645-4.876 4.725-2.032 1.08-4.606 1.756-7.315 1.756-2.709 0-5.147-.54-7.314-1.62-2.168-1.08-3.793-2.566-5.012-4.591a14.573 14.573 0 0 1-1.761-7.022c0-2.565.677-4.86 1.761-6.886Zm7.992 11.746c1.083 1.35 2.573 1.89 4.334 1.89 1.761 0 3.251-.675 4.335-1.89 1.083-1.215 1.625-2.97 1.625-4.86 0-2.026-.542-3.646-1.625-4.861-1.219-1.35-2.574-2.026-4.47-2.026-1.761 0-3.116.676-4.335 1.89-1.083 1.351-1.625 2.971-1.625 4.997 0 1.89.542 3.51 1.761 4.86ZM161.734.132v44.422h-7.856V.132h7.856Zm32.238 19.848-15.983 36.455h-7.586l5.96-13.096-11.378-23.36h8.94l6.502 14.583 6.502-14.582h7.043Zm30.071-.001v24.574c0 2.295-.677 4.455-2.031 6.345-1.356 1.89-3.117 3.376-5.419 4.456-2.302 1.08-4.739 1.62-7.449 1.62-2.032 0-3.793-.27-5.283-.675-1.491-.54-2.709-1.08-3.657-1.62-1.085-.675-2.169-1.485-3.387-2.565l4.605-5.401a13.244 13.244 0 0 0 3.388 2.43c1.082.54 2.573.945 4.198.945 2.031 0 3.658-.54 5.012-1.485 1.354-.945 2.032-2.43 2.032-4.186v-3.51a8.86 8.86 0 0 1-3.522 3.105c-1.625.81-3.522 1.216-5.69 1.216-2.166 0-4.334-.54-6.231-1.756-1.895-1.08-3.386-2.7-4.604-4.725-1.084-2.026-1.761-4.186-1.761-6.617 0-2.43.541-4.725 1.761-6.75 1.218-2.026 2.709-3.646 4.74-4.861 1.896-1.215 3.929-1.755 6.095-1.755 2.033 0 3.794.27 5.419.81 1.625.54 2.845 1.35 3.658 2.295l.812-1.89h7.314ZM216.052 35.1v-6.076c-.543-1.215-1.355-2.16-2.573-2.835a8.434 8.434 0 0 0-4.201-1.08c-1.895 0-3.52.675-4.876 1.89-1.353 1.215-2.032 2.835-2.032 4.86 0 1.89.679 3.646 2.032 4.996 1.356 1.35 2.981 2.026 4.876 2.026 3.117-.135 5.419-1.35 6.774-3.78Zm14.493-9.988c1.22-2.025 2.846-3.51 5.012-4.725 2.168-1.08 4.606-1.756 7.315-1.756 2.71 0 5.147.54 7.314 1.756 2.032 1.08 3.657 2.7 4.877 4.725 1.084 2.026 1.761 4.186 1.761 6.752 0 2.565-.543 4.725-1.761 6.75-1.084 2.026-2.709 3.646-4.877 4.726-2.031 1.08-4.604 1.756-7.314 1.756-2.709 0-5.147-.54-7.315-1.62-2.166-1.08-3.792-2.566-5.012-4.591-1.219-2.026-1.761-4.32-1.761-7.156 0-2.296.542-4.591 1.761-6.617Zm7.857 11.747c1.084 1.35 2.574 1.89 4.334 1.89 1.761 0 3.251-.674 4.335-1.89 1.084-1.215 1.625-2.97 1.625-4.86 0-2.026-.541-3.646-1.625-4.861-1.084-1.215-2.574-1.89-4.335-1.89-1.76 0-3.114.675-4.334 1.89-1.22 1.215-1.761 2.97-1.761 4.86.136 1.891.677 3.511 1.761 4.861Zm46.191-16.07c1.625 1.35 2.302 3.105 2.437 5.266v18.498h-7.992V29.025c-.136-2.43-1.354-3.645-3.658-3.645-1.759 0-3.25.81-4.334 2.565-1.082 1.755-1.625 3.916-1.625 6.481v10.127h-7.857V19.979h7.18l.541 3.915c.948-1.62 2.168-2.835 3.793-3.78 1.626-.945 3.522-1.35 5.691-1.35 2.302 0 4.334.675 5.824 2.025ZM55.401 19.577c-1.354-.81-3.115-.81-4.605 0l-10.566 6.21-7.179 4.051-10.566 6.211c-1.354.81-3.115.81-4.605 0l-8.398-4.86c-1.355-.81-2.303-2.296-2.303-3.916v-9.587c0-1.62.813-3.105 2.303-3.915l8.263-4.726c1.354-.81 3.115-.81 4.605 0l8.263 4.726c1.354.81 2.303 2.295 2.303 3.915v6.211l7.179-4.185V13.5c0-1.62-.813-3.106-2.303-3.916L22.485.674c-1.354-.81-3.115-.81-4.605 0L2.303 9.585C.813 10.395 0 11.88 0 13.501v17.958c0 1.62.813 3.105 2.303 3.915l15.577 8.911c1.355.81 3.116.81 4.605 0l10.566-6.075 7.18-4.186 10.565-6.076c1.354-.81 3.115-.81 4.605 0l8.263 4.726c1.355.81 2.303 2.295 2.303 3.915v9.587c0 1.62-.813 3.105-2.303 3.915l-8.263 4.861c-1.354.81-3.115.81-4.605 0l-8.263-4.726c-1.354-.81-2.303-2.295-2.303-3.915V40.1l-7.179 4.185v6.211c0 1.62.813 3.106 2.303 3.916l15.577 8.912c1.355.81 3.116.81 4.606 0l15.577-8.912c1.355-.81 2.303-2.295 2.303-3.916V32.54c0-1.62-.813-3.106-2.303-3.916l-15.713-9.046Z" fill="#fff"/></svg>