<svg width="240" height="76" fill="none" xmlns="http://www.w3.org/2000/svg"><path d="M95.397 59.755h-2.78v-42.67h-13.06c-.949 0-1.423.473-1.423 1.421v3.168H75.42V17.99c0-1.336.237-2.241.71-2.715.518-.517 1.445-.776 2.781-.776h30.193c1.336 0 2.241.259 2.715.776.518.474.776 1.38.776 2.715v3.685h-2.715v-3.168c0-.948-.474-1.422-1.423-1.422h-13.06v42.671Zm16.18-16.098c0-5.216 1.531-9.354 4.591-12.414 3.06-3.06 6.767-4.59 11.12-4.59 4.181 0 7.414 1.422 9.698 4.267 2.328 2.758 3.491 6.25 3.491 10.474l-.129 1.745h-25.926c0 4.57 1.315 8.168 3.944 10.797 2.629 2.63 5.927 3.944 9.892 3.944a15.03 15.03 0 0 0 5.108-.905c1.681-.647 2.952-1.358 3.814-2.133l1.099-1.035 1.487 2.263c-.345.345-.84.776-1.487 1.293-.517.431-1.832 1.078-3.944 1.94a15.464 15.464 0 0 1-6.077 1.228c-4.698 0-8.664-1.552-11.896-4.655-3.19-3.19-4.785-7.263-4.785-12.22Zm3.039-3.04h23.017c-.173-3.663-1.207-6.486-3.104-8.469-1.896-1.983-4.331-2.974-7.306-2.974-3.189 0-5.969 1.035-8.34 3.104-2.327 2.025-3.75 4.805-4.267 8.34Zm55.598 19.138H146.81v-2.198l19.59-24.633 2.521-2.974v-.13c-1.034.087-2.133.13-3.297.13h-14.547c-.948 0-1.422.474-1.422 1.422v2.78h-2.651v-2.974c0-1.336.28-2.284.84-2.844.604-.604 1.573-.905 2.91-.905h21.852v2.198L152.952 54.26l-2.586 2.974v.129c1.12-.086 2.241-.13 3.362-.13h16.163c.948 0 1.422-.473 1.422-1.422v-2.78h2.651v2.974c0 1.336-.302 2.306-.905 2.91-.56.56-1.509.84-2.845.84Zm7.784-16.357c0-4.698 1.617-8.664 4.849-11.896 3.276-3.233 7.241-4.85 11.897-4.85 4.655 0 8.598 1.617 11.831 4.85 3.276 3.232 4.914 7.198 4.914 11.896 0 4.827-1.638 8.879-4.914 12.155-3.233 3.319-7.176 4.978-11.831 4.978-4.612 0-8.578-1.66-11.897-4.978-3.232-3.32-4.849-7.37-4.849-12.155Zm2.845 0c0 4.095 1.336 7.543 4.009 10.344 2.715 2.759 6.012 4.138 9.892 4.138 3.922 0 7.198-1.38 9.827-4.138 2.715-2.801 4.073-6.25 4.073-10.344 0-3.966-1.358-7.306-4.073-10.021-2.629-2.716-5.905-4.074-9.827-4.074-3.88 0-7.177 1.358-9.892 4.074-2.673 2.758-4.009 6.099-4.009 10.02Zm35.976 12.155-.453-.582 1.94-2.004c.388.517.905 1.099 1.552 1.745 2.37 2.112 5.193 3.168 8.469 3.168 2.285 0 4.181-.539 5.69-1.616 1.508-1.12 2.263-2.608 2.263-4.461 0-2.673-2.199-4.828-6.595-6.465-4.267-1.595-7.133-2.953-8.599-4.074-2.241-1.724-3.383-3.793-3.427-6.206 0-2.673.992-4.742 2.975-6.207 1.982-1.465 4.676-2.198 8.081-2.198.819 0 1.703.108 2.651.323.948.172 1.918.453 2.909.84 1.035.345 1.875.906 2.522 1.681.689.776 1.034 1.66 1.034 2.651v2.457h-2.715v-1.552c0-1.206-.69-2.133-2.069-2.78-1.379-.646-2.78-.97-4.203-.97-5.56 0-8.34 1.854-8.34 5.56 0 2.716 2.177 4.893 6.53 6.53 4.138 1.552 6.897 2.78 8.276 3.686 2.543 1.767 3.814 4.008 3.814 6.724 0 2.543-1.034 4.633-3.103 6.271-2.112 1.638-4.698 2.457-7.758 2.457-2.802-.043-5.194-.603-7.177-1.681-1.939-1.078-3.362-2.177-4.267-3.297ZM35.435 74.698c-5.33 0-9.22-1.284-11.672-3.851a11.892 11.892 0 0 1-3.664-8.3c-.028-.955.193-1.9.642-2.743a4.747 4.747 0 0 1 1.75-1.752 6.106 6.106 0 0 1 5.45 0 4.667 4.667 0 0 1 1.741 1.752c.462.839.691 1.786.665 2.743a5.238 5.238 0 0 1-.933 3.21 4.35 4.35 0 0 1-2.219 1.623 6.057 6.057 0 0 0 3.502 2.183 17.35 17.35 0 0 0 4.773.688 10.64 10.64 0 0 0 6.011-1.797 10.503 10.503 0 0 0 3.922-5.31 23.07 23.07 0 0 0 1.284-7.949 21.807 21.807 0 0 0-1.4-8.264 10.201 10.201 0 0 0-4.05-5.135 10.77 10.77 0 0 0-5.836-1.669 11.09 11.09 0 0 0-5.054 1.716L26.6 43.722v-1.88L43.442 19.25H20.099v23.446a8.388 8.388 0 0 0 1.284 4.797 4.424 4.424 0 0 0 3.921 1.879 6.557 6.557 0 0 0 3.875-1.366 13.989 13.989 0 0 0 3.245-3.338c.08-.226.227-.42.422-.56a.862.862 0 0 1 .562-.21c.406.037.79.2 1.098.467.39.436.602 1.002.595 1.587a9.273 9.273 0 0 1-.21 1.167 11.302 11.302 0 0 1-4.004 4.97 9.931 9.931 0 0 1-5.616 1.706c-5.054 0-8.555-.995-10.503-2.987a11.192 11.192 0 0 1-2.895-8.17v-23.39H0v-4.356h11.928V4.96l-2.73-2.733V0h7.924l2.977 1.54v13.353l30.836-.094 3.07 3.081-18.909 19c1.143-.46 2.346-.75 3.572-.864a15.48 15.48 0 0 1 6.91 1.973 14.194 14.194 0 0 1 5.954 5.313 18.745 18.745 0 0 1 2.684 6.407c.401 1.802.616 3.64.642 5.487a22.947 22.947 0 0 1-2.334 10.165 14.908 14.908 0 0 1-7.004 7.004 22.662 22.662 0 0 1-10.085 2.333Z" fill="#2C7DF7"/></svg>