<svg width="1099" height="399" xmlns="http://www.w3.org/2000/svg" style="display:block;margin-left:auto;margin-right:auto"><defs><clipPath id="c_1"><path d="M0 0h1099v399H0Z"/></clipPath><clipPath id="c0"><path d="M0 399V0h1099.7v399Z"/></clipPath><style>.g0{fill:#000222}.g1{fill:#d10}.g2{fill:#fff}</style></defs><path d="M0 0v399h1099V0Z" fill="#FFF"/><g clip-path="url(#c_1)"><path fill-rule="evenodd" d="M226.5 154.8c-7.4-7.3-22.1-16.7-22.1-16.7s-2.9-17.1-4.9-23.5c13.3-12.8 15.2-14.7 28-27 1 24.5.5 37.3-1 67.2Zm10.3 51.6c-8.8 2.4-9.8 2.9-18.6 5.4-9.4-5.4-17.7-8.4-25.5-7.4.9-4.9 2.4-8.4 3.9-12.8 16.6-2.4 28.9 6.4 40.2 14.8Z" class="g0"/><path fill-rule="evenodd" d="M372.2 199.5c0 45.8-18.2 89.7-50.5 122.1-9.3 9.3-19.5 17.4-30.5 24.3h-.1l-59.2-73.8 49.1 5.4s23.5 2.4 28.9 0c4.9-1.9 31.4-39.2 31.4-39.2s-76.1-48.1-102.1-74.6c3-44.7-3.4-104.1-3.4-103.6-19.1 19.1-21.6 22.1-40.7 39.8-8.4-27-12.3-36.3-20.6-63.3-25.1 20.6-44.2 55.4-57.9 96.2-3 3.3-5.9 6.8-8.8 10.5-1.8 2.5-3.7 5-5.5 7.6-3.7 5.2-7.2 10.8-10.6 16.5-2.4 4.1-4.8 8.3-7 12.6-16 29.9-29.1 64.3-40.4 95.2-.1-.1-.2-.3-.2-.4-11.3-23.3-17.3-49-17.3-75.3 0-45.8 18.2-89.8 50.6-122.2 32.4-32.4 76.3-50.5 122.1-50.5s89.8 18.1 122.2 50.5c32.3 32.4 50.5 76.4 50.5 122.2Z" class="g0"/><path fill-rule="evenodd" d="M226.5 154.8c-7.4-7.3-22.1-16.7-22.1-16.7s-2.9-17.1-4.9-23.5c13.3-12.8 15.2-14.7 28-27 1 24.5.5 37.3-1 67.2Zm10.3 51.6c-8.8 2.4-9.8 2.9-18.6 5.4-9.4-5.4-17.7-8.4-25.5-7.4.9-4.9 2.4-8.4 3.9-12.8 16.6-2.4 28.9 6.4 40.2 14.8Z" class="g1"/><path fill-rule="evenodd" d="M372.2 199.5c0 45.8-18.2 89.7-50.5 122.1-9.3 9.3-19.5 17.4-30.5 24.3h-.1l-59.2-73.8 49.1 5.4s23.5 2.4 28.9 0c4.9-1.9 31.4-39.2 31.4-39.2s-76.1-48.1-102.1-74.6c3-44.7-3.4-104.1-3.4-103.6-19.1 19.1-21.6 22.1-40.7 39.8-8.4-27-12.3-36.3-20.6-63.3-25.1 20.6-44.2 55.4-57.9 96.2-3 3.3-5.9 6.8-8.8 10.5-1.8 2.5-3.7 5-5.5 7.6-3.7 5.2-7.2 10.8-10.6 16.5-2.4 4.1-4.8 8.3-7 12.6-16 29.9-29.1 64.3-40.4 95.2-.1-.1-.2-.3-.2-.4-11.3-23.3-17.3-49-17.3-75.3 0-45.8 18.2-89.8 50.6-122.2 32.4-32.4 76.3-50.5 122.1-50.5s89.8 18.1 122.2 50.5c32.3 32.4 50.5 76.4 50.5 122.2Z" class="g1"/><path fill-rule="evenodd" d="M226.5 154.8c-7.4-7.3-22.1-16.7-22.1-16.7s-2.9-17.1-4.9-23.5c13.3-12.8 15.2-14.7 28-27 1 24.5.5 37.3-1 67.2Zm10.3 51.6c-8.8 2.4-9.8 2.9-18.6 5.4-9.4-5.4-17.7-8.4-25.5-7.4.9-4.9 2.4-8.4 3.9-12.8 16.6-2.4 28.9 6.4 40.2 14.8Z" class="g2"/><path fill-rule="evenodd" d="M236.8 206.4c-8.8 2.4-9.8 2.9-18.6 5.4-9.4-5.4-17.7-8.4-25.5-7.4.9-4.9 2.4-8.4 3.9-12.8 16.6-2.4 28.9 6.4 40.2 14.8Z" class="g3"/><path fill-rule="evenodd" d="m231.9 272.1 59.2 73.8h.1Zm-187.8 2.7c0 .1.1.3.2.4 11.3-30.9 24.4-65.3 40.4-95.2-16.1 29.8-29.3 64-40.6 94.8Z" class="g0"/><g clip-path="url(#c0)"><path fill-rule="evenodd" d="M321.7 321.6c-9.3 9.3-19.5 17.4-30.5 24.3h-.1l-59.2-73.8 49.1 5.4s23.5 2.4 28.9 0c4.9-1.9 31.4-39.2 31.4-39.2s-76.1-48.1-102.1-74.6c3-44.7-3.4-104.1-3.4-103.6-19.1 19.1-21.6 22.1-40.7 39.8-8.3-27-12.3-36.3-20.6-63.3-25.1 20.6-44.2 55.4-57.9 96.2-3 3.3-5.9 6.8-8.8 10.5-1.8 2.5-3.7 5-5.5 7.6-3.7 5.2-7.2 10.8-10.6 16.5-2.4 4.1-4.8 8.3-7 12.6-1 1.8-2 3.7-3 5.6-14.6 28.6-26.8 60.6-37.4 89.6-.1-.1-.2-.3-.2-.4-11.3-23.3-17.3-49-17.3-75.3 0-45.8 18.2-89.8 50.6-122.2 32.4-32.4 76.3-50.5 122.1-50.5s89.8 18.1 122.2 50.5c32.3 32.4 50.5 76.4 50.5 122.2s-18.2 89.7-50.5 122.1m-122.2-207c13.3-12.8 15.2-14.7 28-27 1 24.5.5 37.3-1 67.2-7.4-7.3-22.1-16.7-22.1-16.7s-2.9-17.1-4.9-23.5m61.3 247.3C155 400.2 78.5 329.7 62.2 305.1c.1-.2.1-.4.1-.6C77 242.3 95.2 168 124.4 146c15.3-26.5 19.7-65.8 47.1-86.4 6.9 20.6 17.7 63.3 25.1 83.9 32.4 32.4 81.4 72.7 114.3 89.4 3.4 1.9 7.8 15.7 7.8 15.7l-13.2 16.6L164.2 251c-3.2-.3-6.3-.4-9.5-.4-9.1 0-18.4 1.1-29.3 2.8 6.9-17.1 21.6-30.9 21.6-30.9s-13.7-8.3-24.1-9.7c3-6.9 10.9-15.8 12.8-18.2-3.9 1.4-32.4 14.2-35.3 25 13.7 3.4 23.5 7.8 23.5 7.8s-15.2 15.3-18.1 41.8c0 0 45.1-6.9 79-2.5 1 .5 1.5.5 2 .5l17.6.5 56.1 93.4.5.7q-.1.1-.2.1m74.4-298.1c-36-35.9-84.8-56.2-135.7-56.2-50.9 0-99.7 20.3-135.7 56.2-35.9 36-56.2 84.8-56.2 135.7 0 50.9 20.3 99.7 56.2 135.6 36 36.1 84.8 56.3 135.7 56.3 50.9 0 99.7-20.2 135.7-56.3 36-35.9 56.2-84.7 56.2-135.6 0-50.9-20.2-99.7-56.2-135.7Z" class="g3"/><path fill-rule="evenodd" d="M196.6 191.6c16.6-2.4 28.9 6.4 40.2 14.8-8.8 2.4-9.8 2.9-18.6 5.4-9.4-5.4-17.7-8.4-25.5-7.4.9-4.9 2.4-8.4 3.9-12.8m-71.2 61.8c10.9-1.7 20.2-2.8 29.3-2.8 3.2 0 6.3.1 9.5.4l141.3 14.2 13.2-16.6s-4.4-13.8-7.8-15.7c-32.9-16.7-81.9-57-114.3-89.4-7.4-20.6-18.2-63.3-25.1-83.9-27.4 20.6-31.8 59.9-47.1 86.4-29.2 22-47.4 96.3-62.1 158.5 0 .2 0 .4-.1.6 16.3 24.6 92.8 95.1 198.6 56.8q.1 0 .2-.1l-.5-.7-56.1-93.4-17.7-.5c-.4 0-.9 0-1.9-.5-33.9-4.4-79 2.5-79 2.5 2.9-26.5 18.1-41.8 18.1-41.8s-9.8-4.4-23.5-7.8c2.9-10.8 31.4-23.6 35.3-25-1.9 2.4-9.8 11.3-12.8 18.2 10.4 1.4 24.1 9.7 24.1 9.7s-14.7 13.8-21.6 30.9Z" class="g2"/></g><path d="M484.4 40.3h22.3l20.2 94.1 15.6-94.1h19L539 161.1h-21.8l-21.7-99.5-21.6 99.5h-21.8L429.6 40.3h19l15.6 94.1Zm81.7 79.6c0-24.5 7-41.7 35.3-41.7 28.4 0 35.4 17.2 35.4 41.7 0 24.5-7 41.7-35.4 41.7-28.3 0-35.3-17.2-35.3-41.7m52.7 0c0-17.1-2.3-26.8-17.4-26.8-15.1 0-17.3 9.7-17.3 26.8 0 17 2.2 26.7 17.3 26.7 15.1 0 17.4-9.7 17.4-26.7Zm31.7 20.2V40.3h17.8v99.6c0 4.5 1.6 6.1 6.7 6.1v14.5s-1.6.3-3.5.3c-14.5 0-21-7-21-20.7Zm91.4-84.7c-2.9-1-6.3-1.6-11.8-1.6-8 0-14.4 3-14.4 12.1v14.2h22.5v15.1h-22.5v64.5h-17.8V95.2h-14.5v-11l14.5-4.1V64.3c0-17 9.6-25.9 30.9-25.9 5.2 0 10 .8 13.1 1.9Zm52.5 39c-1.9-.6-5.1-.9-8.8-.9-9.4 0-16.4 2.2-20.3 4.7v61.5h-17.9V80.1h10.5l2.9 6.3c5.9-4.7 14.8-8.2 25.2-8.2 3.3 0 6.2.4 8.4.9Zm36.6-.9c-10.3 0-18.8 2.3-24.8 4.7V82.8c6.2-2.7 16.7-4.6 26.1-4.6 26.1 0 32.2 11.4 32.2 28.3v53.2h-10.6l-2.8-6.4c-6.4 5.3-15.3 8.3-24.1 8.3-20.5 0-27.4-12.7-27.4-25.5 0-17.2 11.2-24.5 29.2-25.9l17.8-1.5v-3.9c0-8.2-3.8-11.3-15.6-11.3m-1.1 29.4c-8 1-12.6 4-12.6 12.3 0 6 2.6 11.8 12.3 11.8 7.1 0 12.1-2.1 17-5.3V121Zm143.3-19.4c0-7.5-4.3-10.2-11.3-10.2-7.8 0-13.1 2.4-17.2 4.9.3 2.9.5 5.6.5 8.8v52.7h-17.9v-56.2c0-7.5-4.1-10.2-11.3-10.2-7.3 0-12.5 2.2-16.7 4.6v61.8h-17.8V80.1H892l2.9 6.3c6.6-5.2 16.2-8.2 24-8.2 10.7 0 17 3 20.4 7.9 7.1-5.1 16.7-7.9 25.5-7.9 18.7 0 26.2 10.2 26.2 25.3v56.2h-17.8Zm-525.8 199h51.9v16.4h-69.7V199.5h17.8Zm86.8-49.8c-10.4 0-18.8 2.4-24.9 4.8V242c6.2-2.7 16.7-4.6 26.1-4.6 26.2 0 32.2 11.5 32.2 28.3v53.2h-10.5l-2.9-6.3c-6.3 5.2-15.3 8.2-24 8.2-20.6 0-27.4-12.7-27.4-25.4 0-17.2 11.1-24.6 29.1-26l17.9-1.4v-4c0-8.1-3.8-11.3-15.6-11.3m-1.1 29.4c-8 1-12.6 4-12.6 12.3 0 6.1 2.5 11.8 12.2 11.8 7.2 0 12.1-2.1 17.1-5.3v-20.7Zm100.3 36.8v-54.6c0-8.1-4.2-11.8-12.6-11.8-8.3 0-14 2.3-18.3 4.6v61.8h-17.9v-79.6h10.5l2.9 6.4c8.1-5.6 17.2-8.3 25.8-8.3 20.2 0 27.4 10 27.4 25.3v56.2Zm64.9-21c-3.3 0-6.5-.1-9.2-.6-1.3 1.2-2.2 3-2.2 4.6 0 2.7 1.4 4.1 4.7 4.6l28.9 3.5c15.7 1.9 21.3 9.1 21.3 22.3 0 20.5-21.7 28.3-44.8 28.3-21.3 0-36.7-6.8-36.7-23.2 0-10.8 8.1-17.2 16.5-19.7v-.2c-4-2.2-6.2-6.7-6.2-11 0-5.9 3.5-10 7.2-12.9-9.1-5.1-12.8-14.3-12.8-25.9 0-18.2 9-30.3 33.3-30.3 5.8 0 10.5.6 14.7 1.9h27.5v11.3l-11.3 3.2c1.6 4.1 2.4 8.8 2.4 13.9 0 18.1-8.9 30.2-33.3 30.2m-5.6 23.4c-8.1 1.4-15.4 5.1-15.4 12.8 0 8.9 6.4 12.4 21 12.4 14 0 26.3-4.2 26.3-13.7 0-5.4-2.7-7.8-9.2-8.6Zm5.6-37.6c13.4 0 16.4-7 16.4-16 0-9.1-3-16.1-16.4-16.1-13.4 0-16.4 7-16.4 16.1 0 9 3 16 16.4 16Zm70.4-44.4v54.6c0 8.2 4.1 11.8 12.6 11.8 8.3 0 14-2.2 18.3-4.6v-61.8h17.8v79.6h-10.5l-2.9-6.3c-8.1 5.5-17.2 8.2-25.8 8.2-20.2 0-27.3-10-27.3-25.3v-56.2Zm91.5 13.4c-10.3 0-18.7 2.4-24.8 4.8V242c6.2-2.7 16.7-4.6 26.1-4.6 26.1 0 32.2 11.5 32.2 28.3v53.2h-10.5l-2.9-6.3c-6.4 5.2-15.3 8.2-24 8.2-20.6 0-27.4-12.7-27.4-25.4 0-17.2 11.1-24.6 29.1-26l17.8-1.4v-4c0-8.1-3.8-11.3-15.6-11.3m-1.1 29.4c-7.9 1-12.5 4-12.5 12.3 0 6.1 2.5 11.8 12.2 11.8 7.2 0 12.1-2.1 17-5.3v-20.7Zm81.9 15.8c-3.4 0-6.6-.1-9.3-.6-1.2 1.2-2.2 3-2.2 4.6 0 2.7 1.4 4.1 4.8 4.6l28.8 3.5c15.8 1.9 21.3 9.1 21.3 22.3 0 20.5-21.6 28.3-44.7 28.3-21.3 0-36.8-6.8-36.8-23.2 0-10.8 8.1-17.2 16.6-19.7v-.2c-4-2.2-6.2-6.7-6.2-11 0-5.9 3.5-10 7.1-12.9-9-5.1-12.7-14.3-12.7-25.9 0-18.2 8.9-30.3 33.3-30.3 5.7 0 10.5.6 14.6 1.9h27.6v11.3l-11.3 3.2c1.6 4.1 2.3 8.8 2.3 13.9 0 18.1-8.9 30.2-33.2 30.2m-5.6 23.4c-8.1 1.4-15.4 5.1-15.4 12.8 0 8.9 6.3 12.4 21 12.4 14 0 26.2-4.2 26.2-13.7 0-5.4-2.7-7.8-9.2-8.6Zm5.6-37.6c13.3 0 16.4-7 16.4-16 0-9.1-3.1-16.1-16.4-16.1-13.4 0-16.4 7-16.4 16.1 0 9 3 16 16.4 16Zm86.3-46.3c28 0 32.4 18.5 32.4 40.4 0 2.8-.1 5.3-.3 7.9h-49.5c.3 11.9 4.6 19.7 20.9 19.7 10 0 18.3-1.8 25.3-4.8v15.3c-9.1 3.8-19.4 4.9-28 4.9-26.6 0-36.2-15.9-36.2-41.7 0-25.6 9.4-41.7 35.4-41.7m-17.4 35.8h31.9c0-10.8-.7-20.3-14.5-20.3-13.1 0-16.8 8.4-17.4 20.3Zm63.2-51.2h4.9l4.6 11.8 4.5-11.8h5v17.5h-3.2v-13.4h-.1l-4.9 13.4h-2.6l-5-13.4v13.4h-3.2Zm-12.8 2.9h-5.4V222h14v2.9h-5.4v14.6h-3.2Z" class="g3"/></g></svg>